<?xml version="1.0" encoding="UTF-8"?>
<svg width="1200pt" height="1200pt" version="1.1" viewBox="0 0 1200 1200" xmlns="http://www.w3.org/2000/svg">
 <g>
  <path d="m600 1200c-24 0-48-6-69.602-18l-420-230.4c-45.598-25.203-74.398-73.203-74.398-126v-451.2c0-52.801 28.801-100.8 74.398-126l420-230.4c43.199-24 94.801-24 138 0l420 230.4c45.602 25.199 74.398 73.199 74.398 126v451.2c0 52.801-28.801 100.8-74.398 126l-420 230.4c-20.398 12.004-44.398 18.004-68.398 18.004zm0-1152c-15.602 0-31.199 3.6016-46.801 12l-420 230.4c-31.199 16.801-49.199 49.199-49.199 84v451.2c0 34.801 19.199 67.199 49.199 84l420 230.4c28.801 15.602 63.602 15.602 92.398 0l420-230.4c31.199-16.801 49.199-49.199 49.199-84l0.003906-451.2c0-34.801-19.199-67.199-50.398-84l-418.8-230.4c-14.402-8.3984-30-12-45.602-12z"/>
  <path d="m624 912h-96c-13.199 0-24-10.801-24-24s10.801-24 24-24h96c13.199 0 24 10.801 24 24s-10.801 24-24 24z"/>
  <path d="m348 912h-96c-13.199 0-24-10.801-24-24s10.801-24 24-24h96c13.199 0 24 10.801 24 24s-10.801 24-24 24z"/>
  <path d="m888 912h-96c-13.199 0-24-10.801-24-24s10.801-24 24-24h96c13.199 0 24 10.801 24 24s-10.801 24-24 24z"/>
  <path d="m768 1032h-108c-13.199 0-24-10.801-24-24s10.801-24 24-24h108c13.199 0 24 10.801 24 24s-10.801 24-24 24z"/>
  <path d="m528 1032h-108c-13.199 0-24-10.801-24-24s10.801-24 24-24h108c13.199 0 24 10.801 24 24s-10.801 24-24 24z"/>
  <path d="m1044 804h-888c-13.199 0-24-10.801-24-24s10.801-24 24-24h888c13.199 0 24 10.801 24 24s-10.801 24-24 24z"/>
  <path d="m478.8 584.4c-12 0-22.801-4.8008-31.199-12-13.199-13.199-19.199-32.398-14.398-51.602 6-26.398 16.801-48 31.199-63.602 37.199-43.199 97.199-43.199 99.602-43.199 13.199 0 24 10.801 24 24 0 2.3984 0 67.199-36 108-14.398 16.801-33.602 28.801-57.602 36-6.0039 1.2031-10.801 2.4023-15.602 2.4023zm1.1992-48m-1.1992-4.7969v4.8008c14.398-4.8008 26.398-12 34.801-21.602 12-13.199 18-32.398 21.602-48-12 3.6016-25.199 9.6016-36 21.602-8.4023 9.5977-15.602 25.199-20.402 43.199z"/>
  <path d="m378 488.4c-3.6016 0-6 0-9.6016-1.1992-18-3.6016-33.602-18-39.602-36-8.3984-25.199-10.801-49.199-7.1992-70.801 9.6016-56.398 60-87.602 62.398-88.801 10.801-7.1992 26.398-3.6016 32.398 8.3984 1.1992 2.3984 34.801 57.602 25.199 111.6-3.6016 21.602-14.398 42-30 61.199-8.3945 9.6016-20.395 15.602-33.594 15.602zm-3.6016-52.797c1.1992 2.3984 2.3984 3.6016 2.3984 3.6016 9.6016-12 15.602-24 18-36 3.6016-18-1.1992-37.199-7.1992-51.602-8.3984 9.6016-16.801 21.602-19.199 37.199-1.1992 13.199 0 30 6 46.801z"/>
  <path d="m388.8 668.4c-55.199 0-103.2-42-105.6-43.199-9.6016-8.3984-10.801-24-2.3984-33.602 1.1992-2.3984 40.801-46.801 97.199-46.801 21.602 0 44.398 6 68.398 18 16.801 9.6016 28.801 26.398 28.801 44.398 1.1992 16.801-7.1992 32.398-21.602 40.801-19.199 13.203-41.996 20.402-64.797 20.402 1.1992 0 0 0 0 0zm-49.199-63.598c13.199 8.3984 32.398 15.602 50.398 15.602 13.199 0 25.199-3.6016 38.398-12 0-1.1992-1.1992-2.3984-3.6016-3.6016-16.801-8.3984-32.398-13.199-45.602-13.199-15.594 0-29.996 6-39.594 13.199z"/>
  <path d="m238.8 513.6c-55.199 0-103.2-42-105.6-43.199-9.6016-8.3984-10.801-24-2.3984-33.602 1.1992-2.3984 40.801-46.801 97.199-46.801 21.602 0 44.398 6 68.398 18 16.801 9.6016 28.801 26.398 28.801 44.398 1.1992 16.801-7.1992 32.398-21.602 40.801-20.398 13.199-41.996 20.402-64.797 20.402zm-50.402-63.602c13.199 8.3984 32.398 15.602 50.398 15.602 13.199 0 25.199-3.6016 38.398-12 0-1.1992-1.1992-2.3984-3.6016-3.6016-16.801-8.3984-32.398-13.199-45.602-13.199-14.391 1.1992-28.793 7.1992-39.594 13.199z"/>
  <path d="m529.2 793.2c-13.199 0-24-10.801-24-24 0-130.8-98.398-264-238.8-322.8-12-4.8008-18-19.199-13.199-31.199s19.199-18 31.199-13.199c158.4 66 268.8 216 268.8 367.2 0 13.199-10.801 24-24 24z"/>
  <path d="m724.8 584.4c-4.8008 0-8.3984-1.1992-13.199-2.3984-24-7.1992-43.199-19.199-57.602-36-36-42-36-105.6-36-108 0-13.199 10.801-24 24-24 2.3984 0 61.199 0 99.602 43.199 14.398 16.801 25.199 38.398 31.199 63.602 4.8008 19.199-1.1992 38.398-14.398 51.602-10.801 7.1992-21.602 11.996-33.602 11.996zm-56.402-117.6c3.6016 15.602 9.6016 34.801 21.602 48 8.3984 9.6016 20.398 16.801 34.801 21.602 0-1.1992 1.1992-2.3984 0-4.8008-4.8008-18-10.801-32.398-20.398-43.199-9.6016-12.004-24.004-18.004-36.004-21.602z"/>
  <path d="m826.8 488.4c-13.199 0-25.199-4.8008-33.602-15.602-16.801-18-26.398-39.602-30-61.199-9.6016-54 24-109.2 25.199-111.6 7.1992-10.801 21.602-14.398 32.398-8.3984 2.3984 1.1992 52.801 32.398 62.398 88.801 3.6016 21.602 1.1992 45.602-7.1992 70.801-6 18-21.602 32.398-39.602 36-3.5938 0-7.1953 1.1992-9.5938 1.1992zm-10.801-136.8c-6 14.398-9.6016 33.602-7.1992 51.602 2.3984 12 8.3984 25.199 18 36 1.1992 0 2.3984-1.1992 2.3984-3.6016 6-18 7.1992-33.602 4.8008-46.801-1.1992-15.602-9.6016-27.602-18-37.199z"/>
  <path d="m814.8 668.4c-22.801 0-44.398-7.1992-66-20.398-14.398-8.3984-21.602-24-21.602-40.801 1.1992-19.199 12-36 28.801-44.398 24-12 46.801-18 68.398-18 57.602 0 96 44.398 97.199 46.801 8.3984 9.6016 7.1992 25.199-2.3984 33.602-1.1992 1.1953-49.199 43.195-104.4 43.195zm-38.402-60c13.199 7.1992 26.398 12 38.398 12 18 0 36-7.1992 50.398-15.602-10.801-7.1992-24-12-39.602-13.199-13.199 0-28.801 4.8008-45.602 13.199-2.3906 1.2031-3.5938 2.4023-3.5938 3.6016z"/>
  <path d="m966 513.6c-1.1992 0-1.1992 0 0 0-22.801 0-44.398-7.1992-66-20.398-14.398-8.3984-21.602-24-21.602-40.801 1.1992-19.199 12-36 28.801-44.398 24-12 46.801-18 68.398-18 57.602 0 96 44.398 97.199 46.801 8.3984 9.6016 7.1992 25.199-2.3984 33.602-1.1992 1.1953-50.398 43.195-104.4 43.195zm-39.602-60c13.199 7.1992 26.398 12 38.398 12 18 0 36-7.1992 50.398-15.602-10.801-7.1992-24-12-39.602-13.199-13.199 0-28.801 4.8008-45.602 13.199-2.3906 1.1992-3.5938 2.3984-3.5938 3.6016z"/>
  <path d="m675.6 793.2c-13.199 0-24-10.801-24-24 0-150 110.4-301.2 268.8-367.2 12-4.8008 26.398 1.1992 31.199 13.199 4.8008 12-1.1992 26.398-13.199 31.199-140.4 58.801-238.8 192-238.8 322.8 0 13.199-10.801 24-24 24z"/>
 </g>
</svg>
