<?xml version="1.0" encoding="UTF-8"?>
<svg width="1200pt" height="1200pt" version="1.1" viewBox="0 0 1200 1200" xmlns="http://www.w3.org/2000/svg">
 <g>
  <path d="m1096.4 248.34-420.01-230.58c-43.379-23.809-95.195-23.809-138.6 0l-420 230.58c-46.066 25.297-74.688 73.656-74.688 126.23v450.86c0 52.559 28.621 100.92 74.699 126.23l177.25 97.309c3.1445 3.1445 7.1758 5.3867 11.664 6.4062l231.09 126.85c21.707 11.914 45.492 17.867 69.301 17.867 23.785 0 47.605-5.9531 69.301-17.867l420-230.57c46.078-25.297 74.699-73.668 74.699-126.23l-0.003906-450.86c0-52.57-28.629-100.93-74.699-126.23zm-34.102 247.78h58.273c0.86328 0 1.6914-0.16797 2.5312-0.25391v233.15zm-474.11-123.64h-316.23v-44.566h316.25v44.566zm-340.23 48h364.25c13.246 0 24-10.754 24-24v-22.246l36.602 0.10938 0.50391 633.66h-353.14l-138.43-75.996v-557.61h42.215v22.078c0.003906 13.25 10.742 24.004 24.004 24.004zm790.09 508.45c-1.9297-0.50391-3.9336-0.85547-6.0234-0.85547h-227.88c-13.246 0-24 10.754-24 24s10.754 24 24 24h148.02l-43.824 24.059-104.2 0.003906c-13.246 0-24 10.754-24 24s10.754 24 24 24h16.766l-167.61 92.016c-28.945 15.863-63.48 15.863-92.398 0l-153.29-84.156h289.71c6.3594 0 12.48-2.5312 16.98-7.0312 4.5-4.5117 7.0195-10.621 7.0195-16.992l-0.5625-681.6c-0.011719-13.223-10.715-23.953-23.93-23.988l-60.648-0.16797v-22.32c0-13.246-10.754-24-24-24h-364.23c-13.246 0-24 10.754-24 24v22.5h-66.215c-13.246 0-24 10.754-24 24v554.61c-26.426-17.723-42.648-47.387-42.648-79.559l-0.003906-450.88c0-35.039 19.078-67.285 49.801-84.145l420-230.58c14.461-7.9453 30.324-11.902 46.199-11.902s31.738 3.9727 46.199 11.914l420 230.57c30.73 16.871 49.801 49.117 49.801 84.156v73.801c-0.83984-0.085937-1.668-0.25391-2.5312-0.25391l-351.17 0.003906c-13.246 0-24 10.754-24 24s10.754 24 24 24h22.766v310.23c0 13.246 10.754 24 24 24 13.246 0 24-10.754 24-24v-310.25h18.602l34.332 312.84c1.3438 12.289 11.746 21.383 23.82 21.383 0.875 0 1.7656-0.046875 2.6523-0.14453 13.188-1.4531 22.691-13.297 21.254-26.473l-33.758-307.62h28.738l58.32 314.61c2.1484 11.555 12.238 19.633 23.578 19.633 1.4414 0 2.9141-0.13281 4.3906-0.39453 13.031-2.4102 21.648-14.941 19.234-27.973l-56.695-305.86h28.055l82.57 316.28c2.8203 10.789 12.551 17.941 23.219 17.941 1.4297 0 2.8789-0.28906 4.332-0.55078-0.40625 9.0586-2.1016 17.844-4.9219 26.23h-313.73c-13.246 0-24 10.754-24 24 0 13.246 10.754 24 24 24h277.84c-2.8086 1.957-5.6406 3.8984-8.6875 5.5664z"/>
  <path d="m437.55 780.46h-220.36c-13.246 0-24 10.754-24 24 0 13.246 10.754 24 24 24h220.34c13.246 0 24-10.754 24-24 0-13.25-10.738-24-23.988-24z"/>
  <path d="m200.77 567.61c-0.035157 5.832 0.52734 57.984 31.273 93.145 12.707 14.508 29.531 25.066 50.016 31.355 2.6992 0.82812 5.4258 1.2734 8.1484 1.5469v34.969c0 13.246 10.754 24 24 24 13.246 0 24-10.754 24-24v-72.828c1.3672 0.10938 2.6992 0.39453 4.0781 0.39453 4.6328 0 9.3242-0.61328 13.98-1.8594h0.023438c27.227-7.3203 49.586-19.609 66.469-36.504 43.246-43.246 43.246-110.76 43.223-113.62-0.097656-13.117-10.715-23.723-23.82-23.82-2.8789-0.21484-70.414 0.011719-113.62 43.211-12.504 12.492-22.43 28.008-29.723 46.223-31.824-26.027-72.266-26.09-74.242-26.062-13.117 0.10938-23.727 10.73-23.809 23.848zm137.64 34.918c5.0898-18.973 13.188-34.117 24.07-44.988 14.977-14.977 35.652-22.262 52.152-25.801-3.5508 16.5-10.836 37.176-25.812 52.152-10.848 10.871-25.992 18.973-44.965 24.086-1.7539 0.44531-3.2383 0.13281-4.3906-1.043-1.1719-1.1758-1.5195-2.6523-1.0547-4.4062zm-64.164 9.9844c6.5273 7.4531 11.734 18.238 15.156 31.285-8.7109-3.5742-15.828-8.4961-21.238-14.664-7.4766-8.5547-12.215-20.219-15.133-31.285 7.4766 3.0742 15.121 7.7031 21.215 14.664z"/>
  <path d="m521.72 827.71c4.5 4.5 10.609 7.0312 16.969 7.0312s12.469-2.5312 16.969-7.0312l88.789-88.801c9.3711-9.3711 9.3711-24.574 0-33.938-9.3711-9.3711-24.562-9.3711-33.938 0l-71.82 71.82-18.359-18.359c-9.3711-9.3711-24.562-9.3711-33.938 0-9.3711 9.3594-9.3711 24.562 0 33.938z"/>
  <path d="m437.55 888.14h-220.36c-13.246 0-24 10.754-24 24 0 13.246 10.754 24 24 24h220.34c13.246 0 24-10.754 24-24 0-13.25-10.738-24-23.988-24z"/>
  <path d="m521.72 959.4c4.6914 4.6914 10.824 7.0312 16.969 7.0312 6.1445 0 12.277-2.3398 16.969-7.0312l88.789-88.789c9.3711-9.3711 9.3711-24.562 0-33.938-9.3711-9.3711-24.562-9.3711-33.938 0l-71.82 71.82-18.359-18.359c-9.3711-9.3711-24.562-9.3711-33.938 0-9.3711 9.3711-9.3711 24.562 0 33.938z"/>
 </g>
</svg>
