<?xml version="1.0" encoding="UTF-8" standalone="no"?>
<svg
   width="560.00403pt"
   height="560pt"
   version="1.1"
   viewBox="0 0 560.00403 560"
   id="svg14"
   sodipodi:docname="fertilizer.svg"
   inkscape:version="1.1.1 (3bf5ae0d25, 2021-09-20)"
   xmlns:inkscape="http://www.inkscape.org/namespaces/inkscape"
   xmlns:sodipodi="http://sodipodi.sourceforge.net/DTD/sodipodi-0.dtd"
   xmlns="http://www.w3.org/2000/svg"
   xmlns:svg="http://www.w3.org/2000/svg">
  <defs
     id="defs18" />
  <sodipodi:namedview
     id="namedview16"
     pagecolor="#ffffff"
     bordercolor="#666666"
     borderopacity="1.0"
     inkscape:pageshadow="2"
     inkscape:pageopacity="0.0"
     inkscape:pagecheckerboard="0"
     inkscape:document-units="pt"
     showgrid="false"
     inkscape:zoom="0.22982143"
     inkscape:cx="-419.89122"
     inkscape:cy="868.06526"
     inkscape:window-width="1920"
     inkscape:window-height="1017"
     inkscape:window-x="1912"
     inkscape:window-y="-8"
     inkscape:window-maximized="1"
     inkscape:current-layer="svg14" />
  <g
     id="g12"
     transform="translate(-70)">
    <path
       d="m 338.67,10.738 -0.0703,0.07031 -0.17188,0.16016 -0.60938,0.58984 c -0.52344,0.50391 -1.2734,1.2344 -2.2188,2.168 -1.8906,1.8633 -4.5625,4.5469 -7.7656,7.8711 -6.3789,6.6367 -14.93,15.918 -23.527,26.441 -8.5469,10.457 -17.426,22.488 -24.246,34.605 -6.5703,11.672 -12.41,25.441 -12.41,38.871 0,45.484 36.871,82.352 82.352,82.352 45.481,0 82.352,-36.867 82.352,-82.352 0,-13.43 -5.8398,-27.199 -12.41,-38.871 -6.8203,-12.117 -15.699,-24.148 -24.246,-34.605 -8.5977,-10.523 -17.148,-19.805 -23.527,-26.441 -3.2031,-3.3242 -5.875,-6.0078 -7.7656,-7.8711 -0.94531,-0.93359 -1.6953,-1.6641 -2.2188,-2.168 L 361.57826,10.96847 361.40638,10.80831 361.33605,10.738 350.00405,0 Z m 11.332,11.953 11.332,-11.953 z M 338.67,10.738 350.002,22.691 Z m 11.332,35.344 c -5.75,6.043 -12.988,13.988 -20.188,22.797 -7.9258,9.6992 -15.516,20.102 -21.047,29.926 -5.7812,10.27 -8.1758,17.945 -8.1758,22.711 0,27.289 22.121,49.41 49.41,49.41 27.289,0 49.41,-22.121 49.41,-49.41 0,-4.7656 -2.3945,-12.441 -8.1758,-22.711 -5.5312,-9.8242 -13.121,-20.227 -21.047,-29.926 -7.1992,-8.8086 -14.438,-16.754 -20.188,-22.797 z"
       fill-rule="evenodd"
       id="path2" />
    <path
       d="m 201.77,378.82 c 9.0938,0 16.469,-7.375 16.469,-16.473 0,-9.0938 -7.375,-16.469 -16.469,-16.469 -9.0977,0 -16.473,7.375 -16.473,16.469 0,9.0977 7.375,16.473 16.473,16.473 z"
       id="path4" />
    <path
       d="m 284.12,411.77 c 0,9.0977 -7.375,16.469 -16.469,16.469 -9.0977,0 -16.473,-7.3711 -16.473,-16.469 0,-9.0979 7.375,-16.473 16.473,-16.473 9.0938,0 16.469,7.375 16.469,16.473 z"
       id="path6" />
    <path
       d="m 448.82,411.77 c 9.0977,0 16.469,-7.375 16.469,-16.473 0,-9.0938 -7.3711,-16.469 -16.469,-16.469 -9.0977,0 -16.473,7.375 -16.473,16.469 0,9.0977 7.375,16.473 16.473,16.473 z"
       id="path8" />
    <path
       d="M 630,510.59 C 630,537.879 607.879,560 580.59,560 H 119.41 C 92.121,560 70,537.879 70,510.59 V 345.88 c 0,-27.289 22.121,-49.414 49.41,-49.414 h 59.297 c 40.652,-35.945 104.86,-25.918 132.24,21.988 l 39.055,68.344 39.055,-68.344 c 27.375,-47.906 91.586,-57.934 132.24,-21.988 h 59.297 c 27.289,0 49.41,22.125 49.41,49.414 z m -49.41,16.469 c 9.0938,0 16.469,-7.375 16.469,-16.469 V 345.88 c 0,-9.0977 -7.375,-16.473 -16.469,-16.473 h -64.355 c -5.3477,0 -10.473,-2.1211 -14.254,-5.9023 -24.957,-24.957 -66.812,-19.352 -84.324,11.293 l -46.859,82.004 c -9.1953,16.09 -32.398,16.09 -41.594,0 l -46.859,-82.004 c -17.512,-30.645 -59.367,-36.25 -84.324,-11.293 -3.7812,3.7812 -8.9062,5.9023 -14.25,5.9023 h -64.359 c -9.0938,0 -16.469,7.375 -16.469,16.473 v 164.71 c 0,9.0938 7.375,16.469 16.469,16.469 z"
       fill-rule="evenodd"
       id="path10" />
  </g>
</svg>
