<?xml version="1.0" encoding="UTF-8"?>
<svg width="1200pt" height="1200pt" version="1.1" viewBox="0 0 1200 1200" xmlns="http://www.w3.org/2000/svg">
 <g>
  <path d="m600 1200c-24 0-48-6-69.602-18l-420-230.4c-45.598-25.203-74.398-73.203-74.398-126v-451.2c0-52.801 28.801-100.8 74.398-126l420-230.4c43.199-24 94.801-24 138 0l420 230.4c45.602 25.199 74.398 73.199 74.398 126v451.2c0 52.801-28.801 100.8-74.398 126l-420 230.4c-20.398 12.004-44.398 18.004-68.398 18.004zm0-1152c-15.602 0-31.199 3.6016-46.801 12l-420 230.4c-31.199 16.801-49.199 49.199-49.199 84v451.2c0 34.801 19.199 67.199 49.199 84l420 230.4c28.801 15.602 63.602 15.602 92.398 0l420-230.4c31.199-16.801 50.398-49.199 50.398-84l0.003906-451.2c0-34.801-19.199-67.199-50.398-84l-420-230.4c-14.402-8.3984-30-12-45.602-12z"/>
  <path d="m771.6 751.2c0 16.57-13.434 30-30 30-16.57 0-30-13.43-30-30 0-16.566 13.43-30 30-30 16.566 0 30 13.434 30 30"/>
  <path d="m922.8 781.2c0 16.57-13.434 30-30 30-16.57 0-30-13.43-30-30 0-16.566 13.43-30 30-30 16.566 0 30 13.434 30 30"/>
  <path d="m952.8 684c0 16.57-13.434 30-30 30-16.57 0-30-13.43-30-30s13.43-30 30-30c16.566 0 30 13.43 30 30"/>
  <path d="m332.4 346.8c0 16.566-13.43 30-30 30-16.566 0-30-13.434-30-30 0-16.57 13.434-30 30-30 16.57 0 30 13.43 30 30"/>
  <path d="m243.6 630c0 16.57-13.434 30-30 30-16.57 0-30-13.43-30-30s13.43-30 30-30c16.566 0 30 13.43 30 30"/>
  <path d="m422.4 316.8c0 16.566-13.43 30-30 30-16.566 0-30-13.434-30-30 0-16.57 13.434-30 30-30 16.57 0 30 13.43 30 30"/>
  <path d="m831.6 286.8c0 16.566-13.434 30-30 30-16.57 0-30-13.434-30-30 0-16.57 13.43-30 30-30 16.566 0 30 13.43 30 30"/>
  <path d="m892.8 236.4c0 16.57-13.434 30-30 30-16.57 0-30-13.43-30-30 0-16.566 13.43-30 30-30 16.566 0 30 13.434 30 30"/>
  <path d="m1060.8 360c0 16.57-13.434 30-30 30-16.57 0-30-13.43-30-30s13.43-30 30-30c16.566 0 30 13.43 30 30"/>
  <path d="m972 316.8c0 16.566-13.43 30-30 30s-30-13.434-30-30c0-16.57 13.43-30 30-30s30 13.43 30 30"/>
  <path d="m1060.8 751.2c0 16.57-13.434 30-30 30-16.57 0-30-13.43-30-30 0-16.566 13.43-30 30-30 16.566 0 30 13.434 30 30"/>
  <path d="m494.4 781.2c0 16.57-13.43 30-30 30-16.566 0-30-13.43-30-30 0-16.566 13.434-30 30-30 16.57 0 30 13.434 30 30"/>
  <path d="m752.4 242.4c0 16.57-13.43 30-30 30-16.566 0-30-13.43-30-30 0-16.566 13.434-30 30-30 16.57 0 30 13.434 30 30"/>
  <path d="m494.4 242.4c0 16.57-13.43 30-30 30-16.566 0-30-13.43-30-30 0-16.566 13.434-30 30-30 16.57 0 30 13.434 30 30"/>
  <path d="m362.4 236.4c0 16.57-13.43 30-30 30-16.566 0-30-13.43-30-30 0-16.566 13.434-30 30-30 16.57 0 30 13.434 30 30"/>
  <path d="m198 360c0 16.57-13.43 30-30 30s-30-13.43-30-30 13.43-30 30-30 30 13.43 30 30"/>
  <path d="m362.4 726c0 16.57-13.43 30-30 30-16.566 0-30-13.43-30-30s13.434-30 30-30c16.57 0 30 13.43 30 30"/>
  <path d="m198 781.2c0 16.57-13.43 30-30 30s-30-13.43-30-30c0-16.566 13.43-30 30-30s30 13.434 30 30"/>
  <path d="m704.4 1026h-240c-13.199 0-24-10.801-24-24s10.801-24 24-24h240c13.199 0 24 10.801 24 24s-10.797 24-24 24z"/>
  <path d="m1044 882h-888c-13.199 0-24-10.801-24-24s10.801-24 24-24h888c13.199 0 24 10.801 24 24s-10.801 24-24 24z"/>
  <path d="m600 864c-13.199 0-24-10.801-24-24v-177.6c0-13.199 10.801-24 24-24s24 10.801 24 24v177.6c0 13.199-10.801 24-24 24z"/>
  <path d="m652.8 678c-20.398 0-39.602-8.3984-54-22.801-19.199-19.199-27.602-48-20.398-74.398 13.199-48 33.602-86.398 63.602-115.2 75.602-75.602 193.2-75.602 198-74.398 13.199 0 24 10.801 24 24 0 4.8008 0 123.6-74.398 198-28.801 28.801-68.398 50.398-115.2 63.602-7.207-0.003907-14.406 1.1953-21.605 1.1953zm160.8-238.8c-34.801 3.6016-96 16.801-138 58.801-22.801 22.801-39.602 55.199-50.398 93.602-2.3984 10.801 0 21.602 7.1992 28.801 7.1992 7.1992 18 10.801 28.801 7.1992 39.602-10.801 70.801-27.602 93.602-50.398 41.996-40.805 55.195-103.2 58.797-138z"/>
  <path d="m562.8 750c-6 0-10.801-1.1992-16.801-2.3984-34.801-10.801-63.602-28.801-84-52.801-54-61.199-54-157.2-54-162 0-13.199 10.801-24 24-24 3.6016 0 90 0 145.2 62.398 20.398 24 36 55.199 45.602 93.602 6 25.199-1.1992 50.398-19.199 67.199-12 12-26.402 18-40.801 18zm-104.4-189.6c3.6016 27.602 13.199 72 39.602 102 15.602 18 36 30 62.398 38.398 1.1992 0 4.8008 1.1992 9.6016-2.3984 3.6016-3.6016 7.1992-12 6-21.602-7.1992-31.199-19.199-55.199-34.801-73.199-25.199-27.598-60-39.598-82.801-43.199z"/>
  <path d="m566.4 300c-19.199 0-36-13.199-39.602-31.199l-26.398-106.8c-3.6016-13.199 4.8008-26.398 18-28.801 13.199-3.6016 26.398 4.8008 28.801 18l25.199 102 58.801-1.1992 19.199-97.199c2.3984-13.199 15.602-21.602 27.602-19.199 13.199 2.3984 21.602 15.602 19.199 27.602l-20.398 102c-3.6016 19.199-20.398 33.602-39.602 33.602l-70.801 1.1953c1.2031 0 0 0 0 0z"/>
  <path d="m480 180c-13.199 0-24-10.801-24-22.801l-2.3984-82.801c0-13.199 9.6016-24 22.801-25.199 13.199 0 24 9.6016 25.199 22.801l1.1992 58.801 195.6-3.6016-0.003906-52.801c0-13.199 10.801-24 24-24 13.199 0 24 10.801 24 24v78c0 13.199-10.801 24-24 24z"/>
 </g>
</svg>
