<?xml version="1.0" encoding="UTF-8"?>
<svg width="1200pt" height="1200pt" version="1.1" viewBox="0 0 1200 1200" xmlns="http://www.w3.org/2000/svg">
 <g>
  <path d="m1033 436.84c0 15.629-12.668 28.297-28.297 28.297-15.625 0-28.297-12.668-28.297-28.297 0-15.629 12.672-28.297 28.297-28.297 15.629 0 28.297 12.668 28.297 28.297"/>
  <path d="m865.81 359.66c0 15.629-12.668 28.297-28.297 28.297s-28.297-12.668-28.297-28.297c0-15.629 12.668-28.297 28.297-28.297s28.297 12.668 28.297 28.297"/>
  <path d="m491.98 151.36c0 10.199-8.2695 18.469-18.469 18.469-10.199 0-18.469-8.2695-18.469-18.469s8.2695-18.469 18.469-18.469c10.199 0 18.469 8.2695 18.469 18.469"/>
  <path d="m498.88 215.93c0 10.199-8.2656 18.465-18.469 18.465-10.199 0-18.465-8.2656-18.465-18.465 0-10.203 8.2656-18.469 18.465-18.469 10.203 0 18.469 8.2656 18.469 18.469"/>
  <path d="m665.14 91.105c0 7.5586-6.1289 13.691-13.691 13.691s-13.691-6.1328-13.691-13.691c0-7.5625 6.1289-13.695 13.691-13.695s13.691 6.1328 13.691 13.695"/>
  <path d="m633.1 155.69c0 7.5625-6.1328 13.691-13.695 13.691-7.5586 0-13.691-6.1289-13.691-13.691s6.1328-13.691 13.691-13.691c7.5625 0 13.695 6.1289 13.695 13.691"/>
  <path d="m675.38 145.23c0 7.5625-6.1289 13.695-13.691 13.695s-13.691-6.1328-13.691-13.695c0-7.5586 6.1289-13.691 13.691-13.691s13.691 6.1328 13.691 13.691"/>
  <path d="m426.68 178.43c0 10.199-8.2695 18.465-18.469 18.465-10.199 0-18.469-8.2656-18.469-18.465 0-10.203 8.2695-18.469 18.469-18.469 10.199 0 18.469 8.2656 18.469 18.469"/>
  <path d="m1092.2 359.66c0 15.629-12.668 28.297-28.297 28.297-15.625 0-28.293-12.668-28.293-28.297 0-15.629 12.668-28.297 28.293-28.297 15.629 0 28.297 12.668 28.297 28.297"/>
  <path d="m906.97 472.85c0 15.629-12.668 28.297-28.297 28.297-15.629 0-28.297-12.668-28.297-28.297s12.668-28.297 28.297-28.297c15.629 0 28.297 12.668 28.297 28.297"/>
  <path d="m467.63 956.45c-12.758 0-26.676-0.49219-42.047-1.6094-71.293-5.1836-94.586-8.4844-134.76-23.543-12.406-4.6562-18.695-18.492-14.039-30.898 4.6445-12.406 18.445-18.684 30.898-14.051 33.574 12.602 50.594 15.48 121.39 20.617 63.035 4.5703 97.836-2.2695 134.7-9.5391l1.5859-0.30078c13.078-2.6406 25.633 5.8906 28.188 18.898 2.5664 13.008-5.8906 25.633-18.898 28.188l-1.5859 0.3125c-29.879 5.875-60.527 11.926-105.43 11.926z"/>
  <path d="m1156.5 870.47c1.7891-5.3984 3.2148-10.906 4.3555-16.523 1.8477-3.9492 2.6289-8.375 2.1133-12.863 0.57422-5.1758 1.0664-10.371 1.0664-15.648v-450.87c0-52.559-28.633-100.93-74.699-126.24l-420.01-230.57c-43.379-23.809-95.195-23.809-138.59 0l-420 230.58c-46.078 25.297-74.699 73.668-74.699 126.23v450.86c0 52.57 28.621 100.93 74.699 126.23l420 230.57c21.695 11.914 45.504 17.867 69.301 17.867s47.605-5.9531 69.301-17.867l126.56-69.48c1.8359-0.57422 3.6484-1.2852 5.375-2.3281 1.1172-0.67187 2.0742-1.4883 3.0469-2.293l16.105-8.8438c35.508 60.164 100.84 100.72 175.61 100.72 112.48 0 204-91.523 204-204 0-47.352-16.355-90.863-43.535-125.53zm-571.52-821.18c5.0039-0.80469 10.02-1.3438 15.059-1.3438 15.863 0 31.738 3.9727 46.199 11.914l50.785 27.875c-0.85156 4.3672-2.9414 8.1367-6.2383 10.559-0.45703 0.33594-0.9375 0.63672-1.4141 0.92578-7.3438 4.2852-11.879 12.133-11.914 20.641-0.035157 8.4961 4.4414 16.391 11.746 20.734 2.3281 1.3789 4.3438 3.2031 5.9531 5.3867 5.3281 7.2617 5.1602 16.824-0.35938 20.879-3.3477 2.4727-7.4141 1.9219-9.5508 1.3906-12.434-3.1562-25.129 4.0078-28.859 16.273-2.4492 8.0508-7.1641 14.809-13.609 19.535-10.789 7.9336-25.211 9.1211-38.797 3.9102 0.14453-2.5078 0.32422-5.0156 0.28906-7.5586-0.33594-27.516-10.754-53.449-28.754-73.285 9.8633-14.23 15.254-31.355 15.035-49.211-0.125-9.9062-2.1523-19.52-5.5703-28.625zm-44.426 17.844c1.2344 3.625 1.9453 7.4414 1.9922 11.363 0.15625 12.156-5.6992 23.52-15.66 30.422-6.5742 4.5586-10.465 12.098-10.332 20.102s4.2344 15.422 10.957 19.766c17.746 11.496 28.5 31.008 28.754 52.199 0.42188 34.691-27.191 63.254-61.559 63.672-12.504 0.23828-24.48-3.3828-34.848-10.234-9.9844-6.5898-23.293-4.8359-31.223 4.1289-4.5234 5.125-10.727 8.0039-17.438 8.0742-12.926 0.34766-23.988-10.547-24.156-23.879-0.046875-3.5391 0.69531-7.0312 2.207-10.344 3.5508-7.8594 2.6289-17.016-2.4375-24-5.0508-6.9961-13.488-10.656-22.043-9.7695-1.0547 0.12109-2.125 0.19141-3.2031 0.20312-11.051 0.10938-20.977-5.207-27.098-14.27-0.73047-1.0781-1.5859-2.0273-2.4609-2.9531zm105.68 1073c-28.922 15.863-63.469 15.863-92.387 0l-334.3-183.52c12.07-17.617 24.277-44.207 11.676-77.52-3.0977-8.1953-7.4297-16.895-11.617-25.32-5.375-10.801-15.383-30.926-14.293-37.309 0.50391-1.6914 3.7578-4.8594 6.3125-5.2422 1.7656-0.37109 7.7539 0.73047 23.531 16.246l2.4961 2.4375c51.84 49.453 163.55 55.355 248.16 51.613 20.258-0.89844 40.273-2.4375 59.594-4.3906 1.4414 0.26562 2.8789 0.40625 4.332 0.40625 3.0859 0 6.1445-0.64844 9.0234-1.8242 65.93-7.4883 121.34-19.848 142.81-30 0.15625-0.058593 15.863-6.6133 36.504-12.77 14.051-4.1875 20.125-4.7148 23.039-4.7266 5.2422 4.332 6.4922 7.1758 6.5039 7.6914 0.097656 3.7305-6.8281 11.41-20.566 22.848l-2.9414 2.4609c-27.898 23.578-47.785 44.688-54.168 71.039-9.5898 39.695 2.6406 56.965 24.816 88.297 9.1445 12.898 20.508 28.957 34.598 51.938l0.78125 1.2734c1.4766 2.4102 2.8438 4.6445 4.2617 6.9609zm-286.19-392.11c0-38.988 22.262-64.379 44.258-69.312 15.996-3.5898 31.668 4.6094 39.562 9.8047 13.297 8.7617 30.371 9.6953 44.531 2.4375 8.4375-4.3086 24.898-10.754 40.402-5.4375 13.309 4.5703 25.656 18.551 32.23 36.504 10.02 27.348 5.8906 59.578-11.387 88.547l-2.0039 3.3945c-2.8906 4.9453-5.7617 9.6367-8.7344 14.09-51.562 5.0391-108.67 6.9375-158.12 2.1016-0.20312-0.30078-0.33594-0.625-0.5625-0.91016-9.3828-12.352-20.172-32.738-20.172-81.219zm742.04 317.41c-3.8867 9.0977-12.742 14.543-22.066 14.555-3.1562 0-6.3594-0.63672-9.4453-1.957l-84-36c-8.8203-3.7773-14.543-12.453-14.543-22.055v-120c0-13.246 10.754-24 24-24s24 10.754 24 24v104.18l69.457 29.762c12.18 5.2188 17.82 19.32 12.598 31.512zm-106.05-273.46c-112.48 0-204 91.523-204 204 0 20.605 3.1328 40.488 8.8438 59.258l-3.3242 1.8203c-1.8125-2.9648-3.5742-5.8438-5.4844-8.9531l-0.78125-1.2852c-14.941-24.371-27.336-41.879-36.383-54.66-20.711-29.258-21.348-31.055-17.172-48.359 2.7617-11.461 13.812-24.516 38.113-45.035l2.6758-2.2422c14.578-12.133 38.977-32.438 38.258-61.812-0.43359-17.711-9.875-33.637-28.078-47.328-17.375-13.105-41.34-8.4844-64.633-1.5234-22.883 6.8164-41.051 14.316-42.719 15.098-12.984 6.1328-43.609 13.477-82.715 19.586 17.902-37.621 20.773-78.742 7.4766-115.02-11.605-31.668-34.68-56.113-61.727-65.387-8.6289-2.9648-17.746-4.4648-27.109-4.5703 6.7305-3.4336 12.973-7.5977 18.406-12.863 26.352-25.547 25.02-61.668 24.781-65.699-0.58984-9.9609-7.2969-18.48-16.715-21.48-4.9453-1.5977-34.262-9.7812-62.27 10.285-12.539 8.9766-22.379 21.973-29.508 38.867-11.699-9.4688-27.301-15.793-48.07-16.523-13.094-0.61328-24.383 9.9102-24.852 23.172s9.8984 24.383 23.172 24.852c11.652 0.40625 21.156 3.875 27.492 15.406-12.168-2.3164-24.301-2.3047-35.902 0.30078-48.121 10.801-81.73 58.559-81.73 116.15 0 28.141 3.3359 51.66 10.066 71.797-21.254-6-38.797-14.281-50.52-25.465l-1.9688-1.9062c-10.453-10.285-34.992-34.453-65.281-29.82-21.742 3.2539-41.363 20.82-46.668 41.746-5.9141 23.352 6.7422 48.816 17.93 71.281 3.8164 7.6914 7.4297 14.93 9.6484 20.82 5.1016 13.512-0.25391 24.457-9.1445 36.301l-42.277-23.207c-30.754-16.871-49.832-49.113-49.832-84.164v-450.87c0-35.039 19.078-67.285 49.801-84.156l157.57-86.496c0.66016 2.6172 1.6914 5.1719 3.2891 7.5352 10.738 15.898 26.496 27.168 44.352 32.293 0.70703 39.312 32.762 70.895 71.855 70.895h0.88672c2.8438-0.035157 5.6523-0.33594 8.4492-0.70703-2.7227 21.938-2.0898 52.117 1.7656 93.77 1.1523 12.445 11.617 21.781 23.867 21.781 0.74219 0 1.4883-0.035157 2.2422-0.097657 13.199-1.2227 22.906-12.91 21.684-26.113-5.375-58.066-3.0977-82.824-0.22656-93.395 8.3867 1.9062 17.004 2.9297 25.715 2.7969 34.895-0.43359 65.809-17.23 85.727-42.996 0.64844 15.012 0.12109 37.391-3 71.027-1.2344 13.199 8.4844 24.887 21.684 26.113 0.74219 0.058594 1.5 0.097656 2.2422 0.097656 12.254 0 22.727-9.3359 23.867-21.781 3.457-37.367 4.2344-65.258 2.4102-86.496 15.336-1.3789 30.168-6.5039 42.949-15.887 9.6484-7.0781 17.566-16.008 23.438-26.34 10.32-1.0078 20.184-4.6914 28.586-10.859 26.293-19.309 31.488-57.336 12.133-85.871 1.7031-2.6992 3.1211-5.5664 4.4141-8.4961l91.801 50.398c-14.977 17.039-25.152 37.801-29.074 60.289-4.4766-0.5625-8.9883-0.83984-13.547-0.83984-60.133 0-109.05 48.926-109.05 109.05 0 23.785 7.8945 46.871 22.117 65.676-13.43 25.402-20.449 53.664-20.449 82.766 0 97.836 79.609 177.45 177.45 177.45 24.672 0 48.602-5.1016 70.523-14.594 90.574 47.664 138.84 87.238 176.99 183.36-31.887-20.629-69.746-32.738-110.45-32.738zm120-55.188c-34.848-55.355-79.055-90.457-140.22-124.86 4.1523-3.6484 8.1953-7.4531 12.023-11.496 23.734 21.562 54.828 33.84 87.66 33.84 13.922 0 27.562-2.2578 40.547-6.4922v109.01zm0-161.43c-12.348 7.0195-26.172 10.906-40.547 10.906-27.551 0-53.172-13.703-68.555-36.66-4.4531-6.6484-11.93-10.645-19.934-10.645h-0.070313c-8.0391 0.023438-15.516 4.0664-19.945 10.766-24.109 36.457-64.488 58.211-108.02 58.211-71.375 0-129.45-58.066-129.45-129.45 0-25.895 7.6211-50.879 22.031-72.254 6.6602-9.8633 5.0742-23.113-3.7188-31.141-12.887-11.762-19.98-27.758-19.98-45.047 0-33.672 27.383-61.055 61.055-61.055 8.9414 0 17.676 1.9805 25.945 5.8672 7.8008 3.6719 17.004 2.8789 24.059-2.0898 7.0547-4.9805 10.895-13.355 10.055-21.961-0.23828-2.4727-0.37109-4.9688-0.37109-7.5 0-22.43 9.8047-43.43 26.617-57.805l191.03 104.87c30.723 16.883 49.801 49.125 49.801 84.164z"/>
 </g>
</svg>
