<?xml version="1.0" encoding="UTF-8" standalone="no"?>
<svg
   width="525.04602pt"
   height="525.04602pt"
   version="1.1"
   viewBox="0 0 525.04602 525.04602"
   id="svg166"
   sodipodi:docname="harvest-date.svg"
   inkscape:version="1.1.1 (3bf5ae0d25, 2021-09-20)"
   xmlns:inkscape="http://www.inkscape.org/namespaces/inkscape"
   xmlns:sodipodi="http://sodipodi.sourceforge.net/DTD/sodipodi-0.dtd"
   xmlns="http://www.w3.org/2000/svg"
   xmlns:svg="http://www.w3.org/2000/svg">
  <sodipodi:namedview
     id="namedview168"
     pagecolor="#ffffff"
     bordercolor="#666666"
     borderopacity="1.0"
     inkscape:pageshadow="2"
     inkscape:pageopacity="0.0"
     inkscape:pagecheckerboard="0"
     inkscape:document-units="pt"
     showgrid="false"
     inkscape:zoom="0.91928571"
     inkscape:cx="349.72805"
     inkscape:cy="432.40093"
     inkscape:window-width="1920"
     inkscape:window-height="1017"
     inkscape:window-x="1912"
     inkscape:window-y="-8"
     inkscape:window-maximized="1"
     inkscape:current-layer="svg166" />
  <defs
     id="defs68">
    <symbol
       id="g"
       overflow="visible">
      <path
         d="M 3.6562,-0.21875 C 3.4687,-0.125 3.26948,-0.05078 3.06245,0 2.86323,0.050781 2.6562,0.078125 2.43745,0.078125 c -0.66797,0 -1.1992,-0.17969 -1.5938,-0.54688 -0.38672,-0.375 -0.57812,-0.87891 -0.57812,-1.5156 0,-0.64453 0.19141,-1.1484 0.57812,-1.5156 0.39453,-0.375 0.92578,-0.5625 1.5938,-0.5625 0.21875,0 0.42578,0.027344 0.625,0.078125 0.20703,0.054687 0.40625,0.125 0.59375,0.21875 v 0.82812 c -0.1875,-0.125 -0.375,-0.21875 -0.5625,-0.28125 -0.17969,-0.0625 -0.37109,-0.09375 -0.57812,-0.09375 -0.36719,0 -0.65625,0.12109 -0.875,0.35938 -0.21094,0.23047 -0.3125,0.55469 -0.3125,0.96875 0,0.40625 0.10156,0.73047 0.3125,0.96875 0.21875,0.23047 0.50781,0.34375 0.875,0.34375 0.20703,0 0.39844,-0.023437 0.57812,-0.078125 0.1875,-0.0625 0.375,-0.16016 0.5625,-0.29688 z"
         id="path2" />
    </symbol>
    <symbol
       id="c"
       overflow="visible">
      <path
         d="M 2.6875,-2.1719 C 2.601562,-2.210963 2.51953,-2.242213 2.4375,-2.26565 2.351562,-2.285181 2.26953,-2.2969 2.1875,-2.2969 c -0.25,0 -0.44531,0.085937 -0.57812,0.25 -0.125,0.15625 -0.1875,0.38281 -0.1875,0.67188 V -2e-5 H 0.45313 v -2.9844 h 0.96875 v 0.48438 c 0.11328,-0.19531 0.25,-0.33594 0.40625,-0.42188 0.16406,-0.09375 0.35938,-0.14062 0.57812,-0.14062 h 0.10938 c 0.039063,0 0.09375,0.00781 0.15625,0.015625 z"
         id="path5" />
    </symbol>
    <symbol
       id="a"
       overflow="visible">
      <path
         d="m 3.4375,-1.5 v 0.26562 H 1.2031 c 0.03125,0.23047 0.11328,0.40234 0.25,0.51562 0.13281,0.10547 0.32812,0.15625 0.57812,0.15625 0.20703,0 0.41406,-0.023438 0.625,-0.078125 0.20703,-0.0625 0.42188,-0.15625 0.64062,-0.28125 v 0.73438 c -0.21875,0.09375 -0.44531,0.16406 -0.67188,0.20312 -0.23047,0.039062 -0.45312,0.0625 -0.67188,0.0625 -0.54297,0 -0.96484,-0.13281 -1.2656,-0.40625 -0.30469,-0.28125 -0.45312,-0.67188 -0.45312,-1.1719 0,-0.47656 0.14453,-0.85938 0.4375,-1.1406 0.30078,-0.28125 0.70703,-0.42188 1.2188,-0.42188 0.46875,0 0.84375,0.14062 1.125,0.42188 0.28125,0.28126 0.42188,0.66406 0.42188,1.1406 z M 2.46875,-1.82812 C 2.46875,-2.0039 2.410156,-2.14453 2.29687,-2.25 2.1914,-2.36328 2.05468,-2.42188 1.89062,-2.42188 c -0.1875,0 -0.33984,0.054687 -0.45312,0.15625 -0.11719,0.10547 -0.1875,0.25 -0.21875,0.4375 z"
         id="path8" />
    </symbol>
    <symbol
       id="f"
       overflow="visible">
      <path
         d="m 1.7969,-1.3438 c -0.19922,0 -0.35156,0.039062 -0.45312,0.10938 -0.09375,0.0625 -0.14062,0.16406 -0.14062,0.29688 0,0.11719 0.035156,0.21094 0.10938,0.28125 0.082031,0.0625 0.19531,0.09375 0.34375,0.09375 0.17578,0 0.32812,-0.0625 0.45312,-0.1875 0.125,-0.125 0.1875,-0.28516 0.1875,-0.48438 V -1.3438 Z M 3.2657,-1.70318 V -8e-5 H 2.29695 v -0.4375 c -0.125,0.17969 -0.27344,0.30859 -0.4375,0.39062 -0.15625,0.082031 -0.35156,0.125 -0.57812,0.125 -0.3125,0 -0.57031,-0.085938 -0.76562,-0.26562 -0.1875,-0.1875 -0.28125,-0.42188 -0.28125,-0.70312 0,-0.35156 0.11719,-0.61328 0.35938,-0.78125 0.23828,-0.16406 0.61719,-0.25 1.1406,-0.25 h 0.5625 v -0.0625 c 0,-0.15625 -0.0625,-0.26562 -0.1875,-0.32812 -0.11719,-0.070312 -0.29688,-0.10938 -0.54688,-0.10938 -0.21094,0 -0.40234,0.023437 -0.57812,0.0625 -0.17969,0.042969 -0.33984,0.10156 -0.48438,0.17188 v -0.71875 c 0.19531,-0.050781 0.39844,-0.085938 0.60938,-0.10938 0.20703,-0.03125 0.41406,-0.046875 0.625,-0.046875 0.53906,0 0.92969,0.10938 1.1719,0.32812 0.23828,0.21094 0.35938,0.55469 0.35938,1.0312 z"
         id="path11" />
    </symbol>
    <symbol
       id="b"
       overflow="visible">
      <path
         d="m 1.5,-3.8438 v 0.85938 h 0.98438 v 0.67188 H 1.5 v 1.2812 c 0,0.13672 0.023438,0.23047 0.078125,0.28125 0.0625,0.042969 0.17578,0.0625 0.34375,0.0625 h 0.48438 V -9e-5 h -0.8125 c -0.38672,0 -0.65625,-0.078125 -0.8125,-0.23438 -0.15625,-0.156255 -0.23438,-0.42188 -0.23438,-0.79688 v -1.2812 h -0.46875 v -0.67188 h 0.46875 v -0.85938 z"
         id="path14" />
    </symbol>
    <symbol
       id="k"
       overflow="visible">
      <path
         d="M 2.5,-2.5469 V -4.1563 H 3.45312 V -1e-4 H 2.5 v -0.4375 c -0.13672,0.17969 -0.28125,0.30859 -0.4375,0.39062 -0.15625,0.082031 -0.33984,0.125 -0.54688,0.125 -0.375,0 -0.68359,-0.14453 -0.92188,-0.4375 -0.23047,-0.28906 -0.34375,-0.67188 -0.34375,-1.1406 0,-0.45703 0.11328,-0.83203 0.34375,-1.125 0.23828,-0.28906 0.54688,-0.4375 0.92188,-0.4375 0.19531,0 0.375,0.042969 0.53125,0.125 0.16406,0.085938 0.31641,0.21484 0.45312,0.39062 z m -0.64062,1.9375 c 0.20703,0 0.36328,-0.070313 0.46875,-0.21875 0.11328,-0.15625 0.17188,-0.37891 0.17188,-0.67188 0,-0.28125 -0.058594,-0.49219 -0.17188,-0.64062 -0.10547,-0.15625 -0.26172,-0.23438 -0.46875,-0.23438 -0.19922,0 -0.35547,0.078125 -0.46875,0.23438 -0.10547,0.14844 -0.15625,0.35938 -0.15625,0.64062 0,0.29297 0.050781,0.51562 0.15625,0.67188 0.11328,0.14844 0.26953,0.21875 0.46875,0.21875 z"
         id="path17" />
    </symbol>
    <symbol
       id="j"
       overflow="visible">
      <path
         d="m 2.0469,-0.60938 c 0.20703,0 0.36328,-0.070313 0.46875,-0.21875 0.11328,-0.15625 0.17188,-0.37891 0.17188,-0.67188 0,-0.28125 -0.058594,-0.49219 -0.17188,-0.64062 -0.10547,-0.15625 -0.26172,-0.23438 -0.46875,-0.23438 -0.19922,0 -0.35547,0.078125 -0.46875,0.23438 -0.10547,0.14844 -0.15625,0.35938 -0.15625,0.64062 0,0.29297 0.050781,0.51562 0.15625,0.67188 0.11328,0.14844 0.26953,0.21875 0.46875,0.21875 z m -0.625,-1.9375 c 0.125,-0.17578 0.26562,-0.30469 0.42188,-0.39062 0.16406,-0.082031 0.35156,-0.125 0.5625,-0.125 0.36328,0 0.66406,0.14844 0.90625,0.4375 0.23828,0.29297 0.35938,0.66797 0.35938,1.125 0,0.46875 -0.12109,0.85156 -0.35938,1.1406 -0.24219,0.29297 -0.54297,0.4375 -0.90625,0.4375 -0.21094,0 -0.39844,-0.042969 -0.5625,-0.125 C 1.68753,-0.128931 1.5469,-0.25784 1.4219,-0.43752 V -2e-5 H 0.45315 v -4.1562 H 1.4219 Z"
         id="path20" />
    </symbol>
    <symbol
       id="i"
       overflow="visible">
      <path
         d="m 0.0625,-2.9844 h 0.95312 l 0.8125,2.0156 0.6875,-2.0156 H 3.46874 L 2.20314,0.2812 C 2.07814,0.61323 1.9297,0.84761 1.76564,0.98432 1.59767,1.11713 1.37502,1.18744 1.09376,1.18744 H 0.54688 V 0.54682 h 0.29688 c 0.16406,0 0.28516,-0.027344 0.35938,-0.078125 0.070313,-0.054688 0.12891,-0.14062 0.17188,-0.26562 l 0.03125,-0.09375 z"
         id="path23" />
    </symbol>
    <symbol
       id="h"
       overflow="visible">
      <path
         d="m 3.2812,-3.8594 v 0.84375 C 3.06245,-3.11721 2.84761,-3.19143 2.64058,-3.2344 2.42964,-3.285181 2.23433,-3.312525 2.04683,-3.312525 c -0.25,0 -0.43359,0.039062 -0.54688,0.10938 -0.11719,0.0625 -0.17188,0.16797 -0.17188,0.3125 0,0.10547 0.035156,0.1875 0.10938,0.25 0.082031,0.054687 0.22656,0.10156 0.4375,0.14062 l 0.4375,0.09375 c 0.44531,0.09375 0.75781,0.23047 0.9375,0.40625 0.1875,0.17969 0.28125,0.4375 0.28125,0.78125 0,0.4375 -0.13281,0.76562 -0.39062,0.98438 -0.26172,0.21094 -0.65625,0.3125 -1.1875,0.3125 -0.25,0 -0.50781,-0.027344 -0.76562,-0.078125 -0.25,-0.039062 -0.50781,-0.10938 -0.76562,-0.20312 v -0.875 c 0.25781,0.13672 0.50391,0.24219 0.73438,0.3125 0.23828,0.0625 0.47266,0.09375 0.70312,0.09375 0.21875,0 0.38281,-0.035156 0.5,-0.10938 0.125,-0.070312 0.1875,-0.17578 0.1875,-0.3125 0,-0.125 -0.042969,-0.21875 -0.125,-0.28125 C 2.335903,-1.445332 2.17575,-1.50783 1.93746,-1.56252 L 1.54684,-1.65627 C 1.14059,-1.738301 0.84372,-1.87502 0.65622,-2.06252 0.47653,-2.25002 0.3906,-2.50393 0.3906,-2.82814 c 0,-0.39453 0.125,-0.69531 0.375,-0.90625 0.25781,-0.21875 0.62891,-0.32812 1.1094,-0.32812 0.22656,0 0.45703,0.023438 0.6875,0.0625 0.22656,0.03125 0.46875,0.078125 0.71875,0.14062 z"
         id="path26" />
    </symbol>
    <symbol
       id="e"
       overflow="visible">
      <path
         d="M 3.4688,-1.8281 V 0 H 2.50005 v -1.3906 c 0,-0.25781 -0.00781,-0.4375 -0.015625,-0.53125 -0.011719,-0.10156 -0.03125,-0.17578 -0.0625,-0.21875 -0.03125,-0.0625 -0.085937,-0.10938 -0.15625,-0.14062 -0.0625,-0.039062 -0.13281,-0.0625 -0.20312,-0.0625 -0.21094,0 -0.37109,0.078125 -0.48438,0.23438 -0.10547,0.15625 -0.15625,0.37109 -0.15625,0.64062 V 8e-5 h -0.96875 v -4.1562 h 0.96875 v 1.6094 c 0.13281,-0.17578 0.28516,-0.30469 0.45312,-0.39062 0.16406,-0.082031 0.34375,-0.125 0.53125,-0.125 0.34375,0 0.60156,0.10938 0.78125,0.32812 0.1875,0.21094 0.28125,0.51172 0.28125,0.90625 z"
         id="path29" />
    </symbol>
    <symbol
       id="v"
       overflow="visible">
      <path
         d="m 0.45312,-4.1562 h 0.96875 v 2.2656 l 1.0938,-1.0938 h 1.1094 L 2.17197,-1.625 3.73447,0 H 2.57827 L 1.42207,-1.25 V 0 H 0.45332 Z"
         id="path32" />
    </symbol>
    <symbol
       id="u"
       overflow="visible">
      <path
         d="M 0.45312,-4.1562 H 1.42187 V 0 H 0.45312 Z"
         id="path35" />
    </symbol>
    <symbol
       id="t"
       overflow="visible">
      <path
         d="M 0.5625,-1.0312 H 1.51562 V 0 H 0.5625 Z"
         id="path38" />
    </symbol>
    <symbol
       id="s"
       overflow="visible">
      <path
         d="m 2.4219,-4.1562 v 0.625 H 1.90628 c -0.13672,0 -0.23438,0.027344 -0.29688,0.078125 -0.054687,0.054687 -0.078125,0.13672 -0.078125,0.25 v 0.21875 h 0.82812 v 0.67188 h -0.82812 v 2.3125 h -0.95312 v -2.3125 h -0.46875 v -0.67188 h 0.46875 v -0.21875 c 0,-0.32031 0.085937,-0.5625 0.26562,-0.71875 0.1875,-0.15625 0.47266,-0.23438 0.85938,-0.23438 z"
         id="path41" />
    </symbol>
    <symbol
       id="d"
       overflow="visible">
      <path
         d="m 1.875,-2.375 c -0.21094,0 -0.37109,0.078125 -0.48438,0.23438 -0.10547,0.14844 -0.15625,0.35938 -0.15625,0.64062 0,0.29297 0.050781,0.51562 0.15625,0.67188 0.11328,0.14844 0.27344,0.21875 0.48438,0.21875 0.20703,0 0.36719,-0.070313 0.48438,-0.21875 C 2.47266,-0.98437 2.53126,-1.20703 2.53126,-1.5 2.53126,-1.78125 2.472666,-1.99219 2.35938,-2.14062 2.24219,-2.29687 2.08204,-2.375 1.875,-2.375 Z m 0,-0.6875 c 0.51953,0 0.92188,0.14062 1.2031,0.42188 0.28906,0.27344 0.4375,0.65234 0.4375,1.1406 0,0.5 -0.14844,0.89062 -0.4375,1.1719 C 2.79685,-0.05468 2.39451,0.07813 1.875,0.07813 1.36328,0.07813 0.96094,-0.05468 0.6719,-0.32812 0.37893,-0.60937 0.2344,-1 0.2344,-1.50002 c 0,-0.48828 0.14453,-0.86719 0.4375,-1.1406 C 0.96096,-2.92187 1.36331,-3.0625 1.875,-3.0625 Z"
         id="path44" />
    </symbol>
    <symbol
       id="r"
       overflow="visible">
      <path
         d="m 3.2344,-2.5 c 0.11328,-0.17578 0.25391,-0.3125 0.42188,-0.40625 0.16406,-0.10156 0.35156,-0.15625 0.5625,-0.15625 0.33203,0 0.58594,0.10938 0.76562,0.32812 0.1875,0.21094 0.28125,0.51172 0.28125,0.90625 V -3e-5 H 4.2969 v -1.5625 c 0.00781,-0.019531 0.015625,-0.039062 0.015625,-0.0625 v -0.10938 c 0,-0.21875 -0.03125,-0.375 -0.09375,-0.46875 -0.0625,-0.09375 -0.16406,-0.14062 -0.29688,-0.14062 -0.1875,0 -0.33594,0.078125 -0.4375,0.23438 -0.09375,0.14844 -0.14062,0.35938 -0.14062,0.64062 V 2e-5 h -0.96875 v -1.5625 c 0,-0.33203 -0.03125,-0.54688 -0.09375,-0.64062 -0.054688,-0.09375 -0.15234,-0.14062 -0.29688,-0.14062 -0.17969,0 -0.32031,0.078125 -0.42188,0.23438 -0.09375,0.14844 -0.14062,0.35938 -0.14062,0.64062 V 8e-5 h -0.96875 v -2.9844 h 0.96875 v 0.4375 c 0.11328,-0.17578 0.24219,-0.30469 0.39062,-0.39062 0.15625,-0.082031 0.32812,-0.125 0.51562,-0.125 0.20703,0 0.39062,0.054688 0.54688,0.15625 0.15625,0.09375 0.27344,0.23047 0.35938,0.40625 z"
         id="path47" />
    </symbol>
    <symbol
       id="q"
       overflow="visible">
      <path
         d="M 0.5,-3.9844 H 1.6562 L 3.0937,-1.25 V -3.9844 H 4.07808 V 0 H 2.92188 L 1.48438,-2.7344 V 0 H 0.5 Z"
         id="path50" />
    </symbol>
    <symbol
       id="p"
       overflow="visible">
      <path
         d="m 0.42188,-1.1719 v -1.8125 h 0.96875 v 0.29688 0.60938 0.48438 c 0,0.24219 0.00391,0.41797 0.015625,0.53125 0.00781,0.10547 0.03125,0.17969 0.0625,0.21875 0.039062,0.0625 0.09375,0.11719 0.15625,0.15625 0.0625,0.03125 0.13281,0.046875 0.21875,0.046875 0.19531,0 0.35156,-0.078125 0.46875,-0.23438 0.11328,-0.15625 0.17188,-0.36719 0.17188,-0.64062 v -1.4688 h 0.95312 v 2.9844 h -0.95312 v -0.4375 c -0.14844,0.17969 -0.30469,0.30859 -0.46875,0.39062 -0.15625,0.082031 -0.33594,0.125 -0.53125,0.125 -0.34375,0 -0.60938,-0.10156 -0.79688,-0.3125 -0.17969,-0.21875 -0.26562,-0.53125 -0.26562,-0.9375 z"
         id="path53" />
    </symbol>
    <symbol
       id="o"
       overflow="visible">
      <path
         d="M 3.4688,-1.8281 V 0 H 2.50005 v -1.3906 c 0,-0.25781 -0.00781,-0.4375 -0.015625,-0.53125 -0.011719,-0.10156 -0.03125,-0.17578 -0.0625,-0.21875 -0.03125,-0.0625 -0.085937,-0.10938 -0.15625,-0.14062 -0.0625,-0.039062 -0.13281,-0.0625 -0.20312,-0.0625 -0.21094,0 -0.37109,0.078125 -0.48438,0.23438 -0.10547,0.15625 -0.15625,0.37109 -0.15625,0.64062 V 8e-5 h -0.96875 v -2.9844 h 0.96875 v 0.4375 c 0.13281,-0.17578 0.28516,-0.30469 0.45312,-0.39062 0.16406,-0.082031 0.34375,-0.125 0.53125,-0.125 0.34375,0 0.60156,0.10938 0.78125,0.32812 0.1875,0.21094 0.28125,0.51172 0.28125,0.90625 z"
         id="path56" />
    </symbol>
    <symbol
       id="n"
       overflow="visible">
      <path
         d="m 0.5,-3.9844 h 1.7031 c 0.50781,0 0.89844,0.11719 1.1719,0.34375 0.26953,0.21875 0.40625,0.53906 0.40625,0.95312 0,0.41797 -0.13672,0.74219 -0.40625,0.96875 -0.27344,0.21875 -0.66406,0.32812 -1.1719,0.32812 H 1.53122 V -6e-5 h -1.0312 z m 1.0312,0.75 v 1.1094 h 0.5625 c 0.19531,0 0.34766,-0.046875 0.45312,-0.14062 C 2.6601,-2.36718 2.7187,-2.50781 2.7187,-2.6875 2.7187,-2.86328 2.660106,-3 2.54682,-3.09375 2.44135,-3.1875 2.28901,-3.23437 2.0937,-3.23437 Z"
         id="path59" />
    </symbol>
    <symbol
       id="m"
       overflow="visible">
      <path
         d="m 0.45312,-2.9844 h 0.96875 v 2.9375 c 0,0.39453 -0.10156,0.69531 -0.29688,0.90625 C 0.93749,1.0781 0.66015,1.18747 0.29687,1.18747 H -0.18751 V 0.54685 h 0.17188 c 0.17578,0 0.29688,-0.042969 0.35938,-0.125 C 0.414062,0.347631 0.45313,0.19138 0.45313,-0.0469 Z m 0,-1.1719 h 0.96875 v 0.78125 H 0.45312 Z"
         id="path62" />
    </symbol>
    <symbol
       id="l"
       overflow="visible">
      <path
         d="m 2.875,-2.8906 v 0.76562 C 2.75,-2.207011 2.61719,-2.26951 2.48438,-2.31248 2.34766,-2.351542 2.21094,-2.37498 2.07813,-2.37498 c -0.27344,0 -0.48047,0.078125 -0.625,0.23438 -0.14844,0.15625 -0.21875,0.37109 -0.21875,0.64062 0,0.28125 0.070313,0.5 0.21875,0.65625 0.14453,0.15625 0.35156,0.23438 0.625,0.23438 0.14453,0 0.28516,-0.019531 0.42188,-0.0625 0.13281,-0.039063 0.25781,-0.10938 0.375,-0.20312 v 0.78125 c -0.14844,0.0625 -0.29688,0.10156 -0.45312,0.125 -0.15625,0.03125 -0.3125,0.046875 -0.46875,0.046875 -0.54297,0 -0.96484,-0.13281 -1.2656,-0.40625 -0.30469,-0.28125 -0.45312,-0.67188 -0.45312,-1.1719 0,-0.48828 0.14844,-0.86719 0.45312,-1.1406 0.30078,-0.28125 0.72266,-0.42188 1.2656,-0.42188 0.15625,0 0.3125,0.015625 0.46875,0.046875 0.15625,0.023437 0.30469,0.0625 0.45312,0.125 z"
         id="path65" />
    </symbol>
  </defs>
  <g
     id="g1122"
     transform="translate(-87.476281,-17.47994)">
    <path
       d="m 389.79,397.06 c -8.9102,0 -16.133,7.2227 -16.133,16.133 0,8.9103 7.2227,16.129 16.133,16.129 8.9102,0 16.129,-7.2227 16.129,-16.129 0,-8.9102 -7.2227,-16.133 -16.129,-16.133 z"
       id="path70" />
    <path
       d="m 204.09,353.07 c -22.691,0 -41.148,18.449 -41.148,41.141 0,22.692 18.457,41.156 41.148,41.156 22.691,0 41.156,-18.465 41.156,-41.156 0,-22.691 -18.465,-41.141 -41.156,-41.141 z m 0,66.445 c -13.953,0 -25.297,-11.344 -25.297,-25.305 0,-13.945 11.344,-25.289 25.297,-25.289 13.953,0 25.305,11.344 25.305,25.289 0.004,13.961 -11.352,25.305 -25.305,25.305 z"
       id="path72" />
    <path
       d="m 204.09,381.64 c -6.9492,0 -12.582,5.6328 -12.582,12.582 0,6.9492 5.6328,12.582 12.582,12.582 6.9492,0 12.582,-5.6328 12.582,-12.582 0,-6.9492 -5.6328,-12.582 -12.582,-12.582 z"
       id="path74" />
    <path
       d="m 601.94,380.45 c 0.004,-0.13281 0.0391,-0.25391 0.0391,-0.38281 0,-4.9102 -1.332,-9.4766 -3.4766,-13.543 l 8.0117,-7.0117 -10.434,-11.918 -8.4766,7.4141 c -4.0625,-2.4258 -8.7266,-3.8945 -13.742,-4.0977 l -2.0508,-10.379 -15.539,3.0664 2.1875,11.062 c -4.2344,2.3906 -7.8281,5.7266 -10.422,9.8242 l -10.012,-3.4141 -5.1094,15.016 10.578,3.6094 c -0.004,0.125 -0.0391,0.24219 -0.0391,0.37109 0,4.9102 1.3281,9.4727 3.4766,13.539 l -8.0078,7 10.434,11.949 8.4922,-7.4219 c 4.0586,2.418 8.7148,3.8867 13.727,4.0859 l 2.0508,10.395 15.539,-3.0664 -2.1875,-11.082 c 4.2305,-2.3867 7.8242,-5.7188 10.414,-9.8125 l 10.02,3.418 5.1094,-15.016 z m -29.23,13.039 c -7.3984,0 -13.402,-6.0195 -13.402,-13.418 0,-7.3984 6.0039,-13.418 13.402,-13.418 7.3984,0 13.418,6.0195 13.418,13.418 0.004,7.3945 -6.0156,13.418 -13.418,13.418 z"
       id="path76" />
    <path
       d="m 572.72,373.1 c -3.8516,0 -6.9688,3.1211 -6.9688,6.9727 0,3.8516 3.1211,6.9688 6.9688,6.9688 3.8516,0 6.9688,-3.1211 6.9688,-6.9688 0.004,-3.8516 -3.1172,-6.9727 -6.9688,-6.9727 z"
       id="path78" />
    <path
       d="m 520.11,380.07 c 0,-29.004 23.602,-52.609 52.609,-52.609 v -15.848 c -19.129,0 -36.402,7.9258 -48.832,20.617 h -37.719 v -17.086 c 0,-16.547 -13.465,-30.012 -30.012,-30.012 h -2.4766 v -64.82 l 31.449,-104.07 c 1.4531,-4.582 1.3633,-9.6133 -0.26172,-14.148 -3.1406,-8.7148 -11.469,-14.57 -20.68,-14.57 l -118.54,-0.875 h -0.17188 c -7.0039,0 -13.598,2.7188 -18.582,7.6523 l -3.9375,3.9062 h -195.9 c -0.0117,0 -0.0234,-0.0078 -0.0352,-0.0078 v 0.0078 h -7.2891 l -32.007996,74 c -0.67969,3.1016 -0.52734,9.1094 8.1484,14.504 4.1094,2.5547 9.683596,4.6836 15.694996,6 4.3398,0.95312 8.3672,1.4102 11.973,1.4102 9.4648,0 16.059,-3.1719 17.969,-9.0078 l 16.723,-36.266 114.77,-0.004 c -3.4141,4.4648 -6.1289,9.4336 -7.3125,14.922 h -60.324 c -20.508,0 -37.828,16.586 -37.828,36.219 v 85.145 h -30.883 c -16.547,0 -30.012,13.465 -30.012,30.012 v 41.512 h 28.23 c -6.1211,11.23 -9.918,23.902 -9.918,37.566 0,43.633 35.5,79.137 79.137,79.137 41.789,0 75.754,-32.66 78.59,-73.734 h 58.035 c -1.207,4.3516 -2.0625,8.8438 -2.0625,13.574 0,28.199 22.945,51.137 51.145,51.137 28.2,0 51.137,-22.938 51.137,-51.137 0,-5.2344 -1.0195,-10.191 -2.4883,-14.953 h 5.8633 c 6.418,0 11.906,-4.0586 14.375,-10.246 h 46.371 c 3.9844,33.984 32.621,60.551 67.656,60.551 h 24.812 v -15.848 h -24.812 c -29.004,-0.008 -52.605,-23.609 -52.605,-52.633 z m -81.941,-163.22 -0.0117,2.1602 h -25.527 v -57.273 h 42.195 z m -0.0898,18.008 -0.25,50.273 h -25.199 v -50.273 z m -100.02,-129.3 c 1.9883,-1.9727 4.6289,-3.0586 7.4219,-3.0586 h 0.0625 l 118.58,0.875 c 2.6016,0 4.9375,1.6406 5.8203,4.0938 0.46484,1.2695 0.49609,2.668 0.0469,4.0703 l -10.379,34.344 -112.92,0.004 v 73.125 h -42.434 v 66.121 h -23.574 l 0.004,-113.44 c 0,-5.8281 2.375,-11.531 6.5078,-15.641 z m 24.484,113.45 v -57.273 h 34.238 v 57.273 z m 34.238,15.848 v 50.273 h -76.668 v -50.273 z m -269.41,-56.926 c -1.957,0.41797 -6.3594,0.625 -12.414,-0.69531 -5.0703,-1.1055 -8.6289,-2.707 -10.602,-3.8984 l 25.207,-57.992 c 2.3516,1.4258 5.793,4.1484 9.5391,9.0859 5.0117,6.6172 6.4648,11.703 6.6328,13.656 z m 73.191,-44.934 h -39.688 c -1.918,-7.9414 -7.0742,-15.418 -9.1445,-18.148 -0.19922,-0.26562 -0.47266,-0.52344 -0.68359,-0.78906 h 49.512 c 0.6875,1.6914 1.5039,4.957 1.5039,9.4727 0.004,4.5078 -0.80859,7.7734 -1.5,9.4648 z m 54.559,0 h -38.137 c 0.58203,-2.8711 0.92969,-6.0195 0.92969,-9.4648 0,-3.4492 -0.34766,-6.6016 -0.92969,-9.4727 h 38.137 c 0.6875,1.6914 1.5039,4.957 1.5039,9.4727 0,4.5078 -0.8125,7.7734 -1.5039,9.4648 z m 16.426,0 c 0.58203,-2.8711 0.92969,-6.0195 0.92969,-9.4648 0,-3.4492 -0.34766,-6.6016 -0.92969,-9.4727 h 35.449 l -19.074,18.938 z m -88.16,66.988 c 0,-10.852 10.27,-20.367 21.98,-20.367 h 6.5859 v 42.906 h -28.562 z m 0,38.383 h 44.414 v -58.75 h 37.039 v 105.51 h -81.453 z m 73.203,191.14 -2.5391,-5.9023 -14.562,6.2539 5.3281,12.391 c -8.0859,6.8672 -17.742,11.902 -28.543,14.02 l 2.3672,-5.9336 -14.719,-5.8828 -4.9922,12.527 c -11.059,-0.91406 -21.402,-4.3789 -30.125,-10.262 l 5.9062,-2.543 -6.2695,-14.551 -12.371,5.3281 c -6.8672,-8.0859 -11.91,-17.742 -14.031,-28.551 l 5.9492,2.375 5.8672,-14.734 -12.535,-4.9961 c 0.91406,-11.059 4.3828,-21.402 10.266,-30.129 l 2.5391,5.9023 14.562,-6.2539 -5.3281,-12.391 c 8.0898,-6.8672 17.754,-11.906 28.559,-14.023 l -2.375,5.9688 14.719,5.8516 4.9844,-12.527 c 11.066,0.91406 21.418,4.3828 30.148,10.273 l -5.918,2.5469 6.2695,14.551 12.375,-5.3281 c 6.8672,8.0859 11.902,17.742 14.02,28.547 l -5.9492,-2.3672 -5.8672,14.734 12.523,4.9844 c -0.91016,11.059 -4.375,21.402 -10.258,30.121 z m 133.21,18.973 c -19.457,0 -35.297,-15.836 -35.297,-35.289 0,-19.457 15.844,-35.289 35.297,-35.289 19.457,0 35.289,15.836 35.289,35.289 0,19.453 -15.832,35.289 -35.289,35.289 z m 54.512,-66.09 h -13.957 c -9.3477,-12.277 -23.965,-20.34 -40.555,-20.34 -17.23,0 -32.426,8.6211 -41.695,21.715 h -65.93 c -1.3008,-9.7344 -4.3438,-18.828 -8.8633,-27.117 h 171.56 z m -182.21,-41.59 c -14.473,-15.707 -35.02,-25.723 -58.012,-25.723 -22.992,0 -43.539,10.016 -58.012,25.723 h -23.586 v -25.664 c 0,-7.8164 6.3555,-14.16 14.16,-14.16 h 319.5 c 7.8164,0 14.16,6.3477 14.16,14.16 V 340.8 Z m 242.96,31.344 h -44.754 l 0.39453,-15.492 h 25.465 v -8.5742 h 26.398 c -3.9258,7.3477 -6.4922,15.43 -7.5039,24.066 z"
       id="path80" />
    <path
       d="m 389.8,312.96 h 58.52 v 15.848 H 389.8 Z"
       id="path82" />
    <path
       d="m 360.82,312.96 h 7.2734 v 15.848 H 360.82 Z"
       id="path84" />
    <path
       d="m 275.3,318.56 h 4.8438 v 15.848 H 275.3 Z"
       id="path86" />
    <path
       d="m 303.43,318.56 h 6.9805 v 15.848 H 303.43 Z"
       id="path88" />
  </g>
</svg>
