<?xml version="1.0" encoding="UTF-8"?>
<svg width="1200pt" height="1200pt" version="1.1" viewBox="0 0 1200 1200" xmlns="http://www.w3.org/2000/svg">
 <g>
  <path d="m600 1200c-24 0-48-6-69.602-18l-420-230.4c-45.598-25.203-74.398-73.203-74.398-126v-451.2c0-52.801 28.801-100.8 74.398-126l420-230.4c43.199-24 94.801-24 138 0l420 230.4c45.602 25.199 74.398 73.199 74.398 126v451.2c0 52.801-28.801 100.8-74.398 126l-420 230.4c-20.398 12.004-44.398 18.004-68.398 18.004zm0-1152c-15.602 0-31.199 3.6016-46.801 12l-420 230.4c-31.199 16.801-49.199 49.199-49.199 84v451.2c0 34.801 19.199 67.199 49.199 84l420 230.4c28.801 15.602 63.602 15.602 92.398 0l420-230.4c31.199-16.801 49.199-49.199 49.199-84l0.003906-451.2c0-34.801-19.199-67.199-50.398-84l-418.8-230.4c-14.402-8.3984-30-12-45.602-12z"/>
  <path d="m688.8 432c-7.1992 0-13.199-1.1992-19.199-4.8008l-61.199-32.398c-16.801-9.6016-25.199-28.801-20.398-48l30-105.6c3.6016-13.199 16.801-20.398 30-16.801 13.199 3.6016 20.398 16.801 16.801 30l-28.801 100.8 51.602 27.602 64.801-75.602c8.3984-9.6016 24-10.801 33.602-2.3984 9.6016 8.3984 10.801 24 2.3984 33.602l-68.406 79.199c-8.3984 9.5977-20.398 14.398-31.199 14.398z"/>
  <path d="m476.4 644.4c-6 10.801-1.1992 25.199 9.6016 31.199s25.199 1.1992 31.199-9.6016l8.3984-15.602c6-10.801 1.1992-25.199-9.6016-31.199-10.801-6-25.199-1.1992-31.199 9.6016z"/>
  <path d="m522 559.2c-6 10.801-1.1992 25.199 9.6016 31.199 10.801 6 25.199 1.1992 31.199-9.6016l8.3984-15.602c6-10.801 1.1992-25.199-9.6016-31.199-10.801-6-25.199-1.1992-31.199 9.6016z"/>
  <path d="m583.2 495.6c10.801 6 25.199 1.1992 31.199-9.6016l8.3984-15.602c6-10.801 1.1992-25.199-9.6016-31.199-10.801-6-25.199-1.1992-31.199 9.6016l-8.3984 15.602c-5.9961 10.797-2.3984 23.996 9.6016 31.199z"/>
  <path d="m348 564c2.3984 3.6016 4.8008 6 8.3984 7.1992 7.1992 3.6016 16.801 3.6016 24-1.1992l15.602-9.6016c10.801-7.1992 13.199-21.602 6-32.398-7.1992-10.801-21.602-13.199-32.398-6l-15.602 9.6016c-9.6016 7.1992-12 21.598-6 32.398z"/>
  <path d="m266.4 614.4c2.3984 3.6016 4.8008 6 8.3984 7.1992 7.1992 3.6016 16.801 3.6016 24-1.1992l15.602-9.6016c10.801-7.1992 13.199-21.602 6-32.398-7.1992-10.801-21.602-13.199-32.398-6l-15.602 9.6016c-10.797 7.1992-13.199 21.602-6 32.398z"/>
  <path d="m483.6 475.2c-7.1992-10.801-21.602-13.199-32.398-6l-15.602 9.6016c-10.801 7.1992-13.199 21.602-6 32.398 2.3984 3.6016 4.8008 6 8.3984 7.1992 7.1992 3.6016 16.801 3.6016 24-1.1992l15.602-9.6016c9.5977-7.1992 13.199-21.598 6-32.398z"/>
  <path d="m516 447.6c2.3984 3.6016 4.8008 6 8.3984 7.1992 7.1992 3.6016 16.801 3.6016 24-1.1992l15.602-9.6016c10.801-7.1992 13.199-21.602 6-32.398-7.1992-10.801-21.602-13.199-32.398-6l-15.602 9.6016c-9.6016 7.1953-13.199 21.598-6 32.398z"/>
  <path d="m679.2 686.4c0-13.199-10.801-22.801-22.801-22.801-13.199 0-22.801 10.801-22.801 22.801v18c0 8.3984 4.8008 16.801 12 20.398 3.6016 1.1992 7.1992 2.3984 10.801 2.3984 13.199 0 22.801-10.801 22.801-22.801z"/>
  <path d="m678 578.4c0-13.199-10.801-22.801-22.801-22.801-13.199 0-22.801 10.801-22.801 22.801v18c0 8.3984 4.8008 16.801 12 20.398 3.6016 1.1992 7.1992 2.3984 10.801 2.3984 13.199 0 22.801-10.801 22.801-22.801z"/>
  <path d="m681.6 778.8c0-13.199-10.801-22.801-22.801-22.801-13.199 0-22.801 10.801-22.801 24v18c0 8.3984 4.8008 16.801 12 20.398 3.6016 1.1992 7.1992 2.3984 10.801 2.3984 13.199 0 22.801-10.801 22.801-22.801z"/>
  <path d="m682.8 483.6c0-13.199-10.801-22.801-22.801-22.801-13.199 0-22.801 10.801-22.801 22.801v18c0 8.3984 4.8008 16.801 12 20.398 3.6016 1.1992 7.1992 2.3984 10.801 2.3984 13.199 0 22.801-10.801 22.801-22.801z"/>
  <path d="m816 366c-3.6016 0-8.3984-1.1992-12-2.3984l-213.6-116.4c-6-3.6016-9.6016-8.3984-12-14.398-1.1992-6-1.1992-13.199 2.3984-18l90-163.2c6-12 20.398-15.602 32.398-9.6016s15.602 20.398 9.6016 32.398l-77.996 141.6 170.4 93.602 73.199-144c6-12 20.398-16.801 32.398-10.801s16.801 20.398 10.801 32.398l-84 165.6c-2.3984 6-8.3984 9.6016-14.398 12-2.3984 1.1992-4.8008 1.1992-7.1992 1.1992z"/>
  <path d="m1137.6 542.4c-3.6016 0-8.3984-1.1992-12-2.3984l-183.6-99.602c-1.1992 0-1.1992-1.1992-2.3984-1.1992-51.602-28.801-70.801-96-42-148.8l45.602-91.199c6-12 20.398-16.801 32.398-10.801s16.801 20.398 10.801 32.398l-46.801 91.199c-16.801 31.199-6 68.398 24 85.199 1.1992 0 2.3984 1.1992 3.6016 2.3984l181.2 98.398c12 6 15.602 20.398 9.6016 32.398-3.6055 7.2109-12.004 12.008-20.402 12.008z"/>
  <path d="m459.6 1118.4c-1.1992 1.1992-3.6016 1.1992-4.8008 2.3984 25.199-56.398 32.398-153.6 13.199-247.2 0-2.3984 1.1992-3.6016 1.1992-6 0-44.398 12-86.398 21.602-90 0 0 14.398-1.1992 45.602 38.398-13.199 14.398-24 33.602-28.801 52.801-15.602 49.199-3.6016 96 33.602 133.2 6 6 12 8.3984 20.398 8.3984h4.8008c7.1992-1.1992 24-4.8008 49.199-58.801 0-1.1992 1.1992-1.1992 1.1992-2.3984 16.801-52.801 8.3984-100.8-25.199-141.6-2.3984-3.6016-6-4.8008-8.3984-7.1992-27.602-38.398-66-78-105.6-66-19.199 6-32.398 24-39.602 44.398-12-25.199-25.199-49.199-42-69.602-30-38.398-62.398-55.199-93.602-50.398-27.602 3.6016-51.602 24-68.398 56.398-36 42-45.602 90-27.602 144 0 1.1992 1.1992 2.3984 1.1992 2.3984 26.398 54 45.602 57.602 51.602 57.602h6c7.1992 0 14.398-2.3984 19.199-7.1992 37.199-34.801 51.602-79.199 39.602-126-7.1992-26.398-22.801-51.602-38.398-66 7.1992-8.3984 14.398-14.398 22.801-15.602 14.398-2.3984 32.398 9.6016 51.602 33.602 92.398 115.2 93.602 302.4 50.398 352.8m136.8-191.99c2.3984-19.199 10.801-36 18-46.801 9.6016 16.801 18 43.199 6 81.602-3.6016 7.1992-7.1992 14.398-10.801 21.602-10.797-18.004-15.598-37.203-13.199-56.402zm-290.4-142.8c8.3984 9.6016 20.398 27.602 22.801 49.199 2.3984 20.398-2.3984 40.801-16.801 57.602-4.8008-7.1992-9.6016-15.602-14.398-24-13.203-39.602-2.4023-66 8.3984-82.801z"/>
 </g>
</svg>
