<?xml version="1.0" encoding="UTF-8" standalone="no"?>
<svg
   width="1200pt"
   height="1200pt"
   version="1.1"
   viewBox="0 0 1200 1200"
   id="svg48"
   sodipodi:docname="ler.svg"
   inkscape:version="1.1.2 (0a00cf5339, 2022-02-04, custom)"
   xmlns:inkscape="http://www.inkscape.org/namespaces/inkscape"
   xmlns:sodipodi="http://sodipodi.sourceforge.net/DTD/sodipodi-0.dtd"
   xmlns="http://www.w3.org/2000/svg"
   xmlns:svg="http://www.w3.org/2000/svg">
  <defs
     id="defs52" />
  <sodipodi:namedview
     id="namedview50"
     pagecolor="#ffffff"
     bordercolor="#666666"
     borderopacity="1.0"
     inkscape:pageshadow="2"
     inkscape:pageopacity="0.0"
     inkscape:pagecheckerboard="0"
     inkscape:document-units="pt"
     showgrid="false"
     inkscape:zoom="0.561875"
     inkscape:cx="800"
     inkscape:cy="800"
     inkscape:window-width="1718"
     inkscape:window-height="1368"
     inkscape:window-x="1713"
     inkscape:window-y="0"
     inkscape:window-maximized="0"
     inkscape:current-layer="svg48" />
  <path
     d="m 427.2,454.8 h -252 c -13.199,0 -24,-10.801 -24,-24 0,-13.199 10.801,-24 24,-24 h 252 c 13.199,0 24,10.801 24,24 0,13.199 -10.801,24 -24,24 z"
     id="path14" />
  <path
     d="m 427.2,543.6 h -252 c -13.199,0 -24,-10.801 -24,-24 0,-13.199 10.801,-24 24,-24 h 252 c 13.199,0 24,10.801 24,24 0,13.199 -10.801,24 -24,24 z"
     id="path16" />
  <path
     d="m 427.2,631.2 h -252 c -13.199,0 -24,-10.801 -24,-24 0,-13.199 10.801,-24 24,-24 h 252 c 13.199,0 24,10.801 24,24 0,13.199 -10.801,24 -24,24 z"
     id="path18" />
  <path
     d="m 894,571.2 c -13.199,0 -24,-10.801 -24,-24 v -97.199 c 0,-13.199 10.801,-24 24,-24 13.199,0 24,10.801 24,24 V 547.2 c 0,13.199 -10.801,24 -24,24 z"
     id="path20" />
  <path
     d="m 855.6,472.8 c -6,0 -10.801,-1.1992 -16.801,-2.3984 -36,-9.6016 -66,-26.398 -88.801,-49.199 -57.602,-57.602 -57.602,-148.8 -57.602,-152.4 0,-13.199 10.801,-24 24,-24 3.6016,0 94.801,0 152.4,57.602 22.801,22.801 38.398,52.801 49.199,88.801 6,22.801 0,45.602 -16.801,62.398 -13.195,11.996 -28.797,19.195 -45.594,19.195 z m -114,-177.6 c 3.6016,25.199 14.398,64.801 40.801,92.398 16.801,16.801 39.602,28.801 67.199,36 8.3984,2.3984 13.199,-2.3984 15.602,-3.6016 2.3984,-2.3984 6,-7.1992 3.6016,-15.602 -7.1992,-28.801 -19.199,-50.398 -36,-67.199 -26.406,-27.594 -64.805,-38.395 -91.203,-41.996 z"
     id="path22" />
  <path
     d="m 922.8,525.6 c -12,0 -24,-4.8008 -33.602,-13.199 -14.398,-14.398 -21.602,-34.801 -16.801,-56.398 7.1992,-30 19.199,-54 34.801,-73.199 43.199,-49.199 110.4,-49.199 112.8,-49.199 13.199,0 24,10.801 24,24 0,3.6016 0,76.801 -42,124.8 -16.801,19.199 -38.398,32.398 -66,40.801 -3.6016,1.1914 -8.3984,2.3945 -13.199,2.3945 z m -3.6016,-58.801 c -1.1992,4.8008 0,8.3984 2.3984,9.6016 l 1.1992,1.1992 c 18,-6 33.602,-14.398 43.199,-26.398 16.801,-19.199 24,-44.398 26.398,-64.801 -15.602,3.6016 -36,12 -50.398,28.801 -9.5977,11.996 -17.996,29.996 -22.797,51.598 z"
     id="path24" />
  <path
     d="M 1014,600 H 762 c -13.199,0 -24,-10.801 -24,-24 0,-13.199 10.801,-24 24,-24 h 252 c 13.199,0 24,10.801 24,24 0,13.199 -10.801,24 -24,24 z"
     id="path26" />
  <path
     d="M 735.6,1066.8 H 478.8 c -13.199,0 -24,-10.801 -24,-24 0,-13.199 10.801,-24 24,-24 h 256.8 c 13.199,0 24,10.801 24,24 0,13.199 -10.801,24 -24,24 z"
     id="path28" />
  <path
     d="m 602.4,1066.8 c -13.199,0 -24,-10.801 -24,-24 v -234 c 0,-13.199 10.801,-24 24,-24 13.199,0 24,10.801 24,24 v 234 c 0,13.199 -10.797,24 -24,24 z"
     id="path30" />
  <path
     d="m 594,909.6 c -4.8008,0 -9.6016,-1.1992 -14.398,-4.8008 l -79.199,-56.398 c -12,-7.1992 -20.398,-20.398 -20.398,-34.801 l -0.004,-69.602 c 0,-8.3984 4.8008,-16.801 12,-21.602 7.1992,-4.8008 16.801,-3.6016 24,1.1992 l 88.801,56.398 c 10.801,7.1992 14.398,21.602 7.1992,33.602 -7.1992,10.801 -21.602,14.398 -33.602,7.1992 l -51.602,-33.602 v 21.602 l 79.199,56.398 c 10.801,7.1992 13.199,22.801 6,33.602 -3.5977,7.2031 -10.797,10.805 -17.996,10.805 z"
     id="path32" />
  <path
     d="m 594,990 c -4.8008,0 -9.6016,-1.1992 -14.398,-4.8008 l -79.199,-56.398 c -12,-7.1992 -20.398,-20.398 -20.398,-34.801 v -81.602 c 0,-13.199 10.801,-24 24,-24 13.199,0 24,10.801 24,24 v 76.801 l 79.199,56.398 c 10.801,7.1992 13.199,22.801 6,33.602 -4.8047,8.4023 -12.004,10.801 -19.203,10.801 z"
     id="path34" />
  <path
     d="m 602.4,909.6 c -7.1992,0 -14.398,-3.6016 -19.199,-9.6016 -7.1992,-10.801 -4.8008,-25.199 6,-33.602 l 79.199,-56.398 v -21.602 l -51.602,33.602 c -10.801,7.1992 -26.398,3.6016 -33.602,-7.1992 -7.1992,-10.801 -3.6016,-26.398 7.1992,-33.602 l 88.801,-56.398 c 7.1992,-4.8008 16.801,-4.8008 24,-1.1992 7.1992,4.8008 12,12 12,21.602 v 69.602 c 0,14.398 -7.1992,27.602 -20.398,34.801 l -79.199,56.398 c -3.5977,2.3945 -8.3984,3.5977 -13.199,3.5977 z"
     id="path36" />
  <path
     d="m 602.4,990 c -7.1992,0 -14.398,-3.6016 -19.199,-9.6016 -7.1992,-10.801 -4.8008,-25.199 6,-33.602 l 79.199,-56.398 v -76.801 c 0,-13.199 10.801,-24 24,-24 13.199,0 24,10.801 24,24 v 81.602 c 0,14.398 -7.1992,27.602 -20.398,34.801 l -79.199,56.398 C 612.0022,988.8007 607.2014,990 602.401,990 Z m 64.801,-96 z"
     id="path38" />
  <path
     d="m 599.93,623.53 c -13.199,0 -24,-10.801 -24,-24 v -421.2 c 0,-13.199 10.801,-24 24,-24 13.199,0 24,10.801 24,24 v 422.4 c 0,12 -10.801,22.801 -24,22.801 z"
     id="path40" />
  <path
     d="m 243.53,826.33 c -8.3984,0 -16.801,-4.8008 -20.398,-12 -6,-12 -2.3984,-26.398 9.6016,-32.398 l 355.2,-202.8 c 12,-6 26.398,-2.3984 32.398,9.6016 6,12 2.3984,26.398 -9.6016,32.398 l -355.2,201.6 c -4.8008,2.4023 -8.3984,3.6016 -12,3.6016 z"
     id="path42" />
  <path
     d="m 956.33,826.33 c -3.6016,0 -8.3984,-1.1992 -12,-3.6016 l -356.4,-201.6 c -12,-6 -15.602,-21.602 -9.6016,-32.398 6,-12 21.602,-15.602 32.398,-9.6016 l 356.4,201.6 c 12,6 15.602,21.602 9.6016,32.398 -3.5977,8.3984 -12,13.199 -20.398,13.199 z"
     id="path44" />
  <path
     d="m 600.60202,1199.998 c -24,0 -48,-6 -69.602,-18 l -420,-230.4 c -45.598,-25.203 -74.398,-73.203 -74.398,-126 v -451.2 c 0,-52.801 28.801,-100.8 74.398,-126 l 420,-230.4 c 43.199,-24 94.801,-24 138,0 L 1089,248.398 c 45.602,25.199 74.398,73.199 74.398,126 v 451.2 c 0,52.801 -28.801,100.8 -74.398,126 l -419.99998,230.4 c -20.398,12.004 -44.398,18.004 -68.398,18.004 z m 0,-1152 c -15.602,0 -31.199,3.6016 -46.801,12 l -420,230.4 c -31.199,16.801 -49.199,49.199 -49.199,84 v 451.2 c 0,34.801 19.199,67.199 49.199,84 l 420,230.4 c 28.801,15.602 63.602,15.602 92.398,0 l 419.99998,-230.4 c 31.199,-16.801 50.398,-49.199 50.398,-84 v -451.2 c 0,-34.801 -19.199,-67.199 -50.398,-84 L 646.20293,59.998 c -14.402,-8.3984 -30,-12 -45.602,-12 z"
     id="path2" />
</svg>
