<?xml version="1.0" encoding="UTF-8"?>
<svg width="1200pt" height="1200pt" version="1.1" viewBox="0 0 1200 1200" xmlns="http://www.w3.org/2000/svg">
 <g>
  <path d="m600 1200c-24 0-48-6-69.602-18l-420-230.4c-45.598-25.203-74.398-73.203-74.398-126v-451.2c0-52.801 28.801-100.8 74.398-126l420-230.4c43.199-24 94.801-24 138 0l420 230.4c45.602 25.199 74.398 73.199 74.398 126v451.2c0 52.801-28.801 100.8-74.398 126l-420 230.4c-20.398 12.004-44.398 18.004-68.398 18.004zm0-1152c-15.602 0-31.199 3.6016-46.801 12l-420 230.4c-31.199 16.801-49.199 49.199-49.199 84v451.2c0 34.801 19.199 67.199 49.199 84l420 230.4c28.801 15.602 63.602 15.602 92.398 0l420-230.4c31.199-16.801 50.398-49.199 50.398-84l0.003906-451.2c0-34.801-19.199-67.199-50.398-84l-420-230.4c-14.402-8.3984-30-12-45.602-12z"/>
  <path d="m772.8 783.6c-13.199 0-24-10.801-24-24v-404.4c0-13.199 10.801-24 24-24s24 10.801 24 24v404.4c0 13.203-10.801 24.004-24 24.004z"/>
  <path d="m804 655.2c-12 0-22.801-4.8008-31.199-13.199-13.199-13.199-19.199-32.398-14.398-51.602 6-26.398 16.801-48 31.199-63.602 37.199-43.199 97.199-43.199 99.602-43.199 13.199 0 24 10.801 24 24 0 2.3984 0 67.199-36 108-14.398 16.801-33.602 28.801-57.602 36-7.2031 3.6016-10.801 3.6016-15.602 3.6016zm1.1992-46.801m-1.1992-6v4.8008c14.398-4.8008 26.398-12 34.801-21.602 12-13.199 18-32.398 21.602-48-12 3.6016-25.199 9.6016-36 21.602-9.6016 10.801-15.602 25.199-20.402 43.199z"/>
  <path d="m804 474c-12 0-22.801-4.8008-31.199-12-13.199-13.199-19.199-32.398-14.398-51.602 6-26.398 16.801-48 31.199-63.602 37.199-43.199 97.199-43.199 99.602-43.199 13.199 0 24 10.801 24 24 0 2.3984 0 67.199-36 108-14.398 16.801-33.602 28.801-57.602 36-7.2031 1.2031-12 2.4023-15.602 2.4023zm1.1992-48m-1.1992-4.8008v4.8008c14.398-4.8008 26.398-12 34.801-21.602 12-13.199 18-32.398 21.602-48-12 3.6016-25.199 10.801-36 21.602-9.6016 9.6016-15.602 25.199-20.402 43.199z"/>
  <path d="m751.2 559.2c-4.8008 0-8.3984-1.1992-13.199-2.3984-24-7.1992-43.199-19.199-57.602-36-36-42-36-105.6-36-108 0-13.199 10.801-24 24-24 2.3984 0 61.199 0 99.602 43.199 14.398 16.801 25.199 37.199 31.199 63.602 4.8008 19.199-1.1992 38.398-14.398 51.602-12 7.1953-22.801 11.996-33.602 11.996zm-56.398-118.8c3.6016 15.602 9.6016 34.801 21.602 48 8.3984 9.6016 20.398 16.801 34.801 21.602 0-1.1992 1.1992-2.3984 0-4.8008-4.8008-18-10.801-32.398-20.398-43.199-10.805-10.801-24.004-18-36.004-21.602z"/>
  <path d="m751.2 381.6c-4.8008 0-8.3984-1.1992-13.199-2.3984-24-7.1992-43.199-19.199-57.602-36-36-42-36-105.6-36-108 0-13.199 10.801-24 24-24 2.3984 0 61.199 0 99.602 43.199 14.398 16.801 25.199 37.199 31.199 63.602 4.8008 19.199-1.1992 38.398-14.398 51.602-12 8.3945-22.801 11.996-33.602 11.996zm-56.398-117.6c3.6016 15.602 9.6016 34.801 21.602 48 8.3984 9.6016 20.398 16.801 34.801 21.602 0-1.1992 1.1992-2.3984 0-4.8008-4.8008-18-10.801-32.398-20.398-43.199-10.805-12-24.004-18-36.004-21.602z"/>
  <path d="m624 912h-96c-13.199 0-24-10.801-24-24s10.801-24 24-24h96c13.199 0 24 10.801 24 24s-10.801 24-24 24z"/>
  <path d="m348 912h-96c-13.199 0-24-10.801-24-24s10.801-24 24-24h96c13.199 0 24 10.801 24 24s-10.801 24-24 24z"/>
  <path d="m888 912h-96c-13.199 0-24-10.801-24-24s10.801-24 24-24h96c13.199 0 24 10.801 24 24s-10.801 24-24 24z"/>
  <path d="m768 1032h-108c-13.199 0-24-10.801-24-24s10.801-24 24-24h108c13.199 0 24 10.801 24 24s-10.801 24-24 24z"/>
  <path d="m528 1032h-108c-13.199 0-24-10.801-24-24s10.801-24 24-24h108c13.199 0 24 10.801 24 24s-10.801 24-24 24z"/>
  <path d="m1044 804h-888c-13.199 0-24-10.801-24-24s10.801-24 24-24h888c13.199 0 24 10.801 24 24s-10.801 24-24 24z"/>
  <path d="m426 774c-13.199 0-24-10.801-24-24v-106.8c0-13.199 10.801-24 24-24s24 10.801 24 24v106.8c0 13.199-10.801 24-24 24z"/>
  <path d="m404.4 529.2c-7.1992 0-15.602-2.3984-22.801-6-19.199-10.801-33.602-25.199-42-40.801-22.801-40.801-10.801-88.801-9.6016-93.602 3.6016-13.199 16.801-20.398 28.801-16.801 4.8008 1.1992 52.801 14.398 76.801 55.199 9.6016 16.801 14.398 36 14.398 57.602 0 16.801-8.3984 31.199-22.801 38.398-7.1953 3.6055-14.395 6.0039-22.797 6.0039zm-31.199-98.398c0 9.6016 2.3984 19.199 7.1992 27.602 4.8008 7.1992 10.801 14.398 20.398 20.398-1.1992-10.801-3.6016-20.398-7.1992-27.602-4.7969-9.5977-11.996-15.598-20.398-20.398z"/>
  <path d="m350.4 576c-46.801 0-81.602-34.801-86.398-38.398-9.6016-9.6016-9.6016-24 0-33.602 3.6016-3.6016 39.602-38.398 86.398-38.398 19.199 0 37.199 6 56.398 16.801 14.398 8.3984 22.801 22.801 22.801 38.398 0 15.602-8.3984 31.199-22.801 38.398-17.996 10.801-37.195 16.801-56.398 16.801zm-27.598-55.199c8.3984 3.6016 18 7.1992 27.602 7.1992 10.801 0 20.398-3.6016 27.602-7.1992-20.402-10.801-39.605-7.1992-55.203 0z"/>
  <path d="m354 668.4c-10.801 0-20.398-7.1992-22.801-18-1.1992-4.8008-13.199-52.801 9.6016-93.602 9.6016-15.602 24-30 42-40.801 14.398-8.3984 31.199-8.3984 44.398 0 14.398 8.3984 22.801 22.801 22.801 38.398 0 21.602-4.8008 40.801-14.398 57.602-24 40.801-70.801 54-76.801 55.199-1.1992 1.2031-3.6016 1.2031-4.8008 1.2031zm48-108c-9.6016 6-15.602 13.199-20.398 20.398-4.8008 8.3984-7.1992 19.199-7.1992 27.602 7.1992-4.8008 15.602-12 20.398-20.398 4.8008-8.3984 7.1992-19.199 7.1992-27.602z"/>
  <path d="m496.8 669.6c-2.3984 0-3.6016 0-6-1.1992-4.8008-1.1992-52.801-14.398-76.801-55.199-9.6016-15.602-14.398-36-14.398-57.602 0-16.801 8.3984-31.199 22.801-39.602 14.398-8.3984 31.199-8.3984 44.398 0 19.199 10.801 33.602 24 43.199 40.801 24 40.801 12 88.801 9.6016 93.602-2.4023 11.996-12 19.199-22.801 19.199zm-48-106.8c1.1992 10.801 3.6016 20.398 7.1992 27.602 4.8008 8.3984 13.199 15.602 20.398 20.398 0-9.6016-2.3984-19.199-7.1992-27.602-4.8008-8.3984-12-15.598-20.398-20.398z"/>
  <path d="m498 574.8c-19.199 0-37.199-6-56.398-16.801-14.398-8.3984-22.801-22.801-22.801-38.398 0-15.602 8.3984-31.199 22.801-38.398 19.199-10.801 38.398-16.801 56.398-16.801 46.801 0 81.602 34.801 86.398 38.398 9.6016 9.6016 9.6016 24 0 33.602-3.5977 3.5977-39.598 38.398-86.398 38.398zm-27.602-55.199c20.398 10.801 40.801 7.1992 55.199 0-8.3984-3.6016-18-7.1992-27.602-7.1992-8.3945-0.003906-17.996 2.3984-27.598 7.1992z"/>
  <path d="m446.4 529.2c-7.1992 0-15.602-2.3984-22.801-6-14.398-8.3984-22.801-22.801-22.801-38.398 0-21.602 4.8008-40.801 14.398-57.602 22.801-40.801 70.801-54 76.801-55.199 13.199-3.6016 25.199 4.8008 28.801 16.801 1.1992 4.8008 13.199 52.801-9.6016 93.602-9.6016 15.602-24 30-42 40.801-7.1953 3.5977-15.594 5.9961-22.797 5.9961zm-1.1992-48m32.402-51.598c-7.1992 4.8008-15.602 12-20.398 20.398-4.8008 8.3984-7.1992 19.199-7.1992 27.602 9.6016-6 15.602-13.199 20.398-20.398 4.7969-8.4023 5.9961-18.004 7.1992-27.602z"/>
 </g>
</svg>
