<?xml version="1.0" encoding="UTF-8"?>
<svg width="1200pt" height="1200pt" version="1.1" viewBox="0 0 1200 1200" xmlns="http://www.w3.org/2000/svg">
 <g>
  <path d="m600 1200c-24 0-48-6-69.602-18l-420-230.4c-45.598-25.203-74.398-73.203-74.398-126v-451.2c0-52.801 28.801-100.8 74.398-126l420-230.4c43.199-24 94.801-24 138 0l420 230.4c45.602 25.199 74.398 73.199 74.398 126v451.2c0 52.801-28.801 100.8-74.398 126l-420 230.4c-20.398 12.004-44.398 18.004-68.398 18.004zm0-1152c-15.602 0-31.199 3.6016-46.801 12l-420 230.4c-31.199 16.801-49.199 49.199-49.199 84v451.2c0 34.801 19.199 67.199 49.199 84l420 230.4c28.801 15.602 63.602 15.602 92.398 0l420-230.4c31.199-16.801 50.398-49.199 50.398-84l0.003906-451.2c0-34.801-19.199-67.199-50.398-84l-420-230.4c-14.402-8.3984-30-12-45.602-12z"/>
  <path d="m576 535.2c-13.199 0-24-10.801-24-24v-97.199c0-13.199 10.801-24 24-24s24 10.801 24 24v97.199c0 13.199-10.801 24-24 24z"/>
  <path d="m614.4 435.6c-16.801 0-32.398-6-44.398-19.199-16.801-16.801-22.801-39.602-16.801-62.398 9.6016-36 26.398-66 49.199-88.801 57.602-57.602 148.8-57.602 152.4-57.602 13.199 0 24 10.801 24 24 0 3.6016 0 94.801-57.602 152.4-22.801 22.801-52.801 38.398-88.801 49.199-5.9961 2.4023-11.996 2.4023-17.996 2.4023zm12-25.203m102-151.2c-25.199 3.6016-64.801 14.398-92.398 40.801-16.801 16.801-28.801 39.602-36 67.199-2.3984 8.3984 2.3984 13.199 3.6016 15.602 2.3984 2.3984 7.1992 6 15.602 3.6016 28.801-7.1992 50.398-19.199 67.199-36 27.598-26.402 38.398-66.004 41.996-91.203z"/>
  <path d="m547.2 489.6c-4.8008 0-9.6016-1.1992-14.398-2.3984-27.602-8.3984-49.199-21.602-66-40.801-42-48-42-121.2-42-124.8 0-13.199 10.801-24 24-24 3.6016 0 70.801 0 112.8 49.199 16.801 18 27.602 43.199 34.801 73.199 4.8008 20.398-1.1992 42-16.801 56.398-7.2031 8.4023-19.203 13.203-32.402 13.203zm-70.801-140.4c3.6016 19.199 10.801 45.602 26.398 64.801 10.801 12 25.199 21.602 43.199 26.398 0 0 1.1992 0 1.1992-1.1992 2.3984-1.1992 3.6016-6 2.3984-9.6016-4.8008-21.602-13.199-39.602-24-52.801-13.195-15.598-33.594-22.797-49.195-27.598z"/>
  <path d="m792 564h-420c-13.199 0-24-10.801-24-24s10.801-24 24-24h420c13.199 0 24 10.801 24 24s-10.801 24-24 24z"/>
  <path d="m576 943.2c-13.199 0-24-10.801-24-24v-97.199c0-13.199 10.801-24 24-24s24 10.801 24 24v97.199c0 13.199-10.801 24-24 24z"/>
  <path d="m614.4 843.6c-16.801 0-32.398-6-44.398-19.199-16.801-16.801-22.801-39.602-16.801-62.398 9.6016-36 26.398-66 49.199-88.801 57.602-57.602 148.8-57.602 152.4-57.602 13.199 0 24 10.801 24 24 0 3.6016 0 94.801-57.602 152.4-22.801 22.801-52.801 38.398-88.801 49.199-5.9961 2.4023-11.996 2.4023-17.996 2.4023zm12-25.203m102-151.2c-25.199 3.6016-64.801 14.398-92.398 40.801-16.801 16.801-28.801 39.602-36 67.199-2.3984 8.3984 2.3984 13.199 3.6016 15.602 2.3984 2.3984 7.1992 6 15.602 3.6016 28.801-7.1992 50.398-20.398 67.199-36 27.598-26.402 38.398-66.004 41.996-91.203z"/>
  <path d="m547.2 897.6c-4.8008 0-9.6016-1.1992-14.398-2.3984-26.398-8.3984-49.199-21.602-66-40.801-42-48-42-121.2-42-124.8 0-13.199 10.801-24 24-24 2.3984 0 70.801 0 112.8 49.199 16.801 18 27.602 43.199 34.801 73.199 4.8008 20.398-1.1992 42-16.801 56.398-7.2031 8.4023-19.203 13.203-32.402 13.203zm-70.801-140.4c3.6016 19.199 10.801 45.602 26.398 64.801 10.801 12 25.199 21.602 43.199 26.398 0 0 1.1992 0 1.1992-1.1992 2.3984-1.1992 3.6016-6 2.3984-9.6016-4.8008-21.602-13.199-39.602-24-52.801-13.195-15.598-33.594-22.797-49.195-27.598z"/>
  <path d="m792 972h-420c-13.199 0-24-10.801-24-24s10.801-24 24-24h420c13.199 0 24 10.801 24 24s-10.801 24-24 24z"/>
 </g>
</svg>
