<?xml version="1.0" encoding="UTF-8" standalone="no"?>
<svg
   width="1200pt"
   height="1200pt"
   version="1.1"
   viewBox="0 0 1200 1200"
   id="svg24"
   sodipodi:docname="pest.svg"
   inkscape:version="1.1.2 (0a00cf5339, 2022-02-04, custom)"
   xmlns:inkscape="http://www.inkscape.org/namespaces/inkscape"
   xmlns:sodipodi="http://sodipodi.sourceforge.net/DTD/sodipodi-0.dtd"
   xmlns="http://www.w3.org/2000/svg"
   xmlns:svg="http://www.w3.org/2000/svg">
  <defs
     id="defs28" />
  <sodipodi:namedview
     id="namedview26"
     pagecolor="#ffffff"
     bordercolor="#666666"
     borderopacity="1.0"
     inkscape:pageshadow="2"
     inkscape:pageopacity="0.0"
     inkscape:pagecheckerboard="0"
     inkscape:document-units="pt"
     showgrid="false"
     showguides="false"
     inkscape:zoom="0.535625"
     inkscape:cx="800"
     inkscape:cy="800.93349"
     inkscape:window-width="2560"
     inkscape:window-height="1377"
     inkscape:window-x="1912"
     inkscape:window-y="-8"
     inkscape:window-maximized="1"
     inkscape:current-layer="svg24" />
  <path
     d="m 600,1200 c -24,0 -48,-6 -69.602,-18 l -420,-230.4 C 64.8,926.397 36,878.397 36,825.6 V 374.4 c 0,-52.801 28.801,-100.8 74.398,-126 l 420,-230.4 c 43.199,-24 94.801,-24 138,0 l 420,230.4 c 45.602,25.199 74.398,73.199 74.398,126 v 451.2 c 0,52.801 -28.801,100.8 -74.398,126 l -420,230.4 C 648,1194.004 624,1200.004 600,1200.004 Z M 600,48 c -15.602,0 -31.199,3.6016 -46.801,12 l -420,230.4 C 102,307.201 84,339.599 84,374.4 v 451.2 c 0,34.801 19.199,67.199 49.199,84 l 420,230.4 c 28.801,15.602 63.602,15.602 92.398,0 l 420,-230.4 c 31.199,-16.801 50.398,-49.199 50.398,-84 V 374.4 c 0,-34.801 -19.199,-67.199 -50.398,-84 L 645.60091,60 c -14.402,-8.3984 -30,-12 -45.602,-12 z"
     id="path2" />
  <g
     id="g943">
    <path
       d="m 651.6,451.2 c -4.8008,0 -9.6016,-1.1992 -14.398,-4.8008 -10.801,-7.1992 -13.199,-22.801 -6,-33.602 l 52.801,-74.398 c 7.1992,-10.801 22.801,-13.199 33.602,-6 10.801,7.1992 13.199,22.801 6,33.602 L 672,440.3992 c -4.8008,7.2031 -12,10.801 -20.398,10.801 z"
       id="path6" />
    <path
       d="m 560.4,456 c -7.1992,0 -14.398,-3.6016 -19.199,-9.6016 l -56.398,-79.199 c -7.1992,-10.801 -4.8008,-25.199 6,-33.602 10.801,-7.1992 25.199,-4.8008 33.602,6 l 56.398,79.199 c 7.1992,10.801 4.8008,25.199 -6,33.602 -4.8008,2.4023 -9.6016,3.6016 -14.402,3.6016 z"
       id="path8" />
    <path
       d="m 650.4,573.6 h -96 c -13.199,0 -24,-10.801 -24,-24 0,-13.199 10.801,-24 24,-24 h 96 c 13.199,0 24,10.801 24,24 0,13.199 -10.797,24 -24,24 z"
       id="path10" />
    <path
       d="m 654,555.6 -96,10.801 c -6,0 -13.199,-2.3984 -18,-7.1992 -6,-4.8008 -24,19.199 -24,12 v -52.801 c 0,-67.199 32.398,-110.4 84,-110.4 h 3.6016 3.6016 c 61.199,0 84,58.801 84,110.4 v 44.398 c 0,14.398 -18,-8.3984 -32.398,-7.1992 h -1.1992 -3.6055 z m -12,15.598 M 564,549.6 h 78 v -32.398 c 0,-19.199 -3.6016,-62.398 -36,-62.398 h -3.6016 -3.6016 c -32.398,0 -36,48 -36,62.398 z"
       id="path12" />
    <path
       d="m 600,877.2 c -45.602,0 -75.602,-44.398 -81.602,-122.4 -1.1992,-10.801 25.199,-7.1992 25.199,-19.199 0,-13.199 15.602,-40.801 28.801,-40.801 13.199,0 -7.1992,10.801 -7.1992,24 0,70.801 18,109.2 36,109.2 13.199,0 24,10.801 24,24 0,13.199 -12,25.199 -25.199,25.199 z"
       id="path14" />
    <path
       d="m 607.2,877.2 c -13.199,0 -24,-10.801 -24,-24 0,-13.199 10.801,-24 24,-24 18,0 36,-37.199 36,-109.2 0,-13.199 -22.801,-15.602 -9.6016,-15.602 13.199,0 27.602,27.602 27.602,40.801 0,12 30,-1.1992 28.801,9.6016 -9.6016,109.2 -60,122.4 -82.801,122.4 z"
       id="path16" />
    <path
       d="m 518.4,784.8 c -3.6016,0 -7.1992,0 -10.801,-1.1992 -25.199,-3.6016 -48,-21.602 -61.199,-48 -25.199,-48 -6,-136.8 16.801,-175.2 25.199,-40.801 80.398,-39.602 109.2,-32.398 9.6016,2.3984 16.801,10.801 18,20.398 7.1992,51.602 20.398,175.2 -14.398,210 -16.801,16.797 -37.199,26.398 -57.602,26.398 z M 504.002,585.6 c -18,28.801 -31.199,98.398 -15.602,128.4 7.1992,13.199 15.602,21.602 26.398,22.801 10.801,1.1992 20.398,-4.8008 26.398,-10.801 10.801,-12 12,-81.602 3.6016,-152.4 -15.598,-2.4023 -33.598,0 -40.797,12 z"
       id="path18" />
    <path
       d="m 685.2,784.8 c -20.398,0 -40.801,-9.6016 -57.602,-26.398 -33.602,-34.801 -21.602,-158.4 -14.398,-210 1.1992,-9.6016 8.3984,-18 18,-20.398 28.801,-7.1992 84,-8.3984 109.2,32.398 24,39.602 42,127.2 16.801,175.2 -13.199,26.398 -36,44.398 -61.199,48 -3.6016,1.1992 -7.1992,1.1992 -10.801,1.1992 z M 658.802,572.4 c -8.3984,72 -7.1992,140.4 3.6016,152.4 6,6 15.602,13.199 26.398,10.801 9.6016,-1.1992 19.199,-9.6016 26.398,-22.801 15.602,-31.199 1.1992,-99.602 -15.602,-128.4 -7.1992,-10.797 -26.398,-13.199 -40.797,-12 z"
       id="path20" />
  </g>
</svg>
