<?xml version="1.0" encoding="UTF-8"?>
<svg width="1200pt" height="1200pt" version="1.1" viewBox="0 0 1200 1200" xmlns="http://www.w3.org/2000/svg">
 <g>
  <path d="m600 1200c-24 0-48-6-69.602-18l-420-230.4c-45.598-25.203-74.398-73.203-74.398-126v-451.2c0-52.801 28.801-100.8 74.398-126l420-230.4c43.199-24 94.801-24 138 0l420 230.4c45.602 25.199 74.398 73.199 74.398 126v451.2c0 52.801-28.801 100.8-74.398 126l-420 230.4c-20.398 12.004-44.398 18.004-68.398 18.004zm0-1152c-15.602 0-31.199 3.6016-46.801 12l-420 230.4c-31.199 16.801-49.199 49.199-49.199 84v451.2c0 34.801 19.199 67.199 49.199 84l420 230.4c28.801 15.602 63.602 15.602 92.398 0l420-230.4c31.199-16.801 50.398-49.199 50.398-84l0.003906-451.2c0-34.801-19.199-67.199-50.398-84l-420-230.4c-14.402-8.3984-30-12-45.602-12z"/>
  <path d="m615.6 814.8c-6 0-10.801-1.1992-15.602-4.8008-7.1992-4.8008-10.801-12-10.801-20.398 0-13.199 8.3984-46.801 34.801-46.801 19.199 0 34.801 15.602 34.801 34.801 1.1992 22.797-30 37.199-43.199 37.199z"/>
  <path d="m601.2 685.2c-3.6016 0-7.1992-1.1992-9.6016-2.3984-7.1992-2.3984-14.398-8.3984-19.199-13.199-16.801-15.602-14.398-30-10.801-37.199 3.6016-8.3984 10.801-15.602 19.199-19.199 8.3984-3.6016 18-3.6016 26.398 0 10.801 4.8008 18 15.602 20.398 32.398 2.3984 15.602-1.1992 27.602-10.801 34.801-4.793 2.3984-10.793 4.7969-15.594 4.7969z"/>
  <path d="m700.8 672c-6 0-13.199-1.1992-18-4.8008-20.398-12-15.602-45.602-8.3984-57.602 3.6016-4.8008 7.1992-8.3984 12-10.801 7.1992-3.6016 16.801-2.3984 22.801 2.3984 7.1992 3.6016 13.199 10.801 16.801 16.801 13.199 18 8.3984 32.398 4.8008 38.398-6.0039 9.6055-18.004 15.605-30.004 15.605z"/>
  <path d="m572.4 1029.6h-156c-13.199 0-24-10.801-24-24 0-13.199 10.801-24 24-24h156c13.199 0 24 10.801 24 24 0 13.199-10.797 24-24 24z"/>
  <path d="m764.4 1029.6h-96c-13.199 0-24-10.801-24-24 0-13.199 10.801-24 24-24h96c13.199 0 24 10.801 24 24 0 13.199-10.797 24-24 24z"/>
  <path d="m980.4 909.6h-384c-13.199 0-24-10.801-24-24 0-13.199 10.801-24 24-24h384c13.199 0 24 10.801 24 24 0 13.199-10.797 24-24 24z"/>
  <path d="m500.4 909.6h-240c-13.199 0-24-10.801-24-24 0-13.199 10.801-24 24-24h240c13.199 0 24 10.801 24 24 0 13.199-10.797 24-24 24z"/>
  <path d="m513.6 789.6h-337.2c-13.199 0-24-10.801-24-24 0-13.199 10.801-24 24-24h337.2c13.199 0 24 10.801 24 24 0.003906 13.199-10.797 24-23.996 24z"/>
  <path d="m1056 789.6h-337.2c-13.199 0-24-10.801-24-24 0-13.199 10.801-24 24-24h337.2c13.199 0 24 10.801 24 24 0 13.199-10.801 24-24 24z"/>
  <path d="m609.6 584.4c-19.199 0-36-12-43.199-30-2.3984 0-6 1.1992-12 3.6016l-2.4023 1.1992c-20.398 10.801-50.398 18-78-31.199l-158.4-274.8c-7.1992-12-2.3984-26.398 8.3984-32.398l250.8-145.2c6-3.6016 12-3.6016 18-2.3984 6 1.1992 10.801 6 14.398 10.801l216 374.4c7.1992 12 2.3984 26.398-8.3984 32.398l-76.801 44.398c-12 7.1992-26.398 8.3984-39.602 4.8008-3.6016-1.1992-8.3984-2.3984-13.199-4.8008-4.8008-2.3984-16.801-7.1992-19.199-6 0 0-2.3984 2.3984-4.8008 13.199-6 24-25.199 40.801-48 42h-3.5977zm-44.402-31.199m1.1992-46.801c6 0 12 1.1992 18 3.6016 8.3984 3.6016 19.199 10.801 26.398 27.602 1.1992 0 2.3984-2.3984 3.6016-6 6-21.602 15.602-37.199 31.199-44.398 22.801-10.801 45.602-1.1992 60 4.8008 2.3984 1.1992 6 2.3984 8.3984 3.6016 0 0 1.1992 0 2.3984-1.1992l56.398-32.398-192-333.6-212.39 121.2 147.6 254.4c4.8008 8.3984 8.3984 13.199 9.6016 14.398 1.1992 0 2.3984-1.1992 3.6016-2.3984l2.3984-1.1992c13.199-6 24-8.4023 34.797-8.4023z"/>
  <path d="m520.8 276c-8.3984 0-16.801-4.8008-20.398-12l-34.801-61.199c-7.1992-12-2.3984-26.398 8.3984-32.398 12-7.1992 26.398-2.3984 32.398 8.3984l34.801 61.199c7.1992 12 2.3984 26.398-8.3984 32.398-4.8008 2.4023-8.4023 3.6016-12 3.6016z"/>
  <path d="m487.2 409.2c-8.3984 0-16.801-4.8008-20.398-12-2.3984-4.8008-27.602-48-15.602-94.801 4.8008-18 15.602-36 31.199-51.602 12-12 27.602-15.602 43.199-12 15.602 4.8008 27.602 16.801 32.398 32.398 6 21.602 6 42 1.1992 60-12 45.602-55.199 70.801-60 74.398-3.5938 2.4062-8.3945 3.6055-11.996 3.6055zm25.199-120c-7.1992 8.3984-13.199 16.801-15.602 26.398-2.3984 9.6016-2.3984 20.398 0 30 6-7.1992 12-15.602 15.602-26.398 2.4023-8.3984 2.4023-18 0-30z"/>
  <path d="m567.6 296.4c-8.3984 0-16.801-1.1992-26.398-4.8008-14.398-4.8008-27.602-14.398-39.602-27.602-10.801-10.801-14.398-26.398-9.6016-40.801 3.6016-13.199 14.398-22.801 27.602-26.398 16.801-3.6016 32.398-3.6016 46.801 1.1992 34.801 12 56.398 46.801 58.801 51.602 6 12 2.3984 26.398-8.3984 32.398-3.6055 3.6055-24.004 14.402-49.203 14.402z"/>
 </g>
</svg>
