<?xml version="1.0" encoding="UTF-8"?>
<svg width="1200pt" height="1200pt" version="1.1" viewBox="0 0 1200 1200" xmlns="http://www.w3.org/2000/svg">
 <g>
  <path d="m600 1200.1c-23.797 0-47.605-5.9531-69.301-17.867l-420-230.57c-46.078-25.301-74.699-73.66-74.699-126.23v-450.87c0-52.559 28.621-100.93 74.699-126.23l420-230.58c43.402-23.809 95.207-23.809 138.59 0l420.01 230.57c46.066 25.309 74.699 73.68 74.699 126.24v450.86c0 52.57-28.633 100.93-74.711 126.23l-419.99 230.57c-21.695 11.918-45.504 17.871-69.301 17.871zm0-1152.2c-15.863 0-31.738 3.9727-46.211 11.914l-420 230.57c-30.711 16.863-49.789 49.105-49.789 84.145v450.86c0 35.051 19.078 67.285 49.801 84.156l420 230.57c28.922 15.863 63.469 15.863 92.387 0l420-230.57c30.734-16.859 49.812-49.102 49.812-84.152v-450.87c0-35.039-19.078-67.285-49.801-84.156l-420-230.57c-14.461-7.9336-30.336-11.902-46.199-11.902z"/>
  <path d="m983.39 900.68h-139.88c-13.391 0-24.254-10.848-24.254-24.254 0-13.402 10.848-24.254 24.254-24.254h139.88c13.391 0 24.254 10.848 24.254 24.254s-10.859 24.254-24.254 24.254z"/>
  <path d="m382 900.68h-146.69c-13.391 0-24.254-10.848-24.254-24.254 0-13.402 10.859-24.254 24.254-24.254h146.69c13.391 0 24.254 10.848 24.254 24.254-0.003906 13.406-10.863 24.254-24.254 24.254z"/>
  <path d="m509.66 762.71h-362.82c-13.391 0-24.254-10.848-24.254-24.254 0-13.402 10.859-24.254 24.254-24.254h362.82c13.391 0 24.254 10.848 24.254 24.254-0.003907 13.406-10.863 24.254-24.254 24.254z"/>
  <path d="m1013.7 762.71h-60.625c-13.391 0-24.254-10.848-24.254-24.254 0-13.402 10.848-24.254 24.254-24.254h60.625c13.391 0 24.254 10.848 24.254 24.254s-10.859 24.254-24.254 24.254z"/>
  <path d="m777.71 809.26c-5.0156 0-9.9609-1.5586-14.102-4.5234-5.5195-3.9492-9.1328-10.02-9.9609-16.754-1.8242-14.762-14.426-26.039-29.316-26.207-14.914-0.39453-27.73 10.812-29.879 25.547-0.98438 6.707-4.7383 12.707-10.332 16.512-5.6055 3.8281-12.574 5.1133-19.152 3.5898-30.84-7.1875-59.941-19.633-86.496-36.984-5.6758-3.7188-9.5391-9.6367-10.656-16.32-1.1172-6.6836 0.63672-13.535 4.7891-18.875 9.1562-11.746 8.2188-28.609-2.1953-39.238-10.391-10.656-27.238-11.965-39.191-3.0977-5.4492 4.043-12.336 5.6406-18.984 4.3672-6.6602-1.2617-12.492-5.2578-16.066-11.016-16.766-26.953-28.547-56.316-35.039-87.289-1.3906-6.6367 0.058594-13.547 4.0078-19.066 3.9492-5.5195 10.02-9.1328 16.754-9.9609 14.773-1.8242 26.039-14.426 26.207-29.305 0.16797-14.891-10.812-27.73-25.535-29.891-6.7188-0.98438-12.707-4.7266-16.523-10.332-3.8164-5.6055-5.1133-12.551-3.5742-19.164 7.1875-30.828 19.633-59.93 36.996-86.484 3.707-5.6758 9.625-9.5391 16.309-10.656 6.6719-1.1055 13.523 0.625 18.887 4.8008 11.734 9.1562 28.609 8.1953 39.254-2.207s11.953-27.238 3.0703-39.18c-4.043-5.4375-5.6289-12.324-4.3672-18.984 1.2617-6.6602 5.2578-12.492 11.016-16.066 26.941-16.766 56.316-28.547 87.301-35.039 6.625-1.3906 13.559 0.058594 19.066 4.0078 5.5195 3.9492 9.1328 10.02 9.9609 16.754 1.8242 14.773 14.426 26.039 29.293 26.219 14.879-0.058593 27.73-10.812 29.891-25.547 0.98438-6.707 4.7383-12.707 10.332-16.523s12.562-5.1133 19.152-3.5742c30.828 7.1875 59.93 19.633 86.496 36.996 5.6758 3.707 9.5391 9.625 10.656 16.309 1.1172 6.6836-0.63672 13.535-4.7891 18.875-9.1562 11.746-8.2188 28.609 2.1953 39.254 10.402 10.656 27.254 11.965 39.191 3.0859 5.4375-4.043 12.266-5.6641 18.996-4.3672 6.6602 1.2617 12.48 5.2578 16.066 11.016 16.754 26.93 28.535 56.293 35.039 87.289 1.3906 6.6367-0.058594 13.559-4.0078 19.066-3.9492 5.5195-10.02 9.1328-16.754 9.9609-14.773 1.8242-26.039 14.426-26.207 29.305-0.14453 12.18 7.0664 23.09 18.145 27.816l5.832 0.64844c6.875 0.75781 13.105 4.4297 17.102 10.078 4.0078 5.6523 5.3984 12.742 3.8398 19.477-7.1641 30.938-19.535 60.059-36.781 86.566-3.707 5.6875-9.6133 9.5625-16.297 10.691-6.6836 1.1172-13.547-0.60156-18.887-4.7539-11.773-9.1445-28.633-8.1602-39.254 2.2578-10.633 10.43-11.914 27.277-3 39.215 1.3672 1.8242 2.4727 3.8398 3.2656 5.9766 4.0781 10.824 0.34766 24.109-9.4688 30.227-26.965 16.766-56.328 28.559-87.289 35.039-1.6914 0.29297-3.3594 0.46094-5.0039 0.46094zm-53.699-95.977h0.86328c29.617 0.33594 55.766 17.426 68.773 42.551 10.871-3.4219 21.469-7.668 31.715-12.742-8.543-27.406-1.5859-58.391 19.836-79.402 21.133-20.746 51.684-27.215 78.672-18.695 5.1484-9.9102 9.5391-20.184 13.141-30.77-24.719-13.824-40.344-40.141-40.02-69.227 0.32422-29.605 17.398-55.766 42.539-68.773-3.4219-10.934-7.7031-21.551-12.77-31.824-27.191 7.9688-57.562 0.85156-78.254-20.316-20.699-21.156-27.133-51.719-18.551-78.684-10.164-5.3164-20.699-9.8281-31.535-13.5-13.586 24.84-39.996 41.711-69.719 40.98-29.617-0.33594-55.766-17.41-68.762-42.539-10.922 3.4336-21.551 7.6914-31.824 12.781 7.957 27.156 0.83984 57.562-20.316 78.266-21.156 20.699-51.742 27.109-78.684 18.551-5.3164 10.152-9.8281 20.688-13.5 31.523 24.84 13.559 41.316 40.105 40.992 69.719-0.32422 29.617-17.398 55.766-42.539 68.773 3.4336 10.922 7.7031 21.551 12.781 31.812 27.145-7.9219 57.551-0.82812 78.254 20.328 20.699 21.156 27.121 51.719 18.551 78.695 10.152 5.3047 20.688 9.8164 31.523 13.488 13.43-24.582 39.578-40.996 68.832-40.996z"/>
  <path d="m726.74 630.43c-46.848 0-85.727-37.332-87.266-84.516-1.5469-48.145 36.348-88.57 84.48-90.121 23.484-0.9375 45.539 7.6094 62.555 23.566 17.027 15.961 26.809 37.586 27.574 60.898 1.5469 48.133-36.348 88.559-84.48 90.121-0.95312 0.023438-1.9023 0.050782-2.8633 0.050782zm-38.793-86.102c0.69531 21.406 18.781 38.027 40.094 37.586 21.422-0.69531 38.27-18.672 37.586-40.078-0.32422-10.379-4.6914-20.004-12.254-27.098-7.5859-7.1055-17.809-10.766-27.828-10.488-21.422 0.68359-38.293 18.672-37.598 40.078z"/>
  <path d="m351.61 749.14c-13.246 0-24-10.754-24-24v-127.45c0-13.246 10.754-24 24-24 13.246 0 24 10.754 24 24v127.45c0 13.246-10.742 24-24 24z"/>
  <path d="m313.73 615.47c-5.5078 0-11.113-0.73047-16.656-2.2188-35.242-9.4688-64.129-25.285-85.859-47.027-55.824-55.824-55.812-143.45-55.789-147.14 0.097656-13.117 10.703-23.723 23.82-23.82 3.875-0.011718 91.344-0.011718 147.16 55.789 21.742 21.742 37.559 50.629 47.016 85.859 5.8789 21.91-0.085937 44.484-15.984 60.359-11.867 11.879-27.441 18.203-43.703 18.203zm-4.2109-48.578c7.4414 2.0391 12.238-1.8125 13.98-3.5625 1.7266-1.7383 5.543-6.5625 3.5508-13.98-7.2461-27-18.887-48.66-34.598-64.367-25.477-25.465-62.016-35.387-86.566-39.266 3.8633 24.539 13.789 61.094 39.266 86.566 15.695 15.723 37.355 27.363 64.367 34.609z"/>
  <path d="m378.31 667.12c-12.086 0-23.879-4.6328-33.238-13.367-14.531-13.598-20.617-34.586-15.863-54.77 6.7422-28.754 18.145-52.43 33.863-70.391 10.32-11.797 23.016-21.648 37.727-29.281 11.762-6.0859 26.242-1.5234 32.363 10.246 6.1094 11.762 1.5117 26.258-10.246 32.363-9.3828 4.8594-17.363 11.016-23.723 18.289-10.344 11.809-18.395 29.027-23.258 49.754-1.2617 5.3398 1.5117 8.8203 2.5664 9.2031 7.8594-2.5078 15.215-5.6875 21.758-9.5156 11.449-6.6953 26.148-2.8203 32.832 8.6055 6.6953 11.449 2.832 26.148-8.6055 32.832-9.7578 5.7109-20.531 10.379-32.039 13.895-4.668 1.4258-9.4219 2.1367-14.137 2.1367z"/>
 </g>
</svg>
