<?xml version="1.0" encoding="UTF-8"?>
<svg width="1200pt" height="1200pt" version="1.1" viewBox="0 0 1200 1200" xmlns="http://www.w3.org/2000/svg">
 <g>
  <path d="m264 216c-8.3984 0-16.801-4.8008-21.602-12-6-12-2.3984-26.398 9.6016-32.398l278.4-153.6c43.199-24 94.801-24 138 0l144 79.199c12 6 15.602 20.398 9.6016 32.398s-20.398 15.602-32.398 9.6016l-144-79.199c-28.801-15.602-63.602-15.602-92.398 0l-277.2 152.4c-3.6016 2.4023-8.3984 3.6016-12 3.6016z"/>
  <path d="m600 1200c-24 0-48-6-69.602-18l-420-230.4c-45.598-25.203-74.398-73.203-74.398-126v-441.6c0-13.199 10.801-24 24-24s24 10.801 24 24v440.4c0 34.801 19.199 67.199 49.199 84l420 230.4c28.801 15.602 63.602 15.602 92.398 0l420-230.4c31.199-16.801 50.398-49.199 50.398-84l0.003906-450c0-8.3984-1.1992-16.801-3.6016-25.199-3.6016-13.199 3.6016-26.398 16.801-30 13.199-3.6016 26.398 3.6016 30 16.801 3.6016 12 4.8008 25.199 4.8008 38.398v451.2c0 52.801-28.801 100.8-74.398 126l-420 230.4c-21.602 12.004-45.602 18.004-69.602 18.004z"/>
  <path d="m597.6 417.6c-8.3984 0-18-4.8008-21.602-13.199-6-12-1.1992-26.398 10.801-32.398 126-60 266.4-115.2 355.2-139.2 13.199-3.6016 26.398 3.6016 30 16.801s-3.6016 26.398-16.801 30c-87.602 24-223.2 76.801-348 136.8-2.3984-0.007812-6 1.1953-9.5977 1.1953z"/>
  <path d="m238.8 640.8c-6 0-13.199-2.3984-18-7.1992-9.6016-9.6016-8.3984-25.199 1.1992-33.602 58.801-55.199 147.6-115.2 265.2-176.4 12-6 26.398-1.1992 32.398 9.6016 6 12 1.1992 26.398-9.6016 32.398-111.6 58.801-200.4 117.6-254.4 169.2-4.7969 3.5977-10.797 6-16.797 6z"/>
  <path d="m546 594c-18 0-36-7.1992-50.398-20.398l-2.3984-2.3984c-13.199-13.199-20.398-31.199-20.398-50.398 0-19.199 7.1992-37.199 20.398-50.398l19.199-18c9.6016-9.6016 24-9.6016 33.602 0l69.602 69.602c4.8008 4.8008 7.1992 10.801 7.1992 16.801s-2.3984 12-7.1992 16.801l-18 18c-15.605 13.191-33.605 20.391-51.605 20.391zm-16.801-91.199-2.3984 1.1992c-4.8008 4.8008-7.1992 9.6016-7.1992 16.801 0 6 2.3984 12 7.1992 16.801l2.3984 2.3984c8.3984 8.3984 24 8.3984 32.398 0l1.1992-1.1992z"/>
  <path d="m633.6 577.2c-18 0-36-7.1992-50.398-20.398l-128.4-128.4c-26.398 14.398-75.602 40.801-114 40.801-48 0-93.602-18-129.6-49.199-8.3984-7.1992-20.398-12-31.199-12h-120c-13.199 0-24-10.801-24-24s10.801-24 24-24h120c24 0 45.602 8.3984 63.602 24 27.602 24 61.199 37.199 98.398 37.199 27.602 0 79.199-26.398 104.4-43.199 9.6016-6 21.602-4.8008 30 3.6016l141.6 141.6c9.6016 8.3984 24 9.6016 32.398 0l2.3984-2.3984c4.8008-4.8008 7.1992-10.801 7.1992-16.801s-2.3984-12-7.1992-16.801l-2.3984-2.3984c-9.6016-9.6016-9.6016-25.199-1.1992-34.801l42-42s24-24 43.199-43.199c4.8008-4.8008 4.8008-12 0-16.801l-129.6-129.61c-1.1992-1.1992-3.6016-2.3984-6-2.3984h-334.8c-13.199 0-24-10.801-24-24s10.801-24 24-24h334.8c14.398 0 28.801 6 39.602 16.801l129.6 130.8c22.801 22.801 22.801 61.199 0 84-19.199 19.199-43.199 43.199-43.199 43.199l-27.602 27.602c6 10.801 8.3984 21.602 8.3984 33.602 0 19.199-7.1992 37.199-20.398 50.398l-1.2031 2.3984c-14.398 13.199-32.398 20.398-50.398 20.398zm-36-154.8c-6 0-12-2.3984-16.801-7.1992l-69.602-69.602c-9.6016-9.6016-9.6016-24 0-33.602l42-42c4.8008-4.8008 10.801-7.1992 16.801-7.1992s12 2.3984 16.801 7.1992l69.602 69.602c9.6016 9.6016 9.6016 24 0 33.602l-42 42c-4.8008 4.8008-10.801 7.1992-16.801 7.1992zm-34.801-92.398 34.801 34.801 7.1992-7.1992-34.801-34.801z"/>
  <path d="m476.4 524.4c-19.199 0-37.199-7.1992-50.398-20.398l-2.3984-2.3984c-13.199-13.199-20.398-31.199-20.398-50.398s7.1992-37.199 20.398-50.398l19.199-18c9.6016-9.6016 24-9.6016 33.602 0l69.602 69.602c4.8008 4.8008 7.1992 10.801 7.1992 16.801s-2.3984 12-7.1992 16.801l-19.203 17.992c-13.199 13.199-31.199 20.398-50.402 20.398zm-16.797-91.199-1.1992 1.1992c-4.8008 4.8008-7.1992 9.6016-7.1992 16.801 0 6 2.3984 12 7.1992 16.801l2.3984 2.3984c4.8008 4.8008 9.6016 7.1992 16.801 7.1992 6 0 12-2.3984 16.801-7.1992l1.1992-1.1992z"/>
  <path d="m667.2 492c-6 0-12-2.3984-16.801-7.1992l-69.602-69.602c-9.6016-9.6016-9.6016-24 0-33.602 9.6016-9.6016 24-9.6016 33.602 0l69.602 69.602c9.6016 9.6016 9.6016 24 0 33.602-4.8008 4.8008-10.801 7.1992-16.801 7.1992z"/>
  <path d="m529.2 492c-6 0-12-2.3984-16.801-7.1992-9.6016-9.6016-9.6016-24 0-33.602 9.6016-9.6016 25.199-9.6016 33.602 0 9.6016 9.6016 9.6016 24 0 33.602-4.8008 4.8008-10.801 7.1992-16.801 7.1992z"/>
  <path d="m746.4 1051.2h-288c-13.199 0-24-10.801-24-24s10.801-24 24-24h288c13.199 0 24 10.801 24 24s-10.797 24-24 24z"/>
  <path d="m603.6 1033.2c-13.199 0-24-10.801-24-24v-177.6c0-13.199 10.801-24 24-24 13.199 0 24 10.801 24 24v177.6c0 13.195-10.801 23.996-24 23.996z"/>
  <path d="m656.4 847.2c-20.398 0-39.602-8.3984-54-22.801-19.199-19.199-27.602-48-20.398-74.398 13.199-48 33.602-86.398 63.602-115.2 75.602-75.602 193.2-74.398 198-74.398 13.199 0 24 10.801 24 24 0 4.8008 0 123.6-74.398 198-28.801 28.801-68.398 50.398-115.2 63.602-8.4023-0.003906-15.605 1.1953-21.605 1.1953zm14.402-26.398m146.4-212.4c-34.801 3.6016-96 16.801-138 58.801-22.801 22.801-39.602 55.199-50.398 93.602-2.3984 10.801 0 21.602 7.1992 28.801 7.1992 7.1992 18 10.801 28.801 7.1992 39.602-10.801 70.801-27.602 93.602-50.398 41.996-40.801 55.199-103.2 58.797-138z"/>
  <path d="m566.4 919.2c-6 0-10.801-1.1992-16.801-2.3984-34.801-10.801-63.602-28.801-84-52.801-54-61.199-54-157.2-54-160.8 0-13.199 10.801-24 24-24 3.6016 0 90 0 145.2 62.398 20.398 24 36 55.199 45.602 93.602 6 25.199-1.1992 50.398-19.199 67.199-13.199 10.801-26.398 16.801-40.801 16.801zm-105.6-189.6c3.6016 27.602 13.199 72 39.602 102 15.602 18 36 30 62.398 38.398 1.1992 0 4.8008 1.1992 9.6016-2.3984 3.6016-3.6016 7.1992-12 6-21.602-7.1992-31.199-19.199-55.199-34.801-73.199-24-27.602-58.801-38.402-82.801-43.199z"/>
  <path d="m948 278.4c-2.3984 0-3.6016 0-6-1.1992-13.199-3.6016-20.398-16.801-16.801-28.801 1.1992-3.6016 24-88.801 98.398-124.8 12-6 26.398-1.1992 32.398 10.801s1.1992 26.398-10.801 32.398c-55.199 26.398-73.199 92.398-73.199 93.602-3.5977 10.801-13.195 18-23.996 18z"/>
  <path d="m879.6 280.8h-2.3984c-13.199-1.1992-22.801-13.199-21.602-26.398 0-3.6016 9.6016-91.199 78-139.2 10.801-7.1992 26.398-4.8008 33.602 6 7.1992 10.801 4.8008 26.398-6 33.602-50.398 34.801-57.602 103.2-57.602 103.2-1.2031 14.395-12 22.797-24 22.797z"/>
  <path d="m805.2 303.6c-13.199 0-24-10.801-24-24 0-3.6016 0-91.199 63.602-145.2 9.6016-8.3984 25.199-7.1992 33.602 2.3984 8.3984 9.6016 7.1992 25.199-2.3984 33.602-46.801 39.602-46.801 108-46.801 109.2-0.003906 13.199-10.805 24-24.004 24z"/>
  <path d="m1071.6 337.2c-74.398 0-129.6-51.602-132-54-9.6016-9.6016-9.6016-24-1.1992-33.602 9.6016-9.6016 24-9.6016 33.602-1.1992 1.1992 1.1992 51.602 46.801 111.6 40.801 13.199-1.1992 25.199 8.3984 26.398 21.602 1.1992 13.199-8.3984 25.199-21.602 26.398h-16.801z"/>
  <path d="m1018.8 390c-1.1992 0-1.1992 0 0 0-84-3.6016-138-73.199-140.4-76.801-8.3984-10.801-6-25.199 4.8008-33.602 10.801-8.3984 25.199-6 33.602 4.8008 1.1992 1.1992 43.199 55.199 103.2 57.602 13.199 0 24 12 22.801 25.199-1.2031 13.199-12.004 22.801-24.004 22.801z"/>
  <path d="m936 422.4h-3.6016c-82.801-12-129.6-86.398-132-90-7.1992-10.801-3.6016-26.398 7.1992-33.602 10.801-7.1992 26.398-3.6016 33.602 7.1992 1.1992 1.1992 37.199 58.801 97.199 67.199 13.199 2.3984 22.801 14.398 20.398 27.602-1.1953 12.004-10.797 21.602-22.797 21.602z"/>
  <path d="m284.4 675.6h-2.3984c-13.199-1.1992-22.801-13.199-21.602-26.398 3.6016-42 30-97.199 30-99.602 6-12 19.199-16.801 31.199-12 12 6 16.801 19.199 12 31.199-6 14.398-24 56.398-26.398 84 0 13.199-10.801 22.801-22.801 22.801z"/>
  <path d="m193.2 744c-19.199 0-34.801-15.602-34.801-34.801s15.602-34.801 34.801-34.801 34.801 14.402 34.801 33.602-15.602 36-34.801 36z"/>
  <path d="m258 812.4c-15.602 0-28.801-13.199-28.801-28.801 0-15.602 13.199-28.801 28.801-28.801s28.801 13.199 28.801 28.801c0 15.602-13.199 28.801-28.801 28.801z"/>
 </g>
</svg>
