<?xml version="1.0" encoding="UTF-8" standalone="no"?>
<svg
   width="560.93298pt"
   height="560.93298pt"
   version="1.1"
   viewBox="0 0 560.93298 560.93298"
   id="svg186"
   sodipodi:docname="barley.svg"
   inkscape:version="1.1.1 (3bf5ae0d25, 2021-09-20)"
   xmlns:inkscape="http://www.inkscape.org/namespaces/inkscape"
   xmlns:sodipodi="http://sodipodi.sourceforge.net/DTD/sodipodi-0.dtd"
   xmlns="http://www.w3.org/2000/svg"
   xmlns:svg="http://www.w3.org/2000/svg">
  <sodipodi:namedview
     id="namedview188"
     pagecolor="#ffffff"
     bordercolor="#666666"
     borderopacity="1.0"
     inkscape:pageshadow="2"
     inkscape:pageopacity="0.0"
     inkscape:pagecheckerboard="0"
     inkscape:document-units="pt"
     showgrid="false"
     inkscape:zoom="0.91928571"
     inkscape:cx="466.12277"
     inkscape:cy="467.21057"
     inkscape:window-width="1920"
     inkscape:window-height="1017"
     inkscape:window-x="1912"
     inkscape:window-y="-8"
     inkscape:window-maximized="1"
     inkscape:current-layer="svg186" />
  <defs
     id="defs62">
    <symbol
       id="t"
       overflow="visible">
      <path
         d="m 18.766,-1.125 c -0.96875,0.5 -1.9805,0.875 -3.0312,1.125 -1.043,0.25781 -2.1367,0.39062 -3.2812,0.39062 -3.3984,0 -6.0898,-0.94531 -8.0781,-2.8438 -1.9922,-1.9062 -2.9844,-4.4844 -2.9844,-7.7344 0,-3.2578 0.99219,-5.8359 2.9844,-7.7344 1.9883,-1.9062 4.6797,-2.8594 8.0781,-2.8594 1.1445,0 2.2383,0.13281 3.2812,0.39062 1.0508,0.25 2.0625,0.625 3.0312,1.125 v 4.2188 c -0.98047,-0.65625 -1.9453,-1.1406 -2.8906,-1.4531 -0.94922,-0.3125 -1.9492,-0.46875 -3,-0.46875 -1.875,0 -3.3516,0.60547 -4.4219,1.8125 -1.0742,1.1992 -1.6094,2.8555 -1.6094,4.9688 0,2.1055 0.53516,3.7617 1.6094,4.9688 1.0703,1.1992 2.5469,1.7969 4.4219,1.7969 1.0508,0 2.0508,-0.14844 3,-0.45312 0.94531,-0.3125 1.9102,-0.80078 2.8906,-1.4688 z"
         id="path2" />
    </symbol>
    <symbol
       id="d"
       overflow="visible">
      <path
         d="m 13.734,-11.141 c -0.4375,-0.19531 -0.87109,-0.34375 -1.2969,-0.4375 -0.41797,-0.10156 -0.83984,-0.15625 -1.2656,-0.15625 -1.2617,0 -2.2305,0.40625 -2.9062,1.2188 -0.67969,0.80469 -1.0156,1.9531 -1.0156,3.4531 v 7.0625 H 2.3591 v -15.312 h 4.8906 v 2.5156 c 0.625,-1 1.3438,-1.7266 2.1562,-2.1875 0.82031,-0.46875 1.8008,-0.70312 2.9375,-0.70312 0.16406,0 0.34375,0.01172 0.53125,0.03125 0.19531,0.01172 0.47656,0.03906 0.84375,0.07813 z"
         id="path5" />
    </symbol>
    <symbol
       id="c"
       overflow="visible">
      <path
         d="m 17.641,-7.7031 v 1.4062 H 6.188 c 0.125,1.1484 0.53906,2.0078 1.25,2.5781 0.70703,0.57422 1.7031,0.85938 2.9844,0.85938 1.0312,0 2.082,-0.14844 3.1562,-0.45312 1.082,-0.3125 2.1914,-0.77344 3.3281,-1.3906 v 3.7656 c -1.1562,0.4375 -2.3125,0.76562 -3.4688,0.98438 -1.1562,0.22656 -2.3125,0.34375 -3.4688,0.34375 -2.7734,0 -4.9297,-0.70312 -6.4688,-2.1094 -1.5312,-1.4062 -2.2969,-3.3789 -2.2969,-5.9219 0,-2.5 0.75391,-4.4609 2.2656,-5.8906 1.5078,-1.4375 3.582,-2.1562 6.2188,-2.1562 2.4062,0 4.332,0.73047 5.7812,2.1875 1.4453,1.4492 2.1719,3.3828 2.1719,5.7969 z m -5.0312,-1.625 c 0,-0.92578 -0.27344,-1.6719 -0.8125,-2.2344 -0.54297,-0.57031 -1.25,-0.85938 -2.125,-0.85938 -0.94922,0 -1.7188,0.26562 -2.3125,0.79688 -0.5937,0.53126 -0.96484,1.2969 -1.1094,2.2969 z"
         id="path8" />
    </symbol>
    <symbol
       id="b"
       overflow="visible">
      <path
         d="m 9.2188,-6.8906 c -1.0234,0 -1.793,0.17188 -2.3125,0.51562 -0.51172,0.34375 -0.76562,0.85547 -0.76562,1.5312 0,0.625 0.20703,1.1172 0.625,1.4688 0.41406,0.34375 0.98828,0.51562 1.7188,0.51562 0.92578,0 1.7031,-0.32812 2.3281,-0.98438 0.63281,-0.66406 0.95312,-1.4922 0.95312,-2.4844 v -0.5625 z m 7.4688,-1.8438 V 0 h -4.9219 v -2.2656 c -0.65625,0.92969 -1.3984,1.6055 -2.2188,2.0312 -0.82422,0.41406 -1.8242,0.625 -3,0.625 -1.5859,0 -2.8711,-0.45703 -3.8594,-1.375 -0.99219,-0.92578 -1.4844,-2.1289 -1.4844,-3.6094 0,-1.7891 0.61328,-3.1016 1.8438,-3.9375 1.2383,-0.84375 3.1797,-1.2656 5.8281,-1.2656 h 2.8906 v -0.39062 c 0,-0.76953 -0.30859,-1.332 -0.92188,-1.6875 -0.61719,-0.36328 -1.5703,-0.54688 -2.8594,-0.54688 -1.0547,0 -2.0312,0.10547 -2.9375,0.3125 -0.89844,0.21094 -1.7305,0.52344 -2.5,0.9375 v -3.7344 c 1.0391,-0.25 2.0859,-0.44141 3.1406,-0.57812 1.0625,-0.13281 2.125,-0.20312 3.1875,-0.20312 2.7578,0 4.75,0.54688 5.9688,1.6406 1.2266,1.0859 1.8438,2.8555 1.8438,5.3125 z"
         id="path11" />
    </symbol>
    <symbol
       id="a"
       overflow="visible">
      <path
         d="m 7.7031,-19.656 v 4.3438 H 12.75 v 3.5 H 7.7031 v 6.5 c 0,0.71094 0.14062,1.1875 0.42188,1.4375 0.28126,0.25 0.83594,0.375 1.6719,0.375 h 2.5156 v 3.5 h -4.1875 c -1.9375,0 -3.3125,-0.39844 -4.125,-1.2031 -0.80469,-0.8125 -1.2031,-2.1797 -1.2031,-4.1094 v -6.5 h -2.4219 v -3.5 h 2.4219 v -4.3438 z"
         id="path14" />
    </symbol>
    <symbol
       id="k"
       overflow="visible">
      <path
         d="m 12.766,-13.078 v -8.2031 h 4.9219 V -1e-4 H 12.766 v -2.2188 c -0.66797,0.90625 -1.4062,1.5703 -2.2188,1.9844 -0.8126,0.4141 -1.7578,0.625 -2.8281,0.625 -1.8867,0 -3.4336,-0.75 -4.6406,-2.25 -1.2109,-1.5 -1.8125,-3.4258 -1.8125,-5.7812 0,-2.3633 0.60156,-4.2969 1.8125,-5.7969 1.207,-1.5 2.7539,-2.25 4.6406,-2.25 1.0625,0 2,0.21484 2.8125,0.64062 0.82031,0.42969 1.5664,1.0859 2.2344,1.9688 z m -3.2188,9.9219 c 1.0391,0 1.8359,-0.37891 2.3906,-1.1406 0.55078,-0.76953 0.82812,-1.8828 0.82812,-3.3438 0,-1.457 -0.27734,-2.5664 -0.82812,-3.3281 -0.55469,-0.76953 -1.3516,-1.1562 -2.3906,-1.1562 -1.043,0 -1.8398,0.38672 -2.3906,1.1562 -0.55469,0.76172 -0.82812,1.8711 -0.82812,3.3281 0,1.4609 0.27344,2.5742 0.82812,3.3438 0.55078,0.76172 1.3477,1.1406 2.3906,1.1406 z"
         id="path17" />
    </symbol>
    <symbol
       id="j"
       overflow="visible">
      <path
         d="m 10.5,-3.1562 c 1.0508,0 1.8516,-0.37891 2.4062,-1.1406 0.55078,-0.76953 0.82812,-1.8828 0.82812,-3.3438 0,-1.457 -0.27734,-2.5664 -0.82812,-3.3281 -0.55469,-0.76953 -1.3555,-1.1562 -2.4062,-1.1562 -1.0547,0 -1.8594,0.38672 -2.4219,1.1562 -0.55469,0.77344 -0.82812,1.8828 -0.82812,3.3281 0,1.4492 0.27344,2.5586 0.82812,3.3281 0.5625,0.77344 1.3672,1.1562 2.4219,1.1562 z m -3.25,-9.9219 c 0.67578,-0.88281 1.4219,-1.5391 2.2344,-1.9688 0.82031,-0.42578 1.7656,-0.64062 2.8281,-0.64062 1.8945,0 3.4453,0.75 4.6562,2.25 1.207,1.5 1.8125,3.4336 1.8125,5.7969 0,2.3555 -0.60547,4.2812 -1.8125,5.7812 -1.2109,1.5 -2.7617,2.25 -4.6562,2.25 -1.0625,0 -2.0078,-0.21094 -2.8281,-0.625 C 8.6719,-0.6602 7.9258,-1.32032 7.25,-2.21882 V -2e-5 H 2.3594 v -21.281 H 7.25 Z"
         id="path20" />
    </symbol>
    <symbol
       id="i"
       overflow="visible">
      <path
         d="m 0.34375,-15.312 h 4.8906 l 4.125,10.391 3.5,-10.391 h 4.8906 l -6.4375,16.766 c -0.64844,1.6953 -1.4023,2.8828 -2.2656,3.5625 -0.86719,0.6875 -2,1.0312 -3.4062,1.0312 H 2.79685 V 2.8289 h 1.5312 c 0.83203,0 1.4375,-0.13672 1.8125,-0.40625 C 6.52336,2.16093 6.82024,1.69218 7.03117,1.01645 L 7.17179,0.59457 Z"
         id="path23" />
    </symbol>
    <symbol
       id="g"
       overflow="visible">
      <path
         d="m 2.5781,-20.406 h 5.875 l 7.4219,14 v -14 h 4.9844 V 0 h -5.875 L 7.5625,-14 V 0 H 2.5781 Z"
         id="path26" />
    </symbol>
    <symbol
       id="h"
       overflow="visible">
      <path
         d="M 17.75,-9.3281 V 0 h -4.9219 v -7.1094 c 0,-1.3438 -0.03125,-2.2656 -0.09375,-2.7656 -0.0625,-0.5 -0.16797,-0.86719 -0.3125,-1.1094 -0.1875,-0.3125 -0.44922,-0.55469 -0.78125,-0.73438 -0.32422,-0.17578 -0.69531,-0.26562 -1.1094,-0.26562 -1.0234,0 -1.8242,0.39844 -2.4062,1.1875 -0.58594,0.78125 -0.875,1.8711 -0.875,3.2656 V -1e-4 H 2.3594 v -21.281 H 7.25 v 8.2031 c 0.73828,-0.88281 1.5195,-1.5391 2.3438,-1.9688 0.83203,-0.42578 1.75,-0.64062 2.75,-0.64062 1.7695,0 3.1133,0.54688 4.0312,1.6406 0.91406,1.0859 1.375,2.6562 1.375,4.7188 z"
         id="path29" />
    </symbol>
    <symbol
       id="f"
       overflow="visible">
      <path
         d="M 17.75,-9.3281 V 0 h -4.9219 v -7.1406 c 0,-1.3203 -0.03125,-2.2344 -0.09375,-2.7344 -0.0625,-0.5 -0.16797,-0.86719 -0.3125,-1.1094 -0.1875,-0.3125 -0.44922,-0.55469 -0.78125,-0.73438 -0.32422,-0.17578 -0.69531,-0.26562 -1.1094,-0.26562 -1.0234,0 -1.8242,0.39844 -2.4062,1.1875 -0.58594,0.78125 -0.875,1.8711 -0.875,3.2656 V -1e-4 H 2.3594 v -15.312 H 7.25 v 2.2344 c 0.73828,-0.88281 1.5195,-1.5391 2.3438,-1.9688 0.83203,-0.42578 1.75,-0.64062 2.75,-0.64062 1.7695,0 3.1133,0.54688 4.0312,1.6406 0.91406,1.0859 1.375,2.6562 1.375,4.7188 z"
         id="path32" />
    </symbol>
    <symbol
       id="s"
       overflow="visible">
      <path
         d="m 16.781,-19.766 v 4.3125 c -1.125,-0.5 -2.2266,-0.875 -3.2969,-1.125 -1.0625,-0.25781 -2.0703,-0.39062 -3.0156,-0.39062 -1.25,0 -2.1797,0.17969 -2.7812,0.53125 -0.60547,0.34375 -0.90625,0.88281 -0.90625,1.6094 0,0.54297 0.20312,0.96875 0.60938,1.2812 0.40625,0.30469 1.1406,0.5625 2.2031,0.78125 l 2.25,0.45312 c 2.2695,0.44922 3.8789,1.1406 4.8281,2.0781 0.95703,0.92969 1.4375,2.2461 1.4375,3.9531 0,2.25 -0.66797,3.9297 -2,5.0312 -1.3359,1.0938 -3.3711,1.6406 -6.1094,1.6406 -1.3047,0 -2.6055,-0.125 -3.9062,-0.375 -1.3047,-0.23828 -2.6055,-0.59766 -3.9062,-1.0781 v -4.4531 c 1.3008,0.69922 2.5625,1.2266 3.7812,1.5781 1.2188,0.34375 2.3906,0.51562 3.5156,0.51562 1.1562,0 2.0352,-0.1875 2.6406,-0.5625 0.61328,-0.38281 0.92188,-0.9375 0.92188,-1.6562 0,-0.63281 -0.21094,-1.125 -0.625,-1.4688 -0.41797,-0.34375 -1.2461,-0.65625 -2.4844,-0.9375 l -2.0312,-0.4375 c -2.043,-0.4375 -3.5391,-1.1328 -4.4844,-2.0938 -0.9375,-0.95703 -1.4062,-2.25 -1.4062,-3.875 0,-2.0312 0.65625,-3.5938 1.9688,-4.6875 1.31255,-1.0937 3.1953,-1.6406 5.6562,-1.6406 1.125,0 2.2734,0.08594 3.4531,0.25 1.1875,0.16797 2.4141,0.42188 3.6875,0.76562 z"
         id="path35" />
    </symbol>
    <symbol
       id="r"
       overflow="visible">
      <path
         d="m 12.766,-2.5938 c -0.66797,0.88672 -1.4062,1.543 -2.2188,1.9688 C 9.7347,-0.20703 8.7894,0 7.7191,0 5.8519,0 4.3129,-0.73438 3.0941,-2.2031 1.8753,-3.6797 1.266,-5.5547 1.266,-7.8281 c 0,-2.2891 0.60938,-4.1641 1.8281,-5.625 1.2188,-1.4688 2.7578,-2.2031 4.625,-2.2031 1.0703,0 2.0156,0.21484 2.8281,0.64062 0.8125,0.41797 1.5508,1.0742 2.2188,1.9688 v -2.2656 h 4.9219 v 13.766 c 0,2.457 -0.77734,4.3359 -2.3281,5.6406 -1.5547,1.3008 -3.8086,1.9531 -6.7656,1.9531 -0.94922,0 -1.8711,-0.074219 -2.7656,-0.21875 C 4.93016,5.68013 4.0317,5.45748 3.1255,5.15669 v -3.8125 c 0.86328,0.48828 1.7031,0.85156 2.5156,1.0938 0.82031,0.23828 1.6484,0.35938 2.4844,0.35938 1.6016,0 2.7734,-0.35156 3.5156,-1.0469 0.75,-0.69922 1.125,-1.7969 1.125,-3.2969 z M 9.5472,-12.125 c -1.0117,0 -1.8047,0.375 -2.375,1.125 -0.5625,0.74219 -0.84375,1.7969 -0.84375,3.1719 0,1.3984 0.26953,2.4609 0.8125,3.1875 0.55078,0.71875 1.3516,1.0781 2.4062,1.0781 1.0195,0 1.8125,-0.36719 2.375,-1.1094 0.5625,-0.75 0.84375,-1.8008 0.84375,-3.1562 0,-1.375 -0.28125,-2.4297 -0.84375,-3.1719 -0.5625,-0.75 -1.3555,-1.125 -2.375,-1.125 z"
         id="path38" />
    </symbol>
    <symbol
       id="q"
       overflow="visible">
      <path
         d="m 12.422,-21.281 v 3.2188 H 9.7189 c -0.6875,0 -1.1719,0.125 -1.4531,0.375 -0.27344,0.25 -0.40625,0.6875 -0.40625,1.3125 v 1.0625 h 4.1875 v 3.5 H 7.85955 V -2e-4 h -4.8906 v -11.812 h -2.4375 v -3.5 h 2.4375 v -1.0625 c 0,-1.6641 0.46094,-2.8984 1.3906,-3.7031 0.92578,-0.80078 2.3672,-1.2031 4.3281,-1.2031 z"
         id="path41" />
    </symbol>
    <symbol
       id="e"
       overflow="visible">
      <path
         d="m 9.6406,-12.188 c -1.0859,0 -1.9141,0.39062 -2.4844,1.1719 -0.57422,0.78125 -0.85938,1.9062 -0.85938,3.375 0,1.4688 0.28516,2.5938 0.85938,3.375 0.57031,0.77344 1.3984,1.1562 2.4844,1.1562 1.0625,0 1.875,-0.38281 2.4375,-1.1562 0.57031,-0.78125 0.85938,-1.9062 0.85938,-3.375 0,-1.4688 -0.28906,-2.5938 -0.85938,-3.375 -0.5625,-0.78125 -1.375,-1.1719 -2.4375,-1.1719 z m 0,-3.5 c 2.6328,0 4.6914,0.71484 6.1719,2.1406 1.4766,1.418 2.2188,3.3867 2.2188,5.9062 0,2.5117 -0.74219,4.4805 -2.2188,5.9062 C 14.332,-0.317 12.2734,0.39 9.6406,0.39 6.9922,0.39 4.9258,-0.31703 3.4375,-1.735 1.9453,-3.1608 1.2031,-5.1295 1.2031,-7.6412 c 0,-2.5195 0.74219,-4.4883 2.2344,-5.9062 1.4883,-1.4258 3.5547,-2.1406 6.2031,-2.1406 z"
         id="path44" />
    </symbol>
    <symbol
       id="p"
       overflow="visible">
      <path
         d="m 16.547,-12.766 c 0.61328,-0.94531 1.3477,-1.6719 2.2031,-2.1719 0.85156,-0.5 1.7891,-0.75 2.8125,-0.75 1.7578,0 3.0977,0.54688 4.0156,1.6406 0.92578,1.0859 1.3906,2.6562 1.3906,4.7188 V -4e-4 h -4.9219 v -7.9844 -0.35938 c 0.0078,-0.13281 0.01563,-0.32031 0.01563,-0.5625 0,-1.082 -0.16406,-1.8633 -0.48438,-2.3438 -0.3125,-0.48828 -0.82422,-0.73438 -1.5312,-0.73438 -0.92969,0 -1.6484,0.38672 -2.1562,1.1562 -0.51172,0.76172 -0.77344,1.8672 -0.78125,3.3125 v 7.5156 h -4.9219 v -7.9844 c 0,-1.6953 -0.14844,-2.7852 -0.4375,-3.2656 -0.29297,-0.48828 -0.8125,-0.73438 -1.5625,-0.73438 -0.9375,0 -1.6641,0.38672 -2.1719,1.1562 -0.51172,0.76172 -0.76562,1.8594 -0.76562,3.2969 v 7.5312 h -4.9219 v -15.312 h 4.9219 v 2.2344 c 0.60156,-0.86328 1.2891,-1.5156 2.0625,-1.9531 0.78125,-0.4375 1.6406,-0.65625 2.5781,-0.65625 1.0625,0 2,0.25781 2.8125,0.76562 0.8125,0.51172 1.4258,1.2305 1.8438,2.1562 z"
         id="path47" />
    </symbol>
    <symbol
       id="o"
       overflow="visible">
      <path
         d="m 2.1875,-5.9688 v -9.3438 h 4.9219 v 1.5312 c 0,0.83594 -0.00781,1.875 -0.015625,3.125 -0.011719,1.25 -0.015625,2.0859 -0.015625,2.5 0,1.2422 0.03125,2.1328 0.09375,2.6719 0.070313,0.54297 0.17969,0.93359 0.32812,1.1719 0.20703,0.32422 0.47266,0.57422 0.79688,0.75 0.32031,0.16797 0.69141,0.25 1.1094,0.25 1.0195,0 1.8203,-0.39062 2.4062,-1.1719 0.58203,-0.78125 0.875,-1.8672 0.875,-3.2656 v -7.5625 h 4.8906 V -6e-4 H 12.6875 V -2.2194 C 11.94531,-1.32096 11.1641,-0.6608 10.3437,-0.235 9.51948,0.17906 8.6093,0.39 7.6093,0.39 5.8476,0.39 4.5038,-0.14906 3.5781,-1.235 2.64841,-2.317 2.1875,-3.8952 2.1875,-5.9694 Z"
         id="path50" />
    </symbol>
    <symbol
       id="n"
       overflow="visible">
      <path
         d="m 2.5781,-20.406 h 8.7344 c 2.5938,0 4.582,0.57812 5.9688,1.7344 1.3945,1.1484 2.0938,2.7891 2.0938,4.9219 0,2.1367 -0.69922,3.7812 -2.0938,4.9375 -1.3867,1.1562 -3.375,1.7344 -5.9688,1.7344 H 7.8281 V 3e-4 h -5.25 z m 5.25,3.8125 v 5.7031 H 10.75 c 1.0195,0 1.8047,-0.25 2.3594,-0.75 0.5625,-0.5 0.84375,-1.2031 0.84375,-2.1094 0,-0.91406 -0.28125,-1.6172 -0.84375,-2.1094 -0.55469,-0.48828 -1.3398,-0.73438 -2.3594,-0.73438 z"
         id="path53" />
    </symbol>
    <symbol
       id="m"
       overflow="visible">
      <path
         d="M 2.3594,-15.312 H 7.25 v 15.031 c 0,2.0508 -0.49609,3.6172 -1.4844,4.7031 -0.98047,1.082 -2.4062,1.625 -4.2812,1.625 H -0.9375 V 2.8283 h 0.85938 c 0.92578,0 1.5625,-0.21094 1.9062,-0.625 0.35156,-0.41797 0.53125,-1.2461 0.53125,-2.4844 z m 0,-5.9688 H 7.25 v 4 H 2.3594 Z"
         id="path56" />
    </symbol>
    <symbol
       id="l"
       overflow="visible">
      <path
         d="m 14.719,-14.828 v 3.9844 c -0.65625,-0.45703 -1.3242,-0.79688 -2,-1.0156 -0.66797,-0.21875 -1.3594,-0.32812 -2.0781,-0.32812 -1.3672,0 -2.4336,0.40234 -3.2031,1.2031 -0.76172,0.79297 -1.1406,1.9062 -1.1406,3.3438 0,1.4297 0.37891,2.543 1.1406,3.3438 0.76953,0.79297 1.8359,1.1875 3.2031,1.1875 0.75781,0 1.4844,-0.10938 2.1719,-0.32812 0.6875,-0.22656 1.3203,-0.56641 1.9062,-1.0156 v 4 c -0.76172,0.28125 -1.5391,0.48828 -2.3281,0.625 -0.78125,0.14453 -1.5742,0.21875 -2.375,0.21875 -2.7617,0 -4.9219,-0.70703 -6.4844,-2.125 -1.5547,-1.4141 -2.3281,-3.3828 -2.3281,-5.9062 0,-2.5312 0.77344,-4.5039 2.3281,-5.9219 1.5625,-1.4141 3.7227,-2.125 6.4844,-2.125 0.80078,0 1.5938,0.07422 2.375,0.21875 0.78125,0.13672 1.5547,0.35156 2.3281,0.64062 z"
         id="path59" />
    </symbol>
  </defs>
  <g
     id="g1167"
     transform="translate(-84.984693,0.9308917)">
    <path
       d="m 307.64,556.28 c 0,0 -8.5352,-130.35 26.914,-241.43 0,0 7.2227,-4.7305 14.438,-5.3828 7.2227,-0.66797 9.9688,-9.9297 12.297,-14.914 0,0 -4.3164,4.1562 -10.473,4.8164 0,0 -9.6445,1.0078 -14.133,4.9883 0,0 -1.9922,-5.6523 -5.9883,-9.8047 0,0 -7.6367,-7.6484 -8.3047,-15.461 0,0 -5.1523,16.121 -0.5,22.113 4.6523,5.9805 6.9844,8.9531 7.1445,11.547 0.16797,2.5938 -39.34,157.54 -24.898,247.25 z"
       id="path64" />
    <path
       d="m 340.46,297.76 c 0,0 2.9531,-2.7266 12.145,-4.3789 0,0 10.5,1.5352 18.375,-20.461 0,0 -2.8711,1.9805 -9.6875,2.6328 -6.8242,0.66016 -16.457,1.75 -20.832,22.207 z"
       id="path66" />
    <path
       d="m 344.01,273.71 c 0,0 -0.45312,-3.9922 -6.3516,-11.234 0,0 -8.9648,-5.6836 -0.59766,-27.492 0,0 0.89453,3.3594 5.6406,8.3086 4.7422,4.9492 11.332,12.051 1.3086,30.418 z"
       id="path68" />
    <path
       d="m 336.74,296.77 c 0,0 11.375,-18.379 -1.5352,-30.191 0,0 -5.9062,-3.9414 -6.7812,-8.8633 0,0 -3.9375,10.719 -3.5,15.199 0.4375,4.4961 0.44141,10.949 8.2031,15.766 0.004,0.004 2.8477,2.5156 3.6133,8.0898 z"
       id="path70" />
    <path
       d="m 356.48,251.2 c 0,0 3.1289,-2.5312 12.41,-3.5664 0,0 10.383,2.1992 19.672,-19.227 0,0 -2.9961,1.7734 -9.8555,1.9805 -6.8438,0.21484 -16.523,0.67969 -22.227,20.812 z"
       id="path72" />
    <path
       d="m 352.84,249.97 c 0,0 12.539,-17.594 0.42969,-30.23 0,0 -5.6406,-4.3047 -6.1875,-9.2852 0,0 -4.6211,10.445 -4.4805,14.953 0.14062,4.5039 -0.28125,10.941 7.1641,16.246 -0.004,0 2.6758,2.707 3.0742,8.3164 z"
       id="path74" />
    <path
       d="m 349.23,275.05 c 0,0 2.1289,-21.508 19.566,-23.051 0,0 7.0898,0.46484 10.77,-2.918 0,0 -3.3828,10.902 -6.4609,14.195 -3.0703,3.3047 -5.9453,7.5781 -16.082,7.5391 -0.0117,0 -4.5352,0.80078 -7.793,4.2344 z"
       id="path76" />
    <path
       d="m 362.04,224.58 c 0,0 -0.15625,-4.0195 -5.5,-11.676 0,0 -8.5195,-6.332 1.4453,-27.469 0,0 0.64453,3.4258 5.0078,8.707 4.3633,5.2891 10.41,12.871 -0.95313,30.438 z"
       id="path78" />
    <path
       d="m 378.14,203.59 c 0,0 2.8672,-2.8281 11.996,-4.7695 0,0 10.551,1.1875 17.707,-21.043 0,0 -2.8047,2.0664 -9.6055,2.9414 -6.8008,0.875 -16.391,2.2812 -20.098,22.871 z"
       id="path80" />
    <path
       d="m 371.36,200.07 c 0,0 15.359,-15.191 5.582,-29.715 0,0 -4.8164,-5.207 -4.5195,-10.203 0,0 -6.3398,9.4961 -6.9609,13.965 -0.63281,4.457 -2.1445,10.734 4.2852,17.238 0,0 2.1797,3.1211 1.6133,8.7148 z"
       id="path82" />
    <path
       d="m 367.15,226.3 c 0,0 3.7227,-21.293 21.211,-21.539 0,0 7.0391,0.98438 10.965,-2.1055 0,0 -4.1875,10.625 -7.5,13.688 -3.3047,3.0586 -6.4961,7.1055 -16.598,6.3047 0.008,0.004 -4.5664,0.46484 -8.0781,3.6523 z"
       id="path84" />
    <path
       d="m 384.33,182.23 c 0,0 4.5977,-4.1602 8.0938,-6.3438 3.5039,-2.1836 9.3008,-8.4219 9.4141,-21.223 0,0 -0.77344,-4.918 -0.44141,-8.5352 0,0 -3.4336,3.0859 -6.8867,4.8164 -0.64844,0.32422 -11.262,5.3359 -11.262,17.613 -0.004,6.3438 1.625,11.047 1.082,13.672 z"
       id="path86" />
    <path
       d="m 396.34,208.9 c 2.7539,-7.6367 6.2617,-14.941 10.02,-22.098 3.7695,-7.168 8.2773,-13.914 12.758,-20.648 4.5117,-6.7148 9.2383,-13.301 14.387,-19.555 5.2344,-6.1562 10.797,-12.207 17.574,-16.684 l 0.19531,0.28125 c -6.4609,4.8008 -11.609,11.082 -16.438,17.457 -4.8398,6.4062 -9.2461,13.121 -13.434,19.969 -4.1992,6.8477 -7.9297,13.965 -12.086,20.844 -4.1328,6.8945 -8.2539,13.805 -12.672,20.59 z"
       id="path88" />
    <path
       d="m 406.09,180.6 c 0.6875,-2.2617 1.5391,-4.457 2.3398,-6.6758 0.86328,-2.1914 1.7656,-4.3672 2.6836,-6.5391 1.8359,-4.3359 3.8906,-8.5859 6.0312,-12.789 4.2969,-8.3945 9.4297,-16.34 14.762,-24.109 5.332,-7.7773 11.043,-15.301 17.281,-22.379 6.2812,-7.0156 13.109,-13.598 20.703,-19.141 l 0.20312,0.26953 c -7.2969,5.8867 -13.738,12.734 -19.621,19.977 -5.9258,7.2227 -11.301,14.879 -16.289,22.77 -4.9961,7.9023 -9.4141,16.129 -14.062,24.23 -4.6367,8.1133 -9.1406,16.301 -13.719,24.527 z"
       id="path90" />
    <path
       d="m 399.17,175.04 c 1.3203,-3.0078 2.7812,-5.9414 4.1953,-8.9023 l 4.4648,-8.7695 c 3.0078,-5.8281 6.1992,-11.562 9.4453,-17.258 6.4961,-11.395 13.727,-22.359 21.086,-33.227 7.3633,-10.859 15.004,-21.547 23.262,-31.758 4.1562,-5.0781 8.4766,-10.035 13.109,-14.707 4.6484,-4.6211 9.5547,-9.1016 15.301,-12.355 l 0.16797,0.29688 c -5.5703,3.4102 -10.289,8.0195 -14.738,12.762 -4.4336,4.7891 -8.5586,9.8633 -12.512,15.055 -7.9531,10.359 -15.277,21.203 -22.32,32.199 -7.0273,11.027 -13.574,22.34 -20.441,33.465 l -10.297,16.699 -5.1641,8.3555 -5.2539,8.3086 z"
       id="path92" />
    <path
       d="m 357.56,188.19 -0.0273,0.0937 -0.004,0.0234 c -0.15625,-0.043 0.33203,0.15625 -0.35156,-0.0859 l 0.0234,-0.0937 0.0547,-0.19141 0.10548,-0.37891 0.20702,-0.75 0.44923,-1.5078 0.87891,-2.9961 1.8359,-5.957 3.793,-11.855 c 2.5195,-7.8906 5.5039,-15.629 7.9844,-23.535 2.48829,-7.9023 4.7422,-15.883 6.47269,-23.969 0.89062,-4.043 1.6445,-8.1133 2.1562,-12.227 0.48828,-4.0977 0.76563,-8.25 0.41017,-12.375 l 0.33983,-0.04297 c 0.58203,4.1445 0.54298,8.3477 0.26173,12.516 -0.28516,4.1758 -0.82423,8.3203 -1.5,12.441 -1.418,8.2305 -3.3594,16.359 -5.5312,24.414 -2.207,8.0469 -4.3945,16.105 -7.3984,23.895 -1.4961,3.8906 -3.0586,7.7617 -4.7539,11.574 -0.83984,1.9023 -1.7305,3.8008 -2.6328,5.6797 l -1.4102,2.8008 -0.71094,1.3984 -0.37109,0.6875 -0.19141,0.33984 -0.0937,0.17969 c 0,-0.004 -0.0273,0.0664 -0.0117,-0.004 -0.69922,-0.21094 -0.19141,-0.0547 -0.34766,-0.10547 l 0.0156,-0.0156 0.043,-0.0898 z"
       id="path94" />
    <path
       d="m 371.49,162.19 c 3.6914,-8.8594 7.4258,-17.633 11.004,-26.461 3.5859,-8.832 7.3906,-17.555 10.617,-26.527 3.1914,-8.9727 5.9805,-18.094 8.0938,-27.383 2.1523,-9.2773 3.6328,-18.742 3.7734,-28.301 l 0.33984,-0.0039 c 0.3125,9.5938 -0.73828,19.203 -2.4531,28.656 -1.793,9.4414 -4.2891,18.75 -7.1914,27.91 -2.9023,9.1602 -6.0469,18.266 -10.074,27.004 -2.0156,4.3633 -4.1211,8.6797 -6.4297,12.898 -1.1602,2.1094 -2.3242,4.1992 -3.5352,6.2812 -1.2617,2.0547 -2.4766,4.1172 -3.8516,6.1055 z"
       id="path96" />
    <path
       d="m 379.57,164.11 3.4961,-9.1914 3.5859,-9.1445 7.1641,-18.262 c 4.7812,-12.168 9.8906,-24.199 14.48,-36.434 4.5703,-12.242 8.8438,-24.605 12.348,-37.191 1.7734,-6.2773 3.3555,-12.617 4.5195,-19.039 1.125,-6.4062 1.9805,-12.945 1.3594,-19.449 l 0.33594,-0.04297 c 0.85156,6.5391 0.21094,13.164 -0.69531,19.66 -0.94531,6.5 -2.3125,12.938 -3.875,19.312 -3.1992,12.734 -7.1641,25.262 -11.434,37.672 -4.2656,12.398 -8.7031,24.762 -13.895,36.809 -2.6211,6.0195 -5.2812,12.012 -8.1367,17.914 l -4.3359,8.832 c -1.5195,2.9102 -2.9922,5.8359 -4.6016,8.7031 z"
       id="path98" />
    <path
       d="m 307.02,498.28 c -1.6758,-24.051 1.4102,-48.293 6.8594,-71.859 5.4609,-23.625 14.004,-46.57 25.066,-68.293 5.707,-10.77 11.938,-21.281 18.891,-31.297 7.1172,-9.9023 14.582,-19.57 23.027,-28.352 16.645,-17.746 35.914,-33.023 57.266,-44.117 -17.664,16.285 -33.875,33.387 -48.211,51.855 -7.043,9.3281 -13.949,18.715 -20.059,28.637 -6.2773,9.793 -12.125,19.875 -17.367,30.273 -10.832,20.625 -19.609,42.324 -27.199,64.535 -7.4102,22.289 -13.648,45.074 -18.273,68.617 z"
       id="path100" />
    <path
       d="m 308.48,464.34 c 1.4453,-12.996 5.9766,-25.375 11.75,-36.992 5.7461,-11.688 13.176,-22.566 21.824,-32.402 8.6797,-9.8008 18.664,-18.543 29.793,-25.469 11.039,-7.0156 23.191,-12.359 35.996,-14.777 -10.121,8.1875 -19.734,15.961 -28.797,24.254 -8.9883,8.3477 -17.512,16.984 -25.57,26.102 -16.211,18.234 -30.406,37.996 -44.996,59.285 z"
       id="path102" />
    <path
       d="m 306.26,461.39 c -3.125,-12.359 -7.6367,-23.34 -12.258,-34.418 -4.8398,-10.891 -8.1914,-22.637 -13.652,-33.695 -5.3594,-11.059 -11.574,-21.812 -18.352,-32.258 -6.5742,-10.613 -13.887,-20.789 -21.297,-30.973 l 1.1406,-1.0195 c 9.2578,8.6133 17.914,17.863 26.285,27.453 8.1602,9.7539 15.863,19.965 22.848,30.801 6.8555,10.836 14.312,21.902 17.484,34.832 1.5977,6.418 2.7266,13.004 2.7891,19.711 0.0664,6.6641 -0.54688,13.52 -3.4961,19.812 z"
       id="path104" />
    <path
       d="m 400.17,147.8 c 5.0742,-13.133 9.6719,-26.828 15.418,-39.652 5.7578,-12.809 11.805,-25.48 18.227,-37.961 6.4297,-12.477 13.223,-24.773 20.578,-36.727 7.3633,-11.945 15.27,-23.582 24.207,-34.391 -8.7266,10.98 -16.379,22.754 -23.48,34.82 -7.1016,12.078 -13.629,24.477 -19.789,37.055 -6.1562,12.578 -11.934,25.336 -17.41,38.219 -5.4727,12.887 -12.359,25.52 -17.137,38.629 h -0.61328 z"
       id="path106" />
  </g>
</svg>
