<?xml version="1.0" encoding="UTF-8" standalone="no"?>
<svg
   width="282.06201pt"
   height="282.06201pt"
   version="1.1"
   viewBox="0 0 282.06201 282.06201"
   id="svg4"
   sodipodi:docname="bean.svg"
   inkscape:version="1.1.1 (3bf5ae0d25, 2021-09-20)"
   xmlns:inkscape="http://www.inkscape.org/namespaces/inkscape"
   xmlns:sodipodi="http://sodipodi.sourceforge.net/DTD/sodipodi-0.dtd"
   xmlns="http://www.w3.org/2000/svg"
   xmlns:svg="http://www.w3.org/2000/svg">
  <defs
     id="defs8" />
  <sodipodi:namedview
     id="namedview6"
     pagecolor="#ffffff"
     bordercolor="#666666"
     borderopacity="1.0"
     inkscape:pageshadow="2"
     inkscape:pageopacity="0.0"
     inkscape:pagecheckerboard="0"
     inkscape:document-units="pt"
     showgrid="false"
     inkscape:zoom="0.6973018"
     inkscape:cx="327.69168"
     inkscape:cy="545.67477"
     inkscape:window-width="1920"
     inkscape:window-height="1017"
     inkscape:window-x="1912"
     inkscape:window-y="-8"
     inkscape:window-maximized="1"
     inkscape:current-layer="svg4" />
  <path
     d="m 25.885134,263.35135 c 10.801,-6.3203 36.66,-33.543 48.574,-51.133 11.391,-16.82 18.383,-32.938 26.776996,-61.754 13.168,-45.203 20.59,-65.238001 29.07,-78.465001 11.438,-17.844 41.496,-46.613 53.75,-51.445 4.1992,-1.6562 4.293,-1.9961 1.418,-5.1758 -3.4883,-3.8555 -4.0273,-8.9061998 -1.1406,-10.6909998 1.0703,-0.66406 5.9531,0.76953 10.855,3.1836 7.5781,3.7265998 11.531,4.3358998 26.363,4.0702998 19.227,-0.34375 28.504,-2.6210998 33.586,-8.2382998 1.8438,-2.0391 4.9219,-3.703099979713 6.8359,-3.703099979713 4.9883,0 4.5,7.558599979713 -1.2188,18.839999779713 -3.0352,5.9883 -3.9961,9.7109 -2.7148,10.504 4.2344,2.6172 5.5078,10.207 2.7539,16.453 -1.4844,3.3633 -3.2109,10.125 -3.8438,15.027 -0.96484,7.4961 -2.4531,10.043 -9.3633,16.047 -12.633,10.969 -18.633,33.711001 -10.773,40.820001 4.8516,4.3906 5.9844,3.9297 5.9844,-2.4297 0,-8.9219 12.535,-15.133 18.5,-9.168 3.9414,3.9414 2.7227,14.09 -2.1523,17.926 -3.5234,2.7695 -4.6406,5.9102 -5.5117,15.527 -0.95703,10.586 -1.9062,12.867 -7.7891,18.75 -8.3672,8.3672 -10.863,6.418 -5.168,-4.043 2.9609,-5.4453 4.125,-10.273 3.6953,-15.34 -0.54297,-6.418 -1.4297,-7.6641 -6.7031,-9.4375 -3.3398,-1.125 -7.4961,-3.4688 -9.2305,-5.207 -4.4961,-4.5039 -5.5781,-20.25 -2.0938,-30.477001 l 2.8789,-8.4375 -5.3281,-1.0664 c -6.7617,-1.3516 -8.8828,-7.3555 -4.8008,-13.586 3.7617,-5.7383 10.953,-6.0586 16.285,-0.72656 3.3164,3.3164 4.3789,3.5273 7.0781,1.418 7.7695,-6.082 8.25,-12.352 1.0078,-13.215 -2.75,-0.32812 -5.9336,-2.0859 -7.0703,-3.9023 -3.3828,-5.3984 0.83594,-9.8203 10.02,-10.496 6.9453,-0.50781 7.8711,-1.1055 7.3594,-4.6992 -0.32812,-2.2617 -1.8633,-4.3477 -3.418,-4.6328 -4.3516,-0.79688 -24.586,16.086 -26.762,22.336 -1.0586,3.0352 -2.5078,5.5195 -3.2227,5.5195 -2.8984,0 -7.6016,11.219 -10.414,24.855 -1.6445,7.9609 -4.2656,32.008001 -5.8281,53.441001 -4.3008,59.031 -11.09,75.562 -43.449,105.77 -30.441,28.41 -48.652,35.586 -90.608996,35.691 -14.535,0.0391 -32.375,-0.76172 -39.645,-1.7656 -12.137,-1.6836 -13.254,-2.2188 -13.711,-6.5547 -0.41016,-3.8945 1.1914,-5.707 9.1797,-10.383 z m 25.59,-3.6641 c 6.0039,-2.75 15.473,-8.4375 21.047,-12.645 8.5547,-6.4609 9.9531,-8.3516 8.9961,-12.172 -1.5625,-6.2305 2.8633,-15.914 10.988,-24.039 4.1367,-4.1367 6.8164,-8.6445 6.8164,-11.465 0,-2.8164 2.042996,-6.25 5.191396,-8.7305 3.3633,-2.6484 5.2734,-6.0156 5.4258,-9.5742 0.14453,-3.0195 0.32812,-7.2305 0.47266,-9.3555 0.14454,-2.125 2.418,-6.0469 5.0898,-8.7148 3.1094,-3.1094 4.8711,-6.9805 4.9023,-10.77 0.0742,-10.168 3.2227,-19.188 8.1758,-23.496 4.1445,-3.6016 4.6055,-5.1445 3.5391,-11.812 -1.125,-7.0273 -0.64453,-8.2617 5.6836,-14.746 3.8008,-3.890601 6.7539,-8.718801 6.5703,-10.730001 -0.82422,-8.9023 0.46094,-12.156 5.9219,-14.98 4.6875,-2.4258 5.6641,-4.0898 5.6641,-9.668 0,-8.8984 5.1523,-17.27 12.227,-19.859 3.1406,-1.1523 7.4375,-4.7461 9.5469,-7.9922 3.2227,-4.957 5.0352,-5.9062 11.328,-5.9336 8.1836,-0.0391 12.883,-2.0625 11.184,-4.8164 -2.5742,-4.1641 -12.176,-1.4609 -22.836,6.4336 -14.789,10.949 -36.305,34.039 -42.539,45.652 -5.8477,10.898 -20.195,51.953001 -26.145,74.824001 -2.2539,8.6641 -5.3984,18.727 -6.9844,22.359 -14.890996,34.113 -23.683996,47.316 -47.163996,70.793 -8.3086,8.3047 -14.859,15.402 -14.559,15.77 0.28906,0.36328 5.457,-1.5859 11.461,-4.332 z m 13.867,15.711 c 23.332,0.32812 53.726996,-6.9062 68.905996,-16.426 10.555,-6.6172 30.18,-25.656 39.805,-38.613 12.758,-17.172 21.543,-45.824 21.551,-70.273 0.004,-14.508 3.25,-50.074 5.6875,-62.297001 1.0352,-5.1914 4.0742,-16.66 6.7539,-25.484 2.6797,-8.8242 5.5547,-18.332 6.3945,-21.129 2.0938,-6.9922 0.71875,-7.6094 -7.5391,-3.3984 -18.555,9.4648 -33.488,36.598 -56.613,102.870001 -14.66,42.012 -29.277,71.043 -42.781,84.988 -20.327996,20.988 -36.315996,33.699 -53.483996,42.523 -8.168,4.1992 -8.3125,4.418 -3.7773,5.7305 2.5938,0.75391 9.3906,1.4297 15.102,1.5117 z m 33.414,-51.188 c 3.839796,-3.8398 6.453096,-7.5156 5.804696,-8.1641 -2.1836,-2.1836 -9.246096,1.3555 -10.905996,5.4648 -3.4805,8.6328 -1.7539,9.5469 5.1016,2.6992 z m 15.925996,-21.84 c 6.5039,-11.16 6.2227,-13.555 -1.0352,-8.8008 -3.9648,2.5977 -4.875,4.668 -4.8398,11.008 l 0.0391,7.8047 z m 5.6875,-21.148 2.168,6.2148 2.3633,-4.5156 c 4.8477,-9.2617 31.355,-81.305 30.301,-82.359 -0.28906,-0.28906 -3.4258,1.4297 -6.9648,3.8281 -5.5469,3.7578 -6.4219,5.3867 -6.3281,11.812 0.0742,4.1016 0.48047,8.6602 0.94531,10.133 0.46094,1.4727 -0.98438,3.6328 -3.2109,4.793 -9.8945,5.1719 -10.652,6.7773 -9.5312,20.152 1.0469,12.508 1.0117,12.625 -4.3789,14.859 -2.9922,1.2383 -5.8086,3.6562 -6.2656,5.3672 -0.45312,1.7148 -0.92578,3.2031 -1.0469,3.3086 -0.10938,0.10937 0.76172,2.9883 1.9453,6.4062 z m 34.367,-85.945001 c 2.3438,3.207 2.7969,2.7695 5.5508,-5.3008 2.4531,-7.1914 2.5273,-8.793 0.43359,-8.793 -8.3008,0 -11.234,6.9141 -5.9844,14.098 z m 11.688,-22.238 c 1.5977,0.52734 10.301,-14.168 10.301,-17.395 0,-2.1602 -6.6289,-0.60937 -9.8555,2.3125 -3.7656,3.4062 -4.0742,13.895 -0.44531,15.082 z m 18.793,-27.727 c 1.5547,-1.293 2.832,-3.1992 2.832,-4.2383 0,-1.0547 -1.2539,-0.85156 -2.832,0.46094 -1.5586,1.293 -2.832,3.1992 -2.832,4.2383 0,1.0508 1.2539,0.85156 2.832,-0.46094 z m 35.164,-18.965 c 4.1602,0.11719 7.9844,5.0469 6.6367,8.5586 -1.6836,4.3828 0.25391,3.5117 10.785,-4.8633 11.914,-9.4688 15.156,-14.184 8.5469,-12.418 -2.4766,0.66406 -12.57,1.7852 -22.438,2.4961 -16.812,1.2148 -17.578,1.4453 -12.27,3.7188 3.1133,1.332 7.0469,2.4648 8.7344,2.5117 z m 31.742,92.586001 c 2.2305,0 4.6094,-3.6836 3.2578,-5.0352 -1.3555,-1.3555 -5.0352,1.0273 -5.0352,3.2578 0,0.97656 0.79688,1.7734 1.7734,1.7734 z"
     id="path2" />
</svg>
