<?xml version="1.0" encoding="UTF-8" standalone="no"?>
<svg
   width="388.04901pt"
   height="388.04901pt"
   version="1.1"
   viewBox="0 0 388.04901 388.04901"
   id="svg156"
   sodipodi:docname="blueberry.svg"
   inkscape:version="1.1.1 (3bf5ae0d25, 2021-09-20)"
   xmlns:inkscape="http://www.inkscape.org/namespaces/inkscape"
   xmlns:sodipodi="http://sodipodi.sourceforge.net/DTD/sodipodi-0.dtd"
   xmlns="http://www.w3.org/2000/svg"
   xmlns:svg="http://www.w3.org/2000/svg">
  <sodipodi:namedview
     id="namedview158"
     pagecolor="#ffffff"
     bordercolor="#666666"
     borderopacity="1.0"
     inkscape:pageshadow="2"
     inkscape:pageopacity="0.0"
     inkscape:pagecheckerboard="0"
     inkscape:document-units="pt"
     showgrid="false"
     inkscape:zoom="0.91928571"
     inkscape:cx="466.12277"
     inkscape:cy="467.21057"
     inkscape:window-width="1920"
     inkscape:window-height="1017"
     inkscape:window-x="1912"
     inkscape:window-y="-8"
     inkscape:window-maximized="1"
     inkscape:current-layer="svg156" />
  <defs
     id="defs62">
    <symbol
       id="t"
       overflow="visible">
      <path
         d="M 1.8281,-0.10938 C 1.73435,-0.054692 1.63279,-0.019536 1.53122,0 1.43747,0.019531 1.332,0.03125 1.21872,0.03125 c -0.33594,0 -0.60156,-0.085938 -0.79688,-0.26562 -0.1875,-0.1875 -0.28125,-0.44141 -0.28125,-0.76562 0,-0.3125 0.09375,-0.5625 0.28125,-0.75 0.19531,-0.1875 0.46094,-0.28125 0.79688,-0.28125 0.11328,0 0.21875,0.015625 0.3125,0.046875 0.10156,0.023437 0.20312,0.058594 0.29688,0.10938 v 0.40625 C 1.73435,-1.531235 1.6406,-1.578115 1.54685,-1.609355 1.4531,-1.640595 1.35154,-1.65623 1.24997,-1.65623 c -0.17969,0 -0.32031,0.0625 -0.42188,0.1875 -0.10547,0.11719 -0.15625,0.27344 -0.15625,0.46875 0,0.21094 0.050781,0.375 0.15625,0.5 0.10156,0.11719 0.24219,0.17188 0.42188,0.17188 0.10156,0 0.20312,-0.015625 0.29688,-0.046875 0.09376,-0.03125 0.1875,-0.078125 0.28125,-0.14062 z"
         id="path2" />
    </symbol>
    <symbol
       id="d"
       overflow="visible">
      <path
         d="M 1.3438,-1.0938 C 1.300831,-1.113331 1.257862,-1.12505 1.2188,-1.12505 1.175831,-1.132862 1.132862,-1.140675 1.0938,-1.140675 c -0.125,0 -0.22656,0.042969 -0.29688,0.125 -0.0625,0.074219 -0.09375,0.18359 -0.09375,0.32812 v 0.6875 H 0.23442 v -1.5 h 0.46875 v 0.25 c 0.0625,-0.09375 0.12891,-0.16016 0.20312,-0.20312 C 0.988321,-1.503956 1.08598,-1.5313 1.20317,-1.5313 h 0.046875 c 0.019531,0 0.050781,0.00781 0.09375,0.015625 z"
         id="path5" />
    </symbol>
    <symbol
       id="a"
       overflow="visible">
      <path
         d="m 1.7188,-0.75 v 0.14062 H 0.6094 c 0.007813,0.10547 0.046875,0.1875 0.10938,0.25 0.070312,0.054687 0.17188,0.078125 0.29688,0.078125 0.10156,0 0.20703,-0.015625 0.3125,-0.046875 0.10156,-0.03125 0.21094,-0.070313 0.32812,-0.125 v 0.35938 C 1.53909,-0.050781 1.42581,-0.019531 1.31253,0 1.19534,0.019531 1.08206,0.03125 0.96878,0.03125 c -0.27344,0 -0.48047,-0.066406 -0.625,-0.20312 -0.14844,-0.13281 -0.21875,-0.32812 -0.21875,-0.57812 0,-0.23828 0.070312,-0.42578 0.21875,-0.5625 0.14453,-0.14453 0.34766,-0.21875 0.60938,-0.21875 0.22656,0 0.41016,0.074219 0.54688,0.21875 0.14453,0.13672 0.21875,0.32422 0.21875,0.5625 z M 1.23442,-0.90625 C 1.23442,-1 1.207076,-1.07031 1.156295,-1.125 c -0.054688,-0.0625 -0.125,-0.09375 -0.21875,-0.09375 -0.085938,0 -0.15625,0.027344 -0.21875,0.078125 -0.0625,0.054687 -0.10156,0.13281 -0.10938,0.23438 z"
         id="path8" />
    </symbol>
    <symbol
       id="e"
       overflow="visible">
      <path
         d="m 0.90625,-0.67188 c -0.10547,0 -0.18359,0.015625 -0.23438,0.046875 -0.054687,0.03125 -0.078125,0.085938 -0.078125,0.15625 0,0.0625 0.019531,0.10938 0.0625,0.14062 0.039062,0.03125 0.097656,0.046875 0.17188,0.046875 0.09375,0 0.16406,-0.03125 0.21875,-0.09375 0.0625,-0.0625 0.09375,-0.14453 0.09375,-0.25 V -0.671885 Z M 1.625,-0.85938 V 0 H 1.14062 V -0.21875 C 1.07812,-0.125 1.0039,-0.05469 0.92187,-0.01563 0.847651,0.01562 0.7539,0.031245 0.64062,0.031245 c -0.15625,0 -0.28125,-0.039062 -0.375,-0.125 -0.09375,-0.09375 -0.14062,-0.21094 -0.14062,-0.35938 0,-0.17578 0.054688,-0.30078 0.17188,-0.375 0.125,-0.082031 0.3125,-0.125 0.5625,-0.125 H 1.14063 V -1.00001 c 0,-0.070312 -0.03125,-0.125 -0.09375,-0.15625 -0.054687,-0.039062 -0.14062,-0.0625 -0.26562,-0.0625 -0.10547,0 -0.20312,0.011719 -0.29688,0.03125 C 0.398443,-1.164072 0.32032,-1.132822 0.25,-1.09376 v -0.35938 c 0.10156,-0.03125 0.20703,-0.050781 0.3125,-0.0625 0.10156,-0.00781 0.20312,-0.015625 0.29688,-0.015625 0.26953,0 0.46094,0.054688 0.57812,0.15625 0.125,0.10547 0.1875,0.27734 0.1875,0.51562 z"
         id="path11" />
    </symbol>
    <symbol
       id="c"
       overflow="visible">
      <path
         d="m 0.75,-1.9219 v 0.42188 h 0.5 v 0.34375 h -0.5 v 0.64062 c 0,0.0625 0.007812,0.10938 0.03125,0.14062 0.03125,0.023438 0.085938,0.03125 0.17188,0.03125 h 0.25 V -3e-5 H 0.79688 C 0.60938,-3e-5 0.47266,-0.035186 0.39063,-0.10941 0.316411,-0.191441 0.28125,-0.32816 0.28125,-0.51566 v -0.64062 h -0.25 v -0.34375 h 0.25 v -0.42188 z"
         id="path14" />
    </symbol>
    <symbol
       id="i"
       overflow="visible">
      <path
         d="M 1.25,-1.2812 V -2.07808 H 1.73438 V 2e-5 H 1.25 V -0.21873 C 1.175781,-0.12498 1.09766,-0.05467 1.01562,-0.01561 0.941401,0.01564 0.85156,0.031265 0.75,0.031265 c -0.17969,0 -0.32812,-0.070312 -0.45312,-0.21875 -0.11719,-0.14453 -0.17188,-0.33203 -0.17188,-0.5625 0,-0.22656 0.054688,-0.41406 0.17188,-0.5625 0.125,-0.14453 0.27344,-0.21875 0.45312,-0.21875 0.10156,0 0.19141,0.023438 0.26562,0.0625 0.082031,0.042969 0.16016,0.10547 0.23438,0.1875 z m -0.3125,0.96875 c 0.09375,0 0.16406,-0.035156 0.21875,-0.10938 C 1.21875,-0.492143 1.25,-0.60152 1.25,-0.74995 c 0,-0.13281 -0.03125,-0.23828 -0.09375,-0.3125 -0.054688,-0.082031 -0.125,-0.125 -0.21875,-0.125 -0.10547,0 -0.18359,0.042969 -0.23438,0.125 -0.054687,0.074219 -0.078125,0.17969 -0.078125,0.3125 0,0.14844 0.023438,0.25781 0.078125,0.32812 0.050781,0.074219 0.12891,0.10938 0.23438,0.10938 z"
         id="path17" />
    </symbol>
    <symbol
       id="h"
       overflow="visible">
      <path
         d="m 1.0312,-0.3125 c 0.09375,0 0.16406,-0.035156 0.21875,-0.10938 0.0625,-0.070313 0.09375,-0.17969 0.09375,-0.32812 0,-0.13281 -0.03125,-0.23828 -0.09375,-0.3125 -0.054688,-0.082031 -0.125,-0.125 -0.21875,-0.125 -0.10547,0 -0.1875,0.042969 -0.25,0.125 -0.054688,0.074219 -0.078125,0.17969 -0.078125,0.3125 0,0.14844 0.023437,0.25781 0.078125,0.32812 0.0625,0.074219 0.14453,0.10938 0.25,0.10938 z M 0.70308,-1.28125 c 0.070313,-0.082031 0.14453,-0.14453 0.21875,-0.1875 0.082031,-0.039062 0.17578,-0.0625 0.28125,-0.0625 0.1875,0 0.33594,0.074219 0.45312,0.21875 0.11328,0.14844 0.17188,0.33594 0.17188,0.5625 0,0.23047 -0.058594,0.41797 -0.17188,0.5625 -0.11719,0.14844 -0.26562,0.21875 -0.45312,0.21875 -0.10547,0 -0.19922,-0.015625 -0.28125,-0.046875 -0.074219,-0.039062 -0.14844,-0.10938 -0.21875,-0.20312 V 5e-6 H 0.23433 v -2.0781 h 0.46875 z"
         id="path20" />
    </symbol>
    <symbol
       id="g"
       overflow="visible">
      <path
         d="M 0.03125,-1.5 H 0.51563 L 0.90625,-0.4844 1.25,-1.5 h 0.48438 l -0.625,1.6406 C 1.04688,0.30466 0.96876,0.42185 0.875,0.48435 0.789062,0.554663 0.67969,0.59373 0.54688,0.59373 H 0.28126 v -0.3125 h 0.14062 c 0.082031,0 0.14062,-0.015625 0.17188,-0.046875 0.039062,-0.023437 0.070312,-0.070313 0.09375,-0.14062 l 0.015625,-0.03125 z"
         id="path23" />
    </symbol>
    <symbol
       id="f"
       overflow="visible">
      <path
         d="m 0.76562,-1.6094 v 1.2188 h 0.1875 c 0.20703,0 0.36328,-0.050781 0.46875,-0.15625 0.11328,-0.10156 0.17188,-0.25391 0.17188,-0.45312 0,-0.19531 -0.058594,-0.34766 -0.17188,-0.45312 C 1.3164,-1.55465 1.16015,-1.60934 0.95312,-1.60934 Z M 0.25,-2.00002 h 0.54688 c 0.30078,0 0.52344,0.027344 0.67188,0.078125 0.14453,0.042969 0.26953,0.11719 0.375,0.21875 0.09375,0.085937 0.16016,0.1875 0.20312,0.3125 0.050781,0.11719 0.078125,0.24609 0.078125,0.39062 0,0.15625 -0.027344,0.29297 -0.078125,0.40625 -0.042969,0.11719 -0.10938,0.21875 -0.20312,0.3125 -0.10547,0.10547 -0.23438,0.17969 -0.39062,0.21875 -0.14844,0.042969 -0.36719,0.0625 -0.65625,0.0625 H 0.25001 Z"
         id="path26" />
    </symbol>
    <symbol
       id="b"
       overflow="visible">
      <path
         d="m 0.9375,-1.1875 c -0.10547,0 -0.1875,0.039062 -0.25,0.10938 -0.054688,0.074219 -0.078125,0.18359 -0.078125,0.32812 0,0.14844 0.023437,0.26172 0.078125,0.34375 0.0625,0.074219 0.14453,0.10938 0.25,0.10938 0.10156,0 0.17969,-0.035156 0.23438,-0.10938 0.0625,-0.082031 0.09375,-0.19531 0.09375,-0.34375 0,-0.14453 -0.03125,-0.25391 -0.09375,-0.32812 C 1.117193,-1.148433 1.03907,-1.1875 0.9375,-1.1875 Z m 0,-0.34375 c 0.25781,0 0.46094,0.074219 0.60938,0.21875 0.14453,0.13672 0.21875,0.32422 0.21875,0.5625 0,0.25 -0.074219,0.44531 -0.21875,0.57812 C 1.39844,-0.03516 1.19532,0.03124 0.9375,0.03124 0.67578,0.03124 0.47266,-0.035166 0.32812,-0.17188 0.1914,-0.30469 0.125,-0.5 0.125,-0.75 c 0,-0.23828 0.066406,-0.42578 0.20312,-0.5625 0.14453,-0.14453 0.34766,-0.21875 0.60938,-0.21875 z"
         id="path29" />
    </symbol>
    <symbol
       id="s"
       overflow="visible">
      <path
         d="m 2.0469,-0.14062 c -0.13672,0.054688 -0.27344,0.09375 -0.40625,0.125 -0.13672,0.03125 -0.27734,0.046875 -0.42188,0.046875 -0.33594,0 -0.60156,-0.085938 -0.79688,-0.26562 -0.1875,-0.1875 -0.28125,-0.44141 -0.28125,-0.76562 0,-0.32031 0.097656,-0.57031 0.29688,-0.75 0.19531,-0.1875 0.46875,-0.28125 0.8125,-0.28125 0.125,0 0.25,0.015625 0.375,0.046875 0.125,0.023437 0.23828,0.058594 0.34375,0.10938 v 0.40625 C 1.85158,-1.53123 1.7383,-1.57811 1.62502,-1.60935 1.51955,-1.6406 1.41408,-1.656225 1.31252,-1.656225 c -0.21094,0 -0.37109,0.058594 -0.48438,0.17188 -0.10547,0.11719 -0.15625,0.27734 -0.15625,0.48438 0,0.21875 0.050781,0.38672 0.15625,0.5 0.10156,0.11719 0.25391,0.17188 0.45312,0.17188 0.050781,0 0.097656,-0.003906 0.14062,-0.015625 0.050781,-0.007812 0.097656,-0.019531 0.14062,-0.03125 V -0.76558 H 1.23438 v -0.34375 h 0.8125 z"
         id="path32" />
    </symbol>
    <symbol
       id="r"
       overflow="visible">
      <path
         d="m 1.2188,-2.0781 v 0.3125 H 0.95318 c -0.074219,0 -0.125,0.015625 -0.15625,0.046875 -0.023437,0.023438 -0.03125,0.0625 -0.03125,0.125 v 0.09375 h 0.40625 v 0.34375 H 0.76568 v 1.1562 H 0.29693 v -1.1562 h -0.25 v -0.34375 h 0.25 v -0.09375 c 0,-0.16406 0.039063,-0.28516 0.125,-0.35938 0.09375,-0.082031 0.23438,-0.125 0.42188,-0.125 z"
         id="path35" />
    </symbol>
    <symbol
       id="q"
       overflow="visible">
      <path
         d="m 1.6094,-1.25 c 0.0625,-0.09375 0.13281,-0.16016 0.21875,-0.20312 0.082031,-0.050781 0.17578,-0.078125 0.28125,-0.078125 0.16406,0 0.29688,0.054688 0.39062,0.15625 0.09375,0.10547 0.14062,0.26172 0.14062,0.46875 V 5e-6 H 2.15626 v -0.78125 -0.03125 -0.0625 c 0,-0.10156 -0.015625,-0.17578 -0.046875,-0.21875 -0.03125,-0.050781 -0.085937,-0.078125 -0.15625,-0.078125 -0.085937,0 -0.15234,0.039063 -0.20312,0.10938 C 1.695327,-0.988271 1.67189,-0.8789 1.67189,-0.73437 V 1e-5 H 1.18751 v -0.78125 c 0,-0.16406 -0.015625,-0.26953 -0.046875,-0.3125 -0.023437,-0.050781 -0.070313,-0.078125 -0.14062,-0.078125 -0.09375,0 -0.16797,0.042969 -0.21875,0.125 -0.054688,0.074219 -0.078125,0.17969 -0.078125,0.3125 V 1.5e-5 H 0.23439 v -1.5 h 0.46875 v 0.21875 c 0.0625,-0.082031 0.12891,-0.14453 0.20312,-0.1875 0.082031,-0.039062 0.16406,-0.0625 0.25,-0.0625 0.10156,0 0.19141,0.027344 0.26562,0.078125 0.082031,0.054687 0.14453,0.12109 0.1875,0.20312 z"
         id="path38" />
    </symbol>
    <symbol
       id="p"
       overflow="visible">
      <path
         d="M 1.7344,-0.90625 V 0 H 1.25002 v -0.6875 c 0,-0.13281 -0.00781,-0.22266 -0.015625,-0.26562 0,-0.050781 -0.00781,-0.09375 -0.015625,-0.125 -0.023438,-0.03125 -0.046875,-0.050781 -0.078125,-0.0625 -0.03125,-0.019531 -0.070313,-0.03125 -0.10938,-0.03125 -0.10547,0 -0.1875,0.042969 -0.25,0.125 -0.054688,0.074219 -0.078125,0.17969 -0.078125,0.3125 V 1e-5 H 0.23439 v -2.0781 h 0.46875 v 0.79688 c 0.070313,-0.082031 0.14844,-0.14453 0.23438,-0.1875 0.082031,-0.039062 0.17188,-0.0625 0.26562,-0.0625 0.17578,0 0.30469,0.054688 0.39062,0.15625 0.09375,0.10547 0.14062,0.26172 0.14062,0.46875 z"
         id="path41" />
    </symbol>
    <symbol
       id="o"
       overflow="visible">
      <path
         d="m 0.25,-2 h 0.57812 l 0.71875,1.375 V -2 H 2.03125 V 0 H 1.46875 L 0.73437,-1.375 V 0 H 0.24999 Z"
         id="path44" />
    </symbol>
    <symbol
       id="n"
       overflow="visible">
      <path
         d="M 0.21875,-0.57812 V -1.5 H 0.6875 v 0.15625 0.3125 0.23438 0.26562 c 0.007812,0.054688 0.023438,0.089844 0.046875,0.10938 0.019531,0.03125 0.046875,0.058594 0.078125,0.078125 0.03125,0.011719 0.066406,0.015625 0.10938,0.015625 0.09375,0 0.16406,-0.035156 0.21875,-0.10938 0.0625,-0.070312 0.09375,-0.17578 0.09375,-0.3125 V -1.5 H 1.71876 V 0 H 1.23438 V -0.21875 C 1.160161,-0.125 1.08204,-0.05469 1,-0.01563 0.925781,0.01562 0.84375,0.031245 0.75,0.031245 c -0.17969,0 -0.3125,-0.050781 -0.40625,-0.15625 -0.085938,-0.10156 -0.125,-0.25391 -0.125,-0.45312 z"
         id="path47" />
    </symbol>
    <symbol
       id="m"
       overflow="visible">
      <path
         d="M 1.7344,-0.90625 V 0 H 1.25002 v -0.70312 c 0,-0.125 -0.00781,-0.20703 -0.015625,-0.25 0,-0.050781 -0.00781,-0.09375 -0.015625,-0.125 -0.023438,-0.03125 -0.046875,-0.050781 -0.078125,-0.0625 -0.03125,-0.019531 -0.070313,-0.03125 -0.10938,-0.03125 -0.10547,0 -0.1875,0.042969 -0.25,0.125 -0.054688,0.074219 -0.078125,0.17969 -0.078125,0.3125 V 1e-5 H 0.23439 v -1.5 h 0.46875 v 0.21875 c 0.070313,-0.082031 0.14844,-0.14453 0.23438,-0.1875 0.082031,-0.039062 0.17188,-0.0625 0.26562,-0.0625 0.17578,0 0.30469,0.054688 0.39062,0.15625 0.09375,0.10547 0.14062,0.26172 0.14062,0.46875 z"
         id="path50" />
    </symbol>
    <symbol
       id="l"
       overflow="visible">
      <path
         d="m 0.25,-2 h 0.85938 c 0.25,0 0.44141,0.058594 0.57812,0.17188 0.13281,0.11719 0.20312,0.27734 0.20312,0.48438 0,0.21094 -0.070313,0.37109 -0.20312,0.48438 -0.13672,0.11719 -0.32812,0.17188 -0.57812,0.17188 H 0.76563 V 2e-5 H 0.25001 Z m 0.51562,0.375 v 0.5625 h 0.28125 c 0.10156,0 0.17969,-0.019531 0.23438,-0.0625 0.050781,-0.050781 0.078125,-0.125 0.078125,-0.21875 0,-0.09375 -0.027344,-0.16016 -0.078125,-0.20312 C 1.226562,-1.597651 1.14844,-1.624995 1.04687,-1.624995 Z"
         id="path53" />
    </symbol>
    <symbol
       id="k"
       overflow="visible">
      <path
         d="m 0.23438,-1.5 h 0.46875 v 1.4688 c 0,0.20703 -0.046875,0.36328 -0.14062,0.46875 C 0.46876,0.53911 0.32813,0.5938 0.14063,0.5938 H -0.09375 V 0.2813 h 0.078125 c 0.09375,0 0.15625,-0.023438 0.1875,-0.0625 0.039063,-0.042969 0.0625,-0.125 0.0625,-0.25 z m 0,-0.57812 H 0.70313 V -1.6875 H 0.23438 Z"
         id="path56" />
    </symbol>
    <symbol
       id="j"
       overflow="visible">
      <path
         d="m 1.4375,-1.4531 v 0.39062 C 1.375,-1.101542 1.30469,-1.132792 1.23438,-1.15623 1.17188,-1.175761 1.10157,-1.18748 1.03126,-1.18748 c -0.125,0 -0.23047,0.042969 -0.3125,0.125 -0.074219,0.074219 -0.10938,0.17969 -0.10938,0.3125 0,0.14844 0.035156,0.26172 0.10938,0.34375 0.082031,0.074219 0.1875,0.10938 0.3125,0.10938 0.082031,0 0.15625,-0.007813 0.21875,-0.03125 0.070312,-0.03125 0.13281,-0.066406 0.1875,-0.10938 v 0.39062 C 1.363291,-0.01561 1.28517,0.003921 1.20313,0.01564 1.128911,0.0234525 1.05469,0.031265 0.98438,0.031265 c -0.27344,0 -0.48438,-0.066406 -0.64062,-0.20312 -0.14844,-0.13281 -0.21875,-0.32812 -0.21875,-0.57812 0,-0.23828 0.070312,-0.42578 0.21875,-0.5625 0.15625,-0.14453 0.36719,-0.21875 0.64062,-0.21875 0.070313,0 0.14453,0.011719 0.21875,0.03125 0.082031,0.011719 0.16016,0.027344 0.23438,0.046875 z"
         id="path59" />
    </symbol>
  </defs>
  <g
     id="g1113"
     transform="translate(-153.87297,-71.619253)">
    <path
       d="m 507.94,336.11 c -1.0391,0 -2.0781,-0.27344 -3.0078,-0.92969 -2.5156,-1.6406 -3.2266,-5.0312 -1.5312,-7.6016 9.5156,-14.438 14.711,-31.227 15.039,-48.562 0.65625,-33.688 -17.227,-64.914 -46.648,-81.43 -2.625,-1.4766 -3.5547,-4.8125 -2.0781,-7.4375 1.4766,-2.625 4.8125,-3.5547 7.4375,-2.0781 32.922,18.539 52.883,53.484 52.227,91.164 -0.38281,19.469 -6.1797,38.227 -16.844,54.414 -1.0938,1.6406 -2.8438,2.4609 -4.5938,2.4609 z M 378,199.5 c -1.8594,0 -3.6641,-0.92969 -4.6484,-2.625 -1.5859,-2.5703 -0.76562,-5.9609 1.8047,-7.4922 3.1719,-1.9688 14.82,-7.4375 16.188,-8.0391 l 0.4375,-0.16406 c 3.5547,-1.3125 7.2188,-2.4062 10.883,-3.2812 2.9531,-0.71094 5.9062,1.0938 6.6172,4.0469 0.71094,2.9531 -1.0938,5.9062 -4.0469,6.6172 -3.2266,0.76562 -6.3984,1.75 -9.5156,2.8438 -4.8125,2.2422 -12.906,6.1797 -14.875,7.3828 -0.875,0.49219 -1.8594,0.71094 -2.8438,0.71094 z m 49,180.25 h -1.9688 c -17.5,-0.32812 -34.727,-5.1406 -49.766,-13.945 l -3.1172,-1.8047 0.4375,-3.5547 c 0.38281,-3.1719 0.60156,-6.3984 0.65625,-9.625 0.49219,-26.633 -10.609,-52.062 -30.461,-69.836 -0.38281,-0.38281 -0.76562,-0.71094 -1.1484,-1.0391 l -0.21875,-0.21875 -0.16406,-0.10937 -0.27344,-0.27344 -1.8047,-1.4766 c -0.27344,-0.21875 -0.49219,-0.4375 -0.76562,-0.60156 -0.60156,-0.49219 -1.3125,-0.98438 -2.0234,-1.5312 -0.38281,-0.27344 -0.76562,-0.60156 -1.2031,-0.875 l -0.27344,-0.21875 c -0.38281,-0.27344 -0.76562,-0.54688 -1.0938,-0.76562 -0.21875,-0.16406 -0.38281,-0.27344 -0.54688,-0.38281 -0.32812,-0.21875 -0.60156,-0.4375 -0.92969,-0.60156 l -0.16406,-0.10938 c -0.0547,-0.0547 -0.10938,-0.0547 -0.16406,-0.10938 l -0.10937,-0.0547 c -0.16406,-0.10938 -0.32813,-0.21875 -0.4375,-0.27344 l -0.0547,-0.0547 c -0.32812,-0.21875 -0.65625,-0.4375 -0.98438,-0.60156 l -0.0547,-0.0547 c -0.54688,-0.32812 -1.0391,-0.65625 -1.5859,-0.98437 l -0.0547,-0.0547 c -0.16406,-0.10938 -0.38281,-0.21875 -0.60156,-0.32812 -2.625,-1.4766 -3.6094,-4.8125 -2.1328,-7.4375 1.4766,-2.625 4.8125,-3.6094 7.4375,-2.1328 0.32812,0.16406 0.65625,0.38281 0.92969,0.54688 0.60156,0.38281 1.2031,0.71094 1.8047,1.0938 0.38281,0.21875 0.76563,0.49219 1.0938,0.71094 0.21875,0.10938 0.38281,0.21875 0.60156,0.38281 0.16406,0.10937 0.32812,0.21875 0.54688,0.32812 l 0.98438,0.65625 c 0.21875,0.10938 0.4375,0.27344 0.65625,0.4375 0.4375,0.27344 0.875,0.60156 1.3672,0.92969 0.0547,0.0547 0.16406,0.10938 0.21875,0.16406 l 1.3125,0.98438 c 0.76563,0.60156 1.5312,1.1484 2.2422,1.75 0.49219,0.38281 0.98438,0.76562 1.4219,1.1484 l 0.21875,0.16406 0.98438,0.82031 2.2969,1.3672 v 0.60156 h 0.0547 c 22.203,19.906 34.617,48.398 34.07,78.203 -0.0547,2.3516 -0.16406,4.7031 -0.38281,7.0547 12.688,6.7812 26.906,10.5 41.398,10.773 19.852,0.32812 38.883,-5.5234 54.961,-17.062 2.4609,-1.75 5.8516,-1.2031 7.6562,1.2578 1.75,2.4609 1.2031,5.8516 -1.2578,7.6562 -17.5,12.469 -38.062,19.086 -59.609,19.086 z M 335.18,274.8 m 11.539,-4.9766 z"
       id="path64" />
    <path
       d="m 193.76,323.04 -5.8516,-5.25 c -6.6719,-5.9609 -12.523,-12.797 -17.391,-20.234 l -0.38281,-0.60156 -0.21875,-0.65625 c -0.875,-2.625 -2.1875,-4.9219 -3.9375,-6.8359 l -0.49219,-0.49219 -0.38281,-0.76562 c -7.6562,-14.93 -11.539,-31.719 -11.211,-48.617 0.49219,-27.344 11.648,-52.828 31.336,-71.805 19.688,-18.977 45.609,-29.148 72.953,-28.656 16.242,0.32812 32.32,4.4844 46.539,12.141 13.727,7.3828 25.812,17.992 34.891,30.734 7.5469,10.5 12.961,22.203 16.078,34.727 l 0.65625,2.5703 -1.6406,2.0781 c -5.1953,6.6719 -9.4062,14.055 -12.523,21.875 -2.9531,7.3281 -4.9219,14.984 -5.9062,22.805 l -1.0391,8.2578 -7.1641,-4.2109 c -13.398,-7.875 -28.766,-12.141 -44.406,-12.469 -19.031,-0.32812 -37.406,5.0859 -53.102,15.805 -15.367,10.445 -27.016,25.102 -33.797,42.328 z m -13.727,-30.953 c 2.8984,4.3203 6.125,8.4219 9.7344,12.195 7.8203,-16.078 19.633,-29.75 34.562,-39.922 17.555,-11.977 38.117,-18.102 59.5,-17.664 14.875,0.27344 29.531,3.7734 42.82,10.227 1.2578,-6.0703 3.0078,-12.031 5.3594,-17.828 3.1719,-7.9297 7.3281,-15.367 12.414,-22.312 -2.8438,-10.227 -7.4375,-19.797 -13.672,-28.492 -8.1484,-11.375 -18.922,-20.836 -31.172,-27.453 -12.852,-6.8906 -26.852,-10.555 -41.562,-10.828 -24.445,-0.4375 -47.578,8.6406 -65.188,25.594 -17.609,16.953 -27.562,39.758 -28,64.148 -0.27344,14.875 3.0625,29.641 9.7344,42.82 2.2969,2.7891 4.1562,6.0156 5.4688,9.5156 z"
       id="path66" />
    <path
       d="m 281.86,451.5 h -1.9141 c -33.906,-0.65625 -65.188,-17.938 -83.781,-46.32 l -0.38281,-0.60156 -0.21875,-0.65625 c -0.875,-2.625 -2.1875,-4.8672 -3.9375,-6.8359 l -0.49219,-0.49219 -0.38281,-0.76562 c -7.6562,-14.93 -11.539,-31.719 -11.211,-48.617 0.21875,-12.25 2.5703,-24.172 7,-35.438 7.5469,-19.305 20.617,-35.656 37.789,-47.359 17.555,-11.977 38.117,-18.102 59.5,-17.664 17.5,0.32812 34.727,5.1406 49.766,13.945 5.9062,3.4453 11.484,7.5469 16.625,12.141 22.203,19.906 34.617,48.398 34.07,78.203 -0.0547,3.5547 -0.32812,7.2188 -0.76562,10.719 -3.0625,24.992 -15.258,47.906 -34.289,64.531 -18.758,16.297 -42.602,25.211 -67.375,25.211 z m -76.234,-51.844 c 16.625,25.047 44.461,40.305 74.484,40.852 22.75,0.4375 44.734,-7.6016 61.852,-22.531 17.008,-14.82 27.891,-35.328 30.625,-57.586 0.38281,-3.1719 0.60156,-6.3984 0.65625,-9.625 0.49219,-26.633 -10.609,-52.062 -30.461,-69.836 -4.5938,-4.1016 -9.5703,-7.7656 -14.875,-10.828 -13.398,-7.875 -28.766,-12.195 -44.461,-12.469 -19.031,-0.32812 -37.406,5.0859 -53.102,15.805 -15.367,10.445 -27.016,25.102 -33.797,42.328 -3.9375,10.062 -6.0703,20.727 -6.2344,31.664 -0.27344,14.875 3.0625,29.641 9.7344,42.82 2.4609,2.6797 4.3203,5.9062 5.5781,9.4062 z"
       id="path68" />
    <path
       d="m 248.06,198.68 c 0,6.4648 5.2383,11.703 11.703,11.703 6.4647,0 11.703,-5.2383 11.703,-11.703 0,-6.4648 -5.2383,-11.703 -11.703,-11.703 -6.4647,0 -11.703,5.2383 -11.703,11.703 z"
       id="path70" />
    <path
       d="m 259.44,224.93 h -0.38281 c -3.9375,-0.16406 -7.4375,-2.5156 -9.0781,-6.125 l -0.65625,-1.4766 c -0.65625,-1.4766 -1.9688,-2.5156 -3.5547,-2.7891 l -1.6406,-0.27344 c -3.8828,-0.71094 -7,-3.5547 -8.0938,-7.3281 -1.0938,-3.7734 0.0547,-7.8203 3.0078,-10.5 l 1.2031,-1.0938 c 1.2031,-1.0938 1.75,-2.6797 1.5859,-4.2656 l -0.21875,-1.6406 c -0.54688,-3.9375 1.2031,-7.7656 4.4844,-9.9531 3.2813,-2.1875 7.4922,-2.3516 10.938,-0.38281 l 1.4219,0.82031 c 1.3672,0.82031 3.0625,0.875 4.5391,0.16406 l 1.4766,-0.71094 c 3.5547,-1.6953 7.7109,-1.2578 10.828,1.2031 3.1171,2.4609 4.5391,6.3984 3.7188,10.281 l -0.32812,1.5859 c -0.32812,1.5859 0.10938,3.2266 1.2578,4.375 l 1.1484,1.2031 c 2.7344,2.8984 3.6094,6.9453 2.2422,10.719 -1.3672,3.7188 -4.6484,6.2891 -8.5859,6.7266 l -1.6406,0.16406 c -1.5859,0.16406 -3.0078,1.0938 -3.7734,2.5156 l -0.76563,1.4219 c -1.9141,3.3359 -5.3594,5.3594 -9.1328,5.3594 z m -7.6016,-41.836 c -0.92969,0 -1.8594,0.27344 -2.6797,0.82031 -1.5859,1.0391 -2.3516,2.7891 -2.1328,4.7031 l 0.21875,1.6406 c 0.4375,3.3906 -0.76563,6.7266 -3.3359,9.0234 l -1.2031,1.0938 c -1.4219,1.2578 -1.9141,3.1172 -1.4219,4.9219 0.4922,1.8047 1.9141,3.1172 3.8281,3.4453 l 1.6406,0.27344 c 3.3359,0.60156 6.1797,2.8438 7.5469,5.9609 l 0.65625,1.4766 c 0.76562,1.75 2.3516,2.7891 4.2656,2.8984 1.9141,0.0547 3.5547,-0.875 4.4844,-2.5703 l 0.76562,-1.4219 c 1.6406,-3.0078 4.5938,-4.9766 7.9844,-5.3594 l 1.6406,-0.16406 c 1.8594,-0.21875 3.3906,-1.3672 4.0469,-3.1719 0.65625,-1.8047 0.27344,-3.6641 -1.0391,-5.0312 l -1.1484,-1.2031 c -2.3516,-2.4609 -3.3359,-5.9062 -2.625,-9.2422 l 0.32812,-1.5859 c 0.38281,-1.8594 -0.27344,-3.6641 -1.75,-4.8125 -1.4766,-1.1484 -3.3906,-1.3672 -5.1406,-0.54687 l -1.4766,0.71094 c -3.0625,1.4766 -6.6719,1.3125 -9.625,-0.38281 l -1.4219,-0.82031 c -0.71094,-0.4375 -1.5312,-0.65625 -2.4062,-0.65625 z"
       id="path72" />
    <path
       d="m 226.68,358.48 c 0,6.4648 5.2383,11.703 11.703,11.703 6.4648,0 11.703,-5.2383 11.703,-11.703 0,-6.4648 -5.2383,-11.703 -11.703,-11.703 -6.4648,0 -11.703,5.2383 -11.703,11.703 z"
       id="path74" />
    <path
       d="m 238,384.67 h -0.38281 c -3.9375,-0.16406 -7.4375,-2.5156 -9.0234,-6.125 l -0.65625,-1.4766 c -0.65625,-1.4766 -1.9688,-2.5156 -3.5547,-2.7891 l -1.6406,-0.27344 c -3.8828,-0.71094 -7,-3.5547 -8.0938,-7.3281 -1.0938,-3.7734 0.0547,-7.8203 3.0078,-10.5 l 1.2031,-1.0938 c 1.2031,-1.0938 1.75,-2.6797 1.5859,-4.2656 l -0.21875,-1.6406 c -0.54687,-3.9375 1.2031,-7.7656 4.4844,-9.9531 3.2813,-2.1875 7.4922,-2.3516 10.938,-0.38281 l 1.4219,0.82031 c 1.3672,0.82031 3.0625,0.875 4.5391,0.16406 l 1.4766,-0.71094 c 3.5547,-1.6953 7.7109,-1.2578 10.828,1.2031 3.1172,2.4609 4.5391,6.3984 3.7188,10.281 l -0.32812,1.5859 c -0.32813,1.5859 0.10937,3.2266 1.2578,4.375 l 1.1484,1.2031 c 2.7344,2.8984 3.6094,6.9453 2.2422,10.719 -1.3672,3.7737 -4.6484,6.2891 -8.5859,6.7266 l -1.6406,0.16406 c -1.5859,0.16406 -3.0078,1.0938 -3.7734,2.5156 l -0.76562,1.4219 c -1.9141,3.3359 -5.3594,5.3594 -9.1875,5.3594 z m -7.5469,-41.781 c -0.92969,0 -1.8594,0.27344 -2.6797,0.82031 -1.5859,1.0391 -2.3516,2.7891 -2.1328,4.7031 l 0.21875,1.6406 c 0.4375,3.3906 -0.76562,6.7266 -3.3359,9.0234 l -1.2031,1.0938 c -1.4219,1.2578 -1.9141,3.1172 -1.4219,4.9219 0.49219,1.8047 1.9141,3.1172 3.8281,3.4453 l 1.6406,0.27344 c 3.3359,0.60156 6.1797,2.8438 7.5469,5.9609 l 0.65625,1.4766 c 0.76563,1.75 2.3516,2.7891 4.2656,2.8984 1.9141,0.0547 3.5547,-0.875 4.4844,-2.5703 l 0.76563,-1.4219 c 1.6406,-3.0078 4.5938,-4.9766 7.9844,-5.3594 l 1.6406,-0.16406 c 1.8594,-0.21875 3.3906,-1.3672 4.0469,-3.1719 0.65625,-1.8047 0.27344,-3.6641 -1.0391,-5.0312 l -1.1484,-1.2031 c -2.3516,-2.4609 -3.3359,-5.9062 -2.625,-9.2422 l 0.32813,-1.5859 c 0.38281,-1.8594 -0.27344,-3.6641 -1.75,-4.8125 -1.4766,-1.1484 -3.3906,-1.3672 -5.1406,-0.54688 l -1.4766,0.71094 c -3.0625,1.4766 -6.6719,1.3125 -9.625,-0.38281 l -1.4219,-0.82031 c -0.76562,-0.4375 -1.5859,-0.65625 -2.4062,-0.65625 z"
       id="path76" />
    <path
       d="m 437.01,313.25 c 0,6.4648 5.2383,11.703 11.703,11.703 6.4648,0 11.703,-5.2383 11.703,-11.703 0,-6.4647 -5.2383,-11.703 -11.703,-11.703 -6.4648,0 -11.703,5.2383 -11.703,11.703 z"
       id="path78" />
    <path
       d="m 448.38,339.45 h -0.38281 c -3.9375,-0.16406 -7.4375,-2.5156 -9.0234,-6.125 l -0.65625,-1.4766 c -0.65625,-1.4766 -1.9688,-2.5156 -3.5547,-2.7891 l -1.6406,-0.27344 c -3.8828,-0.71094 -7,-3.5547 -8.0938,-7.3281 -1.0938,-3.7734 0.0547,-7.8203 3.0078,-10.5 l 1.2031,-1.0938 c 1.2031,-1.0938 1.75,-2.6797 1.5859,-4.2656 l -0.21875,-1.6406 c -0.54688,-3.9375 1.2031,-7.7656 4.4844,-9.9531 3.2813,-2.1875 7.4922,-2.3516 10.938,-0.38281 l 1.4219,0.82031 c 1.3672,0.82031 3.0625,0.875 4.5391,0.16406 l 1.4766,-0.71094 c 3.5547,-1.6953 7.7109,-1.2578 10.828,1.2031 3.1171,2.4609 4.5391,6.3984 3.7188,10.281 l -0.32812,1.5859 c -0.32812,1.5859 0.10938,3.2266 1.2578,4.375 l 1.1484,1.2031 c 2.7344,2.8984 3.6094,6.9453 2.2422,10.719 -1.3672,3.7188 -4.6484,6.2891 -8.5859,6.7266 l -1.6406,0.16406 c -1.5859,0.16406 -3.0078,1.0938 -3.7734,2.5156 l -0.76563,1.4219 c -1.9688,3.3359 -5.4141,5.3594 -9.1875,5.3594 z m -7.6016,-41.781 c -0.92969,0 -1.8594,0.27344 -2.6797,0.82031 -1.5859,1.0391 -2.3516,2.7891 -2.1328,4.7031 l 0.21875,1.6406 c 0.4375,3.3906 -0.76562,6.7266 -3.3359,9.0234 l -1.2031,1.0938 c -1.4219,1.2578 -1.9141,3.1172 -1.4219,4.9219 0.49219,1.8047 1.9141,3.1172 3.8281,3.4453 l 1.6406,0.27344 c 3.3359,0.60156 6.1797,2.8438 7.5469,5.9609 l 0.65625,1.4766 c 0.76562,1.75 2.3516,2.7891 4.2656,2.8984 1.9141,0.0547 3.5547,-0.875 4.4844,-2.5703 l 0.76562,-1.4219 c 1.6406,-3.0078 4.5938,-4.9766 7.9844,-5.3594 l 1.6406,-0.16406 c 1.8594,-0.21875 3.3906,-1.3672 4.0469,-3.1719 0.6563,-1.8047 0.27344,-3.6641 -1.0391,-5.0312 l -1.1484,-1.2031 c -2.3516,-2.4609 -3.3359,-5.9062 -2.625,-9.2422 l 0.32812,-1.5859 c 0.38281,-1.8594 -0.27344,-3.6641 -1.75,-4.8125 -1.4766,-1.1484 -3.3906,-1.3672 -5.1406,-0.54688 l -1.4766,0.71094 c -3.0625,1.4766 -6.6719,1.3125 -9.625,-0.38281 l -1.4219,-0.82031 c -0.71094,-0.4375 -1.5312,-0.65625 -2.4062,-0.65625 z"
       id="path80" />
    <path
       d="m 491.64,345.19 c 0,3.2031 2.5938,5.7969 5.7969,5.7969 3.2031,0 5.7969,-2.5938 5.7969,-5.7969 0,-3.2031 -2.5938,-5.7969 -5.7969,-5.7969 -3.2031,0 -5.7969,2.5938 -5.7969,5.7969 z"
       id="path82" />
    <path
       d="m 348.25,230.18 -2.7344,-10.938 c -4.1562,-16.789 -12.906,-31.992 -25.32,-43.969 l -1.9141,-1.8594 0.27344,-2.6797 c 2.0781,-19.742 7.3828,-41.945 14.219,-59.336 8.5859,-21.82 17.938,-32.484 27.836,-31.555 10.062,0.92969 17.5,13.453 21.984,37.297 3.6094,19.141 4.6484,42.438 2.8438,62.344 -0.49219,5.1953 -1.1484,10.391 -2.0781,15.477 l -0.4375,2.4609 -2.1875,1.2578 c -9.9531,5.8516 -18.594,13.453 -25.648,22.531 z m -18.539,-60.812 c 10.445,10.664 18.43,23.406 23.461,37.461 5.9062,-6.1797 12.523,-11.594 19.852,-16.188 0.65625,-3.9922 1.1484,-8.0391 1.5312,-12.086 1.6953,-18.648 0.65625,-41.398 -2.7344,-59.336 -4.2656,-22.805 -10.281,-28.273 -12.195,-28.438 -1.8594,-0.16406 -8.5312,3.9375 -16.68,24.664 -6.1797,15.805 -11.047,35.766 -13.234,53.922 z"
       id="path84" />
    <path
       d="m 352.46,209.78 c -3.0078,0 -5.4688,-2.4609 -5.4688,-5.4688 0,-16.789 0.54687,-32.594 1.5312,-44.516 0.49219,-5.9062 1.0938,-10.609 1.75,-13.945 0.60156,-3.0078 1.8047,-9.2969 7.3828,-9.2969 3.0078,0 5.4688,2.4609 5.4688,5.4688 0,1.5312 -0.65625,2.8984 -1.6406,3.9375 -1.2578,4.2109 -3.5,22.586 -3.5,58.352 -0.0547,3.0078 -2.5156,5.4688 -5.5234,5.4688 z m 5.1406,-62.289 m 118.67,52.117 -3.5547,-1.9688 c -13.07,-7.3828 -28,-11.43 -43.094,-11.703 -7.9297,-0.16406 -15.805,0.71094 -23.406,2.5703 l -8.9141,2.1875 2.3516,-8.8594 c 3.0625,-11.648 11.32,-25.375 24.5,-40.742 11.211,-13.125 32.703,-21.438 58.898,-22.75 22.859,-1.1484 44.352,3.2812 53.484,11.102 3.8281,3.2812 5.6328,7 5.3594,10.992 -0.54688,8.3672 -9.8438,14.328 -22.641,22.641 -10.336,6.6719 -23.188,14.984 -32.32,25.648 -2.4609,2.8984 -5.0859,5.6328 -7.7656,8.2031 z m -48.398,-24.664 h 1.9688 c 15.531,0.27344 30.844,4.1016 44.625,11.156 1.4219,-1.4766 2.8438,-3.0625 4.2109,-4.6484 10.172,-11.867 23.789,-20.672 34.727,-27.727 5.4688,-3.5547 10.172,-6.5625 13.562,-9.3516 3.9922,-3.2812 4.1016,-4.7031 4.1016,-4.8125 0,-0.1094 -0.27344,-0.82031 -1.5859,-1.9141 -5.9062,-5.0859 -23.57,-9.625 -45.828,-8.4766 -23.242,1.2031 -41.891,8.0938 -51.188,18.922 -8.8594,10.336 -15.203,19.633 -19.031,27.836 4.7578,-0.65625 9.5703,-0.98438 14.438,-0.98438 z"
       id="path86" />
    <path
       d="m 448.71,182.44 c -3.0078,0 -5.4688,-2.4609 -5.4688,-5.4688 0,-9.5156 5.0312,-18.375 14.109,-24.828 8.5312,-6.125 19.797,-9.4609 31.719,-9.4609 3.0078,0 5.4688,2.4609 5.4688,5.4688 0,3.0078 -2.4609,5.4688 -5.4688,5.4688 -9.625,0 -18.648,2.625 -25.32,7.4375 -6.125,4.375 -9.5156,10.062 -9.5156,15.969 -0.0547,3.0078 -2.4609,5.4141 -5.5234,5.4141 z"
       id="path88" />
  </g>
</svg>
