<?xml version="1.0" encoding="UTF-8" standalone="no"?>
<svg
   width="474.108pt"
   height="474.108pt"
   version="1.1"
   viewBox="0 0 474.108 474.108"
   id="svg4"
   sodipodi:docname="canola.svg"
   inkscape:version="1.1.1 (3bf5ae0d25, 2021-09-20)"
   xmlns:inkscape="http://www.inkscape.org/namespaces/inkscape"
   xmlns:sodipodi="http://sodipodi.sourceforge.net/DTD/sodipodi-0.dtd"
   xmlns="http://www.w3.org/2000/svg"
   xmlns:svg="http://www.w3.org/2000/svg">
  <defs
     id="defs8" />
  <sodipodi:namedview
     id="namedview6"
     pagecolor="#ffffff"
     bordercolor="#666666"
     borderopacity="1.0"
     inkscape:pageshadow="2"
     inkscape:pageopacity="0.0"
     inkscape:pagecheckerboard="0"
     inkscape:document-units="pt"
     showgrid="false"
     inkscape:zoom="0.91928571"
     inkscape:cx="466.12277"
     inkscape:cy="467.21057"
     inkscape:window-width="1920"
     inkscape:window-height="1017"
     inkscape:window-x="1912"
     inkscape:window-y="-8"
     inkscape:window-maximized="1"
     inkscape:current-layer="svg4" />
  <path
     d="m 380.2369,344.55289 c -6.1602,6.8398 -16.695,7.3945 -23.539,1.2344 -6.8398,-6.1602 -7.3906,-16.699 -1.2305,-23.539 6.1562,-6.8398 16.695,-7.3906 23.535,-1.2344 6.8398,6.1602 7.3945,16.699 1.2344,23.539 z m -79.887,-30.504 c -3.793,-16.133 1.7734,-33.738 15.691,-44.613 17.879,-13.965 43.191,-11.879 58.574,4.1289 18.812,-11.879 43.934,-7.793 57.922,10.109 13.973,17.887 11.879,43.215 -4.1523,58.598 12.516,19.148 8.1992,44.996 -10.34,58.965 -17.922,13.504 -42.844,11.176 -58,-4.625 -18.859,12.266 -44.305,8.2695 -58.414,-9.793 -12.262,-15.691 -12.152,-37.113 -1.1133,-52.52 -40.34,-6.5156 -64.723,1.7852 -75.508,23.77 -0.22266,0.45312 -0.47266,0.88281 -0.75,1.2852 -6.8711,21.738 -15.871,43.117 -26.926,65.102 -3.7695,7.5039 -7.6758,14.898 -12.477,23.711 -1.7266,3.168 -9.4062,17.133 -11.34,20.703 -2.6328,4.8555 -8.7031,6.6602 -13.559,4.0273 -4.8559,-2.6329 -6.6562,-8.7031 -4.0273,-13.559 1.9727,-3.6367 9.6641,-17.625 11.363,-20.738 4.6992,-8.6367 8.5117,-15.848 12.172,-23.129 15.137,-30.102 26.18,-58.844 32.992,-89.016 -11.168,-15.461 -24.766,-27.477 -40.875,-36.125 -1.9062,15.27 -11.812,29.078 -27.094,35.254 -20.805,8.4062 -44.277,-0.29297 -54.824003,-19.48 -21.395,6.9688 -44.938,-3.4766 -53.895,-24.578 -8.9453,-21.082 -0.12891,-45.25 19.711,-55.812 -6.9336,-21.383 3.5117,-44.891 24.594,-53.84 20.883003,-8.8633 44.793003,-0.29688 55.508003,19.148 21.246,-6.6055 44.453,3.8398 53.332,24.758 8.2695,19.48 1.3672,41.594 -15.383,53.176 16.66,7.7227 31.227,18.316 43.652,31.738 1.3047,-9.2031 2.2422,-18.605 2.8008,-28.266 0.42969,-7.457 0.57422,-14.961 0.43359,-22.512 -0.75781,-1.7695 -1.0078,-3.7734 -0.61719,-5.8047 0.11719,-0.62891 0.24219,-1.25 0.375,-1.8672 -1.3906,-31.293 -7.6602,-63.434 -18.836,-96.441 -9.4961,14.359 -27.012,22.352 -44.957,18.863 -22.027,-4.2812 -36.973,-24.359 -35.371,-46.195 -21.738003,-5.8086 -35.793003,-27.391005 -31.812003,-49.965005 3.9766,-22.555 24.535003,-38.02 46.930003,-36.074 5.8281,-21.707 27.391,-35.7379995 49.945,-31.75799955 22.344,3.93750005 37.73,24.14499955 36.125,46.29299955 21.418,6.0273 35.191,27.43 31.246,49.805 -3.293,18.676005 -17.953,32.492005 -35.609,35.586005 8.8047,24.629 15.043,48.883 18.711,72.75 10.758,-13.945 25.945,-23.684 45.348,-28.996 -15.332,-12.223 -21.906,-33.305 -14.832,-52.746 8.4727,-23.277 33.445,-35.777005 56.902,-29.098005 9.957,-22.262 35.586,-33.359 58.863,-24.887 23.051,8.3906 35.531,32.969005 29.281,56.223005 21.902,10.129 32.75,35.531 24.348,58.621 -8.3945,23.066 -32.996,35.547 -56.266,29.27 -10.062,22.688 -36.262,33.742 -59.695,24.746 -18.609,-7.1445 -30.055,-24.852 -30.121,-43.656 -27.488,6.5156 -43.812,22.609 -50.113,49.445 0.35938,9.9219 0.25391,19.77 -0.3125,29.551 -0.95312,16.508 -2.9414,32.281 -5.9414,47.625 16.75,-8.7695 39.016,-11.082 66.34,-7.1562 z m 65.023,17.121 c -1.2305,1.3672 -1.1211,3.4766 0.24609,4.707 1.3711,1.2344 3.4766,1.1211 4.707,-0.24609 1.2344,-1.3672 1.125,-3.4766 -0.24609,-4.707 -1.3672,-1.2305 -3.4727,-1.1211 -4.707,0.24609 z m -154.26,-265.550005 -19.219,2.6445 8.9961,-17.188 c 0.52344,-0.99609 0.87109,-2.0156 1.0586,-3.082 2.2891,-12.973 -6.3711,-25.34 -19.344,-27.625 -12.969,-2.2891 -25.336,6.3711 -27.621,19.344 -0.22266,1.2461 -0.21484,2.5039 0.0312,3.832 l 3.9492,21.5 -18.848,-11.066 c -1.1641,-0.68359 -2.3477,-1.1211 -3.5938,-1.3438 -12.969,-2.2852 -25.336,6.375 -27.625,19.344 -2.2852,12.969 6.375,25.34 19.344,27.625 1.1914,0.21094 2.3906,0.21484 3.6484,0 l 19.965,-3.3516 -9.4688,17.891005 c -0.5,0.94922 -0.84375,1.9141 -1.043,2.9336 -2.5117,12.93 5.9297,25.445 18.859,27.957 12.926,2.5156 25.445,-5.9297 27.957,-18.855 0.25781,-1.3281 0.25781,-2.6758 -0.0156,-4.1133 l -3.9453,-20.895 18.609,10.289 c 1.0781,0.59375 2.168,0.98047 3.3203,1.1836 12.969,2.2891 25.33999,-6.3711 27.625,-19.344005 2.28519,-12.969 -6.375,-25.336 -19.344,-27.625 -1.082,-0.1875 -2.168,-0.20703 -3.2969,-0.0547 z m 186.65,76.520005 -19.383,-0.73828 11.844,-15.359 c 0.80469,-1.0469 1.418,-2.1562 1.8555,-3.3594 5.0859,-13.973 -2.1172,-29.422005 -16.09,-34.508005 -13.973,-5.082 -29.422,2.1211 -34.508,16.094005 -0.51172,1.3984 -0.76172,2.8633 -0.75,4.4414 l 0.16016,21.859 -16.641,-14.172 c -1.2031,-1.0234 -2.4844,-1.7734 -3.8867,-2.2852 -13.969,-5.0859 -29.422,2.1211 -34.504,16.094 -5.0859,13.973 2.1172,29.422 16.09,34.508 1.3359,0.48438 2.7266,0.73438 4.2227,0.74609 l 20.242,0.16406 -12.43,15.977 c -0.77344,0.99219 -1.3711,2.043 -1.8086,3.1836 -5.3281,13.883 1.6055,29.457 15.488,34.785 13.883,5.3281 29.453,-1.6055 34.781,-15.488 0.57031,-1.4844 0.84766,-3.0469 0.82422,-4.7539 l -0.25781,-21.266 16.543,13.363 c 1.1211,0.90625 2.3086,1.5781 3.6016,2.0508 13.973,5.0859 29.422,-2.1211 34.508,-16.09 5.0859,-13.973 -2.1211,-29.426 -16.094,-34.508 -1.2109,-0.44531 -2.4688,-0.6875 -3.8086,-0.73828 z m -41.887,29.836 c -9.2031,0 -16.668,-7.4609 -16.668,-16.668 0,-9.2031 7.4648,-16.664 16.668,-16.664 9.2032,0 16.668,7.4609 16.668,16.664 0,9.207 -7.4648,16.668 -16.668,16.668 z m 0,-20 c -1.8398,0 -3.332,1.4922 -3.332,3.332 0,1.8438 1.4922,3.3359 3.332,3.3359 1.8398,0 3.332,-1.4922 3.332,-3.3359 0,-1.8398 -1.4922,-3.332 -3.332,-3.332 z m -182.67,-53.332005 c -9.2031,0 -16.664,-7.4648 -16.664,-16.668 0,-9.2032 7.4609,-16.668 16.664,-16.668 9.207,0 16.668,7.4648 16.668,16.668 0,9.2032 -7.4609,16.668 -16.668,16.668 z m 0,-20 c -1.8398,0 -3.332,1.4922 -3.332,3.332 0,1.8398 1.4922,3.332 3.332,3.332 1.8438,0 3.3359,-1.4922 3.3359,-3.332 0,-1.8398 -1.4922,-3.332 -3.3359,-3.332 z m -36.766,134.070005 -14.68,12.684 -1.8125,-19.312 c -0.10547,-1.1211 -0.37109,-2.1641 -0.79297,-3.1641 -5.1445,-12.121 -19.145,-17.777 -31.270003,-12.633 -12.121,5.1445 -17.777,19.145 -12.633,31.27 0.49609,1.1641 1.1875,2.2148 2.1172,3.1953 l 15.023,15.879 -21.836,0.98438 c -1.3477,0.0625 -2.5781,0.33594 -3.7461,0.83203 -12.121,5.1445 -17.777,19.145 -12.633,31.27 5.1484,12.121 19.148,17.777 31.27,12.633 1.1133,-0.47266 2.1211,-1.125 3.0586,-1.9883 l 14.918003,-13.684 1.8047,20.164 c 0.0937,1.0625 0.33594,2.0625 0.72266,3.0234 4.9336,12.211 18.832,18.113 31.043,13.18 12.211,-4.9336 18.109,-18.832 13.176,-31.043 -0.50391,-1.2539 -1.2383,-2.3867 -2.25,-3.4414 l -14.691,-15.375 21.211,-1.5078 c 1.2266,-0.0859 2.3555,-0.35547 3.4297,-0.8125 12.125,-5.1484 17.781,-19.145 12.633,-31.27 -5.1445,-12.121 -19.145,-17.777 -31.266,-12.633 -1.0117,0.42969 -1.9336,1.0039 -2.7969,1.75 z m -13.801,48.336 c -7.7227,5.0117 -18.043,2.8203 -23.055003,-4.8984 -5.0156,-7.7227 -2.8203,-18.043 4.898403,-23.059 7.7188,-5.0117 18.043,-2.8164 23.055,4.9023 5.0156,7.7188 2.8203,18.043 -4.8984,23.055 z m -10.895,-16.773 c -1.543,1.0039 -1.9805,3.0664 -0.98047,4.6094 1.0039,1.5469 3.0664,1.9844 4.6133,0.98047 1.543,-1 1.9805,-3.0664 0.98047,-4.6094 -1.0039,-1.543 -3.0703,-1.9844 -4.6133,-0.98047 z m 269.31,50.02 -10.895,16.051 -6.7539,-18.188 c -0.39062,-1.0547 -0.91406,-1.9922 -1.582,-2.8477 -8.1094,-10.379 -23.094,-12.219 -33.473,-4.1094 -10.375,8.1055 -12.215,23.094 -4.1094,33.473 0.78125,0.99609 1.7227,1.832 2.8711,2.5391 l 18.621,11.449 -20.836,6.6055 c -1.2891,0.40625 -2.4023,0.99219 -3.4023,1.7695 -10.379,8.1094 -12.219,23.094 -4.1094,33.473 8.1096,10.379 23.094,12.219 33.473,4.1094 0.95312,-0.74219 1.7578,-1.6328 2.4414,-2.7109 l 10.867,-17.078 6.9609,19.008 c 0.36719,1.0078 0.85938,1.9062 1.4805,2.7383 7.9258,10.516 22.879,12.617 33.398,4.6914 10.516,-7.9258 12.617,-22.875 4.6914,-33.395 -0.8125,-1.0781 -1.8164,-1.9805 -3.0625,-2.7422 l -18.172,-11.047 20.098,-6.9453 c 1.1602,-0.40234 2.1836,-0.95312 3.1016,-1.6758 10.379,-8.1055 12.219,-23.094 4.1094,-33.473 -8.1055,-10.375 -23.094,-12.215 -33.469,-4.1094 -0.86719,0.67578 -1.6094,1.4727 -2.25,2.4141 z"
     id="path2" />
</svg>
