<?xml version="1.0" encoding="UTF-8" standalone="no"?>
<svg
   width="474.28799pt"
   height="474.28799pt"
   version="1.1"
   viewBox="0 0 474.28799 474.28799"
   id="svg4"
   sodipodi:docname="clover.svg"
   inkscape:version="1.1.1 (3bf5ae0d25, 2021-09-20)"
   xmlns:inkscape="http://www.inkscape.org/namespaces/inkscape"
   xmlns:sodipodi="http://sodipodi.sourceforge.net/DTD/sodipodi-0.dtd"
   xmlns="http://www.w3.org/2000/svg"
   xmlns:svg="http://www.w3.org/2000/svg">
  <defs
     id="defs8" />
  <sodipodi:namedview
     id="namedview6"
     pagecolor="#ffffff"
     bordercolor="#666666"
     borderopacity="1.0"
     inkscape:pageshadow="2"
     inkscape:pageopacity="0.0"
     inkscape:pagecheckerboard="0"
     inkscape:document-units="pt"
     showgrid="false"
     inkscape:zoom="0.91928571"
     inkscape:cx="466.12277"
     inkscape:cy="467.21057"
     inkscape:window-width="1920"
     inkscape:window-height="1017"
     inkscape:window-x="1912"
     inkscape:window-y="-8"
     inkscape:window-maximized="1"
     inkscape:current-layer="svg4" />
  <path
     d="m 383.08347,154.75066 -110.82,44.469 83.207,-85.586 c 12.254,-12.543 19.043,-29.43 18.887,-46.961 -0.15625,-17.535 -7.2422,-34.297 -19.715,-46.621 -12.473,-12.3239997 -29.316,-19.2149997 -46.852,-19.1599997 -14.523,-0.0625 -28.789,3.8555 -41.246,11.3279997 -12.457,7.4688 -22.629,18.211 -29.41,31.055 -6.9688,-12.957 -17.355,-23.754 -30.027,-31.223 -12.676,-7.4687997 -27.152,-11.3239997 -41.863,-11.1449997 h -0.0352 0.004 c -12.934,0.0625 -25.551,3.9688 -36.258,11.2189997 -10.707,7.25 -19.012,17.523 -23.867,29.508 -5.105497,12.012 -6.527297,25.27 -4.082,38.09 2.4492,12.82 8.6523,24.625 17.824,33.91 l 83.207,85.586 -110.819997,-44.469 c -16.262,-6.5664 -34.457,-6.4297 -50.617,0.37891 -16.16,6.8086 -28.969,19.734 -35.6289997,35.957 -6.6562,16.223 -6.6289,34.418 0.0859,50.617 7.8280997,19.328 22.8549997,34.859 41.9139997,43.324 7.7031,3.2812 15.891,5.2734 24.238,5.8945 -9.3477,11.379 -15.398,25.098 -17.492,39.672 -2.0977,14.574 -0.15625,29.445 5.6094,42.992 4.9766,11.938 13.387,22.125 24.164,29.27 10.781,7.1445 23.437997,10.926 36.370997,10.859 h 0.16016 c 13.016,0.125 25.781,-3.6133 36.672,-10.742 10.895,-7.1328 19.426,-17.332 24.52,-29.316 l 47.184,-108.61 v 199.6 c 0,4.832 3.918,8.75 8.75,8.75 4.832,0 8.75,-3.918 8.75,-8.75 v -199.8 l 47.27,108.82 c 5.0977,11.98 13.629,22.18 24.523,29.312 10.895,7.1289 23.656,10.867 36.676,10.742 h 0.16406 c 13.141,0.008 25.98,-3.9297 36.863,-11.301 10.879,-7.3672 19.301,-17.832 24.172,-30.039 5.5742,-13.41 7.3672,-28.094 5.1914,-42.453 -2.1797,-14.363 -8.25,-27.852 -17.551,-39.008 8.3047,-0.63281 16.453,-2.6211 24.117,-5.8828 19.43,-8.7227 34.656,-24.723 42.398,-44.562 6.3359,-16.184 6.0703,-34.211 -0.74219,-50.203 -6.8164,-15.988 -19.629,-28.668 -35.695,-35.312 -16.062,-6.6406 -34.09,-6.7148 -50.207,-0.20703 z m -74.289,-136.34 h 0.0234 c 9.5273,-0.03906 18.848,2.793 26.734,8.1328 7.8906,5.3398 13.984,12.934 17.488,21.793 3.7695,8.8555 4.8242,18.633 3.0234,28.09 -1.8008,9.4531 -6.3711,18.16 -13.133,25.008 l -97.027,99.805 v -123.78 c 0.46484,-16.184 7.3672,-31.516 19.172,-42.598 11.801,-11.082 27.539,-17 43.719,-16.449 z m -187.53,29.926 c 3.6094,-8.9961 9.875,-16.676 17.957,-22.023 8.082,-5.3477 17.598,-8.1094 27.289,-7.918 16.031,-0.34766 31.551,5.6719 43.148,16.742 11.602,11.07 18.34,26.289 18.742,42.32 v 123.78 l -97.027,-99.805 c -6.7617,-6.8516 -11.332,-15.555 -13.133,-25.012 -1.8008,-9.4531 -0.74609,-19.23 3.0234,-28.086 z m -100.399997,185.75 c -3.6523,-8.793 -4.5703,-18.488 -2.6289,-27.809 1.9414,-9.3242 6.6484,-17.844 13.508,-24.453 9.1133,-9.2109 21.516,-14.41 34.473,-14.457 6.3438,0.0156 12.621,1.2461 18.504,3.6211 l 129.179997,51.832 -114.499997,47.02 c -14.59,5.9609 -30.992,5.6641 -45.355,-0.82422 -15.219,-6.8359 -27.133,-19.383 -33.18,-34.93 z m 144.309997,132.6 h -0.004 c -3.7578,8.8359 -10.055,16.359 -18.094,21.617 -8.0352,5.2578 -17.453,8.0117 -27.055,7.9141 h -0.11719 c -9.6953,0.0742 -19.184,-2.8047 -27.202997,-8.2539 -8.0195,-5.4492 -14.188,-13.207 -17.691,-22.25 -6.3047,-15.066 -6.5039,-31.992 -0.55469,-47.203 5.6484,-14.719 17.105,-26.461 31.683997,-32.469 l 114.49,-47.016 z m 233.82,0 h -0.004 c -3.5859,8.8242 -9.75,16.363 -17.684,21.633 -7.9375,5.2656 -17.277,8.0195 -26.801,7.8984 h -0.121 c -9.6016,0.0977 -19.016,-2.6602 -27.055,-7.918 -8.0352,-5.2539 -14.332,-12.777 -18.094,-21.613 l -55.457,-127.66 114.49,47.016 c 14.797,6.5859 26.355,18.801 32.121,33.938 5.766,15.137 5.2617,31.945 -1.4023,46.707 z m 54.074,-131.64 h -0.004 c -6.1016,15.156 -17.863,27.34 -32.793,33.973 -14.367,6.4883 -30.766,6.7852 -45.355,0.82422 l -114.49,-47.016 129.18,-51.828 c 8.9102,-3.6445 18.699,-4.5625 28.133,-2.6328 9.4297,1.9297 18.074,6.6172 24.836,13.469 6.9453,6.7578 11.664,15.465 13.539,24.969 1.875,9.5078 0.8125,19.355 -3.043,28.242 z"
     id="path2" />
</svg>
