<?xml version="1.0" encoding="UTF-8" standalone="no"?>
<svg
   width="560pt"
   height="560pt"
   version="1.1"
   viewBox="0 0 560 560"
   id="svg174"
   sodipodi:docname="flax.svg"
   inkscape:version="1.1.1 (3bf5ae0d25, 2021-09-20)"
   xmlns:inkscape="http://www.inkscape.org/namespaces/inkscape"
   xmlns:sodipodi="http://sodipodi.sourceforge.net/DTD/sodipodi-0.dtd"
   xmlns="http://www.w3.org/2000/svg"
   xmlns:svg="http://www.w3.org/2000/svg">
  <sodipodi:namedview
     id="namedview176"
     pagecolor="#ffffff"
     bordercolor="#666666"
     borderopacity="1.0"
     inkscape:pageshadow="2"
     inkscape:pageopacity="0.0"
     inkscape:pagecheckerboard="0"
     inkscape:document-units="pt"
     showgrid="false"
     inkscape:zoom="0.91928571"
     inkscape:cx="466.12277"
     inkscape:cy="467.21057"
     inkscape:window-width="1920"
     inkscape:window-height="1017"
     inkscape:window-x="1912"
     inkscape:window-y="-8"
     inkscape:window-maximized="1"
     inkscape:current-layer="svg174" />
  <defs
     id="defs80">
    <symbol
       id="h"
       overflow="visible">
      <path
         d="m 14.656,-0.875 c -0.76172,0.39844 -1.5547,0.69531 -2.375,0.89062 -0.8125,0.19531 -1.6641,0.29688 -2.5469,0.29688 -2.6562,0 -4.7617,-0.73828 -6.3125,-2.2188 -1.5547,-1.4883 -2.3281,-3.5039 -2.3281,-6.0469 0,-2.5508 0.77344,-4.5664 2.3281,-6.0469 1.5508,-1.4883 3.6562,-2.2344 6.3125,-2.2344 0.88281,0 1.7344,0.10156 2.5469,0.29688 0.82031,0.19922 1.6133,0.49609 2.375,0.89062 v 3.2969 c -0.76172,-0.51953 -1.5117,-0.89844 -2.25,-1.1406 -0.74219,-0.23828 -1.5234,-0.35938 -2.3438,-0.35938 -1.4688,0 -2.625,0.46875 -3.4688,1.4062 -0.83594,0.9375 -1.25,2.2344 -1.25,3.8906 0,1.6484 0.41406,2.9375 1.25,3.875 0.84375,0.9375 2,1.4062 3.4688,1.4062 0.82031,0 1.6016,-0.11719 2.3438,-0.35938 0.73828,-0.23828 1.4883,-0.61719 2.25,-1.1406 z"
         id="path2" />
    </symbol>
    <symbol
       id="c"
       overflow="visible">
      <path
         d="m 10.719,-8.7031 c -0.33594,-0.15625 -0.66797,-0.26953 -1,-0.34375 -0.32422,-0.082031 -0.65625,-0.125 -1,-0.125 -0.98047,0 -1.7344,0.32031 -2.2656,0.95312 -0.53125,0.625 -0.79688,1.5273 -0.79688,2.7031 V -3e-5 h -3.8125 v -11.969 h 3.8125 v 1.9688 c 0.48828,-0.78125 1.0508,-1.3477 1.6875,-1.7031 0.64453,-0.36328 1.4102,-0.54688 2.2969,-0.54688 0.13281,0 0.27344,0.0078 0.42188,0.01563 0.14453,0.01172 0.36328,0.03125 0.65625,0.0625 z"
         id="path5" />
    </symbol>
    <symbol
       id="a"
       overflow="visible">
      <path
         d="m 13.781,-6.0156 v 1.0938 H 4.8435 c 0.09375,0.89844 0.41406,1.5703 0.96875,2.0156 0.55078,0.44922 1.3281,0.67188 2.3281,0.67188 0.80078,0 1.625,-0.11719 2.4688,-0.35938 0.84375,-0.23828 1.7109,-0.59766 2.6094,-1.0781 v 2.9531 c -0.90625,0.33594 -1.8125,0.58984 -2.7188,0.76562 -0.9063,0.17578 -1.8125,0.26562 -2.7188,0.26562 -2.1562,0 -3.8398,-0.54688 -5.0469,-1.6406 -1.1992,-1.1016 -1.7969,-2.6484 -1.7969,-4.6406 0,-1.9453 0.58594,-3.4766 1.7656,-4.5938 1.1758,-1.125 2.8008,-1.6875 4.875,-1.6875 1.875,0 3.375,0.57031 4.5,1.7031 1.1328,1.125 1.7031,2.6367 1.7031,4.5312 z M 9.8435,-7.2812 c 0,-0.72656 -0.21484,-1.3125 -0.64062,-1.75 -0.41797,-0.44531 -0.96875,-0.67188 -1.6562,-0.67188 -0.74219,0 -1.3438,0.21094 -1.8125,0.625 -0.46094,0.41797 -0.74609,1.0156 -0.85938,1.7969 z"
         id="path8" />
    </symbol>
    <symbol
       id="m"
       overflow="visible">
      <path
         d="m 7.2031,-5.3906 c -0.80469,0 -1.4062,0.13672 -1.8125,0.40625 -0.39844,0.27344 -0.59375,0.67188 -0.59375,1.2031 0,0.48047 0.16016,0.85938 0.48438,1.1406 0.32031,0.27344 0.77344,0.40625 1.3594,0.40625 0.71875,0 1.3203,-0.25391 1.8125,-0.76562 0.48828,-0.51953 0.73438,-1.1719 0.73438,-1.9531 v -0.4375 z m 5.8438,-1.4375 V 0 H 9.1875 v -1.7656 c -0.51172,0.71875 -1.0898,1.2461 -1.7344,1.5781 -0.63672,0.33203 -1.418,0.5 -2.3438,0.5 -1.2422,0 -2.2461,-0.35938 -3.0156,-1.0781 -0.77344,-0.72656 -1.1562,-1.6719 -1.1562,-2.8281 0,-1.3945 0.47656,-2.4219 1.4375,-3.0781 0.96875,-0.65625 2.4883,-0.98438 4.5625,-0.98438 h 2.25 v -0.29688 c 0,-0.60156 -0.24219,-1.0469 -0.71875,-1.3281 -0.48047,-0.28125 -1.2266,-0.42188 -2.2344,-0.42188 -0.8125,0 -1.5742,0.085937 -2.2812,0.25 -0.71094,0.15625 -1.3672,0.40234 -1.9688,0.73438 v -2.9219 c 0.82031,-0.19531 1.6445,-0.34766 2.4688,-0.45312 0.82031,-0.10156 1.6484,-0.15625 2.4844,-0.15625 2.1562,0 3.7109,0.42969 4.6719,1.2812 0.95703,0.84375 1.4375,2.2266 1.4375,4.1406 z"
         id="path11" />
    </symbol>
    <symbol
       id="b"
       overflow="visible">
      <path
         d="m 6.0156,-15.359 v 3.3906 H 9.9531 V -9.234 H 6.0156 v 5.0781 c 0,0.55469 0.10938,0.92969 0.32812,1.125 0.21875,0.19922 0.65625,0.29688 1.3125,0.29688 h 1.9688 v 2.7344 h -3.2812 c -1.5117,0 -2.5859,-0.3125 -3.2188,-0.9375 -0.625,-0.63281 -0.9375,-1.707 -0.9375,-3.2188 v -5.0781 h -1.9062 v -2.7344 h 1.9062 v -3.3906 z"
         id="path14" />
    </symbol>
    <symbol
       id="l"
       overflow="visible">
      <path
         d="m 9.9688,-10.219 v -6.4062 h 3.8594 V -2e-4 H 9.9688 V -1.7346 C 9.44536,-1.02366 8.8672,-0.5041 8.2344,-0.1721 7.59768,0.14821 6.8633,0.31228 6.0313,0.31228 c -1.4688,0 -2.6797,-0.58203 -3.625,-1.75 -0.94922,-1.1758 -1.4219,-2.6875 -1.4219,-4.5312 0,-1.8437 0.47266,-3.3477 1.4219,-4.5156 0.94531,-1.1758 2.1562,-1.7656 3.625,-1.7656 0.83203,0 1.5664,0.16797 2.2031,0.5 0.63281,0.32422 1.2109,0.83594 1.7344,1.5312 z m -2.5156,7.75 c 0.82031,0 1.4453,-0.29688 1.875,-0.89062 0.42578,-0.60156 0.64062,-1.4727 0.64062,-2.6094 0,-1.1445 -0.21484,-2.0156 -0.64062,-2.6094 -0.42969,-0.59375 -1.0547,-0.89062 -1.875,-0.89062 -0.8125,0 -1.4336,0.29688 -1.8594,0.89062 -0.42969,0.59375 -0.64062,1.4648 -0.64062,2.6094 0,1.1367 0.21094,2.0078 0.64062,2.6094 0.42578,0.59375 1.0469,0.89062 1.8594,0.89062 z"
         id="path17" />
    </symbol>
    <symbol
       id="k"
       overflow="visible">
      <path
         d="m 8.2031,-2.4688 c 0.82031,0 1.4453,-0.29688 1.875,-0.89062 0.42578,-0.60156 0.64062,-1.4727 0.64062,-2.6094 0,-1.1445 -0.21484,-2.0156 -0.64062,-2.6094 -0.42969,-0.59375 -1.0547,-0.89062 -1.875,-0.89062 -0.82422,0 -1.4531,0.30469 -1.8906,0.90625 -0.4375,0.59375 -0.65625,1.4609 -0.65625,2.5938 0,1.1367 0.21875,2.0078 0.65625,2.6094 0.4375,0.59375 1.0664,0.89062 1.8906,0.89062 z m -2.5469,-7.75 c 0.53125,-0.69531 1.1133,-1.207 1.75,-1.5312 0.64453,-0.33203 1.3828,-0.5 2.2188,-0.5 1.4688,0 2.6758,0.58984 3.625,1.7656 0.94531,1.168 1.4219,2.6719 1.4219,4.5156 0,1.8437 -0.47656,3.3555 -1.4219,4.5312 -0.94922,1.168 -2.1562,1.75 -3.625,1.75 -0.83594,0 -1.5742,-0.16797 -2.2188,-0.5 -0.63672,-0.33203 -1.2188,-0.84766 -1.75,-1.5469 V -1e-4 H 1.8437 v -16.625 h 3.8125 z"
         id="path20" />
    </symbol>
    <symbol
       id="j"
       overflow="visible">
      <path
         d="m 0.26562,-11.969 h 3.8281 l 3.2188,8.125 2.7344,-8.125 h 3.8125 L 8.82822,1.125 c -0.5,1.332 -1.0898,2.2656 -1.7656,2.7969 -0.66797,0.53125 -1.5547,0.79688 -2.6562,0.79688 h -2.2188 v -2.5 h 1.2031 c 0.64453,0 1.1133,-0.10547 1.4062,-0.3125 C 5.0977,1.69534 5.32817,1.32816 5.48442,0.79688 L 5.5938,0.45313 Z"
         id="path23" />
    </symbol>
    <symbol
       id="i"
       overflow="visible">
      <path
         d="m 0.65625,-15.953 h 3.9375 l 2.75,11.594 2.7344,-11.594 h 3.9688 l 2.7344,11.594 2.75,-11.594 h 3.9062 L 19.68755,0 h -4.75 L 12.04695,-12.125 9.18755,0 h -4.75 z"
         id="path26" />
    </symbol>
    <symbol
       id="g"
       overflow="visible">
      <path
         d="m 2.0156,-15.953 h 11.094 v 3.1094 H 6.1252 v 2.9688 h 6.5625 v 3.1094 H 6.1252 v 3.6562 H 13.344 V 2e-4 H 2.016 Z"
         id="path29" />
    </symbol>
    <symbol
       id="z"
       overflow="visible">
      <path
         d="m 8.3906,-9.7656 c 0.65625,0 1.1484,-0.14062 1.4844,-0.42188 0.33203,-0.28906 0.5,-0.71094 0.5,-1.2656 0,-0.55078 -0.16797,-0.97266 -0.5,-1.2656 -0.33594,-0.28906 -0.82812,-0.4375 -1.4844,-0.4375 H 6.125 v 3.3906 z m 0.14062,6.9688 c 0.82031,0 1.4414,-0.17188 1.8594,-0.51562 0.41406,-0.35156 0.625,-0.88281 0.625,-1.5938 0,-0.6875 -0.21094,-1.2031 -0.625,-1.5469 -0.40625,-0.34375 -1.0273,-0.51562 -1.8594,-0.51562 h -2.4062 v 4.1719 z m 3.8281,-5.7344 c 0.88281,0.25 1.5664,0.72656 2.0469,1.4219 0.48828,0.6875 0.73438,1.5312 0.73438,2.5312 0,1.543 -0.52344,2.6953 -1.5625,3.4531 C 12.5351,-0.375 10.9531,0 8.8281,0 H 2.0156 v -15.953 h 6.1719 c 2.207,0 3.8047,0.33984 4.7969,1.0156 1,0.66797 1.5,1.7344 1.5,3.2031 0,0.78125 -0.18359,1.4492 -0.54688,2 -0.36719,0.54297 -0.89062,0.94531 -1.5781,1.2031 z"
         id="path32" />
    </symbol>
    <symbol
       id="y"
       overflow="visible">
      <path
         d="m 0.10938,-15.953 h 14.688 v 3.1094 H 9.51618 V 4e-4 h -4.1094 v -12.844 h -5.2969 z"
         id="path35" />
    </symbol>
    <symbol
       id="x"
       overflow="visible">
      <path
         d="M 2.0156,-15.953 H 6.125 v 6.0781 h 6.0625 v -6.0781 h 4.1094 V 0 H 12.1875 V -6.7656 H 6.125 V 0 H 2.0156 Z"
         id="path38" />
    </symbol>
    <symbol
       id="w"
       overflow="visible">
      <path
         d="m 9.2969,-13.25 c -1.2617,0 -2.2344,0.46484 -2.9219,1.3906 -0.6875,0.91797 -1.0312,2.2188 -1.0312,3.9062 0,1.668 0.34375,2.9648 1.0312,3.8906 0.6875,0.92969 1.6602,1.3906 2.9219,1.3906 1.2578,0 2.2344,-0.46094 2.9219,-1.3906 0.6875,-0.92578 1.0312,-2.2227 1.0312,-3.8906 0,-1.6875 -0.34375,-2.9883 -1.0312,-3.9062 -0.6875,-0.92578 -1.6641,-1.3906 -2.9219,-1.3906 z m 0,-2.9844 c 2.5625,0 4.5664,0.73438 6.0156,2.2031 1.457,1.4688 2.1875,3.4961 2.1875,6.0781 0,2.5742 -0.73047,4.5938 -2.1875,6.0625 -1.4492,1.4688 -3.4531,2.2031 -6.0156,2.2031 -2.5625,0 -4.5742,-0.73438 -6.0312,-2.2031 -1.4492,-1.4688 -2.1719,-3.4883 -2.1719,-6.0625 0,-2.582 0.72266,-4.6094 2.1719,-6.0781 1.457,-1.4688 3.4688,-2.2031 6.0312,-2.2031 z"
         id="path41" />
    </symbol>
    <symbol
       id="e"
       overflow="visible">
      <path
         d="m 2.0156,-15.953 h 6.8125 c 2.0312,0 3.5859,0.45312 4.6719,1.3594 1.0938,0.89844 1.6406,2.1797 1.6406,3.8438 0,1.6797 -0.54688,2.9688 -1.6406,3.875 -1.0859,0.89844 -2.6406,1.3438 -4.6719,1.3438 H 6.125 V 2e-4 H 2.0156 Z m 4.1094,2.9844 v 4.4531 h 2.2656 c 0.80078,0 1.4141,-0.19141 1.8438,-0.57812 0.4375,-0.38281 0.65625,-0.9375 0.65625,-1.6562 0,-0.70703 -0.21875,-1.2539 -0.65625,-1.6406 -0.42969,-0.38281 -1.043,-0.57812 -1.8438,-0.57812 z"
         id="path44" />
    </symbol>
    <symbol
       id="v"
       overflow="visible">
      <path
         d="m 13.109,-15.438 v 3.375 c -0.875,-0.39453 -1.7305,-0.69141 -2.5625,-0.89062 -0.83594,-0.19531 -1.6211,-0.29688 -2.3594,-0.29688 -0.99219,0 -1.7188,0.13672 -2.1875,0.40625 -0.46875,0.27344 -0.70312,0.6875 -0.70312,1.25 0,0.42969 0.15625,0.76172 0.46875,1 0.32031,0.24219 0.89844,0.44922 1.7344,0.625 l 1.75,0.34375 c 1.7695,0.35547 3.0312,0.89844 3.7812,1.625 0.75,0.73047 1.125,1.7617 1.125,3.0938 0,1.7617 -0.52734,3.0742 -1.5781,3.9375 -1.043,0.85547 -2.6328,1.2812 -4.7656,1.2812 -1.0117,0 -2.0273,-0.10156 -3.0469,-0.29688 -1.0234,-0.1875 -2.043,-0.46875 -3.0625,-0.84375 v -3.4688 c 1.0195,0.53125 2.0039,0.9375 2.9531,1.2188 0.95703,0.27344 1.875,0.40625 2.75,0.40625 0.90625,0 1.5938,-0.14453 2.0625,-0.4375 0.47656,-0.30078 0.71875,-0.73438 0.71875,-1.2969 0,-0.48828 -0.16406,-0.86719 -0.48438,-1.1406 C 9.37848,-5.81691 8.73395,-6.063 7.7652,-6.28176 L 6.1714,-6.64114 c -1.5938,-0.33203 -2.7617,-0.875 -3.5,-1.625 -0.74219,-0.75 -1.1094,-1.7578 -1.1094,-3.0312 0,-1.582 0.50781,-2.8008 1.5312,-3.6562 1.0312,-0.85156 2.5078,-1.2812 4.4375,-1.2812 0.875,0 1.7734,0.07031 2.7031,0.20312 0.92578,0.125 1.8828,0.32422 2.875,0.59375 z"
         id="path47" />
    </symbol>
    <symbol
       id="f"
       overflow="visible">
      <path
         d="M 2.0156,-15.953 H 6.125 v 12.844 h 7.2188 V 4e-4 H 2.0158 Z"
         id="path50" />
    </symbol>
    <symbol
       id="u"
       overflow="visible">
      <path
         d="m 9.7031,-16.625 v 2.5156 H 7.5937 c -0.54297,0 -0.92188,0.10156 -1.1406,0.29688 -0.21094,0.19922 -0.3125,0.53906 -0.3125,1.0156 v 0.82812 h 3.2656 v 2.7344 H 6.1406 V 0 H 2.3125 V -9.2344 H 0.4219 v -2.7344 h 1.8906 v -0.82812 c 0,-1.3008 0.36328,-2.2656 1.0938,-2.8906 0.72656,-0.625 1.8516,-0.9375 3.375,-0.9375 z"
         id="path53" />
    </symbol>
    <symbol
       id="d"
       overflow="visible">
      <path
         d="m 7.5312,-9.5156 c -0.84375,0 -1.4922,0.30859 -1.9375,0.92188 -0.44922,0.60547 -0.67188,1.4805 -0.67188,2.625 0,1.1484 0.22266,2.0273 0.67188,2.6406 0.44531,0.60547 1.0938,0.90625 1.9375,0.90625 0.83203,0 1.4688,-0.30078 1.9062,-0.90625 0.44531,-0.61328 0.67188,-1.4922 0.67188,-2.6406 0,-1.1445 -0.22656,-2.0195 -0.67188,-2.625 C 8.9999,-9.207 8.3632,-9.5156 7.5312,-9.5156 Z m 0,-2.7344 c 2.0508,0 3.6562,0.55859 4.8125,1.6719 1.1641,1.1055 1.75,2.6406 1.75,4.6094 0,1.9688 -0.58594,3.5117 -1.75,4.625 -1.1562,1.1055 -2.7617,1.6562 -4.8125,1.6562 -2.0625,0 -3.6797,-0.55078 -4.8438,-1.6562 -1.168,-1.1133 -1.75,-2.6562 -1.75,-4.625 0,-1.9688 0.58203,-3.5039 1.75,-4.6094 1.1641,-1.1133 2.7812,-1.6719 4.8438,-1.6719 z"
         id="path56" />
    </symbol>
    <symbol
       id="t"
       overflow="visible">
      <path
         d="m 12.922,-9.9688 c 0.48828,-0.75 1.0625,-1.3164 1.7188,-1.7031 0.66406,-0.38281 1.3984,-0.57812 2.2031,-0.57812 1.375,0 2.4219,0.42969 3.1406,1.2812 0.71875,0.84375 1.0781,2.0742 1.0781,3.6875 v 7.2812 h -3.8438 v -6.2344 c 0.0078,-0.09375 0.01563,-0.1875 0.01563,-0.28125 v -0.4375 c 0,-0.84375 -0.125,-1.457 -0.375,-1.8438 -0.25,-0.38281 -0.65234,-0.57812 -1.2031,-0.57812 -0.73047,0 -1.293,0.30469 -1.6875,0.90625 -0.38672,0.59375 -0.58984,1.4609 -0.60938,2.5938 v 5.875 h -3.8438 v -6.2344 c 0,-1.3203 -0.11719,-2.1758 -0.34375,-2.5625 -0.23047,-0.38281 -0.63672,-0.57812 -1.2188,-0.57812 -0.73047,0 -1.2969,0.30469 -1.7031,0.90625 -0.39844,0.60547 -0.59375,1.4648 -0.59375,2.5781 v 5.8906 h -3.8438 v -11.969 h 3.8438 v 1.75 c 0.46875,-0.66406 1.0039,-1.1719 1.6094,-1.5156 0.61328,-0.34375 1.2891,-0.51562 2.0312,-0.51562 0.82031,0 1.5508,0.19922 2.1875,0.59375 0.63281,0.39844 1.1133,0.96094 1.4375,1.6875 z"
         id="path59" />
    </symbol>
    <symbol
       id="s"
       overflow="visible">
      <path
         d="M 13.859,-7.2812 V 0 h -3.8438 v -5.5469 c 0,-1.0508 -0.027344,-1.7695 -0.078125,-2.1562 -0.042969,-0.39453 -0.12109,-0.6875 -0.23438,-0.875 -0.14844,-0.25 -0.35156,-0.44141 -0.60938,-0.57812 -0.25,-0.14453 -0.54297,-0.21875 -0.875,-0.21875 -0.79297,0 -1.418,0.3125 -1.875,0.9375 -0.46094,0.61719 -0.6875,1.4648 -0.6875,2.5469 V 3e-5 h -3.8125 v -16.625 h 3.8125 v 6.4062 c 0.58203,-0.69531 1.1953,-1.207 1.8438,-1.5312 0.64453,-0.33203 1.3594,-0.5 2.1406,-0.5 1.3828,0 2.4297,0.42969 3.1406,1.2812 0.71875,0.84375 1.0781,2.0742 1.0781,3.6875 z"
         id="path62" />
    </symbol>
    <symbol
       id="r"
       overflow="visible">
      <path
         d="m 2.0156,-15.953 h 4.5781 l 5.8125,10.938 v -10.938 h 3.8906 V 0 H 11.703 L 5.9061,-10.938 V 0 H 2.0155 Z"
         id="path65" />
    </symbol>
    <symbol
       id="q"
       overflow="visible">
      <path
         d="m 1.7031,-4.6562 v -7.3125 h 3.8438 v 1.2031 c 0,0.64844 -0.00781,1.4609 -0.015625,2.4375 v 1.9688 c 0,0.96094 0.023438,1.6523 0.078125,2.0781 0.050781,0.41797 0.13281,0.72656 0.25,0.92188 0.15625,0.25 0.35938,0.44531 0.60938,0.57812 0.25781,0.13672 0.55078,0.20312 0.875,0.20312 0.80078,0 1.4258,-0.30469 1.875,-0.92188 0.45703,-0.61328 0.6875,-1.4688 0.6875,-2.5625 v -5.9062 h 3.8281 v 11.969 h -3.8281 v -1.7344 c -0.57422,0.69922 -1.1836,1.2148 -1.8281,1.5469 -0.64844,0.33203 -1.3555,0.5 -2.125,0.5 -1.3867,0 -2.4453,-0.42188 -3.1719,-1.2656 -0.71875,-0.85156 -1.0781,-2.0859 -1.0781,-3.7031 z"
         id="path68" />
    </symbol>
    <symbol
       id="p"
       overflow="visible">
      <path
         d="M 13.859,-7.2812 V 0 h -3.8438 v -5.5781 c 0,-1.0312 -0.027344,-1.7383 -0.078125,-2.125 -0.042969,-0.39453 -0.12109,-0.6875 -0.23438,-0.875 -0.14844,-0.25 -0.35156,-0.44141 -0.60938,-0.57812 -0.25,-0.14453 -0.54297,-0.21875 -0.875,-0.21875 -0.79297,0 -1.418,0.3125 -1.875,0.9375 -0.46094,0.61719 -0.6875,1.4648 -0.6875,2.5469 V 3e-5 h -3.8125 v -11.969 h 3.8125 v 1.75 c 0.58203,-0.69531 1.1953,-1.207 1.8438,-1.5312 0.64453,-0.33203 1.3594,-0.5 2.1406,-0.5 1.3828,0 2.4297,0.42969 3.1406,1.2812 0.71875,0.84375 1.0781,2.0742 1.0781,3.6875 z"
         id="path71" />
    </symbol>
    <symbol
       id="o"
       overflow="visible">
      <path
         d="m 1.8438,-11.969 h 3.8125 v 11.75 c 0,1.6016 -0.38672,2.8281 -1.1562,3.6719 C 3.73838,4.29665 2.629,4.7185 1.172,4.7185 h -1.8906 v -2.5 h 0.65625 c 0.72656,0 1.2266,-0.16797 1.5,-0.5 C 1.70718,1.39428 1.8439,0.74975 1.8439,-0.219 Z m 0,-4.6562 h 3.8125 v 3.125 H 1.8438 Z"
         id="path74" />
    </symbol>
    <symbol
       id="n"
       overflow="visible">
      <path
         d="m 11.5,-11.594 v 3.125 C 10.97656,-8.82056 10.457,-9.08228 9.9375,-9.25025 9.41406,-9.42603 8.875,-9.51587 8.3125,-9.51587 c -1.0742,0 -1.9062,0.3125 -2.5,0.9375 -0.5938,0.625 -0.89062,1.4961 -0.89062,2.6094 0,1.1172 0.29688,1.9844 0.89062,2.6094 0.59374,0.625 1.4258,0.9375 2.5,0.9375 0.59375,0 1.1562,-0.085937 1.6875,-0.26562 0.53906,-0.17578 1.0391,-0.44141 1.5,-0.79688 v 3.125 c -0.59375,0.23047 -1.1992,0.39453 -1.8125,0.5 -0.61719,0.11328 -1.2344,0.17188 -1.8594,0.17188 -2.1562,0 -3.8438,-0.55078 -5.0625,-1.6562 -1.2188,-1.1133 -1.8281,-2.6562 -1.8281,-4.625 0,-1.9688 0.60938,-3.5039 1.8281,-4.6094 1.2188,-1.1133 2.9062,-1.6719 5.0625,-1.6719 0.625,0 1.2383,0.05859 1.8438,0.17188 0.61328,0.10547 1.2227,0.26562 1.8281,0.48438 z"
         id="path77" />
    </symbol>
  </defs>
  <g
     id="g1123"
     transform="translate(-70.002938,5.3965301e-4)">
    <path
       d="m 436.62,158.23 c -7.2461,-3.1055 -14.832,-5.3477 -22.605,-6.6836 4.1836,-4.9492 8.9453,-9.3789 14.191,-13.184 1.8906,-1.3516 3.1641,-3.3984 3.5391,-5.6914 0.37891,-2.293 -0.17188,-4.6445 -1.5273,-6.5312 -1.3555,-1.8867 -3.4062,-3.1562 -5.6992,-3.5273 -2.293,-0.375 -4.6406,0.17969 -6.5273,1.5391 -11.277,8.1562 -20.691,18.621 -27.605,30.703 -1.4219,2.7148 -1.3203,5.9727 0.26563,8.5898 2.043,3 5.5781,4.625 9.1836,4.2188 10.281,0.25781 20.418,2.5078 29.84,6.6328 4.4375,1.9141 9.5898,-0.125 11.508,-4.5625 1.918,-4.4375 -0.125,-9.5859 -4.5625,-11.504 z"
       id="path82" />
    <path
       d="m 262.49,161.77 c 1.1836,0.0664 2.3672,-0.13672 3.4609,-0.59766 9.4844,-4.0898 19.656,-6.3359 29.977,-6.6289 3.5664,0.39453 7.0547,-1.2344 9.0469,-4.2188 1.5859,-2.6211 1.6875,-5.8789 0.26953,-8.5898 -6.9141,-12.082 -16.328,-22.551 -27.609,-30.703 -1.8828,-1.3594 -4.2305,-1.9141 -6.5234,-1.543 -2.293,0.375 -4.3438,1.6445 -5.6992,3.5312 -1.3555,1.8867 -1.9062,4.2344 -1.5312,6.5273 0.37891,2.293 1.6523,4.3438 3.543,5.6953 5.2422,3.8047 10.008,8.2344 14.191,13.184 -7.7695,1.3359 -15.359,3.5781 -22.605,6.6797 -4.4375,1.918 -6.4805,7.0703 -4.5625,11.504 1.543,3.0547 4.6211,5.0312 8.043,5.1602 z"
       id="path84" />
    <path
       d="m 301.73,201.27 c -11.824,0.55859 -23.434,3.3828 -34.199,8.3164 -2.1055,0.97656 -3.7383,2.7539 -4.5352,4.9336 -0.79688,2.1836 -0.69531,4.5898 0.28906,6.6953 0.98047,2.1094 2.7578,3.7383 4.9414,4.5312 2.1797,0.79297 4.5898,0.6875 6.6953,-0.29688 4.1797,-1.9219 8.5352,-3.4414 13.004,-4.5391 -1.3945,4.8281 -2.2695,9.7852 -2.6094,14.797 -0.3125,4.8242 3.3438,8.9883 8.168,9.3008 4.8203,0.3125 8.9844,-3.3438 9.2969,-8.168 0.53906,-7.4961 2.6133,-14.801 6.1016,-21.457 2.0117,-2.918 2.207,-6.7227 0.50391,-9.8281 -1.6094,-2.6914 -4.5234,-4.3203 -7.6562,-4.2852 z"
       id="path86" />
    <path
       d="m 385.75,227.12 c -7.543,-0.69141 -14.867,-2.9141 -21.523,-6.5352 -2.8867,-2.0586 -6.6875,-2.3125 -9.8203,-0.66016 -2.7188,1.5547 -4.3984,4.4453 -4.4062,7.5781 0.36719,11.809 3.0117,23.43 7.793,34.23 2.0469,4.3359 7.1562,6.2812 11.566,4.3984 2.1211,-0.94922 3.7734,-2.7031 4.5977,-4.875 0.82422,-2.168 0.75391,-4.5742 -0.19922,-6.6914 -1.8477,-4.1602 -3.293,-8.4844 -4.3164,-12.918 4.8242,1.4922 9.793,2.4648 14.824,2.9102 2.3164,0.20312 4.6172,-0.52344 6.3945,-2.0195 1.7812,-1.4961 2.8906,-3.6406 3.0859,-5.957 0.19922,-2.3164 -0.53516,-4.6133 -2.0352,-6.3906 -1.5,-1.7734 -3.6445,-2.8789 -5.9609,-3.0703 z"
       id="path88" />
    <path
       d="m 531.37,156.07 c -2.2188,-5.4805 -5.1133,-10.664 -8.6094,-15.43 -2.957,-3.8945 -5.3242,-8.207 -7.0195,-12.793 -1.2969,-5.1719 -2.0117,-10.469 -2.1328,-15.801 -0.1875,-6.3711 -1.0547,-12.703 -2.5898,-18.891 -7.9492,-28.465 -21.473,-44.805 -40.195,-48.57 -9.8008,-1.7148 -19.891,-0.51172 -29.02,3.4492 0.11719,-8.3594 -1.8359,-16.617 -5.6797,-24.039 -9.2539,-17.07 -28.773,-25.133 -57.953,-23.867 -5.8555,0.44922 -11.629,1.6406 -17.184,3.543 -4.4922,1.6406 -9.207,2.582 -13.988,2.793 -5.207,-0.37109 -10.355,-1.3398 -15.344,-2.8906 -6.043,-1.832 -12.273,-2.9883 -18.57,-3.4453 -29.219,-1.2383 -48.699,6.8008 -57.953,23.867 -3.4531,6.582 -5.3828,13.859 -5.6445,21.289 -6.6367,-1.7148 -13.566,-1.957 -20.305,-0.70312 -18.723,3.7695 -32.246,20.109 -40.195,48.57 -1.4102,5.75 -2.1055,11.648 -2.0625,17.566 0.11328,4.8945 -0.49609,9.7773 -1.8086,14.496 -1.9766,4.9453 -4.4961,9.6523 -7.5195,14.039 -3.5781,5.2695 -6.582,10.906 -8.9609,16.816 -10.219,27.707 -8.8438,48.895 4.082,62.98 4.5938,4.8633 10.184,8.6797 16.387,11.188 -0.25781,1.0078 -0.55469,2.0039 -0.70703,3.0273 -3.707,24.664 25.41,39.773 34.98,44.738 5.1445,2.4727 10.531,4.4023 16.074,5.7617 4.7578,1.0938 9.3633,2.7773 13.703,5.0117 4.0273,2.6016 7.7539,5.6406 11.121,9.0547 4.1016,4.1133 8.625,7.7852 13.496,10.949 16.199,9.9688 31.039,14.977 44.336,14.977 h 0.004 c 5.4961,0.0273 10.961,-0.89453 16.145,-2.7305 0.26172,-0.0937 0.50391,-0.22656 0.76172,-0.32422 -3.9531,34.418 -2.5742,69.242 4.0898,103.24 -15.438,-19.129 -33.836,-35.664 -54.496,-48.98 -30.348,-18.617 -64.516,-30.125 -99.945,-33.656 -3.1992,-0.19531 -6.2539,1.3594 -7.9805,4.0586 -1.7148,2.7148 -1.8047,6.1523 -0.23047,8.9531 18.441,30.477 43.531,56.391 73.398,75.805 29.609,18.125 62.832,29.539 97.328,33.43 9.625,61.332 -5.8828,81.926 -5.9531,82.023 l 0.004,-0.004 c -1.5234,1.7539 -2.2852,4.0391 -2.1211,6.3555 0.16406,2.3125 1.2422,4.4688 2.9961,5.9883 3.6758,3.0898 9.1406,2.7031 12.344,-0.875 3.0508,-3.9102 5.4141,-8.3086 6.9844,-13.008 24.762,-19.227 42.949,-53.801 54.152,-80.488 8.8594,0.83984 17.777,-0.73047 25.816,-4.5391 8.0391,-3.8125 14.898,-9.7227 19.852,-17.113 7.4805,-11.496 11.336,-24.977 11.062,-38.691 0.31641,-15.672 -0.98438,-32.902 4.4414,-47.891 v 0.004 c 1.1445,-3.1562 0.38281,-6.6875 -1.9609,-9.0898 -2.34371,-2.4023 -5.8516,-3.2539 -9.0352,-2.1914 -10.512,3.7266 -19.852,10.168 -27.066,18.668 -3.957,-9.0664 -8.6133,-17.816 -13.918,-26.168 -2.2109,-3.418 -6.4922,-4.8633 -10.324,-3.4805 -3.8281,1.3828 -6.1992,5.2266 -5.7188,9.2734 0.67578,5.6445 -6.8828,23.312 -14.199,36 -11.82,18.84 -15.934,36.516 -12.219,52.535 v -0.004 c 2.4961,10.547 8.3398,20 16.648,26.953 -7.9922,19.809 -18.574,38.473 -31.469,55.508 1.3477,-19.125 -0.26172,-45.555 -8.7695,-81.418 h 0.004 c -8.6094,-36.988 -10.543,-75.215 -5.7148,-112.88 6.4883,3.1992 13.641,4.8242 20.875,4.7422 13.297,0 28.141,-5.0039 44.336,-14.973 l 0.004,-0.004 c 4.5,-2.9453 8.6328,-6.4297 12.297,-10.371 2.9219,-3.2656 6.3086,-6.082 10.059,-8.3555 4.7461,-2.3125 9.7031,-4.1719 14.801,-5.5547 5.9297,-1.6445 11.699,-3.8164 17.242,-6.4961 9.5664,-4.9648 38.684,-20.074 34.977,-44.738 -0.15625,-1.0156 -0.36719,-2.0195 -0.63281,-3.0117 6.1719,-2.5312 11.734,-6.3516 16.312,-11.203 12.926,-14.086 14.301,-35.277 4.082,-62.98 z M 413.53,387.35 c 4.1562,-7.1875 7.8516,-14.633 11.059,-22.289 1.6055,3.3438 3.0039,6.7852 4.1836,10.305 1.582,4.707 5.6562,8.1406 10.566,8.8945 4.9102,0.75781 9.8281,-1.293 12.75,-5.3086 2.3516,-3.2617 5.0156,-6.2852 7.9609,-9.0234 -0.96484,9.332 -1.0664,18.902 -1.1523,26.828 -0.0234,2.1602 -0.043,4.2031 -0.082,6.0859 v 0.004 c 0.33984,10.277 -2.4375,20.422 -7.9648,29.098 -3.7539,5.7812 -9.293,10.184 -15.773,12.539 -6.4805,2.3594 -13.555,2.5391 -20.148,0.52344 -5.7891,-4.5547 -9.8633,-10.934 -11.562,-18.098 -2.6172,-11.316 0.76953,-24.504 10.164,-39.559 z M 270.51,32.33 c 5.8828,-10.844 19.582,-15.645 41.828,-14.723 5.0273,0.42969 9.9961,1.3945 14.82,2.8789 6.3086,1.9336 12.832,3.0977 19.422,3.4688 6.6289,-0.13672 13.191,-1.3281 19.445,-3.5273 4.1602,-1.4609 8.4844,-2.4062 12.875,-2.8203 22.242,-0.93359 35.941,3.875 41.824,14.723 3.6992,7.9922 4.7109,16.969 2.8789,25.586 -1.0625,0.72266 -2.1172,1.3789 -3.1914,2.1562 -21.719,16.297 -40.043,36.68 -53.949,60 -4.3047,-17.797 -7.0781,-33.781 -7.125,-34.055 -1.6445,-9.5703 -17.008,-9.7734 -18.688,0 -0.0469,0.26953 -2.8164,16.234 -7.1289,34.047 v 0.004 c -13.902,-23.320003 -32.23,-43.699003 -53.945,-59.992003 -4.0039,-2.9141 -8.1953,-5.5586 -12.547,-7.9141 -0.72266,-6.8086 0.48438,-13.68 3.4805,-19.832 z m 67.691,146.2 c -2.8281,-5.1328 -0.4375,-13.844 0.55469,-16.316 v -0.004 c 4.6523,-11.609 8.4062,-23.555 11.234,-35.738 2.8086,12.125 6.543,24.016 11.172,35.566 1.0586,2.6367 3.4453,11.324 0.64062,16.461 -0.51562,0.94531 -2.0859,3.8203 -8.6562,5.0898 h -0.004 c -2.0117,0.21875 -4.043,0.23438 -6.0625,0.0469 -6.75,-1.2461 -8.3516,-4.1523 -8.8789,-5.1055 z m -152.59,28.684 c -8.1328,-8.8672 -8.3203,-24.039 -0.55469,-45.094 1.9766,-4.7539 4.4336,-9.2852 7.3398,-13.535 3.7539,-5.4922 6.8555,-11.402 9.2461,-17.613 1.9375,-6.3867 2.8711,-13.035 2.7695,-19.707 -0.0508,-4.5117 0.42969,-9.0117 1.4297,-13.41 6.0352,-21.605 15.047,-33.758 26.789,-36.117 v -0.0039 c 1.6797,-0.33203 3.3906,-0.49609 5.1055,-0.49219 9.0469,0 19.641,4.3555 31.57,13.004 28.414,20.598 47.094,49.617 57.574,69.719 -1.3594,4.1562 -2.7812,8.0469 -4.2461,11.445 h -0.004 c -1.5391,3.9609 -2.5508,8.1016 -3.0117,12.324 -24.039,2.6016 -64.656,9.8047 -99.641,29.734 -8.3789,4.4844 -15.957,10.328 -22.43,17.289 -4.5117,-1.5547 -8.5977,-4.1367 -11.938,-7.543 z m 101.34,86.66 c -3.8516,-2.5625 -7.4297,-5.5117 -10.684,-8.7969 -4.2812,-4.3086 -9.0391,-8.1172 -14.18,-11.355 -5.6406,-3.0547 -11.664,-5.3477 -17.91,-6.8164 -4.3828,-1.0547 -8.6484,-2.543 -12.738,-4.4414 -12.582,-6.5273 -27.258,-16.441 -25.73,-26.605 1.0859,-7.2383 9.0156,-15.254 22.938,-23.184 32.277,-18.387 70.902,-25.09 93.352,-27.527 0.26172,0.57812 0.51172,1.1562 0.82031,1.7227 h 0.004 c 0.89453,1.6133 1.9609,3.125 3.1797,4.5078 -4.6641,15.426 -13.75,55.684 3.0469,95.504 2.2344,5.3555 5.0625,10.445 8.4336,15.172 -1.6211,0.99609 -3.3398,1.832 -5.125,2.4922 -11.777,4.2109 -27.055,0.62109 -45.406,-10.672 z m -23.75,121.45 c -22.027,-14.367 -41.285,-32.586 -56.855,-53.777 25.805,4.9336 50.508,14.492 72.918,28.211 22.027,14.367 41.285,32.582 56.855,53.777 -25.809,-4.9375 -50.508,-14.496 -72.918,-28.211 z m 231.09,-179.46 c 1.5273,10.164 -13.148,20.078 -25.727,26.605 -4.6211,2.1797 -9.418,3.957 -14.348,5.3086 -6.1914,1.6992 -12.199,4.0039 -17.941,6.875 -5.2695,3.0625 -10.043,6.9062 -14.152,11.406 -2.7109,2.9531 -5.7539,5.5781 -9.0742,7.8203 -18.352,11.293 -33.633,14.883 -45.402,10.668 -9.4961,-3.3945 -17.055,-11.625 -22.469,-24.465 -13.281,-31.484 -7.5312,-64.32 -3.4609,-79.762 0.73438,0.17578 1.418,0.38672 2.2031,0.53125 h -0.004 c 1.9688,0.30469 3.9609,0.44531 5.9531,0.41797 2.207,0.0273 4.4062,-0.13672 6.5859,-0.48828 1.3477,-0.26172 2.6797,-0.59375 3.9922,-0.99609 11.328,7.3984 59.477,36.477 116.46,36.477 h 0.53516 -0.004 c 5.5703,0.004 11.129,-0.42188 16.633,-1.2695 0.0664,0.28906 0.17188,0.58594 0.21484,0.87109 z m 20.098,-28.645 c -6.9766,7.6016 -19.426,11.484 -36.996,11.543 h -0.46875 c -44.602,0 -84.461,-20.301 -100.91,-29.965 0.46094,-0.6875 0.86719,-1.3633 1.2148,-2.0156 7.1953,-13.336 0.875,-29.559 0.0781,-31.5 -1.4492,-3.3555 -2.8516,-7.1953 -4.1953,-11.305 10.48,-20.105 29.164,-49.125 57.578,-69.727 14.25,-10.328 26.586,-14.547 36.676,-12.508 11.742,2.3594 20.754,14.516 26.789,36.121 h -0.004 c 1.1836,5.0156 1.8477,10.137 1.9805,15.289 0.17578,6.6562 1.125,13.266 2.8281,19.703 2.168,6.3086 5.3047,12.242 9.2891,17.586 2.6836,3.6172 4.9258,7.5391 6.6914,11.684 7.7617,21.055 7.5781,36.227 -0.55859,45.094 z"
       id="path90" />
  </g>
</svg>
