<?xml version="1.0" encoding="UTF-8" standalone="no"?>
<svg
   width="494.55801pt"
   height="494.55801pt"
   version="1.1"
   viewBox="0 0 494.55801 494.55801"
   id="svg166"
   sodipodi:docname="pea.svg"
   inkscape:version="1.1.1 (3bf5ae0d25, 2021-09-20)"
   xmlns:inkscape="http://www.inkscape.org/namespaces/inkscape"
   xmlns:sodipodi="http://sodipodi.sourceforge.net/DTD/sodipodi-0.dtd"
   xmlns="http://www.w3.org/2000/svg"
   xmlns:svg="http://www.w3.org/2000/svg">
  <sodipodi:namedview
     id="namedview168"
     pagecolor="#ffffff"
     bordercolor="#666666"
     borderopacity="1.0"
     inkscape:pageshadow="2"
     inkscape:pageopacity="0.0"
     inkscape:pagecheckerboard="0"
     inkscape:document-units="pt"
     showgrid="false"
     inkscape:zoom="0.91928571"
     inkscape:cx="466.12277"
     inkscape:cy="467.21057"
     inkscape:window-width="1920"
     inkscape:window-height="1017"
     inkscape:window-x="1912"
     inkscape:window-y="-8"
     inkscape:window-maximized="1"
     inkscape:current-layer="svg166" />
  <defs
     id="defs68">
    <symbol
       id="g"
       overflow="visible">
      <path
         d="M 3.6562,-0.21875 C 3.4687,-0.125 3.26948,-0.05078 3.06245,0 2.86323,0.050781 2.6562,0.078125 2.43745,0.078125 c -0.66797,0 -1.1992,-0.17969 -1.5938,-0.54688 -0.38672,-0.375 -0.57812,-0.87891 -0.57812,-1.5156 0,-0.64453 0.19141,-1.1484 0.57812,-1.5156 0.39453,-0.375 0.92578,-0.5625 1.5938,-0.5625 0.21875,0 0.42578,0.027344 0.625,0.078125 0.20703,0.054687 0.40625,0.125 0.59375,0.21875 v 0.82812 c -0.1875,-0.125 -0.375,-0.21875 -0.5625,-0.28125 -0.17969,-0.0625 -0.37109,-0.09375 -0.57812,-0.09375 -0.36719,0 -0.65625,0.12109 -0.875,0.35938 -0.21094,0.23047 -0.3125,0.55469 -0.3125,0.96875 0,0.40625 0.10156,0.73047 0.3125,0.96875 0.21875,0.23047 0.50781,0.34375 0.875,0.34375 0.20703,0 0.39844,-0.023437 0.57812,-0.078125 0.1875,-0.0625 0.375,-0.16016 0.5625,-0.29688 z"
         id="path2" />
    </symbol>
    <symbol
       id="c"
       overflow="visible">
      <path
         d="M 2.6875,-2.1719 C 2.601562,-2.210963 2.51953,-2.242213 2.4375,-2.26565 2.351562,-2.285181 2.26953,-2.2969 2.1875,-2.2969 c -0.25,0 -0.44531,0.085937 -0.57812,0.25 -0.125,0.15625 -0.1875,0.38281 -0.1875,0.67188 V -2e-5 H 0.45313 v -2.9844 h 0.96875 v 0.48438 c 0.11328,-0.19531 0.25,-0.33594 0.40625,-0.42188 0.16406,-0.09375 0.35938,-0.14062 0.57812,-0.14062 h 0.10938 c 0.039063,0 0.09375,0.00781 0.15625,0.015625 z"
         id="path5" />
    </symbol>
    <symbol
       id="a"
       overflow="visible">
      <path
         d="m 3.4375,-1.5 v 0.26562 H 1.2031 c 0.03125,0.23047 0.11328,0.40234 0.25,0.51562 0.13281,0.10547 0.32812,0.15625 0.57812,0.15625 0.20703,0 0.41406,-0.023438 0.625,-0.078125 0.20703,-0.0625 0.42188,-0.15625 0.64062,-0.28125 v 0.73438 c -0.21875,0.09375 -0.44531,0.16406 -0.67188,0.20312 -0.23047,0.039062 -0.45312,0.0625 -0.67188,0.0625 -0.54297,0 -0.96484,-0.13281 -1.2656,-0.40625 -0.30469,-0.28125 -0.45312,-0.67188 -0.45312,-1.1719 0,-0.47656 0.14453,-0.85938 0.4375,-1.1406 0.30078,-0.28125 0.70703,-0.42188 1.2188,-0.42188 0.46875,0 0.84375,0.14062 1.125,0.42188 0.28125,0.28126 0.42188,0.66406 0.42188,1.1406 z M 2.46875,-1.82812 C 2.46875,-2.0039 2.410156,-2.14453 2.29687,-2.25 2.1914,-2.36328 2.05468,-2.42188 1.89062,-2.42188 c -0.1875,0 -0.33984,0.054687 -0.45312,0.15625 -0.11719,0.10547 -0.1875,0.25 -0.21875,0.4375 z"
         id="path8" />
    </symbol>
    <symbol
       id="f"
       overflow="visible">
      <path
         d="m 1.7969,-1.3438 c -0.19922,0 -0.35156,0.039062 -0.45312,0.10938 -0.09375,0.0625 -0.14062,0.16406 -0.14062,0.29688 0,0.11719 0.035156,0.21094 0.10938,0.28125 0.082031,0.0625 0.19531,0.09375 0.34375,0.09375 0.17578,0 0.32812,-0.0625 0.45312,-0.1875 0.125,-0.125 0.1875,-0.28516 0.1875,-0.48438 V -1.3438 Z M 3.2657,-1.70318 V -8e-5 H 2.29695 v -0.4375 c -0.125,0.17969 -0.27344,0.30859 -0.4375,0.39062 -0.15625,0.082031 -0.35156,0.125 -0.57812,0.125 -0.3125,0 -0.57031,-0.085938 -0.76562,-0.26562 -0.1875,-0.1875 -0.28125,-0.42188 -0.28125,-0.70312 0,-0.35156 0.11719,-0.61328 0.35938,-0.78125 0.23828,-0.16406 0.61719,-0.25 1.1406,-0.25 h 0.5625 v -0.0625 c 0,-0.15625 -0.0625,-0.26562 -0.1875,-0.32812 -0.11719,-0.070312 -0.29688,-0.10938 -0.54688,-0.10938 -0.21094,0 -0.40234,0.023437 -0.57812,0.0625 -0.17969,0.042969 -0.33984,0.10156 -0.48438,0.17188 v -0.71875 c 0.19531,-0.050781 0.39844,-0.085938 0.60938,-0.10938 0.20703,-0.03125 0.41406,-0.046875 0.625,-0.046875 0.53906,0 0.92969,0.10938 1.1719,0.32812 0.23828,0.21094 0.35938,0.55469 0.35938,1.0312 z"
         id="path11" />
    </symbol>
    <symbol
       id="b"
       overflow="visible">
      <path
         d="m 1.5,-3.8438 v 0.85938 h 0.98438 v 0.67188 H 1.5 v 1.2812 c 0,0.13672 0.023438,0.23047 0.078125,0.28125 0.0625,0.042969 0.17578,0.0625 0.34375,0.0625 h 0.48438 V -9e-5 h -0.8125 c -0.38672,0 -0.65625,-0.078125 -0.8125,-0.23438 -0.15625,-0.156255 -0.23438,-0.42188 -0.23438,-0.79688 v -1.2812 h -0.46875 v -0.67188 h 0.46875 v -0.85938 z"
         id="path14" />
    </symbol>
    <symbol
       id="k"
       overflow="visible">
      <path
         d="M 2.5,-2.5469 V -4.1563 H 3.45312 V -1e-4 H 2.5 v -0.4375 c -0.13672,0.17969 -0.28125,0.30859 -0.4375,0.39062 -0.15625,0.082031 -0.33984,0.125 -0.54688,0.125 -0.375,0 -0.68359,-0.14453 -0.92188,-0.4375 -0.23047,-0.28906 -0.34375,-0.67188 -0.34375,-1.1406 0,-0.45703 0.11328,-0.83203 0.34375,-1.125 0.23828,-0.28906 0.54688,-0.4375 0.92188,-0.4375 0.19531,0 0.375,0.042969 0.53125,0.125 0.16406,0.085938 0.31641,0.21484 0.45312,0.39062 z m -0.64062,1.9375 c 0.20703,0 0.36328,-0.070313 0.46875,-0.21875 0.11328,-0.15625 0.17188,-0.37891 0.17188,-0.67188 0,-0.28125 -0.058594,-0.49219 -0.17188,-0.64062 -0.10547,-0.15625 -0.26172,-0.23438 -0.46875,-0.23438 -0.19922,0 -0.35547,0.078125 -0.46875,0.23438 -0.10547,0.14844 -0.15625,0.35938 -0.15625,0.64062 0,0.29297 0.050781,0.51562 0.15625,0.67188 0.11328,0.14844 0.26953,0.21875 0.46875,0.21875 z"
         id="path17" />
    </symbol>
    <symbol
       id="j"
       overflow="visible">
      <path
         d="m 2.0469,-0.60938 c 0.20703,0 0.36328,-0.070313 0.46875,-0.21875 0.11328,-0.15625 0.17188,-0.37891 0.17188,-0.67188 0,-0.28125 -0.058594,-0.49219 -0.17188,-0.64062 -0.10547,-0.15625 -0.26172,-0.23438 -0.46875,-0.23438 -0.19922,0 -0.35547,0.078125 -0.46875,0.23438 -0.10547,0.14844 -0.15625,0.35938 -0.15625,0.64062 0,0.29297 0.050781,0.51562 0.15625,0.67188 0.11328,0.14844 0.26953,0.21875 0.46875,0.21875 z m -0.625,-1.9375 c 0.125,-0.17578 0.26562,-0.30469 0.42188,-0.39062 0.16406,-0.082031 0.35156,-0.125 0.5625,-0.125 0.36328,0 0.66406,0.14844 0.90625,0.4375 0.23828,0.29297 0.35938,0.66797 0.35938,1.125 0,0.46875 -0.12109,0.85156 -0.35938,1.1406 -0.24219,0.29297 -0.54297,0.4375 -0.90625,0.4375 -0.21094,0 -0.39844,-0.042969 -0.5625,-0.125 C 1.68753,-0.128931 1.5469,-0.25784 1.4219,-0.43752 V -2e-5 H 0.45315 v -4.1562 H 1.4219 Z"
         id="path20" />
    </symbol>
    <symbol
       id="i"
       overflow="visible">
      <path
         d="m 0.0625,-2.9844 h 0.95312 l 0.8125,2.0156 0.6875,-2.0156 H 3.46874 L 2.20314,0.2812 C 2.07814,0.61323 1.9297,0.84761 1.76564,0.98432 1.59767,1.11713 1.37502,1.18744 1.09376,1.18744 H 0.54688 V 0.54682 h 0.29688 c 0.16406,0 0.28516,-0.027344 0.35938,-0.078125 0.070313,-0.054688 0.12891,-0.14062 0.17188,-0.26562 l 0.03125,-0.09375 z"
         id="path23" />
    </symbol>
    <symbol
       id="h"
       overflow="visible">
      <path
         d="m 3.2812,-3.8594 v 0.84375 C 3.06245,-3.11721 2.84761,-3.19143 2.64058,-3.2344 2.42964,-3.285181 2.23433,-3.312525 2.04683,-3.312525 c -0.25,0 -0.43359,0.039062 -0.54688,0.10938 -0.11719,0.0625 -0.17188,0.16797 -0.17188,0.3125 0,0.10547 0.035156,0.1875 0.10938,0.25 0.082031,0.054687 0.22656,0.10156 0.4375,0.14062 l 0.4375,0.09375 c 0.44531,0.09375 0.75781,0.23047 0.9375,0.40625 0.1875,0.17969 0.28125,0.4375 0.28125,0.78125 0,0.4375 -0.13281,0.76562 -0.39062,0.98438 -0.26172,0.21094 -0.65625,0.3125 -1.1875,0.3125 -0.25,0 -0.50781,-0.027344 -0.76562,-0.078125 -0.25,-0.039062 -0.50781,-0.10938 -0.76562,-0.20312 v -0.875 c 0.25781,0.13672 0.50391,0.24219 0.73438,0.3125 0.23828,0.0625 0.47266,0.09375 0.70312,0.09375 0.21875,0 0.38281,-0.035156 0.5,-0.10938 0.125,-0.070312 0.1875,-0.17578 0.1875,-0.3125 0,-0.125 -0.042969,-0.21875 -0.125,-0.28125 C 2.335903,-1.445332 2.17575,-1.50783 1.93746,-1.56252 L 1.54684,-1.65627 C 1.14059,-1.738301 0.84372,-1.87502 0.65622,-2.06252 0.47653,-2.25002 0.3906,-2.50393 0.3906,-2.82814 c 0,-0.39453 0.125,-0.69531 0.375,-0.90625 0.25781,-0.21875 0.62891,-0.32812 1.1094,-0.32812 0.22656,0 0.45703,0.023438 0.6875,0.0625 0.22656,0.03125 0.46875,0.078125 0.71875,0.14062 z"
         id="path26" />
    </symbol>
    <symbol
       id="e"
       overflow="visible">
      <path
         d="M 3.4688,-1.8281 V 0 H 2.50005 v -1.3906 c 0,-0.25781 -0.00781,-0.4375 -0.015625,-0.53125 -0.011719,-0.10156 -0.03125,-0.17578 -0.0625,-0.21875 -0.03125,-0.0625 -0.085937,-0.10938 -0.15625,-0.14062 -0.0625,-0.039062 -0.13281,-0.0625 -0.20312,-0.0625 -0.21094,0 -0.37109,0.078125 -0.48438,0.23438 -0.10547,0.15625 -0.15625,0.37109 -0.15625,0.64062 V 8e-5 h -0.96875 v -4.1562 h 0.96875 v 1.6094 c 0.13281,-0.17578 0.28516,-0.30469 0.45312,-0.39062 0.16406,-0.082031 0.34375,-0.125 0.53125,-0.125 0.34375,0 0.60156,0.10938 0.78125,0.32812 0.1875,0.21094 0.28125,0.51172 0.28125,0.90625 z"
         id="path29" />
    </symbol>
    <symbol
       id="v"
       overflow="visible">
      <path
         d="m 0.45312,-4.1562 h 0.96875 v 2.2656 l 1.0938,-1.0938 h 1.1094 L 2.17197,-1.625 3.73447,0 H 2.57827 L 1.42207,-1.25 V 0 H 0.45332 Z"
         id="path32" />
    </symbol>
    <symbol
       id="u"
       overflow="visible">
      <path
         d="M 0.45312,-4.1562 H 1.42187 V 0 H 0.45312 Z"
         id="path35" />
    </symbol>
    <symbol
       id="t"
       overflow="visible">
      <path
         d="M 0.5625,-1.0312 H 1.51562 V 0 H 0.5625 Z"
         id="path38" />
    </symbol>
    <symbol
       id="s"
       overflow="visible">
      <path
         d="m 2.4219,-4.1562 v 0.625 H 1.90628 c -0.13672,0 -0.23438,0.027344 -0.29688,0.078125 -0.054687,0.054687 -0.078125,0.13672 -0.078125,0.25 v 0.21875 h 0.82812 v 0.67188 h -0.82812 v 2.3125 h -0.95312 v -2.3125 h -0.46875 v -0.67188 h 0.46875 v -0.21875 c 0,-0.32031 0.085937,-0.5625 0.26562,-0.71875 0.1875,-0.15625 0.47266,-0.23438 0.85938,-0.23438 z"
         id="path41" />
    </symbol>
    <symbol
       id="d"
       overflow="visible">
      <path
         d="m 1.875,-2.375 c -0.21094,0 -0.37109,0.078125 -0.48438,0.23438 -0.10547,0.14844 -0.15625,0.35938 -0.15625,0.64062 0,0.29297 0.050781,0.51562 0.15625,0.67188 0.11328,0.14844 0.27344,0.21875 0.48438,0.21875 0.20703,0 0.36719,-0.070313 0.48438,-0.21875 C 2.47266,-0.98437 2.53126,-1.20703 2.53126,-1.5 2.53126,-1.78125 2.472666,-1.99219 2.35938,-2.14062 2.24219,-2.29687 2.08204,-2.375 1.875,-2.375 Z m 0,-0.6875 c 0.51953,0 0.92188,0.14062 1.2031,0.42188 0.28906,0.27344 0.4375,0.65234 0.4375,1.1406 0,0.5 -0.14844,0.89062 -0.4375,1.1719 C 2.79685,-0.05468 2.39451,0.07813 1.875,0.07813 1.36328,0.07813 0.96094,-0.05468 0.6719,-0.32812 0.37893,-0.60937 0.2344,-1 0.2344,-1.50002 c 0,-0.48828 0.14453,-0.86719 0.4375,-1.1406 C 0.96096,-2.92187 1.36331,-3.0625 1.875,-3.0625 Z"
         id="path44" />
    </symbol>
    <symbol
       id="r"
       overflow="visible">
      <path
         d="m 3.2344,-2.5 c 0.11328,-0.17578 0.25391,-0.3125 0.42188,-0.40625 0.16406,-0.10156 0.35156,-0.15625 0.5625,-0.15625 0.33203,0 0.58594,0.10938 0.76562,0.32812 0.1875,0.21094 0.28125,0.51172 0.28125,0.90625 V -3e-5 H 4.2969 v -1.5625 c 0.00781,-0.019531 0.015625,-0.039062 0.015625,-0.0625 v -0.10938 c 0,-0.21875 -0.03125,-0.375 -0.09375,-0.46875 -0.0625,-0.09375 -0.16406,-0.14062 -0.29688,-0.14062 -0.1875,0 -0.33594,0.078125 -0.4375,0.23438 -0.09375,0.14844 -0.14062,0.35938 -0.14062,0.64062 V 2e-5 h -0.96875 v -1.5625 c 0,-0.33203 -0.03125,-0.54688 -0.09375,-0.64062 -0.054688,-0.09375 -0.15234,-0.14062 -0.29688,-0.14062 -0.17969,0 -0.32031,0.078125 -0.42188,0.23438 -0.09375,0.14844 -0.14062,0.35938 -0.14062,0.64062 V 8e-5 h -0.96875 v -2.9844 h 0.96875 v 0.4375 c 0.11328,-0.17578 0.24219,-0.30469 0.39062,-0.39062 0.15625,-0.082031 0.32812,-0.125 0.51562,-0.125 0.20703,0 0.39062,0.054688 0.54688,0.15625 0.15625,0.09375 0.27344,0.23047 0.35938,0.40625 z"
         id="path47" />
    </symbol>
    <symbol
       id="q"
       overflow="visible">
      <path
         d="M 0.5,-3.9844 H 1.6562 L 3.0937,-1.25 V -3.9844 H 4.07808 V 0 H 2.92188 L 1.48438,-2.7344 V 0 H 0.5 Z"
         id="path50" />
    </symbol>
    <symbol
       id="p"
       overflow="visible">
      <path
         d="m 0.42188,-1.1719 v -1.8125 h 0.96875 v 0.29688 0.60938 0.48438 c 0,0.24219 0.00391,0.41797 0.015625,0.53125 0.00781,0.10547 0.03125,0.17969 0.0625,0.21875 0.039062,0.0625 0.09375,0.11719 0.15625,0.15625 0.0625,0.03125 0.13281,0.046875 0.21875,0.046875 0.19531,0 0.35156,-0.078125 0.46875,-0.23438 0.11328,-0.15625 0.17188,-0.36719 0.17188,-0.64062 v -1.4688 h 0.95312 v 2.9844 h -0.95312 v -0.4375 c -0.14844,0.17969 -0.30469,0.30859 -0.46875,0.39062 -0.15625,0.082031 -0.33594,0.125 -0.53125,0.125 -0.34375,0 -0.60938,-0.10156 -0.79688,-0.3125 -0.17969,-0.21875 -0.26562,-0.53125 -0.26562,-0.9375 z"
         id="path53" />
    </symbol>
    <symbol
       id="o"
       overflow="visible">
      <path
         d="M 3.4688,-1.8281 V 0 H 2.50005 v -1.3906 c 0,-0.25781 -0.00781,-0.4375 -0.015625,-0.53125 -0.011719,-0.10156 -0.03125,-0.17578 -0.0625,-0.21875 -0.03125,-0.0625 -0.085937,-0.10938 -0.15625,-0.14062 -0.0625,-0.039062 -0.13281,-0.0625 -0.20312,-0.0625 -0.21094,0 -0.37109,0.078125 -0.48438,0.23438 -0.10547,0.15625 -0.15625,0.37109 -0.15625,0.64062 V 8e-5 h -0.96875 v -2.9844 h 0.96875 v 0.4375 c 0.13281,-0.17578 0.28516,-0.30469 0.45312,-0.39062 0.16406,-0.082031 0.34375,-0.125 0.53125,-0.125 0.34375,0 0.60156,0.10938 0.78125,0.32812 0.1875,0.21094 0.28125,0.51172 0.28125,0.90625 z"
         id="path56" />
    </symbol>
    <symbol
       id="n"
       overflow="visible">
      <path
         d="m 0.5,-3.9844 h 1.7031 c 0.50781,0 0.89844,0.11719 1.1719,0.34375 0.26953,0.21875 0.40625,0.53906 0.40625,0.95312 0,0.41797 -0.13672,0.74219 -0.40625,0.96875 -0.27344,0.21875 -0.66406,0.32812 -1.1719,0.32812 H 1.53122 V -6e-5 h -1.0312 z m 1.0312,0.75 v 1.1094 h 0.5625 c 0.19531,0 0.34766,-0.046875 0.45312,-0.14062 C 2.6601,-2.36718 2.7187,-2.50781 2.7187,-2.6875 2.7187,-2.86328 2.660106,-3 2.54682,-3.09375 2.44135,-3.1875 2.28901,-3.23437 2.0937,-3.23437 Z"
         id="path59" />
    </symbol>
    <symbol
       id="m"
       overflow="visible">
      <path
         d="m 0.45312,-2.9844 h 0.96875 v 2.9375 c 0,0.39453 -0.10156,0.69531 -0.29688,0.90625 C 0.93749,1.0781 0.66015,1.18747 0.29687,1.18747 H -0.18751 V 0.54685 h 0.17188 c 0.17578,0 0.29688,-0.042969 0.35938,-0.125 C 0.414062,0.347631 0.45313,0.19138 0.45313,-0.0469 Z m 0,-1.1719 h 0.96875 v 0.78125 H 0.45312 Z"
         id="path62" />
    </symbol>
    <symbol
       id="l"
       overflow="visible">
      <path
         d="m 2.875,-2.8906 v 0.76562 C 2.75,-2.207011 2.61719,-2.26951 2.48438,-2.31248 2.34766,-2.351542 2.21094,-2.37498 2.07813,-2.37498 c -0.27344,0 -0.48047,0.078125 -0.625,0.23438 -0.14844,0.15625 -0.21875,0.37109 -0.21875,0.64062 0,0.28125 0.070313,0.5 0.21875,0.65625 0.14453,0.15625 0.35156,0.23438 0.625,0.23438 0.14453,0 0.28516,-0.019531 0.42188,-0.0625 0.13281,-0.039063 0.25781,-0.10938 0.375,-0.20312 v 0.78125 c -0.14844,0.0625 -0.29688,0.10156 -0.45312,0.125 -0.15625,0.03125 -0.3125,0.046875 -0.46875,0.046875 -0.54297,0 -0.96484,-0.13281 -1.2656,-0.40625 -0.30469,-0.28125 -0.45312,-0.67188 -0.45312,-1.1719 0,-0.48828 0.14844,-0.86719 0.45312,-1.1406 0.30078,-0.28125 0.72266,-0.42188 1.2656,-0.42188 0.15625,0 0.3125,0.015625 0.46875,0.046875 0.15625,0.023437 0.30469,0.0625 0.45312,0.125 z"
         id="path65" />
    </symbol>
  </defs>
  <g
     id="g1122"
     transform="translate(-102.71737,-32.725911)">
    <path
       d="m 596.7,410.11 -3.3555,-8.0156 c -10.289,-22.852 -27.574,-43.949 -51.383,-62.711 -18.148,-14.305 -38.742,-25.898 -61.219,-34.477 -58.789,-22.414 -113.01,-60.387 -113.94,-61.016 -0.40625,-0.25 -41,-25.035 -95.664,-88.762 -26.227,-30.551 -45.711,-50.219 -58.422,-62.121 2.7383,-4.1523 5.0117,-9.0703 6.3945,-15.078 0.53516,-2.2891 -0.23438,-4.6758 -1.9766,-6.2422 -1.7734,-1.5703 -4.2031,-2.0547 -6.4297,-1.2539 -16.578,5.8359 -43.418,10.668 -50.648,3.8594 l -21.586,-29.945 c -2.0547,-2.8086 -5.9609,-3.4961 -8.832,-1.5352 l -19.887,13.566 c -2.8398,1.9297 -3.6523,5.7578 -1.8359,8.6914 l 18.824,30.18 c 4.0625,10.227 -10.648,33.27 -22.383,46.352 -1.5703,1.7578 -2.0547,4.2188 -1.2695,6.4297 0.76953,2.2109 2.6836,3.8125 5.0039,4.2031 2.8711,0.48828 5.6016,0.70703 8.2031,0.70703 4.6289,0 8.7422,-0.79297 12.527,-1.9766 3.0742,21.203 8.7383,42.094 17.07,61.816 2.0703,6.4297 51.777,158.42 135.25,229.46 1.6484,1.7109 40.781,41.988 89.688,60.609 34.305,13.051 62.898,12.656 76.906,11.277 9.0195,-0.91016 17.926,-0.35938 26.383,1.6289 2.4453,0.5625 4.707,1.1602 6.3672,1.8359 1.2383,0.46875 2.5273,0.72266 3.7969,0.72266 1.9297,0 3.8438,-0.55078 5.5547,-1.6172 2.8398,-1.7891 4.6914,-4.8477 4.957,-8.2031 0.17188,-2.0859 0.15625,-5.1758 -0.34375,-9.4258 -0.0859,-1.1133 -2.0469,-22.266 -22.027,-54.473 8.0234,0.57422 13.887,0.71875 14.059,0.71875 2.6055,0.15625 5.207,0.23438 7.8125,0.23438 31.168,0 60.688,-11.074 61.91,-11.543 13.066,-4.6289 23.621,-3.2148 24.859,-3.1211 3.2617,-0.0937 6.1328,-0.73828 8.5156,-1.8828 7.9922,-3.8945 8.4609,-12.961 7.1133,-18.891 z M 130.9,136.25 c -0.0352,0.0195 -0.0703,0.0312 -0.10547,0.0508 -2.3398,1.3711 -5.0547,2.5391 -8.2773,3.1914 9.3945,-12.812 21.992,-34.211 15.652,-50.003999 l -16.09,-25.973 9.6484,-6.5742 18.648,25.738 c 11.652,11.215 35.965,7.6055 51.355,3.7969 -7.9375,11.574 -20.906,12.062 -21.566,12.078 -1.7109,0.03125 -3.3242,0.72266 -4.5156,1.945299 -1.1914,1.22264 -1.8516,2.8711 -1.8359,4.5625 l 0.39453,29.129 c -6.3516,-3.5781 -15.027,-8.5156 -23.074,-13.145 -1.6016,-0.91016 -3.4961,-1.1133 -5.2383,-0.51562 -1.7422,0.58203 -3.1523,1.8828 -3.875,3.5586 -0.21094,0.49219 -3.3906,7.5859 -11.121,12.16 z m 350.75,364 c 0.20312,1.6953 0.3125,3.1055 0.35937,4.2812 -1.4883,-0.44141 -3.1836,-0.87891 -4.957,-1.3008 -9.8359,-2.2891 -20.156,-2.9336 -30.586,-1.9141 -12.848,1.3164 -39.246,1.6289 -71.055,-10.492 -46.16,-17.566 -84.637,-57.109 -85.469,-57.941 -81.137,-69.094 -131.31,-222.51 -132.02,-224.58 -8.6641,-20.59 -14.332,-41.996 -17.055,-63.66 3.8594,-2.8984 7.1641,-6.0938 9.4141,-9.2734 9.7422,5.582 25.645,14.633 27.934,15.637 1.9922,0.86328 4.3125,0.64453 6.1172,-0.55078 1.8203,-1.207 2.8867,-3.2617 2.8711,-5.4258 l -0.46875,-34.367 c 2.0664,-0.4375 4.3047,-1.1641 6.5742,-2.0469 10.449,17.445 28.637,48.574 37.941,69.305 14.305,31.809 46.43,81.125 47.543,82.785 9.5039,17.348 71.996,90.613 105.91,113.06 31.621,20.957 56.402,49.395 56.578,49.598 37.453,44.828 40.324,76.293 40.371,76.891 z M 262.35,209.32 c 1.0703,-0.0977 2.1328,-0.26172 3.2109,-0.22266 13.113,0.58203 23.324,11.719 22.742,24.828 -0.1875,4.2539 -1.6211,8.2617 -3.8789,11.766 -5.2852,-8.3477 -13.738,-21.953 -22.074,-36.371 z m 46.465,70.227 c 4.7031,-4.8164 11.113,-7.5234 17.965,-7.2539 13.113,0.58203 23.309,11.719 22.727,24.828 -0.32031,7.2109 -3.9727,13.641 -9.6094,17.871 -11.395,-12.246 -22.262,-24.73 -31.082,-35.445 z m 63.688,65.477 c 0.28125,-6.3516 3.0273,-12.219 7.6992,-16.516 4.6914,-4.2812 10.84,-6.5078 17.129,-6.2266 13.113,0.58203 23.309,11.719 22.742,24.828 -0.48828,11.102 -8.8242,20.113 -19.566,22.09 -2.8594,-2.0781 -5.7109,-4.1641 -8.7148,-6.1562 -5.5469,-3.6719 -12.105,-9.0391 -19.145,-15.391 -0.0586,-0.875 -0.1875,-1.7305 -0.14453,-2.6289 z m 211.47,72.402 c -0.42188,0.20312 -1.4102,0.55078 -2.1172,0.67578 -0.58203,-0.0781 -13.723,-1.9922 -30.086,3.8281 -0.3125,0.14062 -33.285,12.691 -64.734,10.523 -0.12109,0 -11.266,-0.25781 -23.73,-1.582 -3.6719,-5.1016 -7.6406,-10.348 -12.234,-15.848 -0.8125,-0.93359 -16.047,-18.348 -38.188,-36.352 11.445,-5.8711 19.434,-17.555 20.027,-31.004 0.87891,-20.188 -14.824,-37.332 -35.012,-38.223 -9.5039,-0.53516 -19.137,2.9492 -26.367,9.582 -5.2266,4.7852 -8.8242,10.867 -10.602,17.562 -4.0039,-3.918 -8.0625,-7.9883 -12.141,-12.215 8.0039,-6.5195 13.094,-16.094 13.551,-26.691 0.89453,-20.188 -14.809,-37.332 -34.992,-38.223 -9.8047,-0.57031 -19.457,3.2773 -26.637,10.004 -3.8477,-4.9336 -6.9141,-9.1172 -8.9766,-12.266 5.5977,-6.2617 9.0352,-14.211 9.4023,-22.707 0.89453,-20.188 -14.809,-37.332 -35.012,-38.223 -3.5781,-0.24219 -7.0625,0.32031 -10.48,1.207 -4.8281,-8.7461 -9.2969,-17.352 -12.656,-24.828 -8.9141,-19.832 -25.062,-47.883 -37.672,-68.965 12.473,11.773 31.156,30.793 56.07,59.824 56.184,65.484 97.09,90.379 98.41,91.148 2.2578,1.582 56.027,39.246 116.37,62.27 21.27,8.1094 40.719,19.059 57.848,32.562 22.164,17.457 38.176,36.938 47.543,57.723 l 2.9336,6.6836 c 0.17188,0.85156 0.125,3.2188 -0.51562,3.5312 z"
       id="path70" />
    <path
       d="m 481.82,340.92 c -20.641,-1.207 -37.332,14.824 -38.223,34.992 -0.44141,9.7891 2.9648,19.152 9.582,26.367 6.6016,7.2148 15.637,11.434 25.426,11.859 0.55078,0.0312 1.0977,0.0469 1.6641,0.0469 9.1758,0 17.879,-3.3867 24.703,-9.6289 7.2148,-6.6016 11.434,-15.637 11.859,-25.426 0.87891,-20.203 -14.84,-37.348 -35.012,-38.211 z m 14.461,54.16 c -4.6914,4.2969 -10.715,6.6211 -17.113,6.2266 -6.3516,-0.28125 -12.219,-3.0273 -16.516,-7.6992 -4.2969,-4.6914 -6.5078,-10.777 -6.2266,-17.129 0.5625,-12.754 11.121,-22.742 23.762,-22.742 0.35938,0 0.72266,0 1.0664,0.0156 6.3516,0.28125 12.219,3.01171 16.5,7.69921 4.2969,4.69139 6.5078,10.762 6.2422,17.113 -0.27734,6.3516 -3.0234,12.219 -7.7148,16.516 z"
       id="path72" />
    <path
       d="m 338.99,424.21 c -2.8398,-2.1484 -6.8711,-1.6016 -9.0039,1.2539 -2.1328,2.8242 -1.5703,6.8555 1.2539,9.0039 l 4.0469,2.9648 c 1.1289,0.80078 2.4297,1.1914 3.7188,1.1914 2.0078,0 3.9844,-0.94141 5.2383,-2.7148 2.0547,-2.8867 1.3789,-6.9023 -1.5195,-8.957 z"
       id="path74" />
    <path
       d="m 219.58,266.68 c -8.2812,-16.016 -14.305,-28.988 -17.914,-37.047 -1.4609,-3.2461 -5.2852,-4.6914 -8.4844,-3.2461 -3.2461,1.4414 -4.6914,5.2383 -3.2461,8.4844 3.6719,8.2188 9.8047,21.426 18.227,37.707 23.496,45.348 61.344,108.13 108.23,149.7 1.2227,1.0977 2.7461,1.6289 4.2656,1.6289 1.7734,0 3.543,-0.73828 4.8008,-2.1641 2.3672,-2.668 2.1172,-6.7148 -0.53516,-9.0664 -45.426,-40.277 -82.363,-101.62 -105.34,-146 z"
       id="path76" />
    <path
       d="m 166.5,412.84 c -24.672,0 -44.766,20.094 -44.766,44.766 0,24.672 20.094,44.766 44.766,44.766 24.672,0 44.766,-20.094 44.766,-44.766 0,-24.676 -20.09,-44.766 -44.766,-44.766 z m 0,76.668 c -17.598,0 -31.902,-14.305 -31.902,-31.902 0,-17.598 14.305,-31.902 31.902,-31.902 17.597,0 31.902,14.305 31.902,31.902 0.004,17.598 -14.301,31.902 -31.902,31.902 z"
       id="path78" />
    <path
       d="m 166.5,431.18 c -14.57,0 -26.43,11.859 -26.43,26.43 0,3.543 2.8867,6.4297 6.4297,6.4297 3.543,0 6.4297,-2.8867 6.4297,-6.4297 0,-7.4805 6.0859,-13.566 13.566,-13.566 3.543,0 6.4297,-2.8867 6.4297,-6.4297 0.008,-3.5469 -2.8789,-6.4336 -6.4258,-6.4336 z"
       id="path80" />
    <path
       d="m 464.83,213.65 c 24.672,0 44.766,-20.094 44.766,-44.766 0,-24.672 -20.094,-44.766 -44.766,-44.766 -24.672,0 -44.766,20.094 -44.766,44.766 0.004,24.676 20.094,44.766 44.766,44.766 z m 0,-76.668 c 17.598,0 31.902,14.305 31.902,31.902 0,17.598 -14.305,31.902 -31.902,31.902 -17.598,0 -31.902,-14.305 -31.902,-31.902 0,-17.598 14.305,-31.902 31.902,-31.902 z"
       id="path82" />
    <path
       d="m 451.27,168.89 c 0,-7.4805 6.0859,-13.566 13.566,-13.566 3.543,0 6.4297,-2.8867 6.4297,-6.4297 0,-3.543 -2.8867,-6.4297 -6.4297,-6.4297 -14.57,0 -26.43,11.859 -26.43,26.43 0,3.543 2.8867,6.4297 6.4297,6.4297 3.5469,-0.004 6.4336,-2.8867 6.4336,-6.4336 z"
       id="path84" />
    <path
       d="m 335.12,147.49 c 20.359,0 36.938,-16.578 36.938,-36.938 0,-20.359 -16.578,-36.938 -36.938,-36.938 -20.359,0 -36.922,16.578 -36.922,36.938 0,20.359 16.562,36.938 36.922,36.938 z m 0,-61.016 c 13.285,0 24.078,10.789 24.078,24.078 0,13.285 -10.789,24.078 -24.078,24.078 -13.27,0 -24.062,-10.789 -24.062,-24.078 0,-13.285 10.793,-24.078 24.062,-24.078 z"
       id="path86" />
    <path
       d="m 323.13,115.9 c 3.543,0 6.4297,-2.8867 6.4297,-6.4297 0,-3.0742 2.4922,-5.5664 5.5547,-5.5664 3.543,0 6.4297,-2.8867 6.4297,-6.4297 0,-3.543 -2.8867,-6.4297 -6.4297,-6.4297 -10.148,0 -18.414,8.2656 -18.414,18.43 0,3.5391 2.8867,6.4258 6.4297,6.4258 z"
       id="path88" />
  </g>
</svg>
