<?xml version="1.0" encoding="UTF-8" standalone="no"?>
<svg
   width="552.06403pt"
   height="552.06403pt"
   version="1.1"
   viewBox="0 0 552.06403 552.06403"
   id="svg22"
   sodipodi:docname="potato.svg"
   inkscape:version="1.1.1 (3bf5ae0d25, 2021-09-20)"
   xmlns:inkscape="http://www.inkscape.org/namespaces/inkscape"
   xmlns:sodipodi="http://sodipodi.sourceforge.net/DTD/sodipodi-0.dtd"
   xmlns="http://www.w3.org/2000/svg"
   xmlns:svg="http://www.w3.org/2000/svg">
  <defs
     id="defs26" />
  <sodipodi:namedview
     id="namedview24"
     pagecolor="#ffffff"
     bordercolor="#666666"
     borderopacity="1.0"
     inkscape:pageshadow="2"
     inkscape:pageopacity="0.0"
     inkscape:pagecheckerboard="0"
     inkscape:document-units="pt"
     showgrid="false"
     inkscape:zoom="0.77672704"
     inkscape:cx="487.30118"
     inkscape:cy="460.26465"
     inkscape:window-width="1920"
     inkscape:window-height="1017"
     inkscape:window-x="1912"
     inkscape:window-y="-8"
     inkscape:window-maximized="1"
     inkscape:current-layer="svg22" />
  <g
     id="g20"
     transform="translate(-73.937745,-3.9970757)">
    <path
       d="m 552.98,370.91 c -9.3555,11.176 -18.969,16.777 -30.332,17.641 -3.2188,0.25781 -5.6016,3.0586 -5.3438,6.2773 0.23438,3.0586 2.7773,5.3672 5.8086,5.3672 0.14062,0 0.30469,0 0.46484,-0.0234 14.441,-1.0977 26.996,-8.2383 38.359,-21.746 2.0781,-2.4727 1.75,-6.1602 -0.72266,-8.2383 -2.4258,-2.0547 -6.1562,-1.7266 -8.2344,0.72266 z"
       id="path2" />
    <path
       d="m 466.04,305.04 c -9.3555,11.176 -18.969,16.754 -30.309,17.617 -3.2188,0.23438 -5.625,3.0352 -5.3672,6.2539 0.23438,3.0781 2.7773,5.3906 5.8086,5.3906 0.14062,0 0.30469,0 0.44141,-0.0234 14.465,-1.0742 27.02,-8.1914 38.383,-21.723 2.0781,-2.4727 1.75,-6.1602 -0.72266,-8.2383 -2.4219,-2.0039 -6.1797,-1.7266 -8.2344,0.72266 z"
       id="path4" />
    <path
       d="m 535.83,470.49 c -10.965,13.066 -22.262,19.602 -35.559,20.602 -3.2188,0.23438 -5.625,3.0352 -5.3672,6.2539 0.23438,3.0781 2.7773,5.3906 5.8086,5.3906 0.14062,0 0.30469,0 0.44141,-0.0234 16.426,-1.2383 30.707,-9.3086 43.633,-24.758 2.0781,-2.4492 1.75,-6.1367 -0.72266,-8.2148 -2.4961,-2.0273 -6.1836,-1.7227 -8.2344,0.75 z"
       id="path6" />
    <path
       d="m 397.41,417.95 c -7.8398,9.3555 -15.914,14.07 -25.363,14.77 -3.2188,0.23438 -5.625,3.0352 -5.3672,6.2539 0.23438,3.0781 2.7773,5.3906 5.8086,5.3906 0.14062,0 0.30469,0 0.44141,-0.0234 12.625,-0.93359 23.566,-7.1172 33.438,-18.875 2.0781,-2.4727 1.75,-6.1602 -0.69922,-8.2383 -2.4961,-2.0312 -6.207,-1.7266 -8.2578,0.72266 z"
       id="path8" />
    <path
       d="m 306.18,248.96 h 0.44141 c 14.465,-1.0977 27.02,-8.1914 38.359,-21.723 2.0781,-2.4727 1.75,-6.1602 -0.72266,-8.2148 -2.4727,-2.0781 -6.1367,-1.75 -8.2148,0.72266 -9.332,11.152 -18.969,16.73 -30.285,17.57 -3.2188,0.25781 -5.625,3.0352 -5.3906,6.2539 0.23437,3.0586 2.7812,5.3906 5.8125,5.3906 z"
       id="path10" />
    <path
       d="m 337.26,325.73 c -10.059,12.016 -20.465,18.035 -32.762,18.992 -3.2188,0.25781 -5.625,3.0586 -5.3672,6.2773 0.23438,3.0586 2.8008,5.3672 5.8086,5.3672 0.16406,0 0.30469,0 0.46484,-0.0234 15.422,-1.1914 28.77,-8.75 40.832,-23.148 2.0781,-2.4492 1.75,-6.1367 -0.72266,-8.2148 -2.4688,-2.0273 -6.1797,-1.7227 -8.2539,0.75 z"
       id="path12" />
    <path
       d="m 386.33,117.13 h 0.32812 c 3.0781,0 5.6484,-2.4023 5.832,-5.5078 0.16406,-3.2188 -2.3086,-5.9727 -5.5078,-6.1367 -14.652,-0.81641 -41.09,-21.676 -45.664,-36.004 -0.98047,-3.0781 -4.293,-4.7852 -7.3281,-3.8047 -3.0781,0.98047 -4.7852,4.2695 -3.8047,7.3281 6.0742,19.113 36.5,43.027 56.145,44.125 z"
       id="path14" />
    <path
       d="m 169.24,288.21 c -15.914,-6.0898 -33.32,-14.863 -41.742,-33.926 -1.3086,-2.9414 -4.8086,-4.3398 -7.6992,-2.9648 -2.9414,1.3086 -4.293,4.7383 -2.9648,7.6992 10.172,22.984 30.102,33.156 48.23,40.086 0.69922,0.28125 1.3984,0.39844 2.0781,0.39844 2.3555,0 4.5508,-1.4453 5.4375,-3.7578 1.1836,-3.0352 -0.33203,-6.418 -3.3398,-7.5352 z"
       id="path16" />
    <path
       d="m 602.26,352.29 c -14.328,-22.074 -33.391,-41.418 -58.309,-59.125 l -1.2852,-0.88672 c -27.859,-19.484 -56.535,-39.668 -83.953,-60.598 7.3984,-13.395 13.719,-26.762 18.504,-37.191 11.293,-24.617 13.559,-51.777 6.5586,-78.562 -15.797,-60.762 -83.207,-111.93 -147.38,-111.93 h -0.44141 c -31.219,0 -64.492,11.059 -96.25,31.988 -41.301,27.301 -76.766,62.906 -108.48,108.9 -41.812,61.25 -59.383,120.54 -53.715,181.32 5.7617,59.988 45.758,101.59 104.32,108.52 6.6016,0.81641 13.207,1.2383 19.855,1.2383 15.938,0 31.898,-2.3789 47.625,-7.1406 7.4883,-2.1484 15.027,-4.9922 22.797,-8.3281 11.828,21.234 26.391,41.324 43.914,59.5 49.398,51.031 102.99,76.09 163.19,76.066 8.7969,0 17.734,-0.51172 26.785,-1.5859 46.223,-5.5312 85.492,-33.578 105.02,-75.016 19.297,-41.027 16.004,-88.535 -8.7734,-127.18 z M 248.6,416.833 c -11.715,-7.5586 -21.746,-14.465 -27.184,-25.574 -1.4219,-2.8711 -4.9453,-4.082 -7.793,-2.6602 -2.8945,1.4219 -4.082,4.9219 -2.6836,7.8164 5.2266,10.641 13.371,17.922 22.633,24.406 -16.73,3.6172 -33.578,4.3867 -50.328,2.3086 -53.645,-6.3477 -88.852,-43.027 -94.125,-98.047 -5.4844,-58.754 10.941,-113.91 51.707,-173.6 14.305,-20.742 29.375,-39.316 45.406,-55.906 8.7031,9.0547 20.512,15.844 36.68,21.164 3.1016,1.0039 6.4141,-0.67578 7.3945,-3.7305 1.0039,-3.0586 -0.65234,-6.3477 -3.7109,-7.3516 -14.398,-4.7383 -24.734,-10.617 -32.082,-18.34 16.148,-15.703 33.297,-29.516 51.613,-41.625 29.82,-19.672 60.875,-30.055 89.832,-30.055 h 0.39844 c 58.309,0 121.82,48.137 136.1,103.23 6.3242,24.148 4.3164,48.602 -5.8789,70.746 -4.5039,9.8711 -10.359,22.398 -17.242,34.977 -13.16,-10.102 -24.641,-19.344 -34.93,-28.141 -21.957,-18.945 -45.781,-28.141 -68.414,-26.438 h -0.88672 c -54.672,0 -87.828,23.172 -101.36,70.746 -6.3242,21.793 -8.5625,43.703 -6.6484,65.102 3.1953,37.566 13.02,72.707 29.215,104.51 -6,2.543 -11.859,4.6914 -17.715,6.4648 z m 351.84,57.633 c -17.828,37.754 -53.645,63.352 -95.828,68.414 -67.434,7.9102 -126.33,-15.328 -180.23,-71.004 -18.059,-18.715 -33.133,-39.41 -44.848,-61.414 v -0.0469 c -17.172,-31.82799 -27.535,-67.34 -30.801,-105.56 -1.7969,-19.973 0.30469,-40.438 6.2539,-60.852 12.062,-42.512 40.738,-62.324 90.602,-62.324 h 0.79297 c 25.129,-1.8203 46.738,11.852 60.434,23.637 11.828,10.102 25.176,20.789 40.762,32.59801 0,0 0,0.0234 0.0234,0.0234 28.793,22.191 59.078,43.375 88.387,63.887 l 1.2617,0.86328 c 23.684,16.824 41.742,35.117 55.23,55.906 22.562,35.23 25.551,78.535 7.957,115.87 z"
       id="path18" />
  </g>
</svg>
