<?xml version="1.0" encoding="UTF-8" standalone="no"?>
<svg
   width="525.005pt"
   height="525.005pt"
   version="1.1"
   viewBox="0 0 525.005 525.005"
   id="svg138"
   sodipodi:docname="raspberry.svg"
   inkscape:version="1.1.1 (3bf5ae0d25, 2021-09-20)"
   xmlns:inkscape="http://www.inkscape.org/namespaces/inkscape"
   xmlns:sodipodi="http://sodipodi.sourceforge.net/DTD/sodipodi-0.dtd"
   xmlns="http://www.w3.org/2000/svg"
   xmlns:svg="http://www.w3.org/2000/svg">
  <sodipodi:namedview
     id="namedview140"
     pagecolor="#ffffff"
     bordercolor="#666666"
     borderopacity="1.0"
     inkscape:pageshadow="2"
     inkscape:pageopacity="0.0"
     inkscape:pagecheckerboard="0"
     inkscape:document-units="pt"
     showgrid="false"
     inkscape:zoom="0.91928571"
     inkscape:cx="466.12277"
     inkscape:cy="467.21057"
     inkscape:window-width="1920"
     inkscape:window-height="1017"
     inkscape:window-x="1912"
     inkscape:window-y="-8"
     inkscape:window-maximized="1"
     inkscape:current-layer="svg138" />
  <defs
     id="defs62">
    <symbol
       id="t"
       overflow="visible">
      <path
         d="M 3.6562,-0.21875 C 3.4687,-0.125 3.26948,-0.05078 3.06245,0 2.86323,0.050781 2.6562,0.078125 2.43745,0.078125 c -0.66797,0 -1.1992,-0.17969 -1.5938,-0.54688 -0.38672,-0.375 -0.57812,-0.87891 -0.57812,-1.5156 0,-0.64453 0.19141,-1.1484 0.57812,-1.5156 0.39453,-0.375 0.92578,-0.5625 1.5938,-0.5625 0.21875,0 0.42578,0.027344 0.625,0.078125 0.20703,0.054687 0.40625,0.125 0.59375,0.21875 v 0.82812 c -0.1875,-0.125 -0.375,-0.21875 -0.5625,-0.28125 -0.17969,-0.0625 -0.37109,-0.09375 -0.57812,-0.09375 -0.36719,0 -0.65625,0.12109 -0.875,0.35938 -0.21094,0.23047 -0.3125,0.55469 -0.3125,0.96875 0,0.40625 0.10156,0.73047 0.3125,0.96875 0.21875,0.23047 0.50781,0.34375 0.875,0.34375 0.20703,0 0.39844,-0.023437 0.57812,-0.078125 0.1875,-0.0625 0.375,-0.16016 0.5625,-0.29688 z"
         id="path2" />
    </symbol>
    <symbol
       id="b"
       overflow="visible">
      <path
         d="M 2.6875,-2.1719 C 2.601562,-2.210963 2.51953,-2.242213 2.4375,-2.26565 2.351562,-2.285181 2.26953,-2.2969 2.1875,-2.2969 c -0.25,0 -0.44531,0.085937 -0.57812,0.25 -0.125,0.15625 -0.1875,0.38281 -0.1875,0.67188 V -2e-5 H 0.45313 v -2.9844 h 0.96875 v 0.48438 c 0.11328,-0.19531 0.25,-0.33594 0.40625,-0.42188 0.16406,-0.09375 0.35938,-0.14062 0.57812,-0.14062 h 0.10938 c 0.039063,0 0.09375,0.00781 0.15625,0.015625 z"
         id="path5" />
    </symbol>
    <symbol
       id="a"
       overflow="visible">
      <path
         d="m 3.4375,-1.5 v 0.26562 H 1.2031 c 0.03125,0.23047 0.11328,0.40234 0.25,0.51562 0.13281,0.10547 0.32812,0.15625 0.57812,0.15625 0.20703,0 0.41406,-0.023438 0.625,-0.078125 0.20703,-0.0625 0.42188,-0.15625 0.64062,-0.28125 v 0.73438 c -0.21875,0.09375 -0.44531,0.16406 -0.67188,0.20312 -0.23047,0.039062 -0.45312,0.0625 -0.67188,0.0625 -0.54297,0 -0.96484,-0.13281 -1.2656,-0.40625 -0.30469,-0.28125 -0.45312,-0.67188 -0.45312,-1.1719 0,-0.47656 0.14453,-0.85938 0.4375,-1.1406 0.30078,-0.28125 0.70703,-0.42188 1.2188,-0.42188 0.46875,0 0.84375,0.14062 1.125,0.42188 0.28125,0.28126 0.42188,0.66406 0.42188,1.1406 z M 2.46875,-1.82812 C 2.46875,-2.0039 2.410156,-2.14453 2.29687,-2.25 2.1914,-2.36328 2.05468,-2.42188 1.89062,-2.42188 c -0.1875,0 -0.33984,0.054687 -0.45312,0.15625 -0.11719,0.10547 -0.1875,0.25 -0.21875,0.4375 z"
         id="path8" />
    </symbol>
    <symbol
       id="f"
       overflow="visible">
      <path
         d="m 1.7969,-1.3438 c -0.19922,0 -0.35156,0.039062 -0.45312,0.10938 -0.09375,0.0625 -0.14062,0.16406 -0.14062,0.29688 0,0.11719 0.035156,0.21094 0.10938,0.28125 0.082031,0.0625 0.19531,0.09375 0.34375,0.09375 0.17578,0 0.32812,-0.0625 0.45312,-0.1875 0.125,-0.125 0.1875,-0.28516 0.1875,-0.48438 V -1.3438 Z M 3.2657,-1.70318 V -8e-5 H 2.29695 v -0.4375 c -0.125,0.17969 -0.27344,0.30859 -0.4375,0.39062 -0.15625,0.082031 -0.35156,0.125 -0.57812,0.125 -0.3125,0 -0.57031,-0.085938 -0.76562,-0.26562 -0.1875,-0.1875 -0.28125,-0.42188 -0.28125,-0.70312 0,-0.35156 0.11719,-0.61328 0.35938,-0.78125 0.23828,-0.16406 0.61719,-0.25 1.1406,-0.25 h 0.5625 v -0.0625 c 0,-0.15625 -0.0625,-0.26562 -0.1875,-0.32812 -0.11719,-0.070312 -0.29688,-0.10938 -0.54688,-0.10938 -0.21094,0 -0.40234,0.023437 -0.57812,0.0625 -0.17969,0.042969 -0.33984,0.10156 -0.48438,0.17188 v -0.71875 c 0.19531,-0.050781 0.39844,-0.085938 0.60938,-0.10938 0.20703,-0.03125 0.41406,-0.046875 0.625,-0.046875 0.53906,0 0.92969,0.10938 1.1719,0.32812 0.23828,0.21094 0.35938,0.55469 0.35938,1.0312 z"
         id="path11" />
    </symbol>
    <symbol
       id="d"
       overflow="visible">
      <path
         d="m 1.5,-3.8438 v 0.85938 h 0.98438 v 0.67188 H 1.5 v 1.2812 c 0,0.13672 0.023438,0.23047 0.078125,0.28125 0.0625,0.042969 0.17578,0.0625 0.34375,0.0625 h 0.48438 V -9e-5 h -0.8125 c -0.38672,0 -0.65625,-0.078125 -0.8125,-0.23438 -0.15625,-0.156255 -0.23438,-0.42188 -0.23438,-0.79688 v -1.2812 h -0.46875 v -0.67188 h 0.46875 v -0.85938 z"
         id="path14" />
    </symbol>
    <symbol
       id="k"
       overflow="visible">
      <path
         d="M 2.5,-2.5469 V -4.1563 H 3.45312 V -1e-4 H 2.5 v -0.4375 c -0.13672,0.17969 -0.28125,0.30859 -0.4375,0.39062 -0.15625,0.082031 -0.33984,0.125 -0.54688,0.125 -0.375,0 -0.68359,-0.14453 -0.92188,-0.4375 -0.23047,-0.28906 -0.34375,-0.67188 -0.34375,-1.1406 0,-0.45703 0.11328,-0.83203 0.34375,-1.125 0.23828,-0.28906 0.54688,-0.4375 0.92188,-0.4375 0.19531,0 0.375,0.042969 0.53125,0.125 0.16406,0.085938 0.31641,0.21484 0.45312,0.39062 z m -0.64062,1.9375 c 0.20703,0 0.36328,-0.070313 0.46875,-0.21875 0.11328,-0.15625 0.17188,-0.37891 0.17188,-0.67188 0,-0.28125 -0.058594,-0.49219 -0.17188,-0.64062 -0.10547,-0.15625 -0.26172,-0.23438 -0.46875,-0.23438 -0.19922,0 -0.35547,0.078125 -0.46875,0.23438 -0.10547,0.14844 -0.15625,0.35938 -0.15625,0.64062 0,0.29297 0.050781,0.51562 0.15625,0.67188 0.11328,0.14844 0.26953,0.21875 0.46875,0.21875 z"
         id="path17" />
    </symbol>
    <symbol
       id="j"
       overflow="visible">
      <path
         d="m 2.0469,-0.60938 c 0.20703,0 0.36328,-0.070313 0.46875,-0.21875 0.11328,-0.15625 0.17188,-0.37891 0.17188,-0.67188 0,-0.28125 -0.058594,-0.49219 -0.17188,-0.64062 -0.10547,-0.15625 -0.26172,-0.23438 -0.46875,-0.23438 -0.19922,0 -0.35547,0.078125 -0.46875,0.23438 -0.10547,0.14844 -0.15625,0.35938 -0.15625,0.64062 0,0.29297 0.050781,0.51562 0.15625,0.67188 0.11328,0.14844 0.26953,0.21875 0.46875,0.21875 z m -0.625,-1.9375 c 0.125,-0.17578 0.26562,-0.30469 0.42188,-0.39062 0.16406,-0.082031 0.35156,-0.125 0.5625,-0.125 0.36328,0 0.66406,0.14844 0.90625,0.4375 0.23828,0.29297 0.35938,0.66797 0.35938,1.125 0,0.46875 -0.12109,0.85156 -0.35938,1.1406 -0.24219,0.29297 -0.54297,0.4375 -0.90625,0.4375 -0.21094,0 -0.39844,-0.042969 -0.5625,-0.125 C 1.68753,-0.128931 1.5469,-0.25784 1.4219,-0.43752 V -2e-5 H 0.45315 v -4.1562 H 1.4219 Z"
         id="path20" />
    </symbol>
    <symbol
       id="i"
       overflow="visible">
      <path
         d="m 0.0625,-2.9844 h 0.95312 l 0.8125,2.0156 0.6875,-2.0156 H 3.46874 L 2.20314,0.2812 C 2.07814,0.61323 1.9297,0.84761 1.76564,0.98432 1.59767,1.11713 1.37502,1.18744 1.09376,1.18744 H 0.54688 V 0.54682 h 0.29688 c 0.16406,0 0.28516,-0.027344 0.35938,-0.078125 0.070313,-0.054688 0.12891,-0.14062 0.17188,-0.26562 l 0.03125,-0.09375 z"
         id="path23" />
    </symbol>
    <symbol
       id="e"
       overflow="visible">
      <path
         d="M 0.45312,-2.9844 H 1.42187 V 0 H 0.45312 Z m 0,-1.1719 h 0.96875 v 0.78125 H 0.45312 Z"
         id="path26" />
    </symbol>
    <symbol
       id="h"
       overflow="visible">
      <path
         d="m 2.875,-2.8906 v 0.76562 C 2.75,-2.207011 2.61719,-2.26951 2.48438,-2.31248 2.34766,-2.351542 2.21094,-2.37498 2.07813,-2.37498 c -0.27344,0 -0.48047,0.078125 -0.625,0.23438 -0.14844,0.15625 -0.21875,0.37109 -0.21875,0.64062 0,0.28125 0.070313,0.5 0.21875,0.65625 0.14453,0.15625 0.35156,0.23438 0.625,0.23438 0.14453,0 0.28516,-0.019531 0.42188,-0.0625 0.13281,-0.039063 0.25781,-0.10938 0.375,-0.20312 v 0.78125 c -0.14844,0.0625 -0.29688,0.10156 -0.45312,0.125 -0.15625,0.03125 -0.3125,0.046875 -0.46875,0.046875 -0.54297,0 -0.96484,-0.13281 -1.2656,-0.40625 -0.30469,-0.28125 -0.45312,-0.67188 -0.45312,-1.1719 0,-0.48828 0.14844,-0.86719 0.45312,-1.1406 0.30078,-0.28125 0.72266,-0.42188 1.2656,-0.42188 0.15625,0 0.3125,0.015625 0.46875,0.046875 0.15625,0.023437 0.30469,0.0625 0.45312,0.125 z"
         id="path29" />
    </symbol>
    <symbol
       id="c"
       overflow="visible">
      <path
         d="m 1.875,-2.375 c -0.21094,0 -0.37109,0.078125 -0.48438,0.23438 -0.10547,0.14844 -0.15625,0.35938 -0.15625,0.64062 0,0.29297 0.050781,0.51562 0.15625,0.67188 0.11328,0.14844 0.27344,0.21875 0.48438,0.21875 0.20703,0 0.36719,-0.070313 0.48438,-0.21875 C 2.47266,-0.98437 2.53126,-1.20703 2.53126,-1.5 2.53126,-1.78125 2.472666,-1.99219 2.35938,-2.14062 2.24219,-2.29687 2.08204,-2.375 1.875,-2.375 Z m 0,-0.6875 c 0.51953,0 0.92188,0.14062 1.2031,0.42188 0.28906,0.27344 0.4375,0.65234 0.4375,1.1406 0,0.5 -0.14844,0.89062 -0.4375,1.1719 C 2.79685,-0.05468 2.39451,0.07813 1.875,0.07813 1.36328,0.07813 0.96094,-0.05468 0.6719,-0.32812 0.37893,-0.60937 0.2344,-1 0.2344,-1.50002 c 0,-0.48828 0.14453,-0.86719 0.4375,-1.1406 C 0.96096,-2.92187 1.36331,-3.0625 1.875,-3.0625 Z"
         id="path32" />
    </symbol>
    <symbol
       id="g"
       overflow="visible">
      <path
         d="M 3.4688,-1.8281 V 0 H 2.50005 v -1.3906 c 0,-0.25781 -0.00781,-0.4375 -0.015625,-0.53125 -0.011719,-0.10156 -0.03125,-0.17578 -0.0625,-0.21875 -0.03125,-0.0625 -0.085937,-0.10938 -0.15625,-0.14062 -0.0625,-0.039062 -0.13281,-0.0625 -0.20312,-0.0625 -0.21094,0 -0.37109,0.078125 -0.48438,0.23438 -0.10547,0.15625 -0.15625,0.37109 -0.15625,0.64062 V 8e-5 h -0.96875 v -2.9844 h 0.96875 v 0.4375 c 0.13281,-0.17578 0.28516,-0.30469 0.45312,-0.39062 0.16406,-0.082031 0.34375,-0.125 0.53125,-0.125 0.34375,0 0.60156,0.10938 0.78125,0.32812 0.1875,0.21094 0.28125,0.51172 0.28125,0.90625 z"
         id="path35" />
    </symbol>
    <symbol
       id="s"
       overflow="visible">
      <path
         d="M 1.2188,-1.5312 0.1407,-2.9843 h 1 l 0.625,0.875 0.60938,-0.875 h 1.0156 L 2.31258,-1.5312 3.43758,0 h -1 L 1.7657,-0.9375 1.09382,0 h -1.0156 z"
         id="path38" />
    </symbol>
    <symbol
       id="r"
       overflow="visible">
      <path
         d="m 2.4219,-4.1562 v 0.625 H 1.90628 c -0.13672,0 -0.23438,0.027344 -0.29688,0.078125 -0.054687,0.054687 -0.078125,0.13672 -0.078125,0.25 v 0.21875 h 0.82812 v 0.67188 h -0.82812 v 2.3125 h -0.95312 v -2.3125 h -0.46875 v -0.67188 h 0.46875 v -0.21875 c 0,-0.32031 0.085937,-0.5625 0.26562,-0.71875 0.1875,-0.15625 0.47266,-0.23438 0.85938,-0.23438 z"
         id="path41" />
    </symbol>
    <symbol
       id="q"
       overflow="visible">
      <path
         d="m 3.2344,-2.5 c 0.11328,-0.17578 0.25391,-0.3125 0.42188,-0.40625 0.16406,-0.10156 0.35156,-0.15625 0.5625,-0.15625 0.33203,0 0.58594,0.10938 0.76562,0.32812 0.1875,0.21094 0.28125,0.51172 0.28125,0.90625 V -3e-5 H 4.2969 v -1.5625 c 0.00781,-0.019531 0.015625,-0.039062 0.015625,-0.0625 v -0.10938 c 0,-0.21875 -0.03125,-0.375 -0.09375,-0.46875 -0.0625,-0.09375 -0.16406,-0.14062 -0.29688,-0.14062 -0.1875,0 -0.33594,0.078125 -0.4375,0.23438 -0.09375,0.14844 -0.14062,0.35938 -0.14062,0.64062 V 2e-5 h -0.96875 v -1.5625 c 0,-0.33203 -0.03125,-0.54688 -0.09375,-0.64062 -0.054688,-0.09375 -0.15234,-0.14062 -0.29688,-0.14062 -0.17969,0 -0.32031,0.078125 -0.42188,0.23438 -0.09375,0.14844 -0.14062,0.35938 -0.14062,0.64062 V 8e-5 h -0.96875 v -2.9844 h 0.96875 v 0.4375 c 0.11328,-0.17578 0.24219,-0.30469 0.39062,-0.39062 0.15625,-0.082031 0.32812,-0.125 0.51562,-0.125 0.20703,0 0.39062,0.054688 0.54688,0.15625 0.15625,0.09375 0.27344,0.23047 0.35938,0.40625 z"
         id="path44" />
    </symbol>
    <symbol
       id="p"
       overflow="visible">
      <path
         d="M 3.4688,-1.8281 V 0 H 2.50005 v -1.3906 c 0,-0.25781 -0.00781,-0.4375 -0.015625,-0.53125 -0.011719,-0.10156 -0.03125,-0.17578 -0.0625,-0.21875 -0.03125,-0.0625 -0.085937,-0.10938 -0.15625,-0.14062 -0.0625,-0.039062 -0.13281,-0.0625 -0.20312,-0.0625 -0.21094,0 -0.37109,0.078125 -0.48438,0.23438 -0.10547,0.15625 -0.15625,0.37109 -0.15625,0.64062 V 8e-5 h -0.96875 v -4.1562 h 0.96875 v 1.6094 c 0.13281,-0.17578 0.28516,-0.30469 0.45312,-0.39062 0.16406,-0.082031 0.34375,-0.125 0.53125,-0.125 0.34375,0 0.60156,0.10938 0.78125,0.32812 0.1875,0.21094 0.28125,0.51172 0.28125,0.90625 z"
         id="path47" />
    </symbol>
    <symbol
       id="o"
       overflow="visible">
      <path
         d="M 0.5,-3.9844 H 1.6562 L 3.0937,-1.25 V -3.9844 H 4.07808 V 0 H 2.92188 L 1.48438,-2.7344 V 0 H 0.5 Z"
         id="path50" />
    </symbol>
    <symbol
       id="n"
       overflow="visible">
      <path
         d="m 0.42188,-1.1719 v -1.8125 h 0.96875 v 0.29688 0.60938 0.48438 c 0,0.24219 0.00391,0.41797 0.015625,0.53125 0.00781,0.10547 0.03125,0.17969 0.0625,0.21875 0.039062,0.0625 0.09375,0.11719 0.15625,0.15625 0.0625,0.03125 0.13281,0.046875 0.21875,0.046875 0.19531,0 0.35156,-0.078125 0.46875,-0.23438 0.11328,-0.15625 0.17188,-0.36719 0.17188,-0.64062 v -1.4688 h 0.95312 v 2.9844 h -0.95312 v -0.4375 c -0.14844,0.17969 -0.30469,0.30859 -0.46875,0.39062 -0.15625,0.082031 -0.33594,0.125 -0.53125,0.125 -0.34375,0 -0.60938,-0.10156 -0.79688,-0.3125 -0.17969,-0.21875 -0.26562,-0.53125 -0.26562,-0.9375 z"
         id="path53" />
    </symbol>
    <symbol
       id="m"
       overflow="visible">
      <path
         d="m 0.5,-3.9844 h 1.7031 c 0.50781,0 0.89844,0.11719 1.1719,0.34375 0.26953,0.21875 0.40625,0.53906 0.40625,0.95312 0,0.41797 -0.13672,0.74219 -0.40625,0.96875 -0.27344,0.21875 -0.66406,0.32812 -1.1719,0.32812 H 1.53122 V -6e-5 h -1.0312 z m 1.0312,0.75 v 1.1094 h 0.5625 c 0.19531,0 0.34766,-0.046875 0.45312,-0.14062 C 2.6601,-2.36718 2.7187,-2.50781 2.7187,-2.6875 2.7187,-2.86328 2.660106,-3 2.54682,-3.09375 2.44135,-3.1875 2.28901,-3.23437 2.0937,-3.23437 Z"
         id="path56" />
    </symbol>
    <symbol
       id="l"
       overflow="visible">
      <path
         d="m 0.45312,-2.9844 h 0.96875 v 2.9375 c 0,0.39453 -0.10156,0.69531 -0.29688,0.90625 C 0.93749,1.0781 0.66015,1.18747 0.29687,1.18747 H -0.18751 V 0.54685 h 0.17188 c 0.17578,0 0.29688,-0.042969 0.35938,-0.125 C 0.414062,0.347631 0.45313,0.19138 0.45313,-0.0469 Z m 0,-1.1719 h 0.96875 v 0.78125 H 0.45312 Z"
         id="path59" />
    </symbol>
  </defs>
  <g
     id="g1074"
     transform="translate(-87.496558,-17.491898)">
    <path
       d="m 490,166.25 c -12.773,0.0703 -25.137,4.5039 -35.043,12.566 -2.9727,-2.375 -6.168,-4.4609 -9.5352,-6.2344 24.41,-31.797 18.531,-75.559 18.242,-77.578 v 0.0039 c -0.34766,-2.4258 -1.6953,-4.5938 -3.7148,-5.9805 -2.0195,-1.3828 -4.5312,-1.8594 -6.918,-1.3086 -51.504,11.887 -79.426,35.93 -94.512,59.602 1.4102,-31.195 9.0039,-82.477 41.414,-114.89 h 0.004 c 3.418,-3.418 3.418,-8.957 0,-12.375 -3.418,-3.418 -8.957,-3.418 -12.375,0 -22.816,22.816 -38.043,57.055 -44.035,99.012 -1.4375,10.055 -2.1875,19.395 -2.5469,27.48 -15.203,-23.422 -43.066,-47.074 -94.012,-58.832 -2.3867,-0.55078 -4.8945,-0.07422 -6.918,1.3125 -2.0195,1.3828 -3.3672,3.5508 -3.7109,5.9766 -0.28906,2.0195 -6.168,45.777 18.242,77.574 -3.3711,1.7734 -6.5664,3.8594 -9.5391,6.2344 -9.9062,-8.0625 -22.27,-12.496 -35.043,-12.566 -33.773,0 -61.25,31.402 -61.25,70 0,29.312 15.852,54.457 38.266,64.867 -2.1836,7.3438 -3.2852,14.969 -3.2656,22.633 0,28.477 14.965,53.02 36.371,63.941 -0.91406,4.8828 -1.375,9.8398 -1.3711,14.809 0,27.992 14.457,52.188 35.277,63.375 -0.17969,2.1992 -0.27734,4.4141 -0.27734,6.625 0,38.598 27.477,70 61.25,70 12.746,-0.0742 25.082,-4.5117 34.957,-12.566 9.9062,8.0625 22.27,12.496 35.043,12.566 33.773,0 61.25,-31.402 61.25,-70 0,-2.207 -0.0977,-4.4258 -0.27734,-6.625 20.82,-11.188 35.277,-35.383 35.277,-63.375 0.004,-4.9688 -0.45703,-9.9258 -1.3711,-14.809 21.406,-10.922 36.371,-35.465 36.371,-63.941 0.0195,-7.6641 -1.082,-15.289 -3.2656,-22.633 22.414,-10.41 38.266,-35.555 38.266,-64.867 0,-38.598 -27.477,-70 -61.25,-70 z m -26.25,70 c 0,28.949 -19.625,52.5 -43.75,52.5 -8.2734,-0.0703 -16.305,-2.8086 -22.898,-7.8086 9.207,-13.086 14.148,-28.691 14.148,-44.691 0,-16 -4.9414,-31.605 -14.148,-44.691 6.5938,-5 14.625,-7.7383 22.898,-7.8086 24.125,0 43.75,23.551 43.75,52.5 z M 337.9,368.44 c -6.5938,5 -14.625,7.7383 -22.898,7.8086 -24.125,0 -43.75,-23.551 -43.75,-52.5 -0.0156,-6.0469 0.86328,-12.062 2.6094,-17.852 2.0391,0.23437 4.0898,0.35156 6.1406,0.35156 12.773,-0.0703 25.137,-4.5039 35.043,-12.566 3.6836,2.9453 7.7031,5.4414 11.973,7.4375 -2.1836,7.3438 -3.2812,14.965 -3.2656,22.629 -0.11719,16.016 4.8359,31.66 14.148,44.691 z m -30.922,24.688 c 2.6562,0.40625 5.3359,0.61328 8.0234,0.62109 12.773,-0.0703 25.137,-4.5039 35.043,-12.566 9.875,8.0547 22.211,12.492 34.957,12.566 2.6875,-0.008 5.3672,-0.21484 8.0234,-0.62109 0.47656,3.1016 0.71875,6.2344 0.72656,9.3711 0,28.949 -19.625,52.5 -43.75,52.5 -24.125,0 -43.75,-23.551 -43.75,-52.5 0.008,-3.1367 0.25,-6.2695 0.72656,-9.3711 z m 78.023,-16.879 c -24.125,0 -43.75,-23.551 -43.75,-52.5 -0.0156,-6.0469 0.86328,-12.062 2.6094,-17.852 2.0391,0.23437 4.0898,0.35156 6.1406,0.35156 12.746,-0.0742 25.082,-4.5117 34.957,-12.566 9.9062,8.0625 22.27,12.496 35.043,12.566 2.0508,0 4.1016,-0.11719 6.1406,-0.35156 1.7461,5.7891 2.625,11.805 2.6094,17.852 0,28.949 -19.625,52.5 -43.75,52.5 z m 61.93,-268.89 c 0.17969,14.344 -2.1094,41.199 -19.547,59.422 -2.4453,-0.34375 -4.9141,-0.51953 -7.3828,-0.52734 -12.773,0.0703 -25.137,4.5039 -35.043,12.566 -5.4297,-4.3633 -11.602,-7.7109 -18.219,-9.8867 15.84,-35.582 50.152,-53.031 80.191,-61.574 z m -96.93,76.395 c 24.125,0 43.75,23.551 43.75,52.5 0,28.949 -19.625,52.5 -43.75,52.5 -24.125,0 -43.75,-23.551 -43.75,-52.5 0,-28.949 19.625,-52.5 43.75,-52.5 z m -96.93,-76.395 c 30.039,8.543 64.352,25.992 80.195,61.578 h -0.004 c -6.6172,2.1758 -12.789,5.5273 -18.219,9.8906 -9.9062,-8.0664 -22.27,-12.5 -35.043,-12.574 -2.4688,0.008 -4.9375,0.18359 -7.3828,0.52734 -17.441,-18.223 -19.727,-45.082 -19.547,-59.422 z m 26.93,76.395 c 8.2734,0.0703 16.305,2.8086 22.898,7.8086 -9.207,13.082 -14.148,28.691 -14.148,44.691 0,16 4.9414,31.609 14.148,44.691 -6.5938,5 -14.625,7.7383 -22.898,7.8086 -24.125,0 -43.75,-23.551 -43.75,-52.5 0,-28.949 19.625,-52.5 43.75,-52.5 z m -113.75,52.5 c 0,-28.949 19.625,-52.5 43.75,-52.5 8.2734,0.0703 16.305,2.8086 22.898,7.8086 -9.207,13.082 -14.148,28.691 -14.148,44.691 0,16 4.9414,31.609 14.148,44.691 -6.5938,5 -14.625,7.7383 -22.898,7.8086 -24.125,0 -43.75,-23.551 -43.75,-52.5 z m 35,87.5 c -0.0156,-6.0469 0.86328,-12.062 2.6094,-17.852 2.0391,0.23437 4.0898,0.35156 6.1406,0.35156 12.773,-0.0703 25.137,-4.5039 35.043,-12.566 3.6836,2.9453 7.7031,5.4414 11.973,7.4375 -2.1836,7.3438 -3.2812,14.965 -3.2656,22.629 -0.11719,16.016 4.8359,31.66 14.148,44.691 -6.5938,5 -14.625,7.7383 -22.898,7.8086 -24.125,0 -43.75,-23.551 -43.75,-52.5 z m 35,78.75 c 0.008,-3.1367 0.25,-6.2695 0.72656,-9.3711 2.6562,0.40625 5.3359,0.61328 8.0234,0.62109 12.773,-0.0703 25.137,-4.5039 35.043,-12.566 3.1328,2.5 6.5117,4.6836 10.078,6.5078 -0.91406,4.8828 -1.375,9.8398 -1.3711,14.809 -0.11719,16.016 4.8359,31.66 14.148,44.691 -6.5938,5 -14.625,7.7383 -22.898,7.8086 -24.125,0 -43.75,-23.551 -43.75,-52.5 z m 78.75,122.5 c -24.125,0 -43.75,-23.551 -43.75,-52.5 0,-0.24219 0.0195,-0.48047 0.0234,-0.72266 2.8828,0.47656 5.8008,0.71875 8.7266,0.72266 12.773,-0.0703 25.137,-4.5039 35.043,-12.566 9.875,8.0547 22.211,12.492 34.957,12.566 2.9258,-0.004 5.8438,-0.24609 8.7266,-0.72266 0,0.24219 0.0234,0.48047 0.0234,0.72266 0,28.949 -19.625,52.5 -43.75,52.5 z m 70,0 c -8.2734,-0.0703 -16.305,-2.8086 -22.898,-7.8086 9.3125,-13.031 14.266,-28.676 14.148,-44.691 0,-2.2109 -0.0977,-4.4258 -0.27734,-6.625 3.1641,-1.707 6.1719,-3.6953 8.9844,-5.9414 9.9062,8.0625 22.27,12.496 35.043,12.566 2.9258,-0.004 5.8438,-0.24609 8.7266,-0.72266 0,0.24219 0.0234,0.48047 0.0234,0.72266 0,28.949 -19.625,52.5 -43.75,52.5 z m 35,-70 c -8.2734,-0.0703 -16.305,-2.8086 -22.898,-7.8086 9.3125,-13.031 14.266,-28.676 14.148,-44.691 0.004,-4.9688 -0.45703,-9.9258 -1.3711,-14.809 3.5703,-1.8242 6.9453,-4.0078 10.078,-6.5078 9.9062,8.0625 22.27,12.496 35.043,12.566 2.6875,-0.008 5.3672,-0.21484 8.0234,-0.62109 0.47656,3.1016 0.71875,6.2344 0.72656,9.3711 0,28.949 -19.625,52.5 -43.75,52.5 z m 35,-78.75 c -8.2734,-0.0703 -16.305,-2.8086 -22.898,-7.8086 9.3125,-13.031 14.266,-28.676 14.148,-44.691 0.0195,-7.6641 -1.082,-15.289 -3.2656,-22.633 4.2695,-1.9922 8.2891,-4.4922 11.973,-7.4375 9.9062,8.0625 22.27,12.5 35.043,12.57 2.0508,0 4.1016,-0.11719 6.1406,-0.35156 1.7461,5.7891 2.625,11.805 2.6094,17.852 0,28.949 -19.625,52.5 -43.75,52.5 z m 35,-87.5 c -8.2734,-0.0703 -16.305,-2.8086 -22.898,-7.8086 9.207,-13.086 14.148,-28.691 14.148,-44.691 0,-16 -4.9414,-31.605 -14.148,-44.691 6.5938,-5 14.625,-7.7383 22.898,-7.8086 24.125,0 43.75,23.551 43.75,52.5 0,28.949 -19.625,52.5 -43.75,52.5 z"
       id="path64" />
  </g>
</svg>
