<?xml version="1.0" encoding="UTF-8" standalone="no"?>
<svg
   width="550.65802pt"
   height="550.65802pt"
   version="1.1"
   viewBox="0 0 550.65802 550.65802"
   id="svg161"
   sodipodi:docname="rye.svg"
   inkscape:version="1.1.1 (3bf5ae0d25, 2021-09-20)"
   xmlns:inkscape="http://www.inkscape.org/namespaces/inkscape"
   xmlns:sodipodi="http://sodipodi.sourceforge.net/DTD/sodipodi-0.dtd"
   xmlns:xlink="http://www.w3.org/1999/xlink"
   xmlns="http://www.w3.org/2000/svg"
   xmlns:svg="http://www.w3.org/2000/svg">
  <sodipodi:namedview
     id="namedview163"
     pagecolor="#ffffff"
     bordercolor="#666666"
     borderopacity="1.0"
     inkscape:pageshadow="2"
     inkscape:pageopacity="0.0"
     inkscape:pagecheckerboard="0"
     inkscape:document-units="pt"
     showgrid="false"
     inkscape:zoom="0.91928571"
     inkscape:cx="466.12277"
     inkscape:cy="467.21057"
     inkscape:window-width="1920"
     inkscape:window-height="1017"
     inkscape:window-x="1912"
     inkscape:window-y="-8"
     inkscape:window-maximized="1"
     inkscape:current-layer="svg161" />
  <defs
     id="defs71">
    <symbol
       id="w"
       overflow="visible">
      <path
         d="M 0.03125,0 H 0.015625 0 V -0.015625 -0.03125 H 0.015625 0.03125 0.015625 V -0.015625 0 H 0.03125 v -0.015625 z"
         id="path2" />
    </symbol>
    <symbol
       id="e"
       overflow="visible">
      <path
         d="M 0.015625,-0.015625 V 0 H 0 v -0.03125 h 0.015625 v 0.015625 -0.015625 z"
         id="path5" />
    </symbol>
    <symbol
       id="b"
       overflow="visible">
      <path
         d="M 0.03125,-0.015625 H 0.015625 V 0 C 0.0234375,0 0.03125,-0.0039062 0.03125,-0.015625 V 0 H 0.015625 0 V -0.015625 L 0.015625,-0.03125 v 0.015625 z"
         id="path8" />
    </symbol>
    <symbol
       id="a"
       overflow="visible">
      <path
         d="M 0.015625,-0.015625 V 0 Z m 0.015625,0 V 0 H 0.015625 0 V -0.015625 H 0.015625 0 V -0.03125 h 0.015625 v 0.015625 z"
         id="path11" />
    </symbol>
    <symbol
       id="d"
       overflow="visible">
      <path
         d="M 0.015625,-0.03125 V -0.015625 0 H 0 V -0.015625 -0.03125 Z"
         id="path14" />
    </symbol>
    <symbol
       id="l"
       overflow="visible">
      <path
         d="M 0.015625,-0.015625 V -0.03125 H 0.03125 V 0 H 0.015625 0 V -0.015625 L 0.015625,-0.03125 Z m 0,0.015625 v -0.015625 z"
         id="path17" />
    </symbol>
    <symbol
       id="k"
       overflow="visible">
      <path
         d="m 0.015625,0 v -0.015625 z m 0,-0.015625 V -0.03125 c 0.0078125,0 0.015625,0.0078125 0.015625,0.015625 V 0 H 0.015625 0 v -0.03125 h 0.015625 z"
         id="path20" />
    </symbol>
    <symbol
       id="j"
       overflow="visible">
      <path
         d="M 0,-0.03125 H 0.015625 V -0.015625 -0.03125 H 0.03125 L 0.015625,0 V 0.015625 H 0 V 0 h 0.015625 z"
         id="path23" />
    </symbol>
    <symbol
       id="i"
       overflow="visible">
      <path
         d="M 0.015625,-0.03125 V -0.015625 0 H 0.03125 v -0.015625 c 0,-0.0078125 -0.0078125,-0.015625 -0.015625,-0.015625 z m 0,0 H 0.03125 V -0.015625 0 H 0.015625 0 V -0.015625 -0.03125 Z"
         id="path26" />
    </symbol>
    <symbol
       id="v"
       overflow="visible">
      <path
         d="M 0,-0.03125 H 0.015625 V 0 H 0 Z"
         id="path29" />
    </symbol>
    <symbol
       id="f"
       overflow="visible">
      <path
         d="M 0.03125,-0.015625 V 0 H 0.015625 V -0.015625 0 H 0 v -0.03125 h 0.015625 v 0.015625 -0.015625 c 0.0078125,0 0.015625,0.0078125 0.015625,0.015625 z"
         id="path32" />
    </symbol>
    <symbol
       id="h"
       overflow="visible">
      <path
         d="M 0,-0.03125 H 0.015625 0.03125 v 0.015625 H 0.015625 V 0 H 0 Z m 0.015625,0 v 0.015625 z"
         id="path35" />
    </symbol>
    <symbol
       id="g"
       overflow="visible">
      <path
         d="m 0.03125,-0.03125 v 0.015625 H 0.015625 C 0.0234375,-0.015625 0.03125,-0.0078125 0.03125,0 H 0.015625 0 0.015625 V -0.015625 H 0 L 0.015625,-0.03125 Z"
         id="path38" />
    </symbol>
    <symbol
       id="c"
       overflow="visible">
      <path
         d="M 0.015625,-0.015625 V 0 Z m 0,-0.015625 v 0.015625 H 0.03125 C 0.03125,-0.003906 0.0234375,0 0.015625,0 H 0 v -0.015625 z"
         id="path41" />
    </symbol>
    <symbol
       id="u"
       overflow="visible">
      <path
         d="M 0,-0.03125 H 0.015625 V -0.015625 -0.03125 H 0.03125 L 0.015625,0 Z"
         id="path44" />
    </symbol>
    <symbol
       id="t"
       overflow="visible">
      <path
         d="M 0,-0.03125 H 0.015625 V -0.015625 -0.03125 H 0.03125 L 0.015625,-0.015625 0.03125,0 H 0.015625 V -0.015625 0 H 0 Z"
         id="path47" />
    </symbol>
    <symbol
       id="s"
       overflow="visible">
      <path
         d="M 0.015625,-0.03125 V 0 H 0 v -0.03125 z"
         id="path50" />
    </symbol>
    <symbol
       id="r"
       overflow="visible">
      <path
         d="M 0.03125,-0.015625 V -0.03125 c 0.0078125,0 0.015625,0.0078125 0.015625,0.015625 V 0 H 0.03125 V -0.015625 0 H 0.015625 V -0.015625 0 H 0 v -0.03125 h 0.015625 v 0.015625 -0.015625 0.015625 z"
         id="path53" />
    </symbol>
    <symbol
       id="q"
       overflow="visible">
      <path
         d="M 0.03125,-0.015625 V 0 H 0.015625 V -0.015625 0 H 0 v -0.03125 h 0.015625 v 0.015625 -0.015625 c 0.0078125,0 0.015625,0.0078125 0.015625,0.015625 z"
         id="path56" />
    </symbol>
    <symbol
       id="p"
       overflow="visible">
      <path
         d="M 0,-0.03125 H 0.015625 L 0.03125,-0.015625 V -0.03125 0 L 0.015625,-0.015625 V 0 H 0 Z"
         id="path59" />
    </symbol>
    <symbol
       id="o"
       overflow="visible">
      <path
         d="M 0,-0.015625 V -0.03125 H 0.015625 V -0.015625 0 -0.015625 -0.03125 H 0.03125 V 0 H 0.015625 0 Z"
         id="path62" />
    </symbol>
    <symbol
       id="n"
       overflow="visible">
      <path
         d="M 0,-0.03125 H 0.015625 V 0 H 0 v 0.015625 z m 0,0 h 0.015625 z"
         id="path65" />
    </symbol>
    <symbol
       id="m"
       overflow="visible">
      <path
         d="m 0.03125,-0.03125 v 0.015625 H 0.015625 V 0 H 0.03125 0.015625 0 V -0.015625 L 0.015625,-0.03125 Z"
         id="path68" />
    </symbol>
  </defs>
  <g
     id="g159"
     transform="translate(-69.999856,-36.202304)">
    <path
       d="m 456.69,444.28 c 1.8984,-9.8789 1.8945,-19.531 0.84766,-28.199 -1.6719,-13.836 -5.9531,-25.031 -9.3867,-30.664 -8.5195,-13.973 -18.602,-23.184 -29.02,-32.699 -13.188,-12.047 -26.887,-24.566 -39.039,-47.523 0.0547,29.555 3.5781,55.695 13.629,78.066 11.238,25.02 30.773,45.496 62.969,61.02 z M 80.93,125.06 c -1.2383,-0.34766 -1.9609,-1.6328 -1.6133,-2.8711 0.3476,-1.2383 1.6328,-1.9609 2.8711,-1.6133 7.0898,2.0039 13.613,4.6094 19.75,7.4961 6.082,2.8633 11.785,6.0117 17.277,9.1289 1.1172,0.63281 1.5078,2.0547 0.875,3.1719 -0.63281,1.1172 -2.0547,1.5078 -3.1719,0.875 -5.3945,-3.0625 -10.992,-6.1523 -16.969,-8.9648 -5.9219,-2.7852 -12.207,-5.2969 -19.02,-7.2227 z m 10.508,37.559 c -1.1719,-0.52734 -1.6953,-1.9062 -1.168,-3.082 0.52734,-1.1719 1.9062,-1.6953 3.082,-1.168 7.2461,3.293 14.211,6.6719 20.871,10.188 6.6289,3.5 12.965,7.1445 18.984,10.988 1.082,0.69141 1.4023,2.125 0.71094,3.207 -0.69141,1.082 -2.125,1.4023 -3.207,0.71094 -5.8477,-3.7344 -12.082,-7.3125 -18.656,-10.785 -6.5469,-3.457 -13.43,-6.7969 -20.613,-10.062 z m 20.855,52.133 c -1.2227,-0.39062 -1.8945,-1.7031 -1.5039,-2.9258 0.39063,-1.2227 1.7031,-1.8945 2.9258,-1.5039 7.3711,2.3828 14.469,4.8789 21.277,7.5312 6.8711,2.6797 13.402,5.5 19.562,8.5039 1.1562,0.5625 1.6406,1.9609 1.0742,3.1172 -0.5625,1.1562 -1.9609,1.6406 -3.1172,1.0742 -6.1367,-2.9961 -12.543,-5.7656 -19.199,-8.3594 -6.7188,-2.6211 -13.734,-5.082 -21.023,-7.4414 z m 47.723,69.375 c -1.2852,-0.0898 -2.25,-1.2031 -2.1602,-2.4883 0.0898,-1.2852 1.2031,-2.25 2.4883,-2.1602 5.9414,0.4375 11.727,0.97656 17.34,1.6367 5.6445,0.66797 11.141,1.457 16.477,2.4023 1.2695,0.22266 2.1172,1.4297 1.8945,2.6992 -0.22266,1.2695 -1.4297,2.1172 -2.6992,1.8945 -5.2617,-0.92969 -10.668,-1.7109 -16.219,-2.3672 -5.582,-0.66016 -11.289,-1.1914 -17.121,-1.6211 z m 21.422,48.562 c -1.2852,-0.0391 -2.293,-1.1133 -2.25,-2.3984 0.0391,-1.2852 1.1133,-2.293 2.3984,-2.25 5.8945,0.19922 11.582,0.49609 17.043,0.91406 5.5,0.41797 10.918,0.96875 16.266,1.6758 1.2734,0.16797 2.1719,1.332 2.0039,2.6055 -0.16797,1.2734 -1.332,2.1719 -2.6055,2.0039 -5.1406,-0.67578 -10.48,-1.2148 -16.012,-1.6367 -5.5703,-0.42578 -11.18,-0.72266 -16.844,-0.91406 z m 25.215,42.922 c -1.2695,0.20312 -2.4609,-0.66406 -2.6602,-1.9336 -0.20313,-1.2695 0.66406,-2.4609 1.9336,-2.6602 8.0742,-1.2969 15.938,-2.3516 23.59,-3.1055 7.6602,-0.75391 15.129,-1.2109 22.41,-1.3047 1.2852,-0.0156 2.3359,1.0117 2.3516,2.2969 0.0157,1.2852 -1.0117,2.3359 -2.2969,2.3516 -7.1133,0.0937 -14.449,0.53906 -22.012,1.2852 -7.5703,0.74609 -15.34,1.7891 -23.316,3.0703 z m 23.027,42.52 c -1.2422,0.33594 -2.5234,-0.39844 -2.8633,-1.6406 -0.33594,-1.2422 0.39844,-2.5234 1.6406,-2.8633 10.66,-2.9023 21.047,-5.3516 31.195,-7.2148 10.125,-1.8594 19.945,-3.1133 29.484,-3.6211 1.2852,-0.0664 2.3789,0.92188 2.4414,2.207 0.0664,1.2852 -0.92188,2.3789 -2.207,2.4414 -9.3359,0.5 -18.957,1.7266 -28.883,3.5508 -9.9023,1.8164 -20.172,4.2461 -30.812,7.1406 z m -66.887,-352.9 c -0.0234,-1.2852 0.99609,-2.3438 2.2773,-2.3711 1.2852,-0.02344 2.3438,0.99609 2.3711,2.2773 0.125,5.8203 0.41016,11.574 0.875,17.266 0.46484,5.6602 1.0977,11.121 1.9297,16.379 0.19531,1.2695 -0.67188,2.457 -1.9414,2.6523 -1.2695,0.19531 -2.457,-0.67188 -2.6523,-1.9414 -0.86719,-5.4922 -1.5195,-11.062 -1.9844,-16.723 -0.46094,-5.625 -0.74609,-11.477 -0.875,-17.539 z m 38.137,27.777 c 0.0195,-1.2852 1.0781,-2.3086 2.3594,-2.2891 1.2852,0.01953 2.3086,1.0781 2.2891,2.3594 -0.11719,6.6875 0,13.254 0.38672,19.684 0.38281,6.4102 1.0352,12.637 1.9805,18.664 0.19531,1.2695 -0.67187,2.457 -1.9414,2.6523 -1.2695,0.19531 -2.457,-0.67188 -2.6523,-1.9414 -0.97656,-6.2266 -1.6445,-12.594 -2.0352,-19.102 -0.39062,-6.4844 -0.50781,-13.168 -0.38672,-20.031 z m 34.207,25.328 c 0.004,-1.2852 1.0508,-2.3203 2.332,-2.3164 1.2852,0.004 2.3203,1.0508 2.3164,2.332 -0.0156,3.3867 0.0117,6.7422 0.0859,10.062 0.0742,3.2383 0.19922,6.4922 0.37891,9.7695 0.0703,1.2852 -0.91406,2.3828 -2.1953,2.4531 -1.2852,0.0703 -2.3828,-0.91406 -2.4531,-2.1953 -0.17578,-3.1992 -0.30078,-6.5156 -0.37891,-9.9336 -0.0742,-3.3359 -0.10547,-6.7266 -0.0859,-10.172 z m 36.609,26.727 c 0.0195,-1.2852 1.0781,-2.3086 2.3594,-2.2891 1.2852,0.0195 2.3086,1.0781 2.2891,2.3594 -0.0703,4.4219 0.0117,8.8672 0.23438,13.316 0.22656,4.4766 0.60156,8.9727 1.1172,13.461 0.14453,1.2773 -0.77344,2.4336 -2.0508,2.5781 -1.2773,0.14453 -2.4336,-0.77344 -2.5781,-2.0508 -0.51953,-4.5156 -0.90234,-9.1133 -1.1367,-13.773 -0.22656,-4.4961 -0.30859,-9.0391 -0.23438,-13.609 z m 43.598,31.512 c 0.0312,-1.2852 1.0938,-2.3008 2.3789,-2.2695 1.2851,0.0313 2.3008,1.0938 2.2695,2.3789 -0.26172,10.094 0.10156,19.965 1.0156,29.512 0.94531,9.9023 2.4844,19.457 4.5352,28.547 0.28125,1.2539 -0.50391,2.5 -1.7578,2.7812 -1.25389,0.2812 -2.5,-0.50391 -2.7812,-1.7578 -2.0898,-9.2695 -3.6602,-19.016 -4.625,-29.129 -0.92969,-9.7188 -1.2969,-19.777 -1.0312,-30.059 z m 38.137,27.844 c 0.0391,-1.2852 1.1133,-2.293 2.3984,-2.25 1.2852,0.0391 2.293,1.1133 2.25,2.3984 -0.46875,13.43 -0.375,26.246 0.53125,38.438 0.90234,12.141 2.6133,23.602 5.375,34.348 0.31641,1.2422 -0.43359,2.5078 -1.6758,2.8242 -1.2422,0.31641 -2.5078,-0.43359 -2.8242,-1.6758 -2.8477,-11.074 -4.6016,-22.797 -5.5234,-35.148 -0.91406,-12.301 -1.0078,-25.289 -0.53125,-38.93 z m 111.49,210.98 c 2.2656,13.367 10.609,27.035 22.004,37.48 10.957,10.043 24.672,17.031 38.418,17.805 15.836,0.89062 30.117,-0.0742 43.516,-2.4766 13.398,-2.4023 25.984,-6.2656 38.406,-11.164 1.918,-0.75 4.0781,0.19922 4.8281,2.1133 0.75,1.918 -0.19922,4.0781 -2.1133,4.8281 -12.793,5.0469 -25.828,9.0352 -39.809,11.543 -13.981,2.5078 -28.828,3.5156 -45.234,2.5938 -15.543,-0.875 -30.883,-8.6289 -43.027,-19.762 -6.6953,-6.1367 -12.445,-13.324 -16.738,-20.973 -0.43359,4.3164 -1.168,8.7148 -2.2773,13.141 -0.0547,0.21094 -0.125,0.42188 -0.21875,0.62891 -0.84375,1.875 -3.0508,2.7109 -4.9297,1.8672 -1.7969,-0.81641 -3.5547,-1.6445 -5.2773,-2.4883 1.2148,1.4766 2.4258,2.9922 3.6289,4.5508 1.2578,1.625 0.95703,3.9648 -0.67188,5.2227 -0.18359,0.14062 -0.37109,0.26172 -0.57031,0.36328 -1.8477,0.95312 -3.7109,1.8203 -5.5781,2.6133 4.4531,0.91016 8.2695,2.0195 10.328,2.9961 28.164,13.312 49.91,21.344 73.133,23.125 23.258,1.7812 48.254,-2.6641 82.965,-14.301 1.9492,-0.65234 4.0586,0.39844 4.7109,2.3477 0.65234,1.9492 -0.39844,4.0586 -2.3477,4.7109 -35.723,11.977 -61.594,16.539 -85.879,14.68 -24.32,-1.8633 -46.793,-10.133 -75.758,-23.824 -2.5469,-1.2031 -8.7422,-2.7148 -15.277,-3.543 -4.3516,-0.55469 -8.7695,-0.78516 -12.207,-0.39453 -0.54688,0.0898 -1.0898,0.17187 -1.6289,0.25 -0.10156,0.0195 -0.20312,0.0352 -0.30469,0.043 -0.91406,0.12891 -1.8242,0.24219 -2.7227,0.34375 -13.523,1.5039 -25.34,-0.13672 -31.672,-2.2109 -14.914,-4.8867 -25.43,-12.078 -36.293,-19.504 -15.156,-10.363 -31.016,-21.207 -60.824,-26.191 -2.0312,-0.33984 -3.4023,-2.2578 -3.0625,-4.2891 0.24609,-1.4844 1.3398,-2.6133 2.6992,-2.9844 v -0.004 c 9.6406,-2.625 18.996,-4.832 28.09,-6.5 -3.1797,-0.82812 -6.4883,-1.8398 -9.9805,-3.0938 -19.227,-6.8867 -29.398,-21.73 -40.312,-37.66 l -0.92188,-1.3438 c -8.5273,-12.43 -17.73,-15.883 -30.051,-20.508 -3.7695,-1.4141 -7.8125,-2.9336 -12.043,-4.7461 -1.8945,-0.80469 -2.7734,-2.9922 -1.9688,-4.8867 0.67578,-1.5859 2.3242,-2.4648 3.9531,-2.2305 9.668,0.90625 16.355,1.0312 21.57,1.1289 2.3125,0.043 4.3555,0.082 6.2461,0.17188 -6.1055,-7.2188 -13.727,-15.191 -22.801,-22.969 -9.4102,-8.0625 -20.387,-15.91 -32.871,-22.473 -1.8203,-0.95703 -2.5195,-3.2109 -1.5586,-5.0312 0.71875,-1.3672 2.1719,-2.1016 3.6211,-1.9766 6.1875,0.32422 12.238,0.75781 18.145,1.3203 -1.4492,-1.168 -2.832,-2.4023 -4.168,-3.6914 -5.6641,-5.4727 -10.34,-11.906 -15.352,-19.211 -7.5742,-11.043 -15.777,-14.121 -26.754,-18.242 -3.3906,-1.2734 -7.0234,-2.6367 -10.812,-4.2617 -1.8945,-0.80469 -2.7734,-2.9922 -1.9688,-4.8867 0.67578,-1.5859 2.3242,-2.4648 3.9531,-2.2305 8.6445,0.8125 14.625,0.92188 19.289,1.0078 1.7227,0.0312 3.2773,0.0625 4.7266,0.11719 -5.3633,-6.2773 -11.988,-13.16 -19.824,-19.875 -8.4141,-7.2109 -18.234,-14.23 -29.398,-20.098 -1.8203,-0.95703 -2.5195,-3.2109 -1.5586,-5.0312 0.71875,-1.3672 2.1719,-2.1016 3.6211,-1.9766 5.082,0.26953 10.062,0.61719 14.934,1.0586 -18.137,-15.465 -26.375,-44.117 -34.414,-72.094 -1.0195,-3.5508 -1.8047,-6.2891 -2.0234,-7.0508 -0.46094,-1.3867 -0.0742,-2.9727 1.0977,-3.9883 1.5547,-1.3438 3.9062,-1.1758 5.25,0.37891 8.2539,9.5117 17.336,17.461 26.293,24.012 8.3203,6.0859 16.531,10.953 23.867,14.738 -0.38281,-1.3906 -0.76562,-2.8945 -1.1875,-4.5547 -1.1719,-4.6055 -2.6797,-10.512 -5.4219,-18.656 -0.53906,-1.5039 -0.0625,-3.2461 1.2852,-4.2461 1.6523,-1.2227 3.9805,-0.87891 5.207,0.77344 2.5195,3.4141 4.6445,6.5898 6.6289,9.5508 6.5312,9.7539 11.41,17.039 23.887,21.883 5.4492,2.1172 10.492,4.1758 15.168,6.5391 2.9648,1.5 5.793,3.125 8.4922,4.9688 0.17969,-3.9062 0.44141,-7.8672 0.78125,-11.875 h 0.008 c 0.11719,-1.4062 1.0312,-2.6836 2.4414,-3.1953 1.9336,-0.69922 4.0664,0.29688 4.7695,2.2305 4.5938,12.691 9.9805,24.023 15.656,33.723 4.2266,7.2148 8.6094,13.52 12.941,18.793 0.18359,-4.2344 0.46484,-8.5352 0.83594,-12.914 h 0.008 c 0.11719,-1.4062 1.0312,-2.6836 2.4414,-3.1953 1.9336,-0.69922 4.0664,0.29687 4.7695,2.2305 9.9336,27.438 23,40.605 35.48,53.191 4.4805,4.5156 8.8906,8.9609 13.098,13.961 0.0391,-1.6055 0.0859,-3.2148 0.14453,-4.8359 -0.0391,-1.4961 0.83203,-2.9336 2.2969,-3.543 1.9023,-0.78906 4.082,0.11328 4.8711,2.0117 6.0195,14.367 12.887,27.156 20.012,38.059 5.6289,8.6094 11.387,16.008 16.992,22.055 -0.0117,-5.2734 0.0859,-10.648 0.27344,-16.125 -0.0391,-1.4961 0.83203,-2.9336 2.2969,-3.543 1.9023,-0.78906 4.082,0.11328 4.8711,2.0117 13.055,31.164 28.906,45.645 44.055,59.484 10.812,9.8789 21.281,19.438 30.359,34.332 3.8516,6.3164 8.625,18.672 10.438,33.668 l 0.0234,0.19922 z m -38.953,46.59 c 0.625,-0.12109 1.2812,-0.21875 1.9648,-0.29688 6.3008,-1.0312 12.902,-2.8242 19.395,-5.6797 -20.008,-24.578 -41.711,-37.273 -65.648,-41.91 -21.098,-4.0859 -44.086,-1.9688 -69.25,3.7734 21.691,5.9258 35.137,15.113 48.086,23.969 10.418,7.1211 20.504,14.02 34.398,18.57 5.5938,1.832 16.191,3.2617 28.551,1.8906 0.82812,-0.0937 1.6602,-0.19531 2.5,-0.3125 z m -240.75,-309.23 c -9.3125,-4.2734 -20.785,-10.516 -32.488,-19.078 -5.6562,-4.1367 -11.371,-8.8203 -16.926,-14.09 9.2031,31.602 19.734,62.355 45.418,69.371 6.418,1.0586 12.617,2.3516 18.586,3.9297 2.3125,0.60938 4.5938,1.2656 6.8398,1.9609 -0.79297,-5.1914 -1.8516,-10.344 -3.3984,-15.117 -2.0234,-6.2383 -4.8906,-11.895 -9.1133,-16.211 -4.3008,-4.3945 -7.0195,-7.6797 -8.918,-10.766 z m -5.2734,43.543 c -0.11328,-0.0117 -0.23047,-0.0312 -0.34766,-0.0586 -5.9492,-0.97266 -12.105,-1.7344 -18.453,-2.3281 6.1797,4.0938 11.863,8.457 17.035,12.891 11.004,9.4297 19.707,19.168 26.004,27.258 3.4414,1.1367 7.2578,3.0273 12.516,6.2031 4.8281,2.918 8.8867,4.7031 12.781,5.8867 3.9492,1.2031 7.8438,1.8281 12.219,2.3945 3.125,0.40625 5.9766,0.68359 8.6055,0.94141 1.4531,0.14062 2.8398,0.27734 4.1875,0.42578 -4.8945,-7.75 -8.7656,-16 -11.734,-24.723 -0.57813,-1.7031 -1.125,-3.4258 -1.6367,-5.1641 -0.5625,-0.0977 -1.1094,-0.32422 -1.5977,-0.6875 -12.066,-9.0039 -25.992,-15.125 -41.605,-19.246 -5.7617,-1.5234 -11.758,-2.7734 -17.973,-3.7969 z m 54.844,-28.547 c -3.5078,-2.9023 -7.3633,-5.2734 -11.574,-7.4023 -4.4492,-2.25 -9.2734,-4.2188 -14.496,-6.2461 -10.277,-3.9922 -16.023,-9.1719 -21.047,-15.652 2.0078,7.6836 3.5156,11.41 11.773,19.848 5.1289,5.2383 8.5391,11.898 10.895,19.156 2.0977,6.4648 3.3477,13.352 4.2305,20.098 8.5234,3.1875 16.504,7.1211 23.902,11.957 -2.7695,-13.078 -3.8711,-27.031 -3.6836,-41.762 z m 7.5938,125.74 c -0.16797,-0.0156 -0.33984,-0.0391 -0.50781,-0.0781 -6.6211,-1.0312 -13.465,-1.8398 -20.52,-2.46879 7.4375,4.8242 14.242,10.016 20.402,15.28899 12.301,10.539 22.016,21.426 29.031,30.457 3.8477,1.2578 8.1055,3.3555 13.992,6.91411 5.4141,3.27339 9.9766,5.2812 14.355,6.60939 4.4375,1.3477 8.8008,2.0508 13.699,2.6875 3.5,0.45313 6.6797,0.76563 9.6133,1.05471 7.8008,0.76562 13.914,1.3672 21.086,3.9961 -13.461,-24.422 -31.41,-40.344 -53.32,-50.633 -14.273,-6.7031 -30.273,-11.055 -47.836,-13.824 z m 17.973,-35.176 c -3.3828,-0.69141 -6.8086,-1.0273 -10.75,-1.4141 -2.6445,-0.25781 -5.5117,-0.53906 -8.8398,-0.97266 -4.7383,-0.61328 -8.9883,-1.3008 -13.441,-2.6562 -4.5156,-1.3711 -9.125,-3.3867 -14.473,-6.6172 -10.16,-6.1406 -14.121,-6.75 -22.059,-6.9453 7.4766,3.4102 13.848,7.8164 20.09,16.918 4.7734,6.957 9.1953,13.055 14.359,18.047 4.9883,4.8203 10.773,8.6992 18.441,11.488 18.156,2.8789 34.766,7.4102 49.68,14.418 2.6445,1.2422 5.2344,2.5625 7.7695,3.9609 -5.2734,-6.6094 -9.75,-13.461 -13.5,-20.582 -11.031,-7.6602 -20.035,-16.234 -27.281,-25.648 z m 11.043,-49.043 c -6.332,-6.5977 -12.898,-15.363 -19.098,-25.957 -3.4688,-5.9258 -6.8281,-12.422 -9.9688,-19.43 -0.60938,21.52 1.4805,41.273 7.4844,58.914 6.0312,17.73 16.055,33.395 31.309,46.68 -6.9336,-18.344 -9.7891,-38.293 -9.7266,-60.211 z m 56.762,54.242 c -0.16797,-0.16016 -0.32422,-0.33984 -0.46484,-0.53906 -5.4258,-7.6133 -11.531,-13.77 -17.781,-20.066 -10.578,-10.664 -21.555,-21.73 -30.922,-40.973 -0.78516,24.609 1.8945,46.602 9.6914,66.43 8.7031,22.145 23.852,41.738 47.758,59.469 -5.9219,-19.324 -8.1914,-40.805 -8.2812,-64.32 z m 12.141,75.301 c -0.0547,0 -0.10547,0.004 -0.16016,0 0.11719,0.16016 0.23438,0.31641 0.35156,0.47656 -0.0625,-0.16016 -0.12891,-0.32031 -0.19141,-0.48047 z m 30.938,44.812 c -26.035,-19.961 -34.266,-20.77 -49.488,-22.262 -2.9453,-0.28906 -6.1445,-0.60156 -9.8477,-1.082 -5.2656,-0.68359 -9.9844,-1.4453 -14.926,-2.9492 -5,-1.5195 -10.113,-3.7539 -16.047,-7.3398 -12.309,-7.4414 -16.527,-7.6562 -26.973,-7.8516 9.1406,3.9141 16.758,8.7422 24.199,19.59 l 0.92188,1.3438 c 10.199,14.887 19.703,28.754 36.668,34.828 7.7188,2.7656 14.418,4.293 20.805,5.1914 6.4336,0.90234 12.602,1.1914 19.164,1.4531 9.4102,-0.16406 18.523,0.52344 27.367,2.2344 6.8047,1.3164 13.434,3.2383 19.898,5.8281 -3.1992,-3.9609 -6.0938,-8.0703 -8.7109,-12.328 -0.48828,-0.0703 -0.97266,-0.23828 -1.4219,-0.51562 -8.1133,-4.9883 -15.285,-10.371 -21.605,-16.141 z m 1.5508,-67.512 c -7.6719,-7.2383 -15.711,-16.938 -23.418,-28.723 -4.7539,-7.2734 -9.4023,-15.367 -13.77,-24.191 0.082,25.84 2.8359,49.062 10.316,69.438 7.7852,21.211 20.762,39.414 41.297,54.383 -0.11328,-0.24609 -0.22656,-0.49219 -0.33594,-0.73828 -9.2578,-20.613 -13.227,-44.059 -14.09,-70.168 z"
       id="path73" />
    <use
       x="70"
       y="560.14062"
       xlink:href="#w"
       id="use75"
       width="100%"
       height="100%" />
    <use
       x="70.035156"
       y="560.14062"
       xlink:href="#e"
       id="use77"
       width="100%"
       height="100%" />
    <use
       x="70.058594"
       y="560.14062"
       xlink:href="#b"
       id="use79"
       width="100%"
       height="100%" />
    <use
       x="70.089844"
       y="560.14062"
       xlink:href="#a"
       id="use81"
       width="100%"
       height="100%" />
    <use
       x="70.121094"
       y="560.14062"
       xlink:href="#d"
       id="use83"
       width="100%"
       height="100%" />
    <use
       x="70.144531"
       y="560.14062"
       xlink:href="#b"
       id="use85"
       width="100%"
       height="100%" />
    <use
       x="70.175781"
       y="560.14062"
       xlink:href="#l"
       id="use87"
       width="100%"
       height="100%" />
    <use
       x="70.222656"
       y="560.14062"
       xlink:href="#k"
       id="use89"
       width="100%"
       height="100%" />
    <use
       x="70.257812"
       y="560.14062"
       xlink:href="#j"
       id="use91"
       width="100%"
       height="100%" />
    <use
       x="70.304688"
       y="560.14062"
       xlink:href="#i"
       id="use93"
       width="100%"
       height="100%" />
    <use
       x="70.34375"
       y="560.14062"
       xlink:href="#v"
       id="use95"
       width="100%"
       height="100%" />
    <use
       x="70.359375"
       y="560.14062"
       xlink:href="#b"
       id="use97"
       width="100%"
       height="100%" />
    <use
       x="70.390625"
       y="560.14062"
       xlink:href="#f"
       id="use99"
       width="100%"
       height="100%" />
    <use
       x="70.425781"
       y="560.14062"
       xlink:href="#a"
       id="use101"
       width="100%"
       height="100%" />
    <use
       x="70.472656"
       y="560.14062"
       xlink:href="#h"
       id="use103"
       width="100%"
       height="100%" />
    <use
       x="70.507812"
       y="560.14062"
       xlink:href="#a"
       id="use105"
       width="100%"
       height="100%" />
    <use
       x="70.539062"
       y="560.14062"
       xlink:href="#f"
       id="use107"
       width="100%"
       height="100%" />
    <use
       x="70.570312"
       y="560.14062"
       xlink:href="#a"
       id="use109"
       width="100%"
       height="100%" />
    <use
       x="70.601562"
       y="560.14062"
       xlink:href="#g"
       id="use111"
       width="100%"
       height="100%" />
    <use
       x="70.628906"
       y="560.14062"
       xlink:href="#c"
       id="use113"
       width="100%"
       height="100%" />
    <use
       x="70.664062"
       y="560.14062"
       xlink:href="#u"
       id="use115"
       width="100%"
       height="100%" />
    <use
       x="70.691406"
       y="560.14062"
       xlink:href="#g"
       id="use117"
       width="100%"
       height="100%" />
    <use
       x="70.722656"
       y="560.14062"
       xlink:href="#t"
       id="use119"
       width="100%"
       height="100%" />
    <use
       x="70.75"
       y="560.14062"
       xlink:href="#a"
       id="use121"
       width="100%"
       height="100%" />
    <use
       x="70"
       y="560.1875"
       xlink:href="#s"
       id="use123"
       width="100%"
       height="100%" />
    <use
       x="70.019531"
       y="560.1875"
       xlink:href="#e"
       id="use125"
       width="100%"
       height="100%" />
    <use
       x="70.042969"
       y="560.1875"
       xlink:href="#c"
       id="use127"
       width="100%"
       height="100%" />
    <use
       x="70.074219"
       y="560.1875"
       xlink:href="#r"
       id="use129"
       width="100%"
       height="100%" />
    <use
       x="70.140625"
       y="560.1875"
       xlink:href="#d"
       id="use131"
       width="100%"
       height="100%" />
    <use
       x="70.164062"
       y="560.1875"
       xlink:href="#q"
       id="use133"
       width="100%"
       height="100%" />
    <use
       x="70.195312"
       y="560.1875"
       xlink:href="#b"
       id="use135"
       width="100%"
       height="100%" />
    <use
       x="70.242188"
       y="560.1875"
       xlink:href="#p"
       id="use137"
       width="100%"
       height="100%" />
    <use
       x="70.28125"
       y="560.1875"
       xlink:href="#c"
       id="use139"
       width="100%"
       height="100%" />
    <use
       x="70.316406"
       y="560.1875"
       xlink:href="#o"
       id="use141"
       width="100%"
       height="100%" />
    <use
       x="70.347656"
       y="560.1875"
       xlink:href="#f"
       id="use143"
       width="100%"
       height="100%" />
    <use
       x="70.398438"
       y="560.1875"
       xlink:href="#h"
       id="use145"
       width="100%"
       height="100%" />
    <use
       x="70.433594"
       y="560.1875"
       xlink:href="#e"
       id="use147"
       width="100%"
       height="100%" />
    <use
       x="70.453125"
       y="560.1875"
       xlink:href="#c"
       id="use149"
       width="100%"
       height="100%" />
    <use
       x="70.488281"
       y="560.1875"
       xlink:href="#n"
       id="use151"
       width="100%"
       height="100%" />
    <use
       x="70.503906"
       y="560.1875"
       xlink:href="#b"
       id="use153"
       width="100%"
       height="100%" />
    <use
       x="70.535156"
       y="560.1875"
       xlink:href="#m"
       id="use155"
       width="100%"
       height="100%" />
    <use
       x="70.5625"
       y="560.1875"
       xlink:href="#d"
       id="use157"
       width="100%"
       height="100%" />
  </g>
</svg>
