<?xml version="1.0" encoding="UTF-8" standalone="no"?>
<svg
   width="485.61166pt"
   height="485.61948pt"
   version="1.1"
   viewBox="0 0 485.61166 485.61948"
   id="svg124"
   sodipodi:docname="turnip.svg"
   inkscape:version="1.1.1 (3bf5ae0d25, 2021-09-20)"
   xmlns:inkscape="http://www.inkscape.org/namespaces/inkscape"
   xmlns:sodipodi="http://sodipodi.sourceforge.net/DTD/sodipodi-0.dtd"
   xmlns="http://www.w3.org/2000/svg"
   xmlns:svg="http://www.w3.org/2000/svg">
  <sodipodi:namedview
     id="namedview126"
     pagecolor="#ffffff"
     bordercolor="#666666"
     borderopacity="1.0"
     inkscape:pageshadow="2"
     inkscape:pageopacity="0.0"
     inkscape:pagecheckerboard="0"
     inkscape:document-units="pt"
     showgrid="false"
     inkscape:zoom="0.91928571"
     inkscape:cx="323.62082"
     inkscape:cy="589.04429"
     inkscape:window-width="1920"
     inkscape:window-height="1017"
     inkscape:window-x="1912"
     inkscape:window-y="-8"
     inkscape:window-maximized="1"
     inkscape:current-layer="svg124" />
  <defs
     id="defs50">
    <symbol
       id="p"
       overflow="visible">
      <path
         d="m 29.312,-1.75 c -1.5117,0.78125 -3.0898,1.3711 -4.7344,1.7656 -1.6367,0.40625 -3.3398,0.60938 -5.1094,0.60938 -5.3125,0 -9.5273,-1.4844 -12.641,-4.4531 -3.1055,-2.9688 -4.6562,-7 -4.6562,-12.094 0,-5.094 1.5508,-9.125 4.6562,-12.094 3.1133,-2.9688 7.3281,-4.4531 12.641,-4.4531 1.7695,0 3.4727,0.19922 5.1094,0.59375 1.6445,0.39844 3.2227,0.99219 4.7344,1.7812 v 6.5938 c -1.5312,-1.0391 -3.0391,-1.8008 -4.5156,-2.2812 -1.4805,-0.48828 -3.0391,-0.73438 -4.6719,-0.73438 -2.9375,0 -5.2461,0.94531 -6.9219,2.8281 -1.6797,1.875 -2.5156,4.4648 -2.5156,7.7656 0,3.293 0.83594,5.8828 2.5156,7.7656 1.6758,1.875 3.9844,2.8125 6.9219,2.8125 1.6328,0 3.1914,-0.23828 4.6719,-0.71875 1.4766,-0.48828 2.9844,-1.2539 4.5156,-2.2969 z"
         id="path2" />
    </symbol>
    <symbol
       id="h"
       overflow="visible">
      <path
         d="m 21.453,-17.406 c -0.67969,-0.3125 -1.3516,-0.53906 -2.0156,-0.6875 -0.65625,-0.15625 -1.3203,-0.23438 -1.9844,-0.23438 -1.9688,0 -3.4844,0.63281 -4.5469,1.8906 -1.0547,1.2617 -1.5781,3.0703 -1.5781,5.4219 V 6.2e-4 H 3.6718 v -23.922 h 7.6562 v 3.9219 c 0.97656,-1.5625 2.1016,-2.7031 3.375,-3.4219 1.2812,-0.71875 2.8125,-1.0781 4.5938,-1.0781 0.25,0 0.52344,0.01172 0.82812,0.03125 0.30078,0.02344 0.73438,0.07031 1.2969,0.14062 z"
         id="path5" />
    </symbol>
    <symbol
       id="b"
       overflow="visible">
      <path
         d="m 27.562,-12.031 v 2.1875 H 9.671 c 0.1875,1.793 0.83203,3.1367 1.9375,4.0312 1.1133,0.89844 2.6719,1.3438 4.6719,1.3438 1.6016,0 3.25,-0.23438 4.9375,-0.70312 1.6875,-0.47656 3.4219,-1.2031 5.2031,-2.1719 v 5.8906 c -1.8047,0.6875 -3.6094,1.2031 -5.4219,1.5469 -1.8125,0.35156 -3.6211,0.53125 -5.4219,0.53125 -4.3359,0 -7.7031,-1.0977 -10.109,-3.2969 -2.3984,-2.207 -3.5938,-5.2969 -3.5938,-9.2656 0,-3.9062 1.1758,-6.9727 3.5312,-9.2031 2.3633,-2.2383 5.6094,-3.3594 9.7344,-3.3594 3.7578,0 6.7695,1.1367 9.0312,3.4062 2.2578,2.2617 3.3906,5.2812 3.3906,9.0625 z m -7.8594,-2.5312 c 0,-1.457 -0.42969,-2.6289 -1.2812,-3.5156 -0.84375,-0.89453 -1.9492,-1.3438 -3.3125,-1.3438 -1.4922,0 -2.6992,0.41797 -3.625,1.25 -0.91797,0.83594 -1.4922,2.0391 -1.7188,3.6094 z"
         id="path8" />
    </symbol>
    <symbol
       id="a"
       overflow="visible">
      <path
         d="m 14.391,-10.766 c -1.5938,0 -2.793,0.27344 -3.5938,0.8125 -0.80469,0.54297 -1.2031,1.3398 -1.2031,2.3906 0,0.96875 0.32031,1.7305 0.96875,2.2812 0.64453,0.54297 1.5469,0.8125 2.7031,0.8125 1.4375,0 2.6445,-0.51562 3.625,-1.5469 0.98828,-1.0312 1.4844,-2.3203 1.4844,-3.875 v -0.875 z m 11.688,-2.8906 V -6e-4 h -7.7031 v -3.5469 c -1.0312,1.4492 -2.1875,2.5078 -3.4688,3.1719 -1.2813,0.6641 -2.8398,1 -4.6719,1 -2.4805,0 -4.4961,-0.72266 -6.0469,-2.1719 -1.543,-1.4453 -2.3125,-3.3203 -2.3125,-5.625 0,-2.8125 0.96094,-4.8672 2.8906,-6.1719 1.9375,-1.3125 4.9688,-1.9688 9.0938,-1.9688 h 4.5156 v -0.60938 c 0,-1.207 -0.48047,-2.0938 -1.4375,-2.6562 -0.94922,-0.5625 -2.4375,-0.84375 -4.4688,-0.84375 -1.6367,0 -3.1562,0.16797 -4.5625,0.5 -1.4062,0.32422 -2.7188,0.8125 -3.9375,1.4688 v -5.8281 c 1.6445,-0.40625 3.2891,-0.70703 4.9375,-0.90625 1.6562,-0.20703 3.3047,-0.3125 4.9531,-0.3125 4.3203,0 7.4375,0.85547 9.3438,2.5625 1.9141,1.6992 2.875,4.4609 2.875,8.2812 z"
         id="path11" />
    </symbol>
    <symbol
       id="c"
       overflow="visible">
      <path
         d="m 12.031,-30.719 v 6.7969 h 7.875 v 5.4688 h -7.875 v 10.141 c 0,1.1172 0.21875,1.8711 0.65625,2.2656 0.4375,0.38672 1.3125,0.57812 2.625,0.57812 h 3.9375 v 5.4688 h -6.5625 c -3.0234,0 -5.1641,-0.62891 -6.4219,-1.8906 -1.2617,-1.2578 -1.8906,-3.3984 -1.8906,-6.4219 v -10.141 h -3.7969 v -5.4688 h 3.7969 v -6.7969 z"
         id="path14" />
    </symbol>
    <symbol
       id="g"
       overflow="visible">
      <path
         d="m 19.953,-20.422 v -12.812 h 7.6875 V 0 H 19.953 v -3.4531 c -1.0547,1.4062 -2.2148,2.4375 -3.4844,3.0938 -1.2734,0.65625 -2.7422,0.98438 -4.4062,0.98438 -2.9492,0 -5.3711,-1.1719 -7.2656,-3.5156 -1.8867,-2.3438 -2.8281,-5.3594 -2.8281,-9.0469 0,-3.6875 0.94141,-6.7031 2.8281,-9.0469 1.8945,-2.3438 4.3164,-3.5156 7.2656,-3.5156 1.6562,0 3.1172,0.33594 4.3906,1 1.2812,0.65625 2.4453,1.6836 3.5,3.0781 z m -5.0469,15.484 c 1.6445,0 2.8945,-0.59766 3.75,-1.7969 0.86328,-1.1953 1.2969,-2.9297 1.2969,-5.2031 0,-2.2812 -0.43359,-4.0195 -1.2969,-5.2188 -0.85547,-1.1953 -2.1055,-1.7969 -3.75,-1.7969 -1.625,0 -2.8711,0.60156 -3.7344,1.7969 -0.85547,1.1992 -1.2812,2.9375 -1.2812,5.2188 0,2.2734 0.42578,4.0078 1.2812,5.2031 0.86328,1.1992 2.1094,1.7969 3.7344,1.7969 z"
         id="path17" />
    </symbol>
    <symbol
       id="f"
       overflow="visible">
      <path
         d="m 16.406,-4.9375 c 1.6328,0 2.8828,-0.59766 3.75,-1.7969 0.86328,-1.1953 1.2969,-2.9297 1.2969,-5.2031 0,-2.2812 -0.43359,-4.0195 -1.2969,-5.2188 -0.86719,-1.1953 -2.1172,-1.7969 -3.75,-1.7969 -1.6367,0 -2.8906,0.60547 -3.7656,1.8125 -0.875,1.1992 -1.3125,2.9336 -1.3125,5.2031 0,2.2617 0.4375,3.9961 1.3125,5.2031 0.875,1.1992 2.1289,1.7969 3.7656,1.7969 z m -5.0781,-15.484 c 1.0508,-1.3945 2.2188,-2.4219 3.5,-3.0781 1.2812,-0.66406 2.7539,-1 4.4219,-1 2.9453,0 5.3672,1.1719 7.2656,3.5156 1.8945,2.3438 2.8438,5.3594 2.8438,9.0469 0,3.6875 -0.94922,6.7031 -2.8438,9.0469 -1.8984,2.3438 -4.3203,3.5156 -7.2656,3.5156 -1.668,0 -3.1406,-0.33594 -4.4219,-1 -1.2813,-0.66406 -2.4492,-1.6914 -3.5,-3.0781 V 4e-4 H 3.6717 v -33.234 h 7.6562 z"
         id="path20" />
    </symbol>
    <symbol
       id="e"
       overflow="visible">
      <path
         d="m 0.53125,-23.922 h 7.6562 l 6.4219,16.234 5.4688,-16.234 h 7.6562 l -10.062,26.188 c -1.0117,2.6641 -2.1953,4.5234 -3.5469,5.5781 -1.3438,1.0625 -3.1211,1.5938 -5.3281,1.5938 H 4.37545 V 4.4223 h 2.3906 c 1.3008,0 2.2422,-0.21094 2.8281,-0.625 0.59375,-0.40625 1.0547,-1.1484 1.3906,-2.2188 l 0.20312,-0.65625 z"
         id="path23" />
    </symbol>
    <symbol
       id="d"
       overflow="visible">
      <path
         d="m 15.703,-17.75 c 1.7188,0 2.9531,-0.31641 3.7031,-0.95312 0.75,-0.64453 1.125,-1.7031 1.125,-3.1719 0,-1.4453 -0.375,-2.4844 -1.125,-3.1094 -0.75,-0.63281 -1.9844,-0.95312 -3.7031,-0.95312 h -3.4688 v 8.1875 z m -3.4688,5.6875 V -5e-4 H 4.0154 v -31.891 h 12.562 c 4.1953,0 7.2734,0.70312 9.2344,2.1094 1.957,1.4062 2.9375,3.6367 2.9375,6.6875 0,2.1055 -0.51172,3.8359 -1.5312,5.1875 -1.0117,1.3555 -2.543,2.3555 -4.5938,3 1.125,0.25 2.1289,0.82812 3.0156,1.7344 0.89453,0.90625 1.7969,2.2773 2.7031,4.1094 l 4.4688,9.0625 h -8.7656 l -3.875,-7.9219 c -0.79297,-1.5938 -1.5898,-2.6797 -2.3906,-3.2656 -0.80469,-0.58203 -1.875,-0.875 -3.2188,-0.875 z"
         id="path26" />
    </symbol>
    <symbol
       id="o"
       overflow="visible">
      <path
         d="M 27.734,-14.562 V 0 h -7.7031 v -11.156 c 0,-2.0625 -0.04687,-3.4844 -0.14062,-4.2656 -0.08594,-0.78125 -0.24219,-1.3594 -0.46875,-1.7344 -0.30469,-0.5 -0.71094,-0.88281 -1.2188,-1.1562 -0.51172,-0.28125 -1.0938,-0.42188 -1.75,-0.42188 -1.5938,0 -2.8516,0.61719 -3.7656,1.8438 -0.90625,1.2305 -1.3594,2.9375 -1.3594,5.125 v 11.766 h -7.6562 v -23.922 h 7.6562 v 3.5 c 1.1445,-1.3945 2.3633,-2.4219 3.6562,-3.0781 1.3008,-0.66406 2.7383,-1 4.3125,-1 2.7578,0 4.8516,0.85156 6.2812,2.5469 1.4375,1.6875 2.1562,4.1523 2.1562,7.3906 z"
         id="path29" />
    </symbol>
    <symbol
       id="n"
       overflow="visible">
      <path
         d="M 27.734,-14.562 V 0 h -7.7031 v -11.109 c 0,-2.0938 -0.04687,-3.5312 -0.14062,-4.3125 -0.08594,-0.78125 -0.24219,-1.3594 -0.46875,-1.7344 -0.30469,-0.5 -0.71094,-0.88281 -1.2188,-1.1562 -0.51172,-0.28125 -1.0938,-0.42188 -1.75,-0.42188 -1.5938,0 -2.8516,0.61719 -3.7656,1.8438 -0.90625,1.2305 -1.3594,2.9375 -1.3594,5.125 v 11.766 h -7.6562 v -33.234 h 7.6562 v 12.812 c 1.1445,-1.3945 2.3633,-2.4219 3.6562,-3.0781 1.3008,-0.66406 2.7383,-1 4.3125,-1 2.7578,0 4.8516,0.85156 6.2812,2.5469 1.4375,1.6875 2.1562,4.1523 2.1562,7.3906 z"
         id="path32" />
    </symbol>
    <symbol
       id="m"
       overflow="visible">
      <path
         d="m 4.0156,-31.891 h 13.656 c 4.0508,0 7.1602,0.90234 9.3281,2.7031 2.1758,1.8047 3.2656,4.3711 3.2656,7.7031 0,3.3438 -1.0898,5.918 -3.2656,7.7188 -2.168,1.8047 -5.2773,2.7031 -9.3281,2.7031 H 12.2341 V -9e-4 H 4.0153 Z m 8.2188,5.9531 v 8.9062 h 4.5625 c 1.5938,0 2.8203,-0.38281 3.6875,-1.1562 0.875,-0.78125 1.3125,-1.8789 1.3125,-3.2969 0,-1.4258 -0.4375,-2.5234 -1.3125,-3.2969 -0.86719,-0.76953 -2.0938,-1.1562 -3.6875,-1.1562 z"
         id="path35" />
    </symbol>
    <symbol
       id="l"
       overflow="visible">
      <path
         d="m 3.6719,-23.922 h 7.6562 V 0 H 3.6719 Z m 0,-9.3125 h 7.6562 v 6.2344 H 3.6719 Z"
         id="path38" />
    </symbol>
    <symbol
       id="k"
       overflow="visible">
      <path
         d="m 9.7188,-12.234 -8.625,-11.688 h 8.0938 l 4.8906,7.0938 4.9531,-7.0938 h 8.0938 L 18.5001,-12.281 27.5626,0 H 19.4688 L 14.0782,-7.5625 8.7657,0 H 0.6563 Z"
         id="path41" />
    </symbol>
    <symbol
       id="j"
       overflow="visible">
      <path
         d="m 3.6719,-33.234 h 7.6562 V 0 H 3.6719 Z"
         id="path44" />
    </symbol>
    <symbol
       id="i"
       overflow="visible">
      <path
         d="m 26.219,-30.891 v 6.75 c -1.7617,-0.78125 -3.4766,-1.3672 -5.1406,-1.7656 -1.668,-0.40625 -3.2422,-0.60938 -4.7188,-0.60938 -1.9609,0 -3.4141,0.27344 -4.3594,0.8125 -0.9375,0.54297 -1.4062,1.3867 -1.4062,2.5312 0,0.85547 0.31641,1.5234 0.95312,2 0.63281,0.46875 1.7852,0.875 3.4531,1.2188 l 3.5,0.70312 c 3.5391,0.71875 6.0625,1.8047 7.5625,3.25 1.5,1.4492 2.25,3.5117 2.25,6.1875 0,3.5234 -1.0469,6.1406 -3.1406,7.8594 -2.0859,1.7188 -5.2734,2.5781 -9.5625,2.5781 -2.0234,0 -4.0547,-0.19531 -6.0938,-0.57812 -2.0312,-0.38281 -4.0625,-0.95703 -6.0938,-1.7188 v -6.9375 c 2.0312,1.0859 3.9922,1.9023 5.8906,2.4531 1.9062,0.54297 3.7422,0.8125 5.5156,0.8125 1.7891,0 3.1602,-0.29688 4.1094,-0.89062 0.95703,-0.60156 1.4375,-1.457 1.4375,-2.5625 0,-1 -0.32422,-1.7695 -0.96875,-2.3125 -0.64844,-0.53906 -1.9375,-1.0234 -3.875,-1.4531 l -3.1875,-0.70312 c -3.1875,-0.6875 -5.5234,-1.7734 -7,-3.2656 -1.4688,-1.5 -2.2031,-3.5156 -2.2031,-6.0469 0,-3.1758 1.0234,-5.6172 3.0781,-7.3281 2.0508,-1.707 5,-2.5625 8.8438,-2.5625 1.75,0 3.5508,0.13281 5.4062,0.39062 1.8516,0.26172 3.7695,0.65625 5.75,1.1875 z"
         id="path47" />
    </symbol>
  </defs>
  <g
     id="g1072"
     transform="translate(-107.19732,-37.199998)">
    <path
       d="m 406.74,359.38 c 23.906,-23.906 23.902,-62.719 0,-86.621 l -49.496,-49.496 c -23.902,-23.902 -62.715,-23.906 -86.621,0 l -68.055,68.055 c -7.1133,7.1133 -11.516,23.223 -12.914,42.66 -2.875,39.949 4.2383,94.59 4.2383,94.59 0.51562,3.9336 3.6094,7.0273 7.5391,7.5391 0,0 54.641,7.1172 94.59,4.2383 19.438,-1.3984 35.547,-5.8008 42.66,-12.914 z M 394.365,347.005 326.31,415.06 c -1.6562,1.6562 -4.2734,2.7969 -7.4297,3.832 -6.4531,2.1289 -14.848,3.332 -24.113,4 -30.121,2.1719 -68.926,-1.5938 -84.336,-3.3281 -1.7344,-15.41 -5.4961,-54.215 -3.3281,-84.336 0.66797,-9.2656 1.8711,-17.66 4,-24.113 1.0352,-3.1562 2.1758,-5.7695 3.832,-7.4297 l 68.055,-68.055 c 17.074,-17.074 44.805,-17.078 61.879,-0.004 l 49.496,49.496 c 17.074,17.074 17.07,44.801 -0.004,61.879 z"
       fill-rule="evenodd"
       id="path52" />
    <path
       d="m 192.75,424.88 -15.992,0.008 c -14.496,-0.008 -26.254,11.75 -26.246,26.246 l -0.008,39.246 c 0.008,4.832 -3.918,8.7539 -8.75,8.75 h -16 c -4.6406,0 -9.0938,1.8438 -12.375,5.1211 l -3.6211,3.6328 c -3.4141,3.4141 -3.4141,8.9609 0,12.375 3.4141,3.4141 8.9609,3.4141 12.375,0 l 3.6211,-3.6328 h 16 c 14.496,0.008 26.254,-11.75 26.246,-26.246 l 0.008,-39.246 c -0.008,-4.832 3.918,-8.7539 8.75,-8.75 h 16 c 4.6406,0 9.0898,-1.8516 12.367,-5.1289 l 9.8125,-9.8125 -12.375,-12.375 z"
       fill-rule="evenodd"
       id="path54" />
    <path
       d="m 366.07,244.46 19.477,19.477 c 39.352,-22.77 131.41,-76.641 144.94,-90.172 20.484,-20.484 20.484,-53.762 0,-74.246 -20.484,-20.484 -53.762,-20.484 -74.246,0 -13.531,13.531 -67.402,105.59 -90.172,144.94 z M 518.12,111.89 c 13.66,13.66 13.66,35.836 0,49.496 -12.102,12.102 -88.711,57.082 -131.02,81.523 24.445,-42.312 69.422,-118.92 81.523,-131.02 13.66,-13.66 35.836,-13.66 49.496,0 z"
       fill-rule="evenodd"
       id="path56" />
    <path
       d="m 379.16,257.55 c 14.082,-8.1172 35.941,-20.797 58.539,-34.211 45.859,-7.8711 100.36,-12.895 111.36,-12.895 24.156,0 43.758,19.602 43.75,43.75 0.008,24.148 -19.594,43.75 -43.75,43.75 -14.492,0 -104.37,-8.7109 -150.64,-21.148 z m 7.1289,-3.3516 0.86719,-0.42187 c 5.6445,-2.5234 13.656,-4.8945 23.086,-7.1445 46.316,-11.074 125.49,-18.684 138.82,-18.684 14.492,0 26.254,11.762 26.254,26.254 0,14.492 -11.762,26.254 -26.254,26.254 -13.328,0 -92.5,-7.6094 -138.82,-18.684 -9.4336,-2.2617 -17.445,-4.6289 -23.09,-7.1562 z"
       fill-rule="evenodd"
       id="path58" />
    <path
       d="M 353.2,231.59 C 340.762,185.309 332.052,95.43 332.052,80.95 c 0,-24.156 19.602,-43.758 43.75,-43.75 24.148,-0.0078 43.75,19.594 43.75,43.75 0,11 -5.0234,65.496 -12.895,111.36 -13.414,22.594 -26.09,44.453 -34.211,58.539 z m 22.602,12.121 -0.42188,-0.86719 c -2.5234,-5.6445 -4.8906,-13.656 -7.1445,-23.086 -11.074,-46.316 -18.684,-125.49 -18.684,-138.82 0,-14.492 11.762,-26.254 26.254,-26.254 14.492,0 26.254,11.762 26.254,26.254 0,13.328 -7.6094,92.5 -18.684,138.82 -2.2539,9.4297 -4.6211,17.441 -7.1445,23.086 z"
       fill-rule="evenodd"
       id="path60" />
    <path
       d="m 403.46,59.488 c 10.691,-10.805 26.73,-15.727 42.449,-11.516 21.363,5.7227 34.785,26.344 32.094,47.695 -5.6797,2.1172 -11.008,5.4648 -15.574,10.031 -2.2539,2.2539 -5.6289,6.707 -9.8008,12.746 3.7812,-10.289 6.4023,-18.012 7.3125,-21.422 3.75,-13.996 -4.5664,-28.398 -18.562,-32.148 -12.508,-3.3516 -25.352,2.9492 -30.609,14.32 -0.36719,-7.4062 -3.0352,-14.207 -7.3086,-19.707 z"
       fill-rule="evenodd"
       id="path62" />
    <path
       d="m 550.8,219.24 c 11.371,-5.2578 17.672,-18.105 14.316,-30.613 -3.75,-13.996 -18.152,-22.312 -32.148,-18.562 -3.4102,0.91016 -11.129,3.5312 -21.422,7.3125 6.0391,-4.1719 10.492,-7.5469 12.746,-9.8008 4.5664,-4.5664 7.9141,-9.8945 10.031,-15.574 21.352,-2.6914 41.973,10.73 47.695,32.094 4.2148,15.723 -0.71094,31.758 -11.516,42.449 -5.5,-4.2734 -12.301,-6.9414 -19.707,-7.3086 z"
       fill-rule="evenodd"
       id="path64" />
    <path
       d="M 487.18,130.45 375.81,241.82 c -3.4141,3.4141 -3.4141,8.957 0,12.371 3.4141,3.4141 8.957,3.418 12.371,0 l 111.38,-111.37 c 3.4141,-3.4141 3.4141,-8.957 0,-12.371 -3.4141,-3.4141 -8.957,-3.418 -12.371,0 z"
       fill-rule="evenodd"
       id="path66" />
    <path
       d="m 233.5,347.01 24.75,24.75 c 3.4141,3.4141 8.9609,3.4141 12.375,0 3.4141,-3.4141 3.4141,-8.9609 0,-12.375 l -24.75,-24.75 c -3.4141,-3.4141 -8.9609,-3.4141 -12.375,0 -3.4141,3.4141 -3.4141,8.9609 0,12.375 z"
       fill-rule="evenodd"
       id="path68" />
    <path
       d="m 332.5,297.51 24.75,24.75 c 3.4141,3.4141 8.9609,3.4141 12.375,0 3.4141,-3.4141 3.4141,-8.9609 0,-12.375 l -24.75,-24.75 c -3.4141,-3.4141 -8.9609,-3.4141 -12.375,0 -3.4141,3.4141 -3.4141,8.9609 0,12.375 z"
       fill-rule="evenodd"
       id="path70" />
    <path
       d="m 227.32,278.95 37.125,37.125 c 3.4141,3.4141 8.9609,3.4141 12.375,0 3.4141,-3.4141 3.4141,-8.9609 0,-12.375 l -37.125,-37.125 z"
       fill-rule="evenodd"
       id="path72" />
    <path
       d="m 326.31,353.19 37.125,37.125 12.375,-12.375 -37.125,-37.125 c -3.4141,-3.4141 -8.9609,-3.4141 -12.375,0 -3.4141,3.4141 -3.4141,8.9609 0,12.375 z"
       fill-rule="evenodd"
       id="path74" />
    <path
       d="m 320.12,272.76 c -3.418,3.418 -8.9609,3.418 -12.375,0 -3.418,-3.418 -3.418,-8.957 0,-12.375 3.4141,-3.418 8.957,-3.418 12.375,0 3.4141,3.418 3.4141,8.957 0,12.375"
       fill-rule="evenodd"
       id="path76" />
    <path
       d="m 295.38,396.5 c -3.418,3.4141 -8.957,3.4141 -12.375,0 -3.418,-3.418 -3.418,-8.957 0,-12.375 3.418,-3.418 8.957,-3.418 12.375,0 3.418,3.418 3.418,8.957 0,12.375"
       fill-rule="evenodd"
       id="path78" />
  </g>
</svg>
