<?xml version="1.0" encoding="UTF-8" standalone="no"?>
<svg
   width="504.00134pt"
   height="504.00134pt"
   version="1.1"
   viewBox="0 0 504.00134 504.00134"
   id="svg153"
   sodipodi:docname="vetch.svg"
   inkscape:version="1.1.2 (0a00cf5339, 2022-02-04, custom)"
   xmlns:inkscape="http://www.inkscape.org/namespaces/inkscape"
   xmlns:sodipodi="http://sodipodi.sourceforge.net/DTD/sodipodi-0.dtd"
   xmlns="http://www.w3.org/2000/svg"
   xmlns:svg="http://www.w3.org/2000/svg">
  <sodipodi:namedview
     id="namedview155"
     pagecolor="#ffffff"
     bordercolor="#666666"
     borderopacity="1.0"
     inkscape:pageshadow="2"
     inkscape:pageopacity="0.0"
     inkscape:pagecheckerboard="0"
     inkscape:document-units="pt"
     showgrid="false"
     inkscape:zoom="0.91821429"
     inkscape:cx="166.08324"
     inkscape:cy="429.09374"
     inkscape:window-width="2560"
     inkscape:window-height="1377"
     inkscape:window-x="1912"
     inkscape:window-y="-8"
     inkscape:window-maximized="1"
     inkscape:current-layer="svg153" />
  <defs
     id="defs65">
    <symbol
       id="u"
       overflow="visible">
      <path
         d="m 18.766,-1.125 c -0.96875,0.5 -1.9805,0.875 -3.0312,1.125 -1.043,0.25781 -2.1367,0.39062 -3.2812,0.39062 -3.3984,0 -6.0898,-0.94531 -8.0781,-2.8438 -1.9922,-1.9062 -2.9844,-4.4844 -2.9844,-7.7344 0,-3.2578 0.99219,-5.8359 2.9844,-7.7344 1.9883,-1.9062 4.6797,-2.8594 8.0781,-2.8594 1.1445,0 2.2383,0.13281 3.2812,0.39062 1.0508,0.25 2.0625,0.625 3.0312,1.125 v 4.2188 c -0.98047,-0.65625 -1.9453,-1.1406 -2.8906,-1.4531 -0.94922,-0.3125 -1.9492,-0.46875 -3,-0.46875 -1.875,0 -3.3516,0.60547 -4.4219,1.8125 -1.0742,1.1992 -1.6094,2.8555 -1.6094,4.9688 0,2.1055 0.53516,3.7617 1.6094,4.9688 1.0703,1.1992 2.5469,1.7969 4.4219,1.7969 1.0508,0 2.0508,-0.14844 3,-0.45312 0.94531,-0.3125 1.9102,-0.80078 2.8906,-1.4688 z"
         id="path2" />
    </symbol>
    <symbol
       id="c"
       overflow="visible">
      <path
         d="m 13.734,-11.141 c -0.4375,-0.19531 -0.87109,-0.34375 -1.2969,-0.4375 -0.41797,-0.10156 -0.83984,-0.15625 -1.2656,-0.15625 -1.2617,0 -2.2305,0.40625 -2.9062,1.2188 -0.67969,0.80469 -1.0156,1.9531 -1.0156,3.4531 v 7.0625 H 2.3591 v -15.312 h 4.8906 v 2.5156 c 0.625,-1 1.3438,-1.7266 2.1562,-2.1875 0.82031,-0.46875 1.8008,-0.70312 2.9375,-0.70312 0.16406,0 0.34375,0.01172 0.53125,0.03125 0.19531,0.01172 0.47656,0.03906 0.84375,0.07813 z"
         id="path5" />
    </symbol>
    <symbol
       id="a"
       overflow="visible">
      <path
         d="m 17.641,-7.7031 v 1.4062 H 6.188 c 0.125,1.1484 0.53906,2.0078 1.25,2.5781 0.70703,0.57422 1.7031,0.85938 2.9844,0.85938 1.0312,0 2.082,-0.14844 3.1562,-0.45312 1.082,-0.3125 2.1914,-0.77344 3.3281,-1.3906 v 3.7656 c -1.1562,0.4375 -2.3125,0.76562 -3.4688,0.98438 -1.1562,0.22656 -2.3125,0.34375 -3.4688,0.34375 -2.7734,0 -4.9297,-0.70312 -6.4688,-2.1094 -1.5312,-1.4062 -2.2969,-3.3789 -2.2969,-5.9219 0,-2.5 0.75391,-4.4609 2.2656,-5.8906 1.5078,-1.4375 3.582,-2.1562 6.2188,-2.1562 2.4062,0 4.332,0.73047 5.7812,2.1875 1.4453,1.4492 2.1719,3.3828 2.1719,5.7969 z m -5.0312,-1.625 c 0,-0.92578 -0.27344,-1.6719 -0.8125,-2.2344 -0.54297,-0.57031 -1.25,-0.85938 -2.125,-0.85938 -0.94922,0 -1.7188,0.26562 -2.3125,0.79688 -0.5937,0.53126 -0.96484,1.2969 -1.1094,2.2969 z"
         id="path8" />
    </symbol>
    <symbol
       id="e"
       overflow="visible">
      <path
         d="m 9.2188,-6.8906 c -1.0234,0 -1.793,0.17188 -2.3125,0.51562 -0.51172,0.34375 -0.76562,0.85547 -0.76562,1.5312 0,0.625 0.20703,1.1172 0.625,1.4688 0.41406,0.34375 0.98828,0.51562 1.7188,0.51562 0.92578,0 1.7031,-0.32812 2.3281,-0.98438 0.63281,-0.66406 0.95312,-1.4922 0.95312,-2.4844 v -0.5625 z m 7.4688,-1.8438 V 0 h -4.9219 v -2.2656 c -0.65625,0.92969 -1.3984,1.6055 -2.2188,2.0312 -0.82422,0.41406 -1.8242,0.625 -3,0.625 -1.5859,0 -2.8711,-0.45703 -3.8594,-1.375 -0.99219,-0.92578 -1.4844,-2.1289 -1.4844,-3.6094 0,-1.7891 0.61328,-3.1016 1.8438,-3.9375 1.2383,-0.84375 3.1797,-1.2656 5.8281,-1.2656 h 2.8906 v -0.39062 c 0,-0.76953 -0.30859,-1.332 -0.92188,-1.6875 -0.61719,-0.36328 -1.5703,-0.54688 -2.8594,-0.54688 -1.0547,0 -2.0312,0.10547 -2.9375,0.3125 -0.89844,0.21094 -1.7305,0.52344 -2.5,0.9375 v -3.7344 c 1.0391,-0.25 2.0859,-0.44141 3.1406,-0.57812 1.0625,-0.13281 2.125,-0.20312 3.1875,-0.20312 2.7578,0 4.75,0.54688 5.9688,1.6406 1.2266,1.0859 1.8438,2.8555 1.8438,5.3125 z"
         id="path11" />
    </symbol>
    <symbol
       id="b"
       overflow="visible">
      <path
         d="m 7.7031,-19.656 v 4.3438 H 12.75 v 3.5 H 7.7031 v 6.5 c 0,0.71094 0.14062,1.1875 0.42188,1.4375 0.28126,0.25 0.83594,0.375 1.6719,0.375 h 2.5156 v 3.5 h -4.1875 c -1.9375,0 -3.3125,-0.39844 -4.125,-1.2031 -0.80469,-0.8125 -1.2031,-2.1797 -1.2031,-4.1094 v -6.5 h -2.4219 v -3.5 h 2.4219 v -4.3438 z"
         id="path14" />
    </symbol>
    <symbol
       id="k"
       overflow="visible">
      <path
         d="m 12.766,-13.078 v -8.2031 h 4.9219 V -1e-4 H 12.766 v -2.2188 c -0.66797,0.90625 -1.4062,1.5703 -2.2188,1.9844 -0.8126,0.4141 -1.7578,0.625 -2.8281,0.625 -1.8867,0 -3.4336,-0.75 -4.6406,-2.25 -1.2109,-1.5 -1.8125,-3.4258 -1.8125,-5.7812 0,-2.3633 0.60156,-4.2969 1.8125,-5.7969 1.207,-1.5 2.7539,-2.25 4.6406,-2.25 1.0625,0 2,0.21484 2.8125,0.64062 0.82031,0.42969 1.5664,1.0859 2.2344,1.9688 z m -3.2188,9.9219 c 1.0391,0 1.8359,-0.37891 2.3906,-1.1406 0.55078,-0.76953 0.82812,-1.8828 0.82812,-3.3438 0,-1.457 -0.27734,-2.5664 -0.82812,-3.3281 -0.55469,-0.76953 -1.3516,-1.1562 -2.3906,-1.1562 -1.043,0 -1.8398,0.38672 -2.3906,1.1562 -0.55469,0.76172 -0.82812,1.8711 -0.82812,3.3281 0,1.4609 0.27344,2.5742 0.82812,3.3438 0.55078,0.76172 1.3477,1.1406 2.3906,1.1406 z"
         id="path17" />
    </symbol>
    <symbol
       id="j"
       overflow="visible">
      <path
         d="m 10.5,-3.1562 c 1.0508,0 1.8516,-0.37891 2.4062,-1.1406 0.55078,-0.76953 0.82812,-1.8828 0.82812,-3.3438 0,-1.457 -0.27734,-2.5664 -0.82812,-3.3281 -0.55469,-0.76953 -1.3555,-1.1562 -2.4062,-1.1562 -1.0547,0 -1.8594,0.38672 -2.4219,1.1562 -0.55469,0.77344 -0.82812,1.8828 -0.82812,3.3281 0,1.4492 0.27344,2.5586 0.82812,3.3281 0.5625,0.77344 1.3672,1.1562 2.4219,1.1562 z m -3.25,-9.9219 c 0.67578,-0.88281 1.4219,-1.5391 2.2344,-1.9688 0.82031,-0.42578 1.7656,-0.64062 2.8281,-0.64062 1.8945,0 3.4453,0.75 4.6562,2.25 1.207,1.5 1.8125,3.4336 1.8125,5.7969 0,2.3555 -0.60547,4.2812 -1.8125,5.7812 -1.2109,1.5 -2.7617,2.25 -4.6562,2.25 -1.0625,0 -2.0078,-0.21094 -2.8281,-0.625 C 8.6719,-0.6602 7.9258,-1.32032 7.25,-2.21882 V -2e-5 H 2.3594 v -21.281 H 7.25 Z"
         id="path20" />
    </symbol>
    <symbol
       id="i"
       overflow="visible">
      <path
         d="m 0.34375,-15.312 h 4.8906 l 4.125,10.391 3.5,-10.391 h 4.8906 l -6.4375,16.766 c -0.64844,1.6953 -1.4023,2.8828 -2.2656,3.5625 -0.86719,0.6875 -2,1.0312 -3.4062,1.0312 H 2.79685 V 2.8289 h 1.5312 c 0.83203,0 1.4375,-0.13672 1.8125,-0.40625 C 6.52336,2.16093 6.82024,1.69218 7.03117,1.01645 L 7.17179,0.59457 Z"
         id="path23" />
    </symbol>
    <symbol
       id="f"
       overflow="visible">
      <path
         d="M 14.953,-3.7188 H 6.7342 L 5.4217,0 H 0.1405 L 7.703,-20.406 h 6.2656 L 21.5311,0 H 16.2499 Z M 8.0468,-7.5 h 5.5781 l -2.7812,-8.125 z"
         id="path26" />
    </symbol>
    <symbol
       id="t"
       overflow="visible">
      <path
         d="M 2.3594,-21.281 H 7.25 V 0 H 2.3594 Z"
         id="path29" />
    </symbol>
    <symbol
       id="h"
       overflow="visible">
      <path
         d="M 17.75,-9.3281 V 0 h -4.9219 v -7.1406 c 0,-1.3203 -0.03125,-2.2344 -0.09375,-2.7344 -0.0625,-0.5 -0.16797,-0.86719 -0.3125,-1.1094 -0.1875,-0.3125 -0.44922,-0.55469 -0.78125,-0.73438 -0.32422,-0.17578 -0.69531,-0.26562 -1.1094,-0.26562 -1.0234,0 -1.8242,0.39844 -2.4062,1.1875 -0.58594,0.78125 -0.875,1.8711 -0.875,3.2656 V -1e-4 H 2.3594 v -15.312 H 7.25 v 2.2344 c 0.73828,-0.88281 1.5195,-1.5391 2.3438,-1.9688 0.83203,-0.42578 1.75,-0.64062 2.75,-0.64062 1.7695,0 3.1133,0.54688 4.0312,1.6406 0.91406,1.0859 1.375,2.6562 1.375,4.7188 z"
         id="path32" />
    </symbol>
    <symbol
       id="g"
       overflow="visible">
      <path
         d="m 16.547,-12.766 c 0.61328,-0.94531 1.3477,-1.6719 2.2031,-2.1719 0.85156,-0.5 1.7891,-0.75 2.8125,-0.75 1.7578,0 3.0977,0.54688 4.0156,1.6406 0.92578,1.0859 1.3906,2.6562 1.3906,4.7188 V -4e-4 h -4.9219 v -7.9844 -0.35938 c 0.0078,-0.13281 0.01563,-0.32031 0.01563,-0.5625 0,-1.082 -0.16406,-1.8633 -0.48438,-2.3438 -0.3125,-0.48828 -0.82422,-0.73438 -1.5312,-0.73438 -0.92969,0 -1.6484,0.38672 -2.1562,1.1562 -0.51172,0.76172 -0.77344,1.8672 -0.78125,3.3125 v 7.5156 h -4.9219 v -7.9844 c 0,-1.6953 -0.14844,-2.7852 -0.4375,-3.2656 -0.29297,-0.48828 -0.8125,-0.73438 -1.5625,-0.73438 -0.9375,0 -1.6641,0.38672 -2.1719,1.1562 -0.51172,0.76172 -0.76562,1.8594 -0.76562,3.2969 v 7.5312 h -4.9219 v -15.312 h 4.9219 v 2.2344 c 0.60156,-0.86328 1.2891,-1.5156 2.0625,-1.9531 0.78125,-0.4375 1.6406,-0.65625 2.5781,-0.65625 1.0625,0 2,0.25781 2.8125,0.76562 0.8125,0.51172 1.4258,1.2305 1.8438,2.1562 z"
         id="path35" />
    </symbol>
    <symbol
       id="d"
       overflow="visible">
      <path
         d="m 9.6406,-12.188 c -1.0859,0 -1.9141,0.39062 -2.4844,1.1719 -0.57422,0.78125 -0.85938,1.9062 -0.85938,3.375 0,1.4688 0.28516,2.5938 0.85938,3.375 0.57031,0.77344 1.3984,1.1562 2.4844,1.1562 1.0625,0 1.875,-0.38281 2.4375,-1.1562 0.57031,-0.78125 0.85938,-1.9062 0.85938,-3.375 0,-1.4688 -0.28906,-2.5938 -0.85938,-3.375 -0.5625,-0.78125 -1.375,-1.1719 -2.4375,-1.1719 z m 0,-3.5 c 2.6328,0 4.6914,0.71484 6.1719,2.1406 1.4766,1.418 2.2188,3.3867 2.2188,5.9062 0,2.5117 -0.74219,4.4805 -2.2188,5.9062 C 14.332,-0.317 12.2734,0.39 9.6406,0.39 6.9922,0.39 4.9258,-0.31703 3.4375,-1.735 1.9453,-3.1608 1.2031,-5.1295 1.2031,-7.6412 c 0,-2.5195 0.74219,-4.4883 2.2344,-5.9062 1.4883,-1.4258 3.5547,-2.1406 6.2031,-2.1406 z"
         id="path38" />
    </symbol>
    <symbol
       id="s"
       overflow="visible">
      <path
         d="m 0.42188,-15.312 h 4.8906 l 3.8281,10.578 3.7969,-10.578 h 4.9062 L 11.81248,0 h -5.375 z"
         id="path41" />
    </symbol>
    <symbol
       id="r"
       overflow="visible">
      <path
         d="m 12.422,-21.281 v 3.2188 H 9.7189 c -0.6875,0 -1.1719,0.125 -1.4531,0.375 -0.27344,0.25 -0.40625,0.6875 -0.40625,1.3125 v 1.0625 h 4.1875 v 3.5 H 7.85955 V -2e-4 h -4.8906 v -11.812 h -2.4375 v -3.5 h 2.4375 v -1.0625 c 0,-1.6641 0.46094,-2.8984 1.3906,-3.7031 0.92578,-0.80078 2.3672,-1.2031 4.3281,-1.2031 z"
         id="path44" />
    </symbol>
    <symbol
       id="q"
       overflow="visible">
      <path
         d="M 17.75,-9.3281 V 0 h -4.9219 v -7.1094 c 0,-1.3438 -0.03125,-2.2656 -0.09375,-2.7656 -0.0625,-0.5 -0.16797,-0.86719 -0.3125,-1.1094 -0.1875,-0.3125 -0.44922,-0.55469 -0.78125,-0.73438 -0.32422,-0.17578 -0.69531,-0.26562 -1.1094,-0.26562 -1.0234,0 -1.8242,0.39844 -2.4062,1.1875 -0.58594,0.78125 -0.875,1.8711 -0.875,3.2656 V -1e-4 H 2.3594 v -21.281 H 7.25 v 8.2031 c 0.73828,-0.88281 1.5195,-1.5391 2.3438,-1.9688 0.83203,-0.42578 1.75,-0.64062 2.75,-0.64062 1.7695,0 3.1133,0.54688 4.0312,1.6406 0.91406,1.0859 1.375,2.6562 1.375,4.7188 z"
         id="path47" />
    </symbol>
    <symbol
       id="p"
       overflow="visible">
      <path
         d="m 2.5781,-20.406 h 5.875 l 7.4219,14 v -14 h 4.9844 V 0 h -5.875 L 7.5625,-14 V 0 H 2.5781 Z"
         id="path50" />
    </symbol>
    <symbol
       id="o"
       overflow="visible">
      <path
         d="m 2.1875,-5.9688 v -9.3438 h 4.9219 v 1.5312 c 0,0.83594 -0.00781,1.875 -0.015625,3.125 -0.011719,1.25 -0.015625,2.0859 -0.015625,2.5 0,1.2422 0.03125,2.1328 0.09375,2.6719 0.070313,0.54297 0.17969,0.93359 0.32812,1.1719 0.20703,0.32422 0.47266,0.57422 0.79688,0.75 0.32031,0.16797 0.69141,0.25 1.1094,0.25 1.0195,0 1.8203,-0.39062 2.4062,-1.1719 0.58203,-0.78125 0.875,-1.8672 0.875,-3.2656 v -7.5625 h 4.8906 V -6e-4 H 12.6875 V -2.2194 C 11.94531,-1.32096 11.1641,-0.6608 10.3437,-0.235 9.51948,0.17906 8.6093,0.39 7.6093,0.39 5.8476,0.39 4.5038,-0.14906 3.5781,-1.235 2.64841,-2.317 2.1875,-3.8952 2.1875,-5.9694 Z"
         id="path53" />
    </symbol>
    <symbol
       id="n"
       overflow="visible">
      <path
         d="m 2.5781,-20.406 h 8.7344 c 2.5938,0 4.582,0.57812 5.9688,1.7344 1.3945,1.1484 2.0938,2.7891 2.0938,4.9219 0,2.1367 -0.69922,3.7812 -2.0938,4.9375 -1.3867,1.1562 -3.375,1.7344 -5.9688,1.7344 H 7.8281 V 3e-4 h -5.25 z m 5.25,3.8125 v 5.7031 H 10.75 c 1.0195,0 1.8047,-0.25 2.3594,-0.75 0.5625,-0.5 0.84375,-1.2031 0.84375,-2.1094 0,-0.91406 -0.28125,-1.6172 -0.84375,-2.1094 -0.55469,-0.48828 -1.3398,-0.73438 -2.3594,-0.73438 z"
         id="path56" />
    </symbol>
    <symbol
       id="m"
       overflow="visible">
      <path
         d="M 2.3594,-15.312 H 7.25 v 15.031 c 0,2.0508 -0.49609,3.6172 -1.4844,4.7031 -0.98047,1.082 -2.4062,1.625 -4.2812,1.625 H -0.9375 V 2.8283 h 0.85938 c 0.92578,0 1.5625,-0.21094 1.9062,-0.625 0.35156,-0.41797 0.53125,-1.2461 0.53125,-2.4844 z m 0,-5.9688 H 7.25 v 4 H 2.3594 Z"
         id="path59" />
    </symbol>
    <symbol
       id="l"
       overflow="visible">
      <path
         d="m 14.719,-14.828 v 3.9844 c -0.65625,-0.45703 -1.3242,-0.79688 -2,-1.0156 -0.66797,-0.21875 -1.3594,-0.32812 -2.0781,-0.32812 -1.3672,0 -2.4336,0.40234 -3.2031,1.2031 -0.76172,0.79297 -1.1406,1.9062 -1.1406,3.3438 0,1.4297 0.37891,2.543 1.1406,3.3438 0.76953,0.79297 1.8359,1.1875 3.2031,1.1875 0.75781,0 1.4844,-0.10938 2.1719,-0.32812 0.6875,-0.22656 1.3203,-0.56641 1.9062,-1.0156 v 4 c -0.76172,0.28125 -1.5391,0.48828 -2.3281,0.625 -0.78125,0.14453 -1.5742,0.21875 -2.375,0.21875 -2.7617,0 -4.9219,-0.70703 -6.4844,-2.125 -1.5547,-1.4141 -2.3281,-3.3828 -2.3281,-5.9062 0,-2.5312 0.77344,-4.5039 2.3281,-5.9219 1.5625,-1.4141 3.7227,-2.125 6.4844,-2.125 0.80078,0 1.5938,0.07422 2.375,0.21875 0.78125,0.13672 1.5547,0.35156 2.3281,0.64062 z"
         id="path62" />
    </symbol>
  </defs>
  <g
     id="g1096"
     transform="translate(-97.981412,-27.995973)">
    <path
       d="m 251.55,377.56 c 2.418,1.3594 5.1055,2.6758 8.0039,3.9688 2.8828,1.3164 6.0039,2.4805 9.2578,3.6406 3.2695,1.0742 6.668,2.168 10.199,2.9805 3.5,0.94141 7.1289,1.5352 10.742,2.2188 3.6445,0.46484 7.2812,1.0234 10.898,1.2031 3.6016,0.33203 7.1719,0.3125 10.617,0.30859 3.4492,-0.10156 6.7773,-0.25391 9.9297,-0.61719 3.1484,-0.33984 6.1133,-0.76562 8.8359,-1.3203 2.7227,-0.50781 5.2031,-1.1211 7.3789,-1.7461 2.1836,-0.60938 4.0664,-1.2031 5.6055,-1.8047 3.0781,-1.1641 4.8047,-1.9922 4.8047,-1.9922 0,0 -1.832,-0.64844 -4.9609,-1.4961 -1.5586,-0.39062 -3.4453,-0.875 -5.6055,-1.4219 -2.1328,-0.48047 -4.5469,-1.0195 -7.1719,-1.6133 -2.5977,-0.51953 -5.4102,-1.0859 -8.3828,-1.6875 -2.9609,-0.51562 -6.0586,-1.1797 -9.2617,-1.6797 -3.1992,-0.60547 -6.4961,-1.1328 -9.8398,-1.6875 -3.3438,-0.53125 -6.7383,-1.0742 -10.137,-1.6172 -3.3984,-0.51953 -6.7969,-1.0469 -10.141,-1.5625 -3.3594,-0.48047 -6.6523,-1.0117 -9.8828,-1.4062 -3.2031,-0.50781 -6.3555,-0.82812 -9.3359,-1.2422 -3.0117,-0.34766 -5.8633,-0.67188 -8.4961,-0.97266 -2.6719,-0.24609 -5.125,-0.46875 -7.2969,-0.66797 -2.2344,-0.14453 -4.1836,-0.27344 -5.7852,-0.37891 -3.2656,-0.16797 -5.1875,-0.11328 -5.1875,-0.11328 0,0 1.3984,1.3203 3.9531,3.3594 1.2617,1.0312 2.8633,2.1797 4.7695,3.4258 1.875,1.2578 4.0625,2.6016 6.4883,3.9219 z"
       id="path67" />
    <path
       d="m 469.07,297.91 c -1.8086,0.37891 -3.9922,0.82422 -6.4336,1.2773 -2.4141,0.50391 -5.1367,1.0742 -8.1094,1.6953 -2.9453,0.66797 -6.1211,1.3438 -9.4688,2.0273 -3.3047,0.80078 -6.8594,1.3711 -10.426,2.2227 -3.6328,0.64453 -7.3125,1.4961 -11.105,2.1797 -3.7617,0.75781 -7.6094,1.4297 -11.445,2.1445 -7.7383,1.3281 -15.477,2.6484 -22.734,3.8906 -3.6719,0.53125 -7.2188,1.2539 -10.617,1.7812 -3.4102,0.62109 -6.6406,1.2109 -9.6133,1.7539 -3.0117,0.60938 -5.7734,1.1719 -8.2227,1.668 -1.2148,0.28125 -2.3516,0.54297 -3.4102,0.78906 l -0.30078,-18.234 c 1.3828,0.23047 2.8711,0.44922 4.5938,0.63281 2.4297,0.29297 5.168,0.50391 8.1484,0.58984 2.9922,0.12891 6.2109,0.0859 9.6133,-0.0508 3.4102,-0.13281 6.9727,-0.46484 10.652,-0.88672 3.6641,-0.48828 7.4531,-1.0039 11.234,-1.8086 3.8203,-0.68359 7.6055,-1.6914 11.418,-2.6211 3.7617,-1.0938 7.543,-2.1328 11.172,-3.4141 3.6641,-1.1914 7.1914,-2.5664 10.59,-3.9375 6.7773,-2.7812 12.945,-5.7773 18.098,-8.6641 5.1641,-2.8555 9.3359,-5.582 12.195,-7.6172 2.8555,-2.0508 4.4336,-3.375 4.4336,-3.375 0,0 -2.0625,-0.0664 -5.5703,0.0898 -3.5117,0.16797 -8.4375,0.58984 -14.242,1.3828 -5.7969,0.8125 -12.453,1.9609 -19.465,3.4844 -3.5117,0.72266 -7.1055,1.5664 -10.742,2.4453 -3.6406,0.87891 -7.3008,1.832 -10.965,2.793 -3.6406,1.0078 -7.2852,2.0156 -10.871,3.0117 -3.5781,1.0195 -7.0859,2.0547 -10.477,3.1211 -3.3984,0.99219 -6.668,2.1094 -9.7891,3.0898 -3.1211,1.0547 -6.0703,2.0508 -8.793,2.9727 -2.7383,0.99219 -5.2461,1.9023 -7.4688,2.7109 -1.4219,0.55469 -2.6758,1.0469 -3.8516,1.5078 l -0.32422,-19.633 c 1.4883,0.24219 3.2031,0.4375 5.1445,0.58203 2.5195,0.23047 5.3711,0.375 8.4297,0.32422 1.5391,-0.004 3.1406,-0.0391 4.8008,-0.11328 1.6523,-0.0937 3.3477,-0.27344 5.1133,-0.42187 3.5156,-0.30078 7.168,-0.94531 10.949,-1.6406 3.7422,-0.8125 7.6289,-1.6758 11.457,-2.9062 3.8867,-1.082 7.6758,-2.5938 11.508,-4.0078 3.7305,-1.6367 7.5039,-3.1992 11.031,-5.0977 3.6055,-1.7461 6.9648,-3.8125 10.227,-5.7695 3.1914,-2.0703 6.2734,-4.082 9.0391,-6.2109 2.7891,-2.0898 5.3555,-4.1602 7.6328,-6.1875 4.5859,-4.0078 8.0938,-7.7344 10.426,-10.477 2.3242,-2.7617 3.5391,-4.4648 3.5391,-4.4648 0,0 -2.0625,0.48047 -5.4648,1.5469 -3.3984,1.0703 -8.1602,2.6992 -13.699,4.7617 -2.7383,1.0547 -5.707,2.1953 -8.8438,3.4062 -3.0742,1.2891 -6.3789,2.4805 -9.6836,3.9102 -3.3594,1.3047 -6.7656,2.7617 -10.242,4.168 -3.4609,1.418 -6.9766,2.8633 -10.5,4.3008 -7.0508,2.8125 -14.102,5.6211 -20.707,8.2617 -6.7305,2.5859 -13.008,5.0078 -18.395,7.0781 -4.7305,1.8633 -8.7305,3.4375 -11.828,4.6602 l -0.48828,-29.566 c 1.1758,0.13281 2.4414,0.24609 3.875,0.32422 2.3594,0.16406 5.0117,0.22266 7.8672,0.125 2.8711,-0.043 5.9648,-0.29688 9.2227,-0.68359 3.2695,-0.35156 6.6602,-1.0039 10.168,-1.7148 3.4766,-0.81641 7.0859,-1.6797 10.633,-2.9023 3.6055,-1.0703 7.125,-2.5586 10.68,-3.9531 3.457,-1.625 6.957,-3.1484 10.215,-5.0352 3.332,-1.7266 6.4297,-3.7812 9.418,-5.7305 2.9297,-2.0625 5.7344,-4.0781 8.2305,-6.2109 2.5195,-2.1055 4.8203,-4.1758 6.832,-6.2383 2.0391,-2.0117 3.7969,-3.9766 5.2852,-5.7891 1.5078,-1.793 2.7539,-3.3984 3.707,-4.8164 1.9258,-2.793 2.8906,-4.5039 2.8906,-4.5039 0,0 -1.9141,0.56641 -5.0352,1.7422 -1.5352,0.59766 -3.3984,1.3203 -5.5391,2.1523 -2.0781,0.85547 -4.418,1.8203 -6.9766,2.8672 -2.4961,1.0625 -5.2031,2.2188 -8.0586,3.4453 -2.8125,1.2266 -5.7734,2.5273 -8.8359,3.8633 -3.0742,1.2891 -6.1875,2.6992 -9.3789,4.0703 -3.1758,1.3828 -6.4062,2.7891 -9.6328,4.1953 -3.2383,1.3828 -6.4727,2.7656 -9.6602,4.1289 -3.1797,1.3945 -6.3555,2.6602 -9.4023,4.0273 -3.0781,1.3086 -6.0547,2.5742 -8.8828,3.7734 -2.8516,1.2383 -5.5508,2.4062 -8.043,3.4961 -2.5078,1.1328 -4.8086,2.168 -6.8477,3.0859 -1.0078,0.47656 -1.9414,0.91797 -2.8164,1.3281 l -0.47656,-28.895 c 3.1406,-0.0273 7.125,-0.25781 11.57,-0.84375 2.8945,-0.34766 5.9883,-0.89062 9.2383,-1.5742 3.2578,-0.66016 6.6367,-1.5742 10.113,-2.5742 3.4492,-1.0742 7.0234,-2.2109 10.535,-3.6445 3.5664,-1.3164 7.043,-2.9844 10.555,-4.5742 3.4219,-1.7812 6.8828,-3.4844 10.121,-5.4766 3.3047,-1.8633 6.3945,-3.9922 9.375,-6.0312 2.9336,-2.1211 5.7344,-4.2109 8.2656,-6.3711 2.543,-2.1445 4.8789,-4.2461 6.9375,-6.3047 4.1562,-4.0664 7.2812,-7.8359 9.3359,-10.602 2.043,-2.7812 3.0898,-4.4922 3.0898,-4.4922 0,0 -1.9609,0.53906 -5.168,1.6797 -1.5781,0.58984 -3.4961,1.3047 -5.6953,2.1289 -2.1406,0.86719 -4.5469,1.8438 -7.1797,2.9102 -2.5664,1.1094 -5.3438,2.3125 -8.2812,3.5859 -2.8828,1.332 -5.9688,2.6328 -9.0625,4.1289 -3.1406,1.4102 -6.3281,2.9414 -9.5703,4.4844 -3.2266,1.5586 -6.5078,3.1406 -9.7812,4.7266 -3.2656,1.6055 -6.5352,3.2148 -9.75,4.8008 -3.2031,1.6172 -6.3828,3.1602 -9.4258,4.7773 -3.0781,1.5078 -6.0078,3.1367 -8.8359,4.5859 -2.8164,1.5273 -5.4766,2.9727 -7.9297,4.3047 -2.4531,1.4062 -4.7031,2.6992 -6.6992,3.8398 -0.66016,0.40234 -1.25,0.75781 -1.8477,1.125 l -0.45312,-27.73 c 1.2109,0.0781 2.5078,0.11719 4.0039,0.10156 1.1719,0.0117 2.4023,-0.0508 3.7227,-0.0781 1.3047,-0.0625 2.6328,-0.24219 4.0547,-0.36328 1.4102,-0.15234 2.8906,-0.32422 4.4023,-0.56641 1.5078,-0.25781 3.0469,-0.60547 4.6484,-0.91797 3.2031,-0.64453 6.4688,-1.6875 9.8633,-2.7773 3.3281,-1.2305 6.7969,-2.5156 10.125,-4.2188 3.4219,-1.5273 6.6484,-3.543 9.9414,-5.4414 3.125,-2.1602 6.332,-4.207 9.1836,-6.6484 2.9727,-2.2617 5.6016,-4.8711 8.1484,-7.3359 2.4375,-2.5977 4.7773,-5.1055 6.7305,-7.7266 0.96875,-1.3047 1.9102,-2.582 2.8242,-3.8086 0.86719,-1.2617 1.6445,-2.5273 2.3906,-3.7344 0.72266,-1.2305 1.4492,-2.3633 2.0625,-3.5039 0.58203,-1.1719 1.1484,-2.25 1.6367,-3.3047 1.0039,-2.0781 1.7969,-3.9219 2.3242,-5.5234 1.1016,-3.1602 1.5625,-5.0195 1.5625,-5.0195 0,0 -1.6875,1.0195 -4.3438,2.9023 -2.5742,1.8477 -6.2617,4.4805 -10.68,7.6445 -2.1094,1.5977 -4.4688,3.2148 -6.8945,4.9492 -2.375,1.793 -5.0352,3.4727 -7.6055,5.375 -2.6484,1.7852 -5.3867,3.6328 -8.1719,5.5117 -2.7539,1.8867 -5.6406,3.6719 -8.4688,5.5312 -2.8906,1.7656 -5.7305,3.6133 -8.6172,5.2969 -2.8828,1.7148 -5.7227,3.4062 -8.4727,5.0352 -2.8164,1.5078 -5.4766,3.1992 -8.1094,4.582 -2.6094,1.4492 -5.0781,2.8906 -7.4258,4.1172 -2.3281,1.3398 -4.4648,2.4883 -6.3789,3.5273 -0.89062,0.50781 -1.7305,0.98438 -2.5312,1.4375 l -0.42578,-26.035 c 2.4141,-0.60547 5.3945,-1.4766 8.7422,-2.7031 4.1328,-1.5078 8.7734,-3.5234 13.531,-6.0039 2.3867,-1.2305 4.8047,-2.5703 7.1953,-4.0273 2.418,-1.418 4.7812,-2.9961 7.1562,-4.5586 2.3203,-1.6406 4.6602,-3.2539 6.8555,-4.9961 2.2383,-1.6797 4.3516,-3.4648 6.3711,-5.2266 4.043,-3.5273 7.6094,-7.1172 10.516,-10.414 2.9066,-3.2968 5.1523,-6.3047 6.6484,-8.527302 1.4844,-2.2344 2.2383,-3.6445 2.2383,-3.6445 0,0 -1.5898,0.19141 -4.2109,0.75781 -2.6133,0.58203 -6.2344,1.5781 -10.359,3.0859 -4.1328,1.500002 -8.7734,3.523402 -13.531,6.003902 -2.375,1.2422 -4.8086,2.5586 -7.1914,4.0312 -2.418,1.418 -4.7773,3.0078 -7.1445,4.5703 -2.3203,1.6406 -4.6484,3.2656 -6.8477,5.0078 -2.2305,1.6953 -4.3516,3.4648 -6.3672,5.2344 -4.0391,3.5273 -7.6094,7.1172 -10.516,10.414 -1.1875,1.3438 -2.2383,2.6211 -3.1992,3.8359 l -0.24219,-14.648 c 0.62891,-0.22266 1.5625,-0.58203 2.7891,-1.1094 2.2383,-0.92578 5.4258,-2.5312 8.9023,-4.7773 1.7578,-1.1094 3.5898,-2.4062 5.4648,-3.8516 1.8984,-1.4297 3.7695,-3.0742 5.6836,-4.8047 1.8633,-1.7734 3.793,-3.6289 5.5703,-5.668 1.8555,-1.9766 3.5273,-4.156202 5.2461,-6.300802 1.5898,-2.2383 3.2383,-4.4414 4.6328,-6.7578 1.4844,-2.2578 2.7266,-4.6211 3.9375,-6.8867 2.3203,-4.6016 4.1445,-9.0625 5.3359,-13.035 2.4805,-7.9141 2.6758,-13.707 2.6758,-13.707 0,0 -1.1328,0.93359 -2.8398,2.6602 -1.7344,1.7148 -4.0977,4.1953 -6.7539,7.1953 -1.2891,1.5078 -2.6875,3.1406 -4.168,4.8711 -1.4102,1.7578 -2.9688,3.543 -4.4453,5.4766 -1.5469,1.8828 -3.0703,3.8633 -4.6211,5.8672 -1.5352,2.0117 -3.0898,4.0547 -4.6484,6.0977 -1.5352,2.0547 -3.0742,4.1172 -4.5859,6.1445 -1.4883,2.0508 -2.9922,4.0391 -4.375,6.035202 -1.457,1.9375 -2.75,3.9219 -4.0586,5.7461 -1.2695,1.8828 -2.4688,3.6641 -3.5781,5.3047 -2.1992,3.3477 -3.9219,6.2227 -5.1758,8.3711 -0.42578,0.71875 -0.74609,0.74609 -1.0234,1.2539 l -0.0508,-3.5352 c 0.043,-0.0508 1.0352,-1.1523 2.5312,-3.168 1.5508,-2.0234 3.5859,-5.1289 5.6289,-8.9531 2.0898,-3.8203 4.0977,-8.457002 5.9062,-13.539002 0.85547,-2.5469 1.7266,-5.2031 2.4062,-7.9414 0.76172,-2.7227 1.3086,-5.5273 1.9023,-8.332 0.46484,-2.8242 0.97266,-5.6328 1.2539,-8.4336 0.37109,-2.7812 0.52734,-5.5508 0.67578,-8.2148 0.23047,-5.3438 0.11719,-10.344 -0.27344,-14.637 -0.36328,-4.2969 -0.95703,-7.8867 -1.5078,-10.406 -0.51562,-2.5195 -0.96875,-3.9688 -0.96875,-3.9688 0,0 -0.73438,1.3398 -1.7305,3.6953 -1.0234,2.3594 -2.3398,5.7344 -3.6562,9.7812 -1.3047,4.0586 -2.6602,8.7812 -3.8516,13.844 -1.2305,5.0586 -2.3398,10.438 -3.3555,15.832 -0.47656,2.6992 -0.94531,5.3984 -1.4102,8.0547 -0.42969,2.6641 -0.875,5.2812 -1.2031,7.8438 -0.77734,5.0977 -1.293,9.9336 -1.7188,14.133002 -0.39844,4.2109 -0.55469,7.7578 -0.64453,10.355 -0.043,1.2617 -0.043,2.2617 -0.0352,2.957 h -0.17969 c -0.0234,0 -0.0664,-0.96875 -0.14453,-1.9805 -0.12891,-1.332 -0.19531,-2.6758 -0.38672,-4.4844 -0.20703,-1.7969 -0.4375,-3.6797 -0.6875,-5.8906 -0.58984,-4.3789 -1.3281,-9.359402 -2.2969,-14.672002 -0.42969,-2.668 -0.96875,-5.3594 -1.4922,-8.125 -0.54688,-2.7617 -1.1094,-5.5508 -1.668,-8.3477 -0.58203,-2.793 -1.1719,-5.5781 -1.7422,-8.3281 -0.58984,-2.75 -1.1719,-5.4414 -1.7812,-8.0625 -0.60547,-2.625 -1.1875,-5.1641 -1.7422,-7.5703 -0.58984,-2.4258 -1.1406,-4.7148 -1.6523,-6.832 -0.55469,-2.1406 -1.0586,-4.1055 -1.5078,-5.8477 -0.49219,-1.7656 -0.92969,-3.3047 -1.2812,-4.5742 -0.69922,-2.5586 -1.2617,-4.0586 -1.2617,-4.0586 0,0 -0.63281,1.4336 -1.457,4.0156 -0.83594,2.5742 -1.8086,6.3164 -2.3984,10.852 -0.34766,2.2734 -0.53125,4.7305 -0.68359,7.3477 -0.12891,2.6094 -0.12891,5.3633 -0.0352,8.2031 0.14453,2.832 0.30859,5.7734 0.72656,8.7148 0.30078,2.9688 0.91406,5.918 1.4336,8.8945 0.68359,2.9336 1.3086,5.8867 2.1797,8.7266 0.78516,2.8633 1.7461,5.6172 2.7148,8.2656 1.9922,5.2852 4.2227,10.078002 6.4609,14.039002 2.1914,3.9648 4.3945,7.1641 6.0273,9.2695 0.53125,0.69531 0.97266,1.25 1.3711,1.7305 l -0.0742,4.3672 c -0.38672,-0.52734 -0.875,-1.1758 -1.5273,-1.9805 -0.82812,-0.92969 -1.6445,-2.1914 -2.5977,-3.4844 -0.47656,-0.63281 -0.98047,-1.3086 -1.5117,-2.0234 -0.51563,-0.74609 -1.0547,-1.5234 -1.6133,-2.3398 -1.1758,-1.5469 -2.2891,-3.3594 -3.5391,-5.1641 -1.2305,-1.8242 -2.4531,-3.7969 -3.7539,-5.7891 -0.60547,-1.0352 -1.2617,-2.054702 -1.9258,-3.078102 -0.66016,-1.0234 -1.25,-2.1406 -1.9336,-3.1875 -1.3281,-2.1094 -2.5859,-4.3516 -3.9141,-6.5312 -1.3008,-2.2227 -2.6055,-4.4453 -3.8867,-6.6289 -1.293,-2.1914 -2.5547,-4.3789 -3.8398,-6.4727 -2.4922,-4.2383 -4.9883,-8.1797 -7.2188,-11.586 -1.1602,-1.6914 -2.2305,-3.2461 -3.168,-4.6211 -0.96875,-1.3789 -1.9102,-2.5469 -2.6445,-3.5391 -1.4883,-1.9648 -2.5039,-3.0469 -2.5039,-3.0469 0,0 -0.48828,5.8359 0.94141,14.094 0.67578,4.1367 1.8867,8.8711 3.6133,13.816 0.91406,2.4531 1.8477,5 3.0703,7.4805 1.0977,2.5312 2.5195,4.9766 3.875,7.4492 1.5352,2.3867 2.9688,4.820302 4.7266,7.027302 1.6367,2.2734 3.4883,4.3555 5.3203,6.3164 1.875,1.9336 3.7852,3.7109 5.7227,5.2695 1.9727,1.5234 3.8242,2.9336 5.7344,4.0078 0.94141,0.54297 1.8242,1.082 2.6875,1.5508 0.91406,0.4375 1.7812,0.85156 2.6094,1.1992 1.6367,0.73828 3.0625,1.25 4.2617,1.5391 1.332,0.36328 2.3281,0.59375 2.9922,0.72656 l -0.28516,17.438 c -0.45312,0.62891 -0.86719,1.2227 -1.2305,1.7578 -0.33984,0.50781 -0.63281,0.96484 -0.89453,1.3789 -0.57812,-0.47656 -1.3555,-1.0977 -2.375,-1.8555 -1.1406,-0.78906 -2.4375,-1.8086 -3.832,-2.9219 -1.4102,-1.0625 -2.9688,-2.2461 -4.6602,-3.625 -1.7188,-1.2656 -3.4844,-2.7422 -5.3438,-4.2344 -1.8945,-1.4219 -3.7227,-3.1602 -5.7188,-4.7031 -1.8867,-1.7305 -3.9141,-3.3438 -5.8398,-5.1562 -1.9922,-1.7188 -3.8867,-3.6133 -5.8516,-5.4102 -1.875,-1.8945 -3.832,-3.7109 -5.6289,-5.6406 -1.875,-1.8633 -3.5859,-3.8086 -5.375,-5.6328 -1.6289,-1.9336 -3.4336,-3.6914 -4.9297,-5.527302 -1.5664,-1.7969 -3.1211,-3.5 -4.4453,-5.1641 -1.4453,-1.6133 -2.7031,-3.1641 -3.8359,-4.5625 -1.1875,-1.3828 -2.2461,-2.6133 -3.0703,-3.668 -1.7266,-2.082 -2.8906,-3.2969 -2.8906,-3.2969 0,0 -0.26953,1.5859 -0.42578,4.4062 -0.11328,1.4219 -0.0508,3.1094 0.13281,5.0391 0.0742,0.97266 0.20703,1.9922 0.32422,3.0977 0.16406,1.082 0.4375,2.1797 0.67187,3.3594 0.26953,1.1641 0.54688,2.398402 0.91797,3.632802 0.39062,1.2266 0.85547,2.4766 1.3086,3.7812 0.91797,2.6094 2.2617,5.1758 3.6562,7.8516 1.5508,2.5586 3.1367,5.2734 5.1641,7.6992 1.8555,2.582 4.168,4.8281 6.3711,7.168 2.4297,2.1055 4.7773,4.3164 7.4258,6.0664 2.5195,1.9102 5.2812,3.4062 7.9062,4.8398 2.7266,1.2891 5.3477,2.5195 7.9922,3.3359 1.3203,0.40234 2.582,0.82422 3.8242,1.1602 1.25,0.32031 2.4883,0.55469 3.6641,0.77344 1.1914,0.19141 2.2891,0.42578 3.3867,0.54297 1.125,0.0859 2.168,0.19141 3.1602,0.22266 1.9766,0.11719 3.6406,0.10547 5,-0.0742 1.0234,-0.10547 1.8867,-0.21094 2.5703,-0.30859 -0.41016,0.67578 -0.62109,1.0742 -0.62109,1.0742 0,0 1.2695,-0.15625 3.3984,-0.59375 l -0.44922,27.289 c -0.66797,0.37891 -1.2539,0.71875 -1.7539,1.0117 -0.67578,-0.40234 -1.5078,-0.88672 -2.4961,-1.4336 -1.4688,-0.76562 -3.1875,-1.7539 -5.0859,-2.832 -1.9141,-1.043 -4.0547,-2.1914 -6.3789,-3.5273 -2.3477,-1.2266 -4.8164,-2.6602 -7.4258,-4.1172 -2.6328,-1.3828 -5.293,-3.0742 -8.1094,-4.582 -2.75,-1.6367 -5.5898,-3.3203 -8.4727,-5.0352 -2.8828,-1.6875 -5.7227,-3.5352 -8.6172,-5.2969 -2.8281,-1.8594 -5.7109,-3.6445 -8.4688,-5.5312 -2.7812,-1.875 -5.5234,-3.7227 -8.1719,-5.5117 -2.5703,-1.9023 -5.2305,-3.5859 -7.6055,-5.375 -2.4297,-1.7344 -4.7812,-3.3555 -6.8984,-4.9492 -4.418,-3.1641 -8.0977,-5.8008 -10.68,-7.6445 -2.6602,-1.8828 -4.3438,-2.9023 -4.3438,-2.9023 0,0 0.46094,1.8594 1.5625,5.0195 0.52734,1.6016 1.3203,3.4453 2.3242,5.5234 0.48828,1.0547 1.0586,2.1328 1.6367,3.3047 0.60938,1.1406 1.3398,2.2773 2.0625,3.5039 0.74609,1.2109 1.5234,2.4766 2.3906,3.7344 0.91406,1.2305 1.8555,2.5039 2.8242,3.8086 1.9531,2.6133 4.2969,5.125 6.7305,7.7266 2.5469,2.4688 5.1758,5.0742 8.1484,7.3359 2.8438,2.4414 6.0547,4.4844 9.1836,6.6484 3.293,1.9023 6.5195,3.9141 9.9414,5.4414 3.3281,1.7031 6.7969,2.9805 10.125,4.2188 3.3945,1.0938 6.6602,2.1289 9.8633,2.7773 1.6016,0.32031 3.1406,0.66016 4.6484,0.91797 1.5117,0.24609 2.9922,0.41406 4.3945,0.56641 1.4219,0.12891 2.75,0.30078 4.0547,0.36328 1.3203,0.0273 2.5586,0.0898 3.7227,0.0781 2.3359,0.0273 4.3242,-0.043 5.9531,-0.25781 1.2812,-0.14062 2.3516,-0.28516 3.1797,-0.40234 0.48828,0.0742 1.0586,0.14453 1.7031,0.23047 l -0.50391,30.762 c -0.44141,0.28516 -0.83594,0.54297 -1.1992,0.78516 -0.62891,-0.42188 -1.3672,-0.89454 -2.2305,-1.44531 -1.4453,-0.8789 -3.1992,-1.94139 -5.207,-3.168 -1.9922,-1.1406 -4.2461,-2.4375 -6.6992,-3.8398 -2.457,-1.33199 -5.1172,-2.7773 -7.9297,-4.3047 -2.8281,-1.44919 -5.75,-3.0781 -8.8359,-4.5859 -3.0391,-1.6133 -6.2227,-3.1602 -9.4258,-4.7773 -3.2148,-1.5859 -6.4844,-3.19139 -9.75,-4.8008 -3.2773,-1.5859 -6.5586,-3.168 -9.7812,-4.7266 -3.2422,-1.53909 -6.4297,-3.07419 -9.5703,-4.4844 -3.0898,-1.4961 -6.1758,-2.793 -9.0625,-4.12889 -2.9414,-1.2695 -5.7188,-2.4766 -8.2812,-3.5859 -2.6328,-1.0625 -5.0391,-2.04301 -7.1797,-2.91021 -2.1992,-0.82421 -4.1172,-1.53909 -5.6953,-2.12889 -3.207,-1.1406 -5.168,-1.6797 -5.168,-1.6797 0,0 1.0469,1.707 3.0898,4.4922 2.0547,2.7656 5.1797,6.5352 9.3359,10.602 2.0625,2.0625 4.3945,4.1602 6.9375,6.3047 2.5312,2.1562 5.332,4.25 8.2695,6.3711 2.9805,2.0391 6.0703,4.168 9.375,6.0312 3.2383,1.9922 6.6992,3.6953 10.121,5.4766 3.5117,1.5898 6.9961,3.2578 10.555,4.5742 3.5117,1.4336 7.0859,2.5742 10.535,3.6445 3.4766,1.00389 6.8555,1.9141 10.113,2.5742 3.2539,0.68359 6.3516,1.22659 9.2383,1.57419 5.7461,0.76172 10.723,0.92578 14.105,0.82422 1.25,-0.0391 2.2969,-0.0937 3.1406,-0.14453 0.34766,0.0234 0.73828,0.043 1.1523,0.0664 l -0.51953,31.691 c -0.23438,0.125 -0.44141,0.23438 -0.63281,0.33594 -0.80469,-0.42969 -2.0117,-1.0586 -3.5781,-1.8125 -1.4961,-0.70703 -3.3086,-1.5625 -5.3867,-2.543 -2.0391,-0.91797 -4.3398,-1.9531 -6.8477,-3.0859 -2.4922,-1.082 -5.1875,-2.25 -8.043,-3.4961 -2.8242,-1.1992 -5.8008,-2.4648 -8.8828,-3.7734 -3.0391,-1.3672 -6.2148,-2.6328 -9.4023,-4.0273 -3.1875,-1.3594 -6.4219,-2.7422 -9.6602,-4.1289 -3.2266,-1.4062 -6.457,-2.8125 -9.6328,-4.1953 -3.1914,-1.3711 -6.3008,-2.7891 -9.3789,-4.0703 -3.0625,-1.3398 -6.0312,-2.6367 -8.8359,-3.8633 -2.8633,-1.2227 -5.5664,-2.375 -8.0625,-3.4453 -2.5547,-1.0547 -4.8984,-2.0156 -6.9766,-2.8672 -2.1406,-0.82812 -4.0039,-1.5586 -5.5391,-2.1523 -3.1211,-1.1758 -5.0352,-1.7422 -5.0352,-1.7422 0,0 0.96484,1.7031 2.8906,4.5039 0.94531,1.418 2.1992,3.0234 3.707,4.8164 1.4883,1.8125 3.2461,3.7734 5.2852,5.7891 2.0039,2.0625 4.3125,4.1289 6.832,6.2383 2.5039,2.1328 5.3047,4.1484 8.2305,6.2109 2.9922,1.9492 6.0859,4 9.418,5.7305 3.2539,1.8867 6.7578,3.4102 10.215,5.0352 3.5547,1.3945 7.0742,2.8828 10.68,3.9531 3.5508,1.2227 7.1562,2.082 10.633,2.9023 3.5117,0.71094 6.8984,1.3672 10.168,1.7148 3.2578,0.38672 6.3516,0.63672 9.2227,0.68359 2.8516,0.10156 5.5117,0.0391 7.8672,-0.125 2.3516,-0.12891 4.3672,-0.32422 6.0195,-0.60938 1.8125,-0.28516 3.1914,-0.54687 4.0898,-0.73437 0.18359,0.0391 0.38672,0.0781 0.60938,0.125 l -0.54688,33.293 c -0.0352,0.0156 -0.043,0.0234 -0.0625,0.0273 -0.22266,-0.10547 -2.0781,-0.98437 -5.2461,-2.2305 -1.668,-0.63672 -3.6914,-1.418 -6.0156,-2.3125 -2.2773,-0.83594 -4.8555,-1.77339 -7.6602,-2.8047 -11,-3.832 -25.664,-8.9414 -40.336,-14.051 -14.629,-5.2188 -29.254,-10.445 -40.219,-14.359 -2.8398,-0.96484 -5.4492,-1.8477 -7.7578,-2.625 -2.3633,-0.75781 -4.4258,-1.4102 -6.125,-1.9531 -3.4375,-1.0586 -5.5273,-1.5469 -5.5273,-1.5469 0,0 1.2383,1.7031 3.625,4.4805 1.1797,1.4062 2.7031,2.9961 4.5117,4.7539 1.793,1.7852 3.8906,3.707 6.2891,5.6602 2.3672,2.0117 5.0508,4.0078 7.9648,6.0352 2.8945,2.0547 6.0977,3.9766 9.4375,5.9375 3.3867,1.8438 6.8984,3.7852 10.629,5.3828 3.6641,1.7656 7.5547,3.1484 11.402,4.6367 3.9297,1.25 7.8281,2.5977 11.789,3.5234 3.9141,1.0742 7.8555,1.7852 11.66,2.457 3.832,0.56641 7.5273,1.0742 11.07,1.2812 3.5391,0.24609 6.8828,0.37109 9.9922,0.29297 3.0859,-0.0234 5.9453,-0.20312 8.4766,-0.46094 2.5312,-0.23047 4.7031,-0.50781 6.4805,-0.86719 3.3594,-0.62891 5.3555,-1.1406 5.5781,-1.1992 0.0156,0.004 0.0234,0.004 0.0625,0.0156 l -0.39062,23.895 c -0.60938,-0.29297 -2.2773,-1.0586 -4.8008,-2.0664 -3.2266,-1.2812 -7.8281,-2.9531 -13.328,-4.7109 -2.7539,-0.85156 -5.7227,-1.7695 -8.8711,-2.6641 -3.1484,-0.86328 -6.4531,-1.8203 -9.8828,-2.6562 -3.4219,-0.89453 -6.9648,-1.7539 -10.566,-2.5742 -3.6016,-0.83984 -7.2617,-1.6289 -10.93,-2.4062 -3.6719,-0.76172 -7.3477,-1.5 -10.98,-2.1836 -3.6328,-0.67578 -7.2188,-1.3438 -10.711,-1.8828 -3.4766,-0.61719 -6.8867,-1.0625 -10.121,-1.5469 -3.2383,-0.44922 -6.3281,-0.80078 -9.1914,-1.1328 -5.75,-0.60547 -10.578,-0.91797 -14.09,-1.0625 -3.4883,-0.12891 -5.5312,-0.043 -5.5312,-0.043 0,0 1.5742,1.3086 4.4141,3.332 2.8242,2 7.0664,4.6719 12.285,7.3711 5.2148,2.75 11.484,5.4883 18.363,7.9648 3.4453,1.2031 7.0273,2.4023 10.723,3.3984 3.6719,1.0938 7.4766,1.9141 11.262,2.8008 3.8242,0.71875 7.6328,1.5078 11.434,1.9805 3.7812,0.59766 7.5469,0.91406 11.184,1.2148 3.6445,0.24219 7.1797,0.40234 10.539,0.39844 3.3594,0 6.5391,-0.0898 9.4805,-0.29688 5.875,-0.375 10.781,-1.125 14.211,-1.8203 2.7031,-0.55859 4.4727,-1.0312 5.1133,-1.2109 l -0.35156,21.402 c -0.94141,-0.26953 -2.2188,-0.62109 -3.8086,-1.0195 -1.7734,-0.41016 -3.9297,-0.90625 -6.4023,-1.4844 -2.4453,-0.5 -5.207,-1.0586 -8.2227,-1.668 -2.9805,-0.54297 -6.2031,-1.1328 -9.6133,-1.7539 -3.3984,-0.52734 -6.9453,-1.25 -10.617,-1.7812 -7.2578,-1.2422 -14.996,-2.5664 -22.734,-3.8906 -3.8359,-0.71875 -7.6836,-1.3828 -11.445,-2.1445 -3.7852,-0.68359 -7.4688,-1.5352 -11.105,-2.1797 -3.5664,-0.85547 -7.1172,-1.4297 -10.426,-2.2227 -3.3438,-0.68359 -6.5234,-1.3594 -9.4688,-2.0273 -2.9727,-0.62109 -5.6953,-1.1914 -8.1094,-1.6953 -2.4414,-0.45313 -4.625,-0.90234 -6.4336,-1.2773 -3.6289,-0.69531 -5.7734,-0.94531 -5.7734,-0.94531 0,0 1.4844,1.5664 4.2188,4.0547 1.3438,1.2617 3.0508,2.6836 5.1406,4.2227 2.0664,1.5586 4.4531,3.2891 7.1406,4.9297 1.3555,0.82422 2.7656,1.6797 4.2227,2.5703 1.4883,0.82812 3.0625,1.6133 4.6719,2.4648 3.2148,1.7148 6.7539,3.1523 10.414,4.6797 3.7109,1.3477 7.5703,2.7891 11.598,3.832 3.9883,1.2109 8.1406,2 12.273,2.8711 4.1719,0.62891 8.332,1.3398 12.465,1.6133 2.0625,0.21094 4.1055,0.37109 6.1328,0.39844 2.0273,0.0625 4.0195,0.16406 5.9883,0.14453 3.9297,-0.0742 7.7227,-0.15625 11.305,-0.51562 1.793,-0.18359 3.5273,-0.32031 5.207,-0.52734 1.6758,-0.25391 3.293,-0.49219 4.8438,-0.72656 6.1953,-1.0195 11.289,-2.3203 14.824,-3.4375 1.5391,-0.48828 2.7656,-0.90625 3.6836,-1.2383 l -0.5,30.273 c -0.66016,-0.11328 -1.3984,-0.23047 -2.2305,-0.35156 -1.7734,-0.22266 -3.9141,-0.56641 -6.3438,-0.94141 -2.4258,-0.32422 -5.1367,-0.67578 -8.0703,-1.1602 -2.9297,-0.35938 -6.0703,-0.88672 -9.3672,-1.3828 -3.2969,-0.41406 -6.7422,-1.1328 -10.293,-1.625 -3.5234,-0.63672 -7.1641,-1.3008 -10.863,-1.9727 -3.6914,-0.64844 -7.3984,-1.4766 -11.129,-2.2188 -3.7031,-0.85547 -7.4258,-1.6133 -11.059,-2.543 -3.6523,-0.90625 -7.2422,-1.7969 -10.719,-2.6602 -3.4375,-1.0117 -6.8711,-1.7734 -10.051,-2.75 -3.207,-0.90234 -6.2891,-1.7188 -9.1055,-2.5938 -2.8789,-0.77734 -5.4727,-1.5586 -7.7891,-2.2461 -2.3398,-0.64453 -4.4531,-1.2266 -6.1953,-1.7695 -3.4961,-1.0078 -5.5781,-1.4453 -5.5781,-1.4453 0,0 1.3047,1.6875 3.7344,4.3906 1.1875,1.3711 2.7617,2.9023 4.6797,4.6094 0.94531,0.875 1.9883,1.7461 3.0859,2.6992 1.1094,0.91797 2.3203,1.7734 3.5625,2.7344 1.2617,0.92969 2.582,1.8984 3.9883,2.8398 1.4102,0.92578 2.9102,1.8086 4.4414,2.7617 3.0625,1.8945 6.4727,3.5391 10.012,5.2461 3.5938,1.5508 7.3359,3.1758 11.277,4.3789 3.8867,1.4062 7.9844,2.3125 12.051,3.3477 4.1328,0.72656 8.2383,1.5977 12.359,1.9141 4.0898,0.54297 8.1719,0.57031 12.086,0.65625 3.9297,-0.10156 7.7188,-0.19531 11.289,-0.66016 1.7812,-0.23438 3.5117,-0.46484 5.1875,-0.6875 1.668,-0.27344 3.2695,-0.62109 4.8008,-0.95312 1.5273,-0.35938 2.9922,-0.64844 4.3672,-1.0234 1.3789,-0.42188 2.6758,-0.78906 3.8867,-1.1914 2.4258,-0.76562 4.5078,-1.5195 6.1875,-2.2852 0.64453,-0.28125 1.2148,-0.53906 1.7461,-0.78516 l -0.95313,57.895 c -2.582,-0.79688 -5.5664,-1.6562 -8.9492,-2.5547 -2.6641,-0.65625 -5.5508,-1.3594 -8.6016,-2.1094 -3.0469,-0.66797 -6.2422,-1.4336 -9.5547,-2.0625 -3.3047,-0.69922 -6.7188,-1.3477 -10.191,-1.9727 -3.4727,-0.59375 -7,-1.2031 -10.527,-1.8086 -3.5391,-0.53906 -7.0781,-1.082 -10.555,-1.6133 -3.4961,-0.49219 -6.9336,-0.98047 -10.293,-1.3477 -3.3438,-0.45312 -6.6211,-0.73828 -9.7148,-1.0703 -3.1094,-0.29688 -6.0742,-0.51562 -8.8242,-0.72266 -5.5273,-0.35938 -10.152,-0.47656 -13.531,-0.48828 -3.3555,0.004 -5.3203,0.16797 -5.3203,0.16797 0,0 1.5273,1.25 4.2891,3.1523 2.7383,1.875 6.8711,4.3867 11.945,6.8555 5.0742,2.5312 11.176,4.9766 17.863,7.1328 3.3477,1.0352 6.832,2.0664 10.422,2.8711 3.5742,0.91406 7.2578,1.5391 10.93,2.2305 3.7031,0.51562 7.3984,1.1016 11.07,1.3672 3.6562,0.39063 7.293,0.49219 10.797,0.58984 3.5117,0.0274 6.9102,-0.0156 10.129,-0.22266 3.2188,-0.20312 6.2656,-0.48047 9.0703,-0.87891 3.6055,-0.47656 6.7578,-1.0859 9.4453,-1.707 l -0.35156,21.488 c -2.2852,-0.71875 -5.207,-1.5234 -8.6172,-2.2695 -4.0078,-0.85547 -8.6406,-1.6562 -13.559,-2.1914 -2.457,-0.29688 -4.9961,-0.50781 -7.5664,-0.70703 -2.5703,-0.15234 -5.1797,-0.29688 -7.7969,-0.34766 -2.6094,-0.0859 -5.2266,-0.0625 -7.8008,-0.0391 -2.582,0.0742 -5.1172,0.13281 -7.5938,0.32031 -4.9375,0.28125 -9.6055,0.84375 -13.652,1.4883 -4.0586,0.66797 -7.4492,1.457 -9.9219,2.1211 -2.4531,0.67578 -3.8789,1.2305 -3.8789,1.2305 0,0 1.2266,0.90625 3.4102,2.2188 2.1602,1.2891 5.4102,2.9219 9.3359,4.4141 3.9258,1.5273 8.5977,2.8711 13.66,3.8789 2.5312,0.48828 5.1641,0.90625 7.8438,1.1992 2.6836,0.30859 5.4141,0.46484 8.1523,0.56641 2.7383,0.043 5.4766,0.0391 8.1719,-0.12891 2.6953,-0.14062 5.3438,-0.44141 7.8945,-0.78516 5.1055,-0.73828 9.8398,-1.8438 13.844,-3.168 3.1875,-1.0234 5.8789,-2.1562 7.9961,-3.1758 l -0.37891,23.094 c -5.7227,-2.1406 -13.254,-3.5898 -20.797,-3.5391 -3.8398,0.0234 -7.6836,0.32031 -11.285,1.0078 -3.6016,0.63672 -6.9609,1.5898 -9.8398,2.6719 -2.8789,1.0742 -5.2812,2.2969 -6.9609,3.2969 -0.83984,0.44141 -1.5,0.94531 -1.9492,1.2227 -0.44922,0.30078 -0.6875,0.5 -0.6875,0.5 0,0 0.24219,0.19531 0.6875,0.5 0.44922,0.27344 1.1094,0.78516 1.9492,1.2266 1.6797,1.0039 4.082,2.2227 6.9609,3.2969 2.8789,1.0859 6.2422,2.0391 9.8398,2.6758 3.6016,0.6875 7.4414,0.98047 11.285,1.0078 7.4688,0.0508 14.926,-1.8242 20.625,-3.9297 l -0.84766,54.223 h 15.176 l -0.83984,-50.434 c 1.5,0.63672 3.0586,1.4883 4.7383,2.0781 2.0898,0.73438 4.3438,1.5352 6.6758,2.0938 2.3477,0.55469 4.7812,1.0469 7.2969,1.3203 2.4883,0.28516 5.0664,0.39062 7.5938,0.32422 2.5469,-0.12891 5.0469,-0.33594 7.4609,-0.875 2.4023,-0.37891 4.6875,-1.2109 6.7969,-1.9336 2.1055,-0.78516 4,-1.8438 5.6992,-2.7539 1.7148,-1.0352 3.2148,-2.1719 4.4648,-3.1602 1.3008,-0.96484 2.0781,-2.0156 2.8633,-2.8516 1.4727,-1.7188 2.25,-2.8516 2.25,-2.8516 0,0 -1.3555,-0.22266 -3.6133,-0.34766 -1.1094,-0.10547 -2.5195,0.0273 -3.9492,-0.17188 -1.457,-0.14453 -2.957,-0.20312 -4.5938,-0.3125 -1.6953,-0.20312 -3.4453,-0.23047 -5.2812,-0.41406 -1.8438,-0.22266 -3.7031,-0.27344 -5.6523,-0.54297 -0.97266,-0.14453 -1.9375,-0.15234 -2.9297,-0.28125 -0.99609,-0.14453 -2,-0.27344 -3.0078,-0.35938 -2.043,-0.23438 -4.1289,-0.46875 -6.2031,-0.71094 -2.1523,-0.21875 -4.2969,-0.44141 -6.4102,-0.66016 -2.1719,-0.19531 -4.3359,-0.33984 -6.5117,-0.44141 -2.6836,-0.12891 -5.3594,-0.11719 -7.9141,0.0117 l -0.34766,-21.242 c 0.37891,0.12891 0.73438,0.26172 1.125,0.39062 4.0039,1.3281 8.7344,2.4297 13.844,3.168 2.5547,0.33984 5.2031,0.64453 7.8945,0.78516 2.6953,0.16406 5.4336,0.16797 8.1719,0.12891 2.7383,-0.10156 5.4727,-0.25781 8.1523,-0.56641 2.6836,-0.29297 5.3125,-0.71094 7.8438,-1.1992 5.0625,-1.0078 9.7344,-2.3516 13.66,-3.8789 3.9258,-1.4883 7.168,-3.125 9.3359,-4.4141 2.1836,-1.3047 3.4102,-2.2188 3.4102,-2.2188 0,0 -1.4219,-0.54688 -3.8789,-1.2305 -2.4766,-0.66797 -5.8633,-1.457 -9.9219,-2.1211 -4.0469,-0.64453 -8.7148,-1.2031 -13.652,-1.4883 -2.4766,-0.18359 -5.0195,-0.24609 -7.5938,-0.32031 -2.5742,-0.0234 -5.1914,-0.043 -7.8008,0.0391 -2.6094,0.0508 -5.2188,0.19531 -7.7969,0.34766 -2.5703,0.19141 -5.1055,0.40234 -7.5664,0.70703 -4.9219,0.53125 -9.5469,1.332 -13.559,2.1914 -0.63281,0.14062 -1.2227,0.28125 -1.8203,0.42578 l -0.30078,-18.328 c 0.85547,0.13281 1.6914,0.27344 2.5977,0.39062 2.8047,0.39062 5.8516,0.67578 9.0703,0.87891 3.2266,0.20703 6.6211,0.25391 10.129,0.22266 3.5039,-0.0937 7.1406,-0.19531 10.797,-0.58984 3.6719,-0.26172 7.3711,-0.85547 11.07,-1.3672 3.6719,-0.6875 7.3633,-1.3164 10.93,-2.2305 3.5898,-0.80469 7.0742,-1.8438 10.422,-2.8711 6.6875,-2.1562 12.789,-4.6016 17.863,-7.1328 5.0742,-2.4766 9.2109,-4.9766 11.945,-6.8555 2.7617,-1.9023 4.2891,-3.1523 4.2891,-3.1523 0,0 -1.9648,-0.16406 -5.3203,-0.16797 -3.375,0.0117 -8.0078,0.12891 -13.531,0.48828 -2.75,0.20703 -5.7188,0.42578 -8.8242,0.72266 -3.1016,0.33594 -6.3789,0.61719 -9.7148,1.0703 -3.3594,0.37109 -6.7969,0.86328 -10.293,1.3477 -3.4844,0.53125 -7.0234,1.0703 -10.555,1.6133 -3.5273,0.60547 -7.0547,1.2109 -10.527,1.8086 -3.4727,0.62109 -6.8867,1.2695 -10.191,1.9727 -3.3164,0.62891 -6.5078,1.3945 -9.5547,2.0625 -3.0508,0.75 -5.9375,1.457 -8.6016,2.1094 -0.75,0.19531 -1.4375,0.39062 -2.1562,0.58984 l -0.39062,-23.879 c 1.2031,0.41016 2.5039,0.82422 4.0039,1.2422 2.1797,0.63281 4.6602,1.2383 7.3789,1.7461 2.7227,0.55469 5.6836,0.98047 8.8359,1.3203 3.1484,0.36328 6.4805,0.51562 9.9297,0.61719 3.4453,0.004 7.0156,0.0234 10.617,-0.30859 3.6172,-0.17969 7.2539,-0.73828 10.898,-1.2031 3.6133,-0.67578 7.2422,-1.2773 10.742,-2.2188 3.5234,-0.8125 6.9258,-1.9023 10.199,-2.9805 3.2539,-1.1523 6.3711,-2.3242 9.2578,-3.6406 2.8906,-1.293 5.582,-2.6094 8.0039,-3.9688 2.4258,-1.3164 4.6133,-2.6602 6.5117,-3.9375 1.9023,-1.2539 3.5039,-2.3984 4.7695,-3.4258 2.5547,-2.043 3.9531,-3.3594 3.9531,-3.3594 0,0 -1.9258,-0.0547 -5.1875,0.11328 -1.6016,0.10547 -3.5508,0.23437 -5.7852,0.37891 -2.1719,0.19531 -4.625,0.42578 -7.2969,0.66797 -2.6328,0.30078 -5.4805,0.62891 -8.4961,0.97266 -2.9805,0.42188 -6.1328,0.73438 -9.3359,1.2422 -3.2305,0.39844 -6.5312,0.92969 -9.8828,1.4062 -3.3477,0.51562 -6.7461,1.0352 -10.141,1.5625 -3.3945,0.54297 -6.793,1.0859 -10.137,1.6172 -3.3438,0.55469 -6.6406,1.0859 -9.8398,1.6875 -3.2031,0.5 -6.3047,1.1641 -9.2617,1.6797 -2.9727,0.59766 -5.7852,1.1641 -8.3828,1.6875 -2.625,0.59375 -5.0391,1.1328 -7.1719,1.6133 -1.5859,0.40234 -2.9688,0.75 -4.2344,1.0742 l -0.41016,-24.914 c 0.35156,0.11719 0.69531,0.23047 1.0625,0.34766 1.2109,0.40234 2.5078,0.77344 3.8867,1.1914 1.3789,0.375 2.8398,0.66797 4.3672,1.0234 1.5273,0.32422 3.1367,0.67188 4.8008,0.95312 1.6758,0.22266 3.4062,0.45312 5.1875,0.6875 3.5742,0.46484 7.3594,0.55859 11.289,0.66016 3.9141,-0.0859 7.9961,-0.11328 12.086,-0.65625 4.1211,-0.32031 8.2305,-1.1875 12.359,-1.9141 4.0664,-1.0352 8.1641,-1.9414 12.051,-3.3477 3.9414,-1.2031 7.6836,-2.832 11.277,-4.3789 3.5391,-1.707 6.9492,-3.3555 10.012,-5.2461 1.5273,-0.95312 3.0312,-1.8359 4.4414,-2.7617 1.4062,-0.93359 2.7266,-1.9023 3.9883,-2.8398 1.25,-0.95703 2.457,-1.8125 3.5625,-2.7344 1.0977,-0.95703 2.1406,-1.832 3.0859,-2.6992 1.9219,-1.707 3.4961,-3.2383 4.6797,-4.6094 2.4297,-2.7031 3.7344,-4.3906 3.7344,-4.3906 0,0 -2.082,0.4375 -5.5781,1.4453 -1.7422,0.54297 -3.8477,1.125 -6.1953,1.7695 -2.3242,0.69531 -4.9102,1.4688 -7.7891,2.2461 -2.8164,0.875 -5.8984,1.6914 -9.1055,2.5938 -3.1797,0.97266 -6.6133,1.7344 -10.051,2.75 -3.4766,0.86328 -7.0664,1.7539 -10.719,2.6602 -3.6289,0.92578 -7.3594,1.6797 -11.059,2.543 -3.7227,0.73437 -7.4375,1.5664 -11.129,2.2188 -3.7031,0.67187 -7.3398,1.332 -10.863,1.9727 -3.5508,0.48828 -6.9961,1.2031 -10.293,1.625 -3.2969,0.5 -6.4414,1.0195 -9.3672,1.3828 -2.9336,0.48047 -5.6406,0.83594 -8.0703,1.1602 -0.62891,0.0937 -1.1758,0.17969 -1.7656,0.26953 l -0.44922,-27.082 c 3.1758,0.86719 7.1133,1.7656 11.648,2.5078 1.5508,0.23438 3.168,0.47656 4.8438,0.72656 1.6797,0.20703 3.4141,0.33984 5.207,0.52734 3.5781,0.35156 7.375,0.44141 11.305,0.51562 1.9648,0.0156 3.9648,-0.0781 5.9883,-0.14453 2.0273,-0.0273 4.0781,-0.19141 6.1328,-0.39844 4.1328,-0.27344 8.3008,-0.98047 12.465,-1.6133 4.1328,-0.875 8.2812,-1.6562 12.273,-2.8711 4.0273,-1.0352 7.8789,-2.4766 11.598,-3.832 3.6641,-1.5273 7.2031,-2.9688 10.414,-4.6797 1.6055,-0.85156 3.1797,-1.6367 4.6719,-2.4648 1.4609,-0.89062 2.8672,-1.7461 4.2227,-2.5703 2.6875,-1.6406 5.0742,-3.3711 7.1406,-4.9297 2.0898,-1.5391 3.7969,-2.9609 5.1445,-4.2227 2.7344,-2.4883 4.2188,-4.0547 4.2188,-4.0547 0.0117,0.004 -2.1367,0.27734 -5.7656,0.97266 z"
       id="path69" />
  </g>
</svg>
