<?xml version="1.0" encoding="UTF-8" standalone="no"?>
<svg
   width="526.396pt"
   height="526.396pt"
   version="1.1"
   viewBox="0 0 526.396 526.396"
   id="svg133"
   sodipodi:docname="wheat.svg"
   inkscape:version="1.1.1 (3bf5ae0d25, 2021-09-20)"
   xmlns:inkscape="http://www.inkscape.org/namespaces/inkscape"
   xmlns:sodipodi="http://sodipodi.sourceforge.net/DTD/sodipodi-0.dtd"
   xmlns="http://www.w3.org/2000/svg"
   xmlns:svg="http://www.w3.org/2000/svg">
  <sodipodi:namedview
     id="namedview135"
     pagecolor="#ffffff"
     bordercolor="#666666"
     borderopacity="1.0"
     inkscape:pageshadow="2"
     inkscape:pageopacity="0.0"
     inkscape:pagecheckerboard="0"
     inkscape:document-units="pt"
     showgrid="false"
     inkscape:zoom="0.91928571"
     inkscape:cx="466.12277"
     inkscape:cy="467.21057"
     inkscape:window-width="1920"
     inkscape:window-height="1017"
     inkscape:window-x="1912"
     inkscape:window-y="-8"
     inkscape:window-maximized="1"
     inkscape:current-layer="svg133" />
  <defs
     id="defs59">
    <symbol
       id="s"
       overflow="visible">
      <path
         d="m 18.766,-1.125 c -0.96875,0.5 -1.9805,0.875 -3.0312,1.125 -1.043,0.25781 -2.1367,0.39062 -3.2812,0.39062 -3.3984,0 -6.0898,-0.94531 -8.0781,-2.8438 -1.9922,-1.9062 -2.9844,-4.4844 -2.9844,-7.7344 0,-3.2578 0.99219,-5.8359 2.9844,-7.7344 1.9883,-1.9062 4.6797,-2.8594 8.0781,-2.8594 1.1445,0 2.2383,0.13281 3.2812,0.39062 1.0508,0.25 2.0625,0.625 3.0312,1.125 v 4.2188 c -0.98047,-0.65625 -1.9453,-1.1406 -2.8906,-1.4531 -0.94922,-0.3125 -1.9492,-0.46875 -3,-0.46875 -1.875,0 -3.3516,0.60547 -4.4219,1.8125 -1.0742,1.1992 -1.6094,2.8555 -1.6094,4.9688 0,2.1055 0.53516,3.7617 1.6094,4.9688 1.0703,1.1992 2.5469,1.7969 4.4219,1.7969 1.0508,0 2.0508,-0.14844 3,-0.45312 0.94531,-0.3125 1.9102,-0.80078 2.8906,-1.4688 z"
         id="path2" />
    </symbol>
    <symbol
       id="d"
       overflow="visible">
      <path
         d="m 13.734,-11.141 c -0.4375,-0.19531 -0.87109,-0.34375 -1.2969,-0.4375 -0.41797,-0.10156 -0.83984,-0.15625 -1.2656,-0.15625 -1.2617,0 -2.2305,0.40625 -2.9062,1.2188 -0.67969,0.80469 -1.0156,1.9531 -1.0156,3.4531 v 7.0625 H 2.3591 v -15.312 h 4.8906 v 2.5156 c 0.625,-1 1.3438,-1.7266 2.1562,-2.1875 0.82031,-0.46875 1.8008,-0.70312 2.9375,-0.70312 0.16406,0 0.34375,0.01172 0.53125,0.03125 0.19531,0.01172 0.47656,0.03906 0.84375,0.07813 z"
         id="path5" />
    </symbol>
    <symbol
       id="c"
       overflow="visible">
      <path
         d="m 17.641,-7.7031 v 1.4062 H 6.188 c 0.125,1.1484 0.53906,2.0078 1.25,2.5781 0.70703,0.57422 1.7031,0.85938 2.9844,0.85938 1.0312,0 2.082,-0.14844 3.1562,-0.45312 1.082,-0.3125 2.1914,-0.77344 3.3281,-1.3906 v 3.7656 c -1.1562,0.4375 -2.3125,0.76562 -3.4688,0.98438 -1.1562,0.22656 -2.3125,0.34375 -3.4688,0.34375 -2.7734,0 -4.9297,-0.70312 -6.4688,-2.1094 -1.5312,-1.4062 -2.2969,-3.3789 -2.2969,-5.9219 0,-2.5 0.75391,-4.4609 2.2656,-5.8906 1.5078,-1.4375 3.582,-2.1562 6.2188,-2.1562 2.4062,0 4.332,0.73047 5.7812,2.1875 1.4453,1.4492 2.1719,3.3828 2.1719,5.7969 z m -5.0312,-1.625 c 0,-0.92578 -0.27344,-1.6719 -0.8125,-2.2344 -0.54297,-0.57031 -1.25,-0.85938 -2.125,-0.85938 -0.94922,0 -1.7188,0.26562 -2.3125,0.79688 -0.5937,0.53126 -0.96484,1.2969 -1.1094,2.2969 z"
         id="path8" />
    </symbol>
    <symbol
       id="b"
       overflow="visible">
      <path
         d="m 9.2188,-6.8906 c -1.0234,0 -1.793,0.17188 -2.3125,0.51562 -0.51172,0.34375 -0.76562,0.85547 -0.76562,1.5312 0,0.625 0.20703,1.1172 0.625,1.4688 0.41406,0.34375 0.98828,0.51562 1.7188,0.51562 0.92578,0 1.7031,-0.32812 2.3281,-0.98438 0.63281,-0.66406 0.95312,-1.4922 0.95312,-2.4844 v -0.5625 z m 7.4688,-1.8438 V 0 h -4.9219 v -2.2656 c -0.65625,0.92969 -1.3984,1.6055 -2.2188,2.0312 -0.82422,0.41406 -1.8242,0.625 -3,0.625 -1.5859,0 -2.8711,-0.45703 -3.8594,-1.375 -0.99219,-0.92578 -1.4844,-2.1289 -1.4844,-3.6094 0,-1.7891 0.61328,-3.1016 1.8438,-3.9375 1.2383,-0.84375 3.1797,-1.2656 5.8281,-1.2656 h 2.8906 v -0.39062 c 0,-0.76953 -0.30859,-1.332 -0.92188,-1.6875 -0.61719,-0.36328 -1.5703,-0.54688 -2.8594,-0.54688 -1.0547,0 -2.0312,0.10547 -2.9375,0.3125 -0.89844,0.21094 -1.7305,0.52344 -2.5,0.9375 v -3.7344 c 1.0391,-0.25 2.0859,-0.44141 3.1406,-0.57812 1.0625,-0.13281 2.125,-0.20312 3.1875,-0.20312 2.7578,0 4.75,0.54688 5.9688,1.6406 1.2266,1.0859 1.8438,2.8555 1.8438,5.3125 z"
         id="path11" />
    </symbol>
    <symbol
       id="a"
       overflow="visible">
      <path
         d="m 7.7031,-19.656 v 4.3438 H 12.75 v 3.5 H 7.7031 v 6.5 c 0,0.71094 0.14062,1.1875 0.42188,1.4375 0.28126,0.25 0.83594,0.375 1.6719,0.375 h 2.5156 v 3.5 h -4.1875 c -1.9375,0 -3.3125,-0.39844 -4.125,-1.2031 -0.80469,-0.8125 -1.2031,-2.1797 -1.2031,-4.1094 v -6.5 h -2.4219 v -3.5 h 2.4219 v -4.3438 z"
         id="path14" />
    </symbol>
    <symbol
       id="j"
       overflow="visible">
      <path
         d="m 12.766,-13.078 v -8.2031 h 4.9219 V -1e-4 H 12.766 v -2.2188 c -0.66797,0.90625 -1.4062,1.5703 -2.2188,1.9844 -0.8126,0.4141 -1.7578,0.625 -2.8281,0.625 -1.8867,0 -3.4336,-0.75 -4.6406,-2.25 -1.2109,-1.5 -1.8125,-3.4258 -1.8125,-5.7812 0,-2.3633 0.60156,-4.2969 1.8125,-5.7969 1.207,-1.5 2.7539,-2.25 4.6406,-2.25 1.0625,0 2,0.21484 2.8125,0.64062 0.82031,0.42969 1.5664,1.0859 2.2344,1.9688 z m -3.2188,9.9219 c 1.0391,0 1.8359,-0.37891 2.3906,-1.1406 0.55078,-0.76953 0.82812,-1.8828 0.82812,-3.3438 0,-1.457 -0.27734,-2.5664 -0.82812,-3.3281 -0.55469,-0.76953 -1.3516,-1.1562 -2.3906,-1.1562 -1.043,0 -1.8398,0.38672 -2.3906,1.1562 -0.55469,0.76172 -0.82812,1.8711 -0.82812,3.3281 0,1.4609 0.27344,2.5742 0.82812,3.3438 0.55078,0.76172 1.3477,1.1406 2.3906,1.1406 z"
         id="path17" />
    </symbol>
    <symbol
       id="i"
       overflow="visible">
      <path
         d="m 10.5,-3.1562 c 1.0508,0 1.8516,-0.37891 2.4062,-1.1406 0.55078,-0.76953 0.82812,-1.8828 0.82812,-3.3438 0,-1.457 -0.27734,-2.5664 -0.82812,-3.3281 -0.55469,-0.76953 -1.3555,-1.1562 -2.4062,-1.1562 -1.0547,0 -1.8594,0.38672 -2.4219,1.1562 -0.55469,0.77344 -0.82812,1.8828 -0.82812,3.3281 0,1.4492 0.27344,2.5586 0.82812,3.3281 0.5625,0.77344 1.3672,1.1562 2.4219,1.1562 z m -3.25,-9.9219 c 0.67578,-0.88281 1.4219,-1.5391 2.2344,-1.9688 0.82031,-0.42578 1.7656,-0.64062 2.8281,-0.64062 1.8945,0 3.4453,0.75 4.6562,2.25 1.207,1.5 1.8125,3.4336 1.8125,5.7969 0,2.3555 -0.60547,4.2812 -1.8125,5.7812 -1.2109,1.5 -2.7617,2.25 -4.6562,2.25 -1.0625,0 -2.0078,-0.21094 -2.8281,-0.625 C 8.6719,-0.6602 7.9258,-1.32032 7.25,-2.21882 V -2e-5 H 2.3594 v -21.281 H 7.25 Z"
         id="path20" />
    </symbol>
    <symbol
       id="f"
       overflow="visible">
      <path
         d="m 0.34375,-15.312 h 4.8906 l 4.125,10.391 3.5,-10.391 h 4.8906 l -6.4375,16.766 c -0.64844,1.6953 -1.4023,2.8828 -2.2656,3.5625 -0.86719,0.6875 -2,1.0312 -3.4062,1.0312 H 2.79685 V 2.8289 h 1.5312 c 0.83203,0 1.4375,-0.13672 1.8125,-0.40625 C 6.52336,2.16093 6.82024,1.69218 7.03117,1.01645 L 7.17179,0.59457 Z"
         id="path23" />
    </symbol>
    <symbol
       id="h"
       overflow="visible">
      <path
         d="m 0.14062,-20.406 h 18.812 v 3.9688 h -6.7656 V 8e-4 h -5.2656 v -16.438 h -6.7812 z"
         id="path26" />
    </symbol>
    <symbol
       id="g"
       overflow="visible">
      <path
         d="M 17.75,-9.3281 V 0 h -4.9219 v -7.1406 c 0,-1.3203 -0.03125,-2.2344 -0.09375,-2.7344 -0.0625,-0.5 -0.16797,-0.86719 -0.3125,-1.1094 -0.1875,-0.3125 -0.44922,-0.55469 -0.78125,-0.73438 -0.32422,-0.17578 -0.69531,-0.26562 -1.1094,-0.26562 -1.0234,0 -1.8242,0.39844 -2.4062,1.1875 -0.58594,0.78125 -0.875,1.8711 -0.875,3.2656 V -1e-4 H 2.3594 v -15.312 H 7.25 v 2.2344 c 0.73828,-0.88281 1.5195,-1.5391 2.3438,-1.9688 0.83203,-0.42578 1.75,-0.64062 2.75,-0.64062 1.7695,0 3.1133,0.54688 4.0312,1.6406 0.91406,1.0859 1.375,2.6562 1.375,4.7188 z"
         id="path29" />
    </symbol>
    <symbol
       id="r"
       overflow="visible">
      <path
         d="m 12.422,-21.281 v 3.2188 H 9.7189 c -0.6875,0 -1.1719,0.125 -1.4531,0.375 -0.27344,0.25 -0.40625,0.6875 -0.40625,1.3125 v 1.0625 h 4.1875 v 3.5 H 7.85955 V -2e-4 h -4.8906 v -11.812 h -2.4375 v -3.5 h 2.4375 v -1.0625 c 0,-1.6641 0.46094,-2.8984 1.3906,-3.7031 0.92578,-0.80078 2.3672,-1.2031 4.3281,-1.2031 z"
         id="path32" />
    </symbol>
    <symbol
       id="e"
       overflow="visible">
      <path
         d="m 9.6406,-12.188 c -1.0859,0 -1.9141,0.39062 -2.4844,1.1719 -0.57422,0.78125 -0.85938,1.9062 -0.85938,3.375 0,1.4688 0.28516,2.5938 0.85938,3.375 0.57031,0.77344 1.3984,1.1562 2.4844,1.1562 1.0625,0 1.875,-0.38281 2.4375,-1.1562 0.57031,-0.78125 0.85938,-1.9062 0.85938,-3.375 0,-1.4688 -0.28906,-2.5938 -0.85938,-3.375 -0.5625,-0.78125 -1.375,-1.1719 -2.4375,-1.1719 z m 0,-3.5 c 2.6328,0 4.6914,0.71484 6.1719,2.1406 1.4766,1.418 2.2188,3.3867 2.2188,5.9062 0,2.5117 -0.74219,4.4805 -2.2188,5.9062 C 14.332,-0.317 12.2734,0.39 9.6406,0.39 6.9922,0.39 4.9258,-0.31703 3.4375,-1.735 1.9453,-3.1608 1.2031,-5.1295 1.2031,-7.6412 c 0,-2.5195 0.74219,-4.4883 2.2344,-5.9062 1.4883,-1.4258 3.5547,-2.1406 6.2031,-2.1406 z"
         id="path35" />
    </symbol>
    <symbol
       id="q"
       overflow="visible">
      <path
         d="m 16.547,-12.766 c 0.61328,-0.94531 1.3477,-1.6719 2.2031,-2.1719 0.85156,-0.5 1.7891,-0.75 2.8125,-0.75 1.7578,0 3.0977,0.54688 4.0156,1.6406 0.92578,1.0859 1.3906,2.6562 1.3906,4.7188 V -4e-4 h -4.9219 v -7.9844 -0.35938 c 0.0078,-0.13281 0.01563,-0.32031 0.01563,-0.5625 0,-1.082 -0.16406,-1.8633 -0.48438,-2.3438 -0.3125,-0.48828 -0.82422,-0.73438 -1.5312,-0.73438 -0.92969,0 -1.6484,0.38672 -2.1562,1.1562 -0.51172,0.76172 -0.77344,1.8672 -0.78125,3.3125 v 7.5156 h -4.9219 v -7.9844 c 0,-1.6953 -0.14844,-2.7852 -0.4375,-3.2656 -0.29297,-0.48828 -0.8125,-0.73438 -1.5625,-0.73438 -0.9375,0 -1.6641,0.38672 -2.1719,1.1562 -0.51172,0.76172 -0.76562,1.8594 -0.76562,3.2969 v 7.5312 h -4.9219 v -15.312 h 4.9219 v 2.2344 c 0.60156,-0.86328 1.2891,-1.5156 2.0625,-1.9531 0.78125,-0.4375 1.6406,-0.65625 2.5781,-0.65625 1.0625,0 2,0.25781 2.8125,0.76562 0.8125,0.51172 1.4258,1.2305 1.8438,2.1562 z"
         id="path38" />
    </symbol>
    <symbol
       id="p"
       overflow="visible">
      <path
         d="M 17.75,-9.3281 V 0 h -4.9219 v -7.1094 c 0,-1.3438 -0.03125,-2.2656 -0.09375,-2.7656 -0.0625,-0.5 -0.16797,-0.86719 -0.3125,-1.1094 -0.1875,-0.3125 -0.44922,-0.55469 -0.78125,-0.73438 -0.32422,-0.17578 -0.69531,-0.26562 -1.1094,-0.26562 -1.0234,0 -1.8242,0.39844 -2.4062,1.1875 -0.58594,0.78125 -0.875,1.8711 -0.875,3.2656 V -1e-4 H 2.3594 v -21.281 H 7.25 v 8.2031 c 0.73828,-0.88281 1.5195,-1.5391 2.3438,-1.9688 0.83203,-0.42578 1.75,-0.64062 2.75,-0.64062 1.7695,0 3.1133,0.54688 4.0312,1.6406 0.91406,1.0859 1.375,2.6562 1.375,4.7188 z"
         id="path41" />
    </symbol>
    <symbol
       id="o"
       overflow="visible">
      <path
         d="m 2.5781,-20.406 h 5.875 l 7.4219,14 v -14 h 4.9844 V 0 h -5.875 L 7.5625,-14 V 0 H 2.5781 Z"
         id="path44" />
    </symbol>
    <symbol
       id="n"
       overflow="visible">
      <path
         d="m 2.1875,-5.9688 v -9.3438 h 4.9219 v 1.5312 c 0,0.83594 -0.00781,1.875 -0.015625,3.125 -0.011719,1.25 -0.015625,2.0859 -0.015625,2.5 0,1.2422 0.03125,2.1328 0.09375,2.6719 0.070313,0.54297 0.17969,0.93359 0.32812,1.1719 0.20703,0.32422 0.47266,0.57422 0.79688,0.75 0.32031,0.16797 0.69141,0.25 1.1094,0.25 1.0195,0 1.8203,-0.39062 2.4062,-1.1719 0.58203,-0.78125 0.875,-1.8672 0.875,-3.2656 v -7.5625 h 4.8906 V -6e-4 H 12.6875 V -2.2194 C 11.94531,-1.32096 11.1641,-0.6608 10.3437,-0.235 9.51948,0.17906 8.6093,0.39 7.6093,0.39 5.8476,0.39 4.5038,-0.14906 3.5781,-1.235 2.64841,-2.317 2.1875,-3.8952 2.1875,-5.9694 Z"
         id="path47" />
    </symbol>
    <symbol
       id="m"
       overflow="visible">
      <path
         d="m 2.5781,-20.406 h 8.7344 c 2.5938,0 4.582,0.57812 5.9688,1.7344 1.3945,1.1484 2.0938,2.7891 2.0938,4.9219 0,2.1367 -0.69922,3.7812 -2.0938,4.9375 -1.3867,1.1562 -3.375,1.7344 -5.9688,1.7344 H 7.8281 V 3e-4 h -5.25 z m 5.25,3.8125 v 5.7031 H 10.75 c 1.0195,0 1.8047,-0.25 2.3594,-0.75 0.5625,-0.5 0.84375,-1.2031 0.84375,-2.1094 0,-0.91406 -0.28125,-1.6172 -0.84375,-2.1094 -0.55469,-0.48828 -1.3398,-0.73438 -2.3594,-0.73438 z"
         id="path50" />
    </symbol>
    <symbol
       id="l"
       overflow="visible">
      <path
         d="M 2.3594,-15.312 H 7.25 v 15.031 c 0,2.0508 -0.49609,3.6172 -1.4844,4.7031 -0.98047,1.082 -2.4062,1.625 -4.2812,1.625 H -0.9375 V 2.8283 h 0.85938 c 0.92578,0 1.5625,-0.21094 1.9062,-0.625 0.35156,-0.41797 0.53125,-1.2461 0.53125,-2.4844 z m 0,-5.9688 H 7.25 v 4 H 2.3594 Z"
         id="path53" />
    </symbol>
    <symbol
       id="k"
       overflow="visible">
      <path
         d="m 14.719,-14.828 v 3.9844 c -0.65625,-0.45703 -1.3242,-0.79688 -2,-1.0156 -0.66797,-0.21875 -1.3594,-0.32812 -2.0781,-0.32812 -1.3672,0 -2.4336,0.40234 -3.2031,1.2031 -0.76172,0.79297 -1.1406,1.9062 -1.1406,3.3438 0,1.4297 0.37891,2.543 1.1406,3.3438 0.76953,0.79297 1.8359,1.1875 3.2031,1.1875 0.75781,0 1.4844,-0.10938 2.1719,-0.32812 0.6875,-0.22656 1.3203,-0.56641 1.9062,-1.0156 v 4 c -0.76172,0.28125 -1.5391,0.48828 -2.3281,0.625 -0.78125,0.14453 -1.5742,0.21875 -2.375,0.21875 -2.7617,0 -4.9219,-0.70703 -6.4844,-2.125 -1.5547,-1.4141 -2.3281,-3.3828 -2.3281,-5.9062 0,-2.5312 0.77344,-4.5039 2.3281,-5.9219 1.5625,-1.4141 3.7227,-2.125 6.4844,-2.125 0.80078,0 1.5938,0.07422 2.375,0.21875 0.78125,0.13672 1.5547,0.35156 2.3281,0.64062 z"
         id="path56" />
    </symbol>
  </defs>
  <g
     id="g1068"
     transform="translate(-86.798512,-16.798722)">
    <path
       d="m 314.07,320.79 c -4.5781,17.406 -1.2578,35.109 -10.723,49.891 l -2.2461,-0.0547 -0.004,0.004 c -0.77734,-6.5312 -1.0625,-13.113 -0.84766,-19.688 2.25,-21.973 5.0898,-43.883 7.9062,-65.793 0.66406,-2.0859 1.6758,-4.0469 2.9922,-5.8008 1.8594,1.2734 3.625,2.6719 5.2852,4.1914 0.85547,1.1133 1.457,2.4023 1.7617,3.7734 4.5,14.098 9.6406,28.039 13.266,42.359 6.1016,24.098 11.234,48.441 16.766,72.684 v 0.004 c 0.0859,1.0977 0.58203,2.125 1.3867,2.8828 1.2695,-55.805 2.5391,-111.61 3.7734,-165.74 v -0.004 c -8.0117,-7.082 -16.379,-13.754 -25.07,-19.98 -8.1055,-4.6055 -16.469,-8.7422 -25.055,-12.383 -0.625,-0.94531 -1.0703,-2 -1.3125,-3.1094 12.41,-0.79297 19.168,10.039 29.73,13.059 -5.1797,-10.223 -10.066,-19.762 -8.2539,-33.227 -7.5977,-4.4883 -16.633,-9.8242 -25.906,-15.301 4.8555,-1.8555 4.875,-1.8867 11.41,2.2344 3.5781,2.2578 7.1641,4.5273 10.59,7.0039 3.2734,2.3672 6.3477,5.0156 8.5039,6.7383 -2.5781,-7.2852 -4.9844,-15.375 -8.4141,-23.004 -1.9375,-2.3945 -4.5547,-4.1406 -7.5078,-5.0117 -5.8945,-2.75 -11.957,-5.1484 -17.949,-7.6914 l 0.84375,-2.2305 c 7.7969,3.1719 15.594,6.3477 24.797,10.094 -1.3281,-2.6562 -2.1914,-4.3164 -2.9922,-6.0039 -3.8047,-7.9844 -7.9141,-15.848 -11.23,-24.027 l -0.004,-0.004 c -0.61328,-3.2852 -3.4805,-5.6719 -6.8242,-5.6719 -11.277,-0.48047 -22.539,-1.332 -33.801,-2.0859 v -0.004 c -1.5078,-0.0508 -2.918,-0.76171 -3.8594,-1.9375 10.477,-2.9375 21.039,-0.0703 31.418,0.0703 -5.9961,-7.6328 -11.723,-15.328 -17.977,-22.574002 -2.0156,-1.7227 -4.5547,-2.7148 -7.2031,-2.8125 -11.664,-1.2539 -23.363,-2.1523 -35.039,-3.2617 l -0.004,-0.0039 c -1.0078,-0.91406 -1.8555,-1.9883 -2.5156,-3.1797 l 39.898,4.5781 c -2.2422,-11.383 -15.203,-15.211 -12.484,-27.387 11.852,4.3281 23.59,8.6133 35.59,12.996 -1.0039,-4.0273 -2.2305,-9.0078 -3.4961,-13.98 -1.2656,-4.9883 -2.5586,-9.9688 -3.8711,-14.941 -1.9102,-4.5977 -1.9883,-9.75 -0.22656,-14.406 l 2.3867,0.0625 c 2.3203,13.793 4.6367,27.586 7.0469,41.926 2.8516,-4.0664 4.1133,-5.8828 7.457,-0.41797 4.3984,5.6758 9.4258,10.828 14.988,15.363 -3.2344,-14.434 -2.4492,-28.535 -5.082,-42.48 l 3.1992,-0.23437 c 1.9648,17.273 3.9297,34.547 6.0508,53.195 5.457,-4.207 7.7266,-3.4375 9.1445,1.160202 2.168,7.043 4.7969,13.945 7.8867,22.785 2.4102,-12.973 4.4727,-24.090002 6.5391,-35.211002 l 1.1914,0.22656 c -1.6914,16.723002 -3.3828,33.441002 -5.207,51.473002 l 7.2344,-2.8984 c 1.7812,13.766 3.4883,26.965 5.2695,40.73 1.0625,-1.8047 2.0195,-3.4258 4.0078,-6.7969 l 0.008,0.004 c 1.6094,3.0195 2.8281,6.2344 3.6328,9.5664 1.1289,14.332 1.9258,28.691 2.6016,43.051 0.26562,2.3398 -0.33594,4.6992 -1.6875,6.6328 -5.8984,5.832 -5.5195,12.883 -5.6953,20.336 -0.66016,27.719 2.6836,55.504 -2.1484,83.199 -0.89844,9.5469 -1.0508,19.148 -0.45703,28.719 -0.40625,28.812 -1.3594,57.625 -1.1328,86.434 0.15625,20.238 1.8906,40.465 2.9219,60.699 h 2.8516 c 1.1211,-10.344 2.4414,-20.672 3.3242,-31.035 1.4805,-17.363 2.7148,-34.75 3.9961,-52.133 1.0898,-14.801 2.0781,-29.605 3.1367,-44.406 2.4336,-34.059 4.7891,-68.121 7.3594,-102.17 1.0273,-13.617 2.5391,-27.195 3.8828,-41.371 l -6.0039,-1 c 0.99219,-2.4062 1.7695,-4.2969 2.7227,-6.6211 -8.0664,-5.3008 -7.8242,-14.27 -8.9922,-22.527 -1.8711,-13.254 -3.3086,-26.566 -5.1406,-41.594 4.2891,1.543 6.5664,2.3633 11.25,4.0508 -7.6289,-18.223 -14.641,-34.973 -21.434,-51.195 3.3203,0.35547 6.6523,4.5195 10.664,14.984 2.4023,6.2656 4.5977,12.609 7.5312,20.695 1.3555,-7.3984 2.2188,-12.855 3.4102,-18.242 l 0.004,0.004 c 0.64062,-1.9453 1.4805,-3.8203 2.5039,-5.5938 2.0039,0.90234 3.9492,1.9219 5.832,3.0508 0.79688,0.98828 1.8477,1.7422 3.0352,2.1836 -7.8672,-20.801 -18.02,-40.664 -30.281,-59.219 12.328,9.0625 15.695,24.305 24.883,35.453 1.9688,-6.875 4.1172,-13.523 5.6992,-20.305 l 0.004,0.0039 c 0.71484,-3.1602 0.83203,-6.4258 0.33984,-9.625 -1.9648,-12.73 -6.375,-24.957 -12.984,-36.008 -0.80078,-1.457 -0.94141,-3.1875 -0.38281,-4.7539 10.344,11.629 12.027,26.715 16.641,41.777 3.207,-6.8047 5.668,-13.938 7.332,-21.273 2.0938,-11.105 -0.50391,-22.582 -7.168,-31.707 -0.79297,-1.6367 -1.2539,-3.4102 -1.3594,-5.2266 1.9141,0.10156 3.7656,0.71094 5.3672,1.7656 3.5078,6.8164 6.4688,13.918 9.2734,20.156 1.8672,-6.4883 3.8945,-14.367 6.5156,-22.047 v 0.0039 c 1.2773,-1.9766 2.9492,-3.6641 4.9141,-4.9648 1.0742,1.8984 1.875,3.9414 2.3828,6.0625 0.60156,6.5195 0.76562,13.078 1.1875,21.41 9.4883,-11.172 18.066,-21.266 26.645,-31.363 l 1.0391,0.80859 c -9.9961,13.902 -19.996,27.809 -30.629,42.594 8.9102,-1.2656 8.9102,-1.2656 7.8711,14.301 15.031,-13.395 30.617,-27.277 46.203,-41.16 l 1.4766,1.5391 c -18.113,17.031 -38.426,31.992 -50.941,52.746 v -0.0039 c 1.543,1.9141 2.6328,4.1484 3.1797,6.543 -0.44922,4.3828 -1.6016,8.668 -3.4062,12.688 -4.6992,9.9844 -9.957,19.703 -15.074,29.691 v -0.004 c 7.5312,-3.3086 13.777,-8.9883 17.785,-16.172 8.4336,-13.742 19.496,-25.679996 32.551,-35.140996 -24.789,22.671996 -37.812,52.362996 -49.848,81.007996 13.023,-11.422 26.973,-23.656 40.922,-35.887 l 1.5352,1.7188 c -12.07,11.047 -24.141,22.098 -36.91,33.781 3.8242,0.22266 6.3438,0.37109 8.2188,0.48047 -4.7383,11.32 -9.1445,21.84 -13.547,32.359 l 1.375,1.0859 c 6.5859,-6.4375 13.172,-12.871 19.758,-19.309 l 1.1445,1.1406 c -7.8203,8.6172 -15.812,17.09 -23.406,25.902 -5.6953,6.6094 -10.887,13.652 -16.285,20.516 -6.5312,8.3086 -4.6094,18.492 -5.7148,27.859 -2.7539,23.344 -4.9609,46.766 -6.7617,70.203 -1.2617,16.387 -1.4102,32.852 -2.2148,49.277 -0.4375,8.9492 -1.1953,17.879 -1.582,23.504 13.938,-50.484 28.727,-104.05 43.516,-157.61 l 2.2188,-0.36328 v 0.008 c 1.0234,1.8398 1.7461,3.832 2.1367,5.8984 0.37891,21.359 0.13281,42.738 0.97266,64.074 h 0.004 c 0.79688,9.4102 2.2695,18.746 4.3984,27.945 3.3398,18.039 6.8828,36.039 10.516,54.965 -7.6367,-1.207 -7.8359,-6.4727 -8.8789,-10.598 -4.4922,-17.785 -8.5117,-35.688 -13.105,-53.445 -1.6562,-5.0195 -3.6641,-9.9141 -6.0117,-14.648 l -1.9844,0.26562 c -6.6289,25.098 -13.941,50.039 -19.691,75.336 -5.707,25.121 -10.383,50.512 -14.512,75.949 -4.125,25.406 -7.0117,51.012 -10.441,76.531 l -2.6055,0.0195 c -0.98438,-5.6797 -1.9492,-11.363 -2.9531,-17.043 -1.5781,-8.9219 -3.4688,-17.797 -4.6914,-26.766 -1.1094,-8.1094 -1.4219,-16.324 -2.2266,-24.477 -1.8555,-18.832 -4.0195,-37.637 -5.6484,-56.488 -3.0508,-32.297 -11.594,-63.832 -25.262,-93.254 -0.81641,-1.5078 -1.7148,-2.9688 -2.6875,-4.3828 z m 52.762,134.75 2.6992,0.19141 c 4.7109,-24.863 8.7109,-49.891 14.34,-74.543 5.6172,-24.598 12.871,-48.82 19.406,-73.207 l -3.4492,-0.84375 v 0.004 c -16.191,48.168 -27.25,97.91 -33,148.4 z m -52.965,-169.33 -3.293,0.0391 h -0.004 c -3.4531,23.793 -5.3906,47.785 -5.793,71.824 1.3047,-2.2812 2.0859,-4.8203 2.2969,-7.4336 0.97266,-10.465 1.6953,-20.953 2.8086,-31.402 v -0.004 c 0.59766,-1.9258 1.5352,-3.7344 2.7695,-5.332 1.7266,1.2188 3.2188,2.7383 4.4102,4.4844 5.0156,11.816 9.7305,23.762 14.551,35.664 1.1055,2.7266 2.2539,5.4375 3.3828,8.1523 l 2.3906,-0.8125 c -7.8438,-25.059 -15.684,-50.121 -23.523,-75.18 z m 108.13,66.527 c -2.375,-29.695 -4.9531,-61.977 -7.5312,-94.254 v -0.004 c -3.6133,8.7461 -6.5273,17.766 -8.7227,26.969 -0.35938,1.3008 -0.11719,2.6953 0.66016,3.7969 5.9375,3.0742 2.582,7.6133 2.3164,11.805 -0.51172,3.9688 -0.33203,8 0.52344,11.91 2.4023,8.0469 5.9453,15.75 8.5547,23.742 2,6.1328 3.293,12.5 4.1992,16.035 z M 386.61,219.697 c 10.805,-12.422 18.133,-27.473 21.254,-43.641 -7.6133,4.1953 -13.742,10.641 -17.547,18.453 -3.8047,7.8125 -5.1016,16.609 -3.707,25.188 z M 367.2,175.099 c 3.3516,18.512 1.5312,36.418 12.434,51.145 -0.98047,-17.172 3.6562,-35.652 -12.434,-51.145 z m 17.68,7.4336 c 3.8086,-15.109 5.3555,-29.199 -5.6328,-42.297 -5.8398,14.828 -4.1523,27.02 5.6289,42.297 z m -73.555,-53.07 c 0.21875,11.199 14.258,27.84 23.973,29.23 -2.7148,-4.8516 -5.0781,-9.8906 -7.0703,-15.078 -2.6875,-8.5859 -9.0703,-11.812 -16.902,-14.152 z m 15.535,-23.379 v 0.004 c -2.5664,3.2969 -4.0273,7.3203 -4.1758,11.496 -0.15234,4.1758 1.0195,8.293 3.3438,11.766 3.6953,6.2773 7.3125,12.605 10.672,18.406 1.6289,-6.9727 -2.7695,-26.328 -9.8398,-41.668 z m 23.211,126.11 c 0.69922,-12.355 -12.109,-31.887 -22.258,-34.695 4.5547,13.355 9.9922,25.633 22.258,34.695 z m 7.9141,-4.2656 v 0.004 c 3,-13.09 2.2031,-26.762 -2.2969,-39.414 -4.9609,12.855 -4.1211,27.223 2.2969,39.414 z m -57.016,-144.74 c -4.2617,10.891 2.1484,18.684 15.664,24.922 -1.125,-11.031 -3.8242,-20.496 -15.664,-24.922 z m -11.484,2.9258 c -3.8516,-12.055 -15.133,-11.523 -24.473,-14.262 6.1328,7.9219 8.4336,21.949 24.473,14.262 z m -1.6719,16.34 c 2.1953,9.4336 21.344,19.82 28.234,14.598 -7.1523,-8.3555 -17.281,-13.59 -28.23,-14.598 z m 116.87,-3.7188 c 8.1641,-8.4336 12.586,-19.805 12.262,-31.539 -9.0703,4.5586 -14.215,16.922 -12.262,31.539 z m -78.582,65.555 -2.4141,1.418 20.168,31.988 c -0.31641,-14.34 -5.0898,-26.125 -17.754,-33.406 z m 72.629,-32.066 c 10.809,-9.4648 13.824,-21.219 17.449,-32.668 -9.4102,8.4727 -18.012,17.371 -17.449,32.668 z m 12.109,6.6758 c -13.633,9.0938 -15.949,21.926 -17.957,34.91 7.0898,-10.441 15.125,-20.41 17.957,-34.91 z m -63.512,41.684 c 2.0938,-10.336 1.2969,-21.047 -2.2969,-30.961 -7.8438,11.809 -4.0039,21.457 2.2969,30.961 z m 43.832,-79.219 -2.3398,0.30469 c -2.1211,4.5117 -2.8945,9.543 -2.2227,14.484 0.66797,4.9414 2.75,9.5859 5.9961,13.371 z m -112.72,-8.4531 c 5.7656,1.4531 11.531,2.9062 18.02,4.5391 -4.582,-8.3047 -7.2656,-9.1289 -18.02,-4.5391 z m 133.54,-50.734 -2.8984,-0.29297 c -0.66406,5.9414 -1.3281,11.883 -1.9961,17.824 l 3.2227,0.32422 c 0.55859,-5.9492 1.1172,-11.902 1.6719,-17.855 z"
       id="path61" />
  </g>
</svg>
